<svg xmlns="http://www.w3.org/2000/svg" width="130.783" height="203.762" viewBox="0 0 130.783 203.762"><defs><style>.a{fill:#e0e0e0;}.b{fill:#37474f;}.c{fill:#455a64;}.d,.p{fill:#ff725e;}.e,.f,.l,.u{fill:#fff;}.e,.p{opacity:0.5;}.f,.o,.v{opacity:0.3;}.g{fill:#9a4a4d;}.h{opacity:0.25;}.i{fill:#263238;}.j,.l{opacity:0.15;}.k{fill:#b16668;}.m{opacity:0.1;}.n{fill:#f28f8f;}.q{fill:#fafafa;}.r{fill:#ebebeb;}.s{opacity:0.7;}.t,.u{opacity:0.2;}.w{opacity:0.45;}</style></defs><g transform="translate(-140.992 -253.34)"><ellipse class="a" cx="34.18" cy="19.73" rx="34.18" ry="19.73" transform="translate(155.91 400.33)"/><path class="b" d="M188.85,432.09h0V356.85h2.47v75.24h0a.58.58,0,0,1-.35.57,2,2,0,0,1-1.75,0A.59.59,0,0,1,188.85,432.09Z"/><path class="b" d="M171.29,423.64h0V351.52h2.47v72.12h0a.56.56,0,0,1-.35.56,1.93,1.93,0,0,1-1.75,0A.57.57,0,0,1,171.29,423.64Z"/><path class="b" d="M209,423.64h0V351.52h-2.5v72.12h0a.56.56,0,0,0,.35.56,1.93,1.93,0,0,0,1.75,0,.56.56,0,0,0,.4-.56Z"/><path class="c" d="M173.78,334.62c8.87-5.13,23.26-5.13,32.13,0,4.43,2.56,6.65,5.92,6.65,9.27V348c0,3.35-2.22,6.71-6.65,9.27-8.87,5.12-23.26,5.12-32.13,0-4.44-2.56-6.65-5.92-6.65-9.27v-4.13C167.13,340.54,169.34,337.18,173.78,334.62Z"/><path class="d" d="M173.78,332.61c8.87-5.12,23.26-5.12,32.13,0,4.43,2.57,6.65,5.92,6.65,9.28V346c0,3.36-2.22,6.72-6.65,9.28-8.87,5.12-23.26,5.12-32.13,0-4.44-2.56-6.65-5.92-6.65-9.28v-4.12C167.13,338.53,169.34,335.18,173.78,332.61Z"/><path class="e" d="M173.78,332.61c8.87-5.12,23.26-5.12,32.13,0,4.43,2.57,6.65,5.92,6.65,9.28V346c0,3.36-2.22,6.72-6.65,9.28-8.87,5.12-23.26,5.12-32.13,0-4.44-2.56-6.65-5.92-6.65-9.28v-4.12C167.13,338.53,169.34,335.18,173.78,332.61Z"/><ellipse class="f" cx="22.72" cy="13.12" rx="22.72" ry="13.12" transform="translate(167.12 328.77)"/><path class="b" d="M190.09,416.18a30.85,30.85,0,0,1-15.08-3.6c-4.14-2.39-6.42-5.6-6.42-9s2.28-6.65,6.42-9c8.31-4.8,21.84-4.8,30.15,0,4.14,2.39,6.42,5.6,6.42,9s-2.28,6.65-6.42,9a30.79,30.79,0,0,1-15.07,3.6Zm0-24.13a29.64,29.64,0,0,0-14.5,3.46c-3.76,2.17-5.83,5-5.83,8s2.07,5.86,5.83,8c8,4.61,21,4.61,29,0,3.76-2.17,5.83-5,5.83-8s-2.07-5.86-5.83-8a29.63,29.63,0,0,0-14.5-3.46Z"/><path class="c" d="M187.82,330.4a.924.924,0,0,0,1-.67c1.88-21-3-40.06-4.83-44.28a1,1,0,0,0-1.26-.42.88.88,0,0,0-.44,1.16c2.1,4.73,6.43,23.95,4.68,43.5,0,.38.32.66.8.71Z"/><path class="d" d="M160.14,304l23.66-13.66,1,.56a112.348,112.348,0,0,1,2.71,14.5.57.57,0,0,1-.28.57l-21.6,12.47-1-.56A143.991,143.991,0,0,0,160.14,304Z"/><path class="e" d="M160.14,304l23.66-13.66,1,.56a112.348,112.348,0,0,1,2.71,14.5.57.57,0,0,1-.28.57l-21.6,12.47-1-.56A143.991,143.991,0,0,0,160.14,304Z"/><path class="f" d="M184.76,290.89l-.96-.56-23.66,13.66.97.56Z"/><path class="c" d="M168.79,341.79c.49,0,.88-.17.88-.5,0-18.49-7.34-36.44-9.58-41.5a.882.882,0,1,0-1.61.72c2.21,5,9.45,22.64,9.44,40.78C167.92,341.48,168.31,341.79,168.79,341.79Z"/><path class="a" d="M213.44,423.41c-13.35,7.71-13.35,20.2,0,27.91s35,7.71,48.33,0,13.35-20.2,0-27.91S226.79,415.71,213.44,423.41Z"/><path class="g" d="M193.8,288.25c5.44-.19,7,.33,8.78,2.83,2.42,3.32,7.1,16.65,8.53,23.26C211.5,316.15,203,320,203,320l-4.84-12Z"/><path class="d" d="M193.77,288.13c1.15,0,4.67-.32,6.71.78s2.93,3.27,3.67,4.7c1.5,2.94,3.73,9.13,3.73,9.13a21.15,21.15,0,0,1-10.13,5.38l-3.59-8.46Z"/><path class="h" d="M193.77,288.13c1.15,0,4.67-.32,6.71.78s2.93,3.27,3.67,4.7c1.5,2.94,3.73,9.13,3.73,9.13a21.15,21.15,0,0,1-10.13,5.38l-3.59-8.46Z"/><path class="d" d="M198,381.91l1.31.13,1-1.37c.47-.65,1.26-.91,1.43-.59,0,0,.93-1.81-.52-2S198,381.91,198,381.91Z"/><path class="i" d="M200.54,372.8c-.66,1.2-.56,3.45-1.34,4.95a24.718,24.718,0,0,1-1.78,2.84l.59,1.32,1.6-2.22c.73-1,1.84-.92,2-.2a6.21,6.21,0,0,0,.53-3.33,5.22,5.22,0,0,0-1.6-3.36Z"/><path class="i" d="M205.76,370.66a5.44,5.44,0,0,0-5.18,2,7.53,7.53,0,0,0,.52,5,17.52,17.52,0,0,1,.66,7.11c-.3,3.24-1.51,6.1,0,8.44,2.36,3.64,8.23,7.07,8.42,3.2a51.6,51.6,0,0,0-.47-8.11c-.55-5.86-.9-11.66-.9-11.66Z"/><path class="j" d="M201.51,371.74c-.25,1.9.59,6.54,2.88,11s5.48,10,6,13.05a34.768,34.768,0,0,0-.52-6.17v-.54a1.1,1.1,0,0,1,0-.18,1.634,1.634,0,0,0-.05-.49h0c-.17-1.83-.32-3.66-.45-5.3-.1-1.32-.19-2.51-.26-3.51a8.554,8.554,0,0,0-.09-1.32v-.53a5.8,5.8,0,0,0-.07-1l-3.06-6a5.007,5.007,0,0,0-.5-.07,5.71,5.71,0,0,0-3.88,1.06Z"/><path class="k" d="M204.63,375.23a55,55,0,0,1,.07,8.54c-.26,3.1.26,5.18,1.24,6.64s4,2.67,3.84-.55c-.09-2.25-1-13.17-1-13.17Z"/><path class="g" d="M209,391.82c.48-.25.81-.84.76-2,0-.51-.08-1.46-.16-2.63-.13-1.45-.25-2.87-.35-4.18s-.19-2.51-.26-3.51a8.554,8.554,0,0,0-.09-1.32v-.53a4.959,4.959,0,0,0-.07-1h0l-4.19-1.46a58.452,58.452,0,0,1,.11,8.13C206.15,386.06,207.84,389.17,209,391.82Z"/><path class="k" d="M229.42,344.66c-1.81-2.57-3.07-3.58-11-9.24a187.515,187.515,0,0,0-16.11-10L193,335.91l8.6,8.12,13.07,8.06a17.44,17.44,0,0,0-3.37,5.24c-.45,1.05-4.47,12.76-4.47,12.76l6.82,7.85s9.55-15,13.72-22.29C231.32,348.79,230.1,345.62,229.42,344.66Z"/><path class="g" d="M216.48,373.4c-.1-2.28-.22-4.88-.35-7.3h0v-.82c-.06-1-.11-1.92-.17-2.78v-.09c0-.42-.06-.83-.09-1.21h0c-.07-1-.14-1.81-.21-2.39a14.47,14.47,0,0,0-1.92-5.54h0l-.23.3h0c-.07.1-.15.2-.22.31v.06l-.23.33v.07c-.08.12-.16.24-.23.36l-.05.07c-.08.13-.16.26-.23.4a.209.209,0,0,0,0,.06l-.25.44h0l-.26.49h0c-.09.17-.18.36-.27.55l1.42,6.62h0L215.47,375Z"/><path class="g" d="M211.67,350.23c-.69-.9-1.43-1.77-2.16-2.59-2.76-3.13-8.82-9.56-8.82-9.56l-1.7.16,5.22,7.39Z"/><path class="d" d="M212.39,415.34l1.14-.66V413c0-.81.5-1.48.82-1.32,0,0-.3-2-1.61-1.34S212.39,415.34,212.39,415.34Z"/><path class="i" d="M209.12,406.47c.16,1.36,1.56,3.12,1.8,4.79a23.073,23.073,0,0,1,.22,3.35l1.25.73V412.6c0-1.25.81-1.7,1.36-1.2a5.61,5.61,0,0,0-1.37-3.15,5.18,5.18,0,0,0-3.26-1.78Z"/><path class="i" d="M210.71,399.78c-.63-.08-.74,1-1.21,2.33a6.94,6.94,0,0,0-.47,4.07c.4,1.76,2.6,2.62,4.29,4.68,3.32,4,3.32,6.93,6,8.48,4.35,2.51,8.56,1.77,10.06.9,3.73-2.15,1.43-3-1.09-5.13a23.27,23.27,0,0,1-4.23-4.93Z"/><path class="k" d="M226.48,413.32c-.39-.53-1.56-2-2-2.65a42.23,42.23,0,0,1-4.8-9.91,76.169,76.169,0,0,1-2-11h0s-3-28.82-4-33.19S197.77,337,197.77,337s2.81-6.83,4.51-11.61l-28.25.16c-1.4,4.83-2.39,6.48-1.19,11.62s6.51,9.77,13,14.39c5.4,3.82,12.66,9.11,14.17,10.2,1.33,1,2.11,2.08,2,5.24s0,8.28,4.71,19a101,101,0,0,1,3.93,11.55,7.42,7.42,0,0,1-.07,2.92,3.14,3.14,0,0,0,.6,2.09,22.458,22.458,0,0,0,1.45,1.92c1.37,1.66,3.93,5.38,5.68,8,2.52,3.82,7.11,3.48,8.26,2.56C227.22,414.64,226.82,413.79,226.48,413.32Z"/><path class="d" d="M202.28,325.42c-.33-1.88-1.57-4-1.74-6a79.846,79.846,0,0,1,.08-9.82c4.18-4.8,3.16-8.77,2.13-10.82-1.92-3.81-9-10.64-9-10.64l-3.9.24a34.352,34.352,0,0,0-8.8,1.45l-5.89,1.45a22.93,22.93,0,0,1,.73,10.21,20.079,20.079,0,0,1-2.17,5.87L175,312h0s1.52,4.26,1.91,5.8c.27,1.05-.77,2.86-1.25,3.7a24.551,24.551,0,0,0-2.7,6.58c-1.34,4.62-1.57,10.5,2.1,15.15s22.84,17,22.84,17,.33-5.38,5.62-10.73,16-10.47,21.15-9.53c0,0-5.72-4.44-11-8A113.886,113.886,0,0,0,202.28,325.42Z"/><path class="l" d="M202.28,325.42c-.33-1.88-1.57-4-1.74-6a79.846,79.846,0,0,1,.08-9.82c4.18-4.8,3.16-8.77,2.13-10.82-1.92-3.81-9-10.64-9-10.64l-3.9.24a34.352,34.352,0,0,0-8.8,1.45l-5.89,1.45a22.93,22.93,0,0,1,.73,10.21,20.079,20.079,0,0,1-2.17,5.87L175,312h0s1.52,4.26,1.91,5.8c.27,1.05-.77,2.86-1.25,3.7a24.551,24.551,0,0,0-2.7,6.58c-1.34,4.62-1.57,10.5,2.1,15.15s22.84,17,22.84,17,.33-5.38,5.62-10.73,16-10.47,21.15-9.53c0,0-5.72-4.44-11-8A113.886,113.886,0,0,0,202.28,325.42Z"/><path class="m" d="M194.16,309.67s-2.38,3-7.5,2.12-6.13-4.72-6.13-4.72-.31,5,5.82,6S194.16,309.67,194.16,309.67Z"/><path class="i" d="M200.53,271.29c0-.64.65-1.06,1.07-1.54a3.23,3.23,0,0,0,.64-2.74,2.5,2.5,0,0,0-.9-1.11c-.13-.1-1-.73-1.21-.58a1.81,1.81,0,0,0,.51-1.8,1.79,1.79,0,0,0-1.41-1.21,2.84,2.84,0,0,0,0-3.17,4.27,4.27,0,0,0-2.78-1.75,9,9,0,0,0-3.35.1,2.38,2.38,0,0,0-1.9-2.73,3.49,3.49,0,0,0-3.28,1.38,2.57,2.57,0,0,0-2.56-1.33,3.92,3.92,0,0,0-2.58,1.53,2,2,0,0,0-.43-3,1.88,1.88,0,0,1-.49,2c-1.11,1-3,.36-4.28,1.07a2.36,2.36,0,0,0-1.05,2.8,3.8,3.8,0,0,0-4.27.56,2.94,2.94,0,0,0,0,4.11,3.13,3.13,0,0,0-2.22,5.74c-1.15.63-2.33,2-1.45,3.42.41.63,1.35.78,1.71,1.44a1.14,1.14,0,0,1-1,1.61,1.55,1.55,0,0,0,2-.23,2.4,2.4,0,0,0,.25,2.86,3,3,0,0,0,2.64.77,2,2,0,0,0,.2,2.78,3.34,3.34,0,0,0,2.57.91,1.36,1.36,0,0,0,.36,1.76,7.479,7.479,0,0,0,1.38.66,1.4,1.4,0,0,1,.91,1.09c.07.55-.41,1.17-.95,1.06a2.73,2.73,0,0,0,3.13-.56,5,5,0,0,0,.87-2c2.86-.71,7.31-5.14,8.83-6.85.53-.6.82-1.53,1.31-2.19a11.878,11.878,0,0,1,1.25-1.49,5.621,5.621,0,0,1,1.61-.84,6.209,6.209,0,0,1,1.74-.61,2.16,2.16,0,0,0,1.68-1.9,1.74,1.74,0,0,0,1.13,1.76,1.46,1.46,0,0,0,1.8-.9,1,1,0,0,1-1.48-.88Z"/><path class="k" d="M195,263.74a7.061,7.061,0,0,1,1.62,2.57,27.17,27.17,0,0,1,1.62,9.91c.11,6.95-2.07,8.76-3.18,9.29a8.45,8.45,0,0,1-4.76.44l.13,3.28s2.65,1.78,2.54,3.7-4.23,2.69-7.75,1.23c-3.79-1.56-4.9-3-4.9-3V280.9a2.53,2.53,0,0,1-3-.2c-1.85-1.65-2.22-4.31-1-5.83s3.31-.89,4.28.34c1-.19,2.28-.51,2.73-1.52a3.06,3.06,0,0,0,.1-1.94,2.17,2.17,0,0,0,1.79.23,1.57,1.57,0,0,0,.7-.49c.06-.08.43-.68.31-.76a1.44,1.44,0,0,0,1.74-.22,2.09,2.09,0,0,0,.54-1.75c0,.14.54.29.65.32a2,2,0,0,0,.77.06,1,1,0,0,0,.9-.87,1.86,1.86,0,0,0,.06.91,1.17,1.17,0,0,0,.56.6,1.64,1.64,0,0,0,1,.17,1.11,1.11,0,0,0,.39-.2c.12-.11.14-.25.24-.36a.72.72,0,0,1-.53.25.51.51,0,0,1-.48-.3c-.13-.29.08-.61.29-.85a4.241,4.241,0,0,0,.76-.93,1,1,0,0,0-.12-1.12,1.5,1.5,0,0,0,1.5-.74A4.07,4.07,0,0,0,195,263.74Z"/><path class="i" d="M196.52,271.37l-2.06-.65a1,1,0,0,1,1.32-.72,1.13,1.13,0,0,1,.74,1.37Z"/><path class="i" d="M180.6,277.68h0l-.14-3.65,2.33-.09.05,1.32a2.33,2.33,0,0,1-2.24,2.42Z"/><path class="i" d="M189,274a.94.94,0,0,1-.84,1.05,1,1,0,0,1-1-.89A.93.93,0,1,1,189,274Z"/><path class="i" d="M196.33,273.86a.93.93,0,1,1-1-.88.94.94,0,0,1,1,.88Z"/><path class="g" d="M189.22,279.8l3.29.91a1.68,1.68,0,0,1-2.07,1.25,1.78,1.78,0,0,1-1.22-2.16Z"/><path class="n" d="M191.05,282a1.53,1.53,0,0,0-1.53-1.51h-.33a1.77,1.77,0,0,0,1.25,1.43A1.6,1.6,0,0,0,191.05,282Z"/><path class="g" d="M191.18,272.89l.5,5.85,2.98-1.31Z"/><path class="g" d="M190.25,286c-2.24-.2-7.07-1.73-7.86-3.52a3.66,3.66,0,0,0,1.23,2.46c1.68,1.48,6.69,2.45,6.69,2.45Z"/><path class="d" d="M181.77,281.83a2.59,2.59,0,0,1-1.5,2.45,2.32,2.32,0,0,1-1,.24,2.6,2.6,0,0,1-2.25-4,1.141,1.141,0,0,0,.22.22,2.249,2.249,0,0,0,.45.33,1.68,1.68,0,0,0-.28,1,1.75,1.75,0,0,0,1.82,1.67,1.72,1.72,0,0,0,1-.38,1.74,1.74,0,0,0-1.15-3.1.43.43,0,0,1,0-.85,2.6,2.6,0,0,1,2.69,2.42Z"/><g class="o"><path d="M181.77,281.83a2.59,2.59,0,0,1-1.5,2.45,2.32,2.32,0,0,1-1,.24,2.6,2.6,0,0,1-2.25-4,1.141,1.141,0,0,0,.22.22,2.249,2.249,0,0,0,.45.33,1.68,1.68,0,0,0-.28,1,1.75,1.75,0,0,0,1.82,1.67,1.72,1.72,0,0,0,1-.38,1.74,1.74,0,0,0-1.15-3.1.43.43,0,0,1,0-.85,2.6,2.6,0,0,1,2.69,2.42Z"/></g><path class="c" d="M218.19,307.1h0l-.7-.59h0a.81.81,0,0,0-.72-.08l-7.51,2.14a2.81,2.81,0,0,0-1.67,1.6l-5.24,15.71a.7.7,0,0,0,.11.79h0l.72.61h0a.8.8,0,0,0,.72.07l7.51-2.14a2.7,2.7,0,0,0,1.67-1.6l5.24-15.7C218.47,307.53,218.4,307.24,218.19,307.1Z"/><path class="i" d="M209.17,309.62a2.66,2.66,0,0,0-.86,1.16l-5.24,15.69a.76.76,0,0,0,.09.79l-.68-.57h0a.71.71,0,0,1-.11-.8l5.24-15.7a2.63,2.63,0,0,1,.79-1.1Z"/><path class="b" d="M203.08,326.48l5.23-15.7a2.79,2.79,0,0,1,1.68-1.61l7.5-2.13c.7-.2,1.08.19.85.88l-5.24,15.7a2.7,2.7,0,0,1-1.67,1.6l-7.51,2.14C203.23,327.56,202.85,327.16,203.08,326.48Z"/><path class="g" d="M216.64,313c1.32-.33,2.07,1.1,1.87,3.54s-1.81,6.91-5.53,5.63c-1.45-.5-2.41-3-.83-4a25.559,25.559,0,0,0,3.69-2.73Z"/><path class="k" d="M172.81,325.91A117.362,117.362,0,0,1,168,308.4c-2-10.18-.21-15,7.23-17,3.58,6.47,3.5,16,3.5,16,.56,3.72,3.25,13.72,3.25,13.72,7.65-.87,16.61-2.34,18.05-3a8.43,8.43,0,0,0,2.08-2.09,5.38,5.38,0,0,1,2-1.66c1-.47,1.79-.75,2.5-1.1l-1.09,3.28c.07.2.5.26.7.33a12.18,12.18,0,0,0,4.55.74c3.24-.12,6.34-2.35,5.61.48a8.24,8.24,0,0,1-2.6,4.64c-1.74,1.36-8.06,1.78-9.86,2.54,0,0-12.46,4.61-19.56,6S174.89,332.4,172.81,325.91Z"/><path class="d" d="M175.18,291.27a13.55,13.55,0,0,0-5.81,3.07A11,11,0,0,0,167,302.5c.29,3.24,1.66,9.87,1.66,9.87a25.55,25.55,0,0,0,11-.82l-.83-5.09S178.94,295.54,175.18,291.27Z"/><path class="h" d="M175.18,291.27a13.55,13.55,0,0,0-5.81,3.07A11,11,0,0,0,167,302.5c.29,3.24,1.66,9.87,1.66,9.87a25.55,25.55,0,0,0,11-.82l-.83-5.09S178.94,295.54,175.18,291.27Z"/><path class="b" d="M248.72,428.45c-6.21-3.58-16.28-3.58-22.49,0-3.11,1.8-4.66,4.15-4.66,6.5v1.57c.05,2.31,1.6,4.62,4.66,6.38,6.21,3.59,16.28,3.59,22.49,0,3.08-1.77,4.63-4.09,4.66-6.42v-1.57C253.36,432.57,251.81,430.24,248.72,428.45Z"/><path class="c" d="M226.23,441.44c-6.22-3.58-6.22-9.4,0-13s16.28-3.58,22.49,0,6.22,9.41,0,13S232.44,445,226.23,441.44Z"/><path class="b" d="M239.24,433.58h0V353.3H235.7v80.28h0a.85.85,0,0,0,.5.82,2.78,2.78,0,0,0,2.51,0,.85.85,0,0,0,.53-.82Z"/><path class="c" d="M259.64,330.21c-12.24-7.06-32.09-7.06-44.33,0-6.13,3.54-9.18,8.17-9.18,12.8v2.28c0,4.64,3.05,9.27,9.18,12.8,12.24,7.07,32.09,7.07,44.33,0,6.13-3.53,9.18-8.16,9.18-12.8V343C268.82,338.38,265.77,333.75,259.64,330.21Z"/><path class="d" d="M259.64,327.45c-12.24-7.07-32.09-7.07-44.33,0-6.13,3.54-9.18,8.17-9.18,12.8v2.28c0,4.63,3.05,9.26,9.18,12.8,12.24,7.07,32.09,7.07,44.33,0,6.13-3.54,9.18-8.17,9.18-12.8v-2.28C268.82,335.62,265.77,331,259.64,327.45Z"/><path class="p" d="M259.64,327.45c-12.24-7.07-32.09-7.07-44.33,0-6.13,3.54-9.18,8.17-9.18,12.8v2.28c0,4.63,3.05,9.26,9.18,12.8,12.24,7.07,32.09,7.07,44.33,0,6.13-3.54,9.18-8.17,9.18-12.8v-2.28C268.82,335.62,265.77,331,259.64,327.45Z"/><ellipse class="f" cx="31.35" cy="18.1" rx="31.35" ry="18.1" transform="translate(206.13 322.15)"/><path class="a" d="M235.08,336.34c-5.55-3.21-14.55-3.21-20.1,0h0v-.58c-2.9,1.68-4.28,3.9-4.15,6.09-.13,2.2,1.25,4.42,4.15,6.09,5.55,3.21,14.55,3.21,20.1,0S240.63,339.54,235.08,336.34Z"/><path class="d" d="M235.08,335.76c5.55,3.2,5.55,8.4,0,11.6s-14.55,3.21-20.1,0-5.55-8.4,0-11.6S229.53,332.55,235.08,335.76Z"/><path class="q" d="M235.08,335.76c5.55,3.2,5.55,8.4,0,11.6s-14.55,3.21-20.1,0-5.55-8.4,0-11.6S229.53,332.55,235.08,335.76Z"/><path class="a" d="M218.22,338.15c-3.82,2.2-3.82,5.77,0,8a15.27,15.27,0,0,0,13.81,0c3.82-2.21,3.82-5.78,0-8a15.27,15.27,0,0,0-13.81,0Z"/><path class="r" d="M218.69,338.42c-3.56,2.06-3.56,5.38,0,7.44a14.24,14.24,0,0,0,12.87,0c3.56-2.06,3.56-5.38,0-7.44a14.24,14.24,0,0,0-12.87,0Z"/><path class="j" d="M216,344.79c0,.38,0,.79.4.79l18.62-.06c.78,0,.89-.49.53-1.67s-2.38-4.79-5.47-5.47Z"/><path class="i" d="M216,337.79v7.15a.41.41,0,0,0,.46.4L233,343.1a.84.84,0,0,0,.74-.84v-6.93a.42.42,0,0,0-.16-.33l-8.44-6.31a.83.83,0,0,0-1.09.1l-7.8,8.53A.72.72,0,0,0,216,337.79Z"/><path class="c" d="M228.85,330.11a20.38,20.38,0,0,0-3.73-1.66,1,1,0,0,0-1.05.27l-7.9,8.64a.08.08,0,0,0,.06.13l17.17-2.33c.29,0,.29.17.29.17h0a.85.85,0,0,0-.08-.39,10.86,10.86,0,0,0-4.76-4.83Z"/><g class="s"><path class="d" d="M216.46,345.34l16.08-2.18v-2a.67.67,0,0,0-.78-.68L216,342.6V345a.4.4,0,0,0,.46.34Z"/><path class="d" d="M231.76,339.38a.93.93,0,0,0,.78-.89v-1.22a.67.67,0,0,0-.78-.68L216,338.71v2.8Z"/></g><path class="t" d="M223.63,331.46a5.51,5.51,0,0,1,5,0c1.37.8,1.37,2.08,0,2.87a5.45,5.45,0,0,1-5,0C222.25,333.54,222.25,332.26,223.63,331.46Z"/><path class="d" d="M227,329.38a5.589,5.589,0,0,1,1.86,1.09,2,2,0,0,1,.46,2.32,2.06,2.06,0,0,1-1.81,1.11,5.17,5.17,0,0,0,0-2.2A16.05,16.05,0,0,1,227,329.38Z"/><path class="u" d="M227,329.38a5.589,5.589,0,0,1,1.86,1.09,2,2,0,0,1,.46,2.32,2.06,2.06,0,0,1-1.81,1.11,5.17,5.17,0,0,0,0-2.2A16.05,16.05,0,0,1,227,329.38Z"/><path class="g" d="M225.54,329.33c-.27.37-1.19.58-1.81,1s-.93.67-1.09,1.2a1.34,1.34,0,0,0,.64,1.64c.7.33,2.11-.8,2.26-1.2a15.071,15.071,0,0,0,0-2.64Z"/><path class="d" d="M225.54,329.33c-.27.37-1.19.58-1.81,1s-.93.67-1.09,1.2a1.34,1.34,0,0,0,.64,1.64c.7.33,2.11-.8,2.26-1.2a15.071,15.071,0,0,0,0-2.64Z"/><path class="d" d="M226,328.63a1.32,1.32,0,0,0-.47,1.19,2.09,2.09,0,0,1-1.23,2.11c-1.12.59-1.25,1.18-.66,1.7a1.85,1.85,0,0,0,1.36.4s1.66-.38,2-1.62a4.54,4.54,0,0,0-1-3.78Z"/><path class="u" d="M226,328.63a1.32,1.32,0,0,0-.47,1.19,2.09,2.09,0,0,1-1.23,2.11c-1.12.59-1.25,1.18-.66,1.7a1.85,1.85,0,0,0,1.36.4s1.66-.38,2-1.62a4.54,4.54,0,0,0-1-3.78Z"/><path class="d" d="M226.11,334.39c-1.08,0-1.51-.47-1-1.08.25-.31.7-.43,1-.75a1.89,1.89,0,0,0,.57-1.17c.1-1.1-1.23-2.24-.46-3.2.09.52.31.82,1.08,1.45a3.07,3.07,0,0,1,.95,3.4,2.54,2.54,0,0,1-2.14,1.35Z"/><path class="f" d="M226.11,334.39c-1.08,0-1.51-.47-1-1.08.25-.31.7-.43,1-.75a1.89,1.89,0,0,0,.57-1.17c.1-1.1-1.23-2.24-.46-3.2.09.52.31.82,1.08,1.45a3.07,3.07,0,0,1,.95,3.4,2.54,2.54,0,0,1-2.14,1.35Z"/><path class="t" d="M228.35,333.28a2.42,2.42,0,0,0,.05-1.23,2,2,0,0,1-1.63,1.6,3,3,0,0,1-1.1.12c-.42,0-.66-.2-.64-.36a.35.35,0,0,1,.05-.08l.07-.08h0l.1-.07h0l.2-.12c.12-.08.24-.15.31-.21h.05l.08-.07h0l.07-.07.11-.12v-.07h0l.08-.11a.748.748,0,0,0,.07-.12,1.439,1.439,0,0,0,.15-.33v-.07h0a2.33,2.33,0,0,1-1.25,1.09,2.54,2.54,0,0,1-1.46.16c-.46-.07-.48-.32-.48-.35h0a2.34,2.34,0,0,1,.84-.65,3.348,3.348,0,0,0,.5-.34,3.058,3.058,0,0,1-.61.28,2.84,2.84,0,0,1-1.09.11c-.4-.08-.47-.28-.4-.57v.1a1.34,1.34,0,0,0,.64,1.64h0a1,1,0,0,0,.33.48,1.85,1.85,0,0,0,1.36.4h0a1.42,1.42,0,0,0,1.14.36,2.69,2.69,0,0,0,1.37-.49h0a2.06,2.06,0,0,0,1.81-1.11,1.89,1.89,0,0,0,.19-1h0a1.57,1.57,0,0,1-.91,1.28Z"/><path class="j" d="M253.43,337.9c2.25,1.3,2.25,3.4,0,4.7a9,9,0,0,1-8.15,0c-2.25-1.3-2.25-3.4,0-4.7A9,9,0,0,1,253.43,337.9Z"/><path class="a" d="M255.77,338.81a4,4,0,0,0,1.53-.21,3.77,3.77,0,0,0,1.81-2.24c.46-1.06,1.19-3.38.67-4.58-.65-1.52-2.49-1.57-3.71-1.61h-.42l-.07,1.45c.14,0,.38.05.53.05.69,0,2.2.26,2.37.65.57.94-.88,4.56-1.52,5a5.77,5.77,0,0,1-2.36,0l-.48,1.21a5.281,5.281,0,0,0,1.65.28Z"/><path class="r" d="M242.94,328.42c.14-.62.75-1.23,1.83-1.72a13.07,13.07,0,0,1,9.12-.09c1.1.46,1.72,1.05,1.87,1.67h0c.47,4.07-.21,8.8-1.63,11.42v.1h0a3.14,3.14,0,0,1-1.18,1.13A7.62,7.62,0,0,1,246,341a3.14,3.14,0,0,1-1.21-1.11h0v-.06c-1.48-2.6-2.25-7.31-1.87-11.38Z"/><path class="q" d="M244.77,326.7c-2.5,1.12-2.48,2.9,0,4a13,13,0,0,0,9.11-.09c2.51-1.12,2.49-2.9,0-4A13.07,13.07,0,0,0,244.77,326.7Z"/><path class="a" d="M245.66,327.38c-2,.74-2,1.9,0,2.59a12.9,12.9,0,0,0,7.36-.08c2-.74,2-1.89,0-2.59a12.9,12.9,0,0,0-7.36.08Z"/><path class="c" d="M245.68,328.94a3.841,3.841,0,0,0-1,.53,4,4,0,0,0,1,.5,12.9,12.9,0,0,0,7.36-.08,3.931,3.931,0,0,0,1-.52,3.72,3.72,0,0,0-1-.5,12.9,12.9,0,0,0-7.36.07Z"/><path class="d" d="M141,422.48l1.63-30a2.68,2.68,0,0,1,1.18-1.93l.93-.54a.81.81,0,0,1,.83-.06h0l31.31,18.08-4.31,33.2L141.31,423.2h0a.75.75,0,0,1-.31-.72Z"/><path class="v" d="M141,422.48l1.63-30a2.68,2.68,0,0,1,1.18-1.93l.93-.54a.81.81,0,0,1,.83-.06h0l31.31,18.08-4.31,33.2L141.31,423.2h0a.75.75,0,0,1-.31-.72Z"/><path class="d" d="M178.07,438.45l-4.72,2.73c-.62.35-1.08.06-1-.64l1.62-30a2.66,2.66,0,0,1,1.19-1.92l.93-.54a.72.72,0,0,1,1.18.64l1.89,27.78a2.29,2.29,0,0,1-1.09,1.95Z"/><path class="w" d="M178.07,438.45l-4.72,2.73c-.62.35-1.08.06-1-.64l1.62-30a2.66,2.66,0,0,1,1.19-1.92l.93-.54a.72.72,0,0,1,1.18.64l1.89,27.78a2.29,2.29,0,0,1-1.09,1.95Z"/><path class="d" d="M161.59,432.16a.43.43,0,0,0,.43-.41l.83-14a.44.44,0,0,0-.4-.45.43.43,0,0,0-.45.4l-.83,14a.43.43,0,0,0,.4.46Z"/><path class="d" d="M149.6,425.27a.43.43,0,0,0,.43-.41l.83-14a.431.431,0,0,0-.86-.05l-.82,14a.43.43,0,0,0,.4.46Z"/><path class="d" d="M169.89,424.4a2.27,2.27,0,0,0,3.4-1.84l.64-12a2.64,2.64,0,0,1,1.19-1.92l.93-.54a.83.83,0,0,1,.76-.1L145.6,390h0a.79.79,0,0,0-.82.06l-.94.54a2.66,2.66,0,0,0-1.18,1.93L142,404.36a6.27,6.27,0,0,0,3.12,5.77Z"/><path class="j" d="M169.89,424.4a2.27,2.27,0,0,0,3.4-1.84l.64-12a2.64,2.64,0,0,1,1.19-1.92l.93-.54a.83.83,0,0,1,.76-.1L145.6,390h0a.79.79,0,0,0-.82.06l-.94.54a2.66,2.66,0,0,0-1.18,1.93L142,404.36a6.27,6.27,0,0,0,3.12,5.77Z"/><path class="q" d="M158.93,416.71l-4.54-2.61-.19,2.51,4.55,2.62Z"/></g></svg>