<svg xmlns="http://www.w3.org/2000/svg" width="134.367" height="186.183" viewBox="0 0 134.367 186.183"><defs><style>.a{fill:#e0e0e0;}.b{fill:#263238;}.c{fill:#37474f;}.d,.p,.s{fill:#ff725e;}.e,.f,.g,.h,.o,.t{fill:#fff;}.e{opacity:0.25;}.f{opacity:0.6;}.g{opacity:0.5;}.h,.u{opacity:0.4;}.i,.p{opacity:0.1;}.j,.s,.t{opacity:0.3;}.k{fill:#ffa8a7;}.l{fill:#f28f8f;}.m{fill:#455a64;}.n{fill:#b16668;}.o{opacity:0.85;}.q{opacity:0.05;}.r{opacity:0.2;}</style></defs><g transform="translate(-322.68 -156.324)"><path class="a" d="M338.84,334.77c-17.85-10.31-17.85-27,0-37.33s46.8-10.3,64.65,0,17.85,27,0,37.33S356.69,345.07,338.84,334.77Z"/><path class="a" d="M418.46,304.75l37.2-21.48c1.85-1.07,1.85-2.79,0-3.86L431,265.17a8,8,0,0,0-6.79-.2L384.08,285c-1.9,1-1.95,2.59-.1,3.66l27.8,16.05a7.35,7.35,0,0,0,6.68.04Z"/><path class="b" d="M386.78,289.59l4.75-39.67,3.89-.2-6.68,39.87h0a.51.51,0,0,1-.26.34,1.53,1.53,0,0,1-1.38.07.45.45,0,0,1-.3-.41Z"/><path class="b" d="M391.53,249.92l3.89-.2-1.14,7.52a15.35,15.35,0,0,1-2.3-1.05,2.36,2.36,0,0,1-1-.88Z"/><path class="c" d="M443.16,244.1h3.89l5.66,37.46h0a.47.47,0,0,1-.29.43,1.53,1.53,0,0,1-1.38,0,.54.54,0,0,1-.28-.33h0Z"/><path class="b" d="M447.05,244.1l1.58,10.45a14.8,14.8,0,0,1-3,1.83l-2.49-12.28Z"/><path class="c" d="M412.77,302.89l3.66-40.34,3.88-.2-5.58,40.53h0a.49.49,0,0,1-.25.35,1.55,1.55,0,0,1-1.39.07.45.45,0,0,1-.3-.41Z"/><path class="b" d="M416,268.36l.48-5.81,3.88-.2-.78,6.27A7.25,7.25,0,0,1,416,268.36Z"/><path class="b" d="M421.93,231.76h3.89l5.66,37.46h0a.48.48,0,0,1-.29.43,1.53,1.53,0,0,1-1.38,0,.55.55,0,0,1-.28-.34h0Z"/><path class="d" d="M454.36,201.13a21.81,21.81,0,0,1,1.55,6.83c.45,5.24-1.32,22.19-2.39,29.77h0c-1.54,12.66-3.43,12.68-6.18,14.81-4.72,3.64-18.3,10.79-22.78,12.56-8.13,3.2-14.77-1.74-19.72-4.18a114.7,114.7,0,0,1-13.12-7.77c-1.24-.9-1.88-1.82-1.87-2.77V248c0-1.22,1.07-2.54,3.35-4,4.2-2.72,19.37-11.57,25.24-14.83a.05.05,0,0,1,.05,0c4.53-2.75,7.25-21.42,10.38-31.35.07-.21.13-.41.2-.61s.11-.31.17-.46c.19-.54.4-1,.61-1.49"/><path class="d" d="M389.86,248c0-1.22,1.07-2.54,3.35-4,4.2-2.72,19.37-11.57,25.24-14.83a.05.05,0,0,1,.05,0c4.53-2.75,7.25-21.42,10.38-31.35a18.842,18.842,0,0,1,.66-1.82c0-.05,0-.09,0-.13l.18-.41.09-.2h0a9.349,9.349,0,0,1,2.09-3,4.529,4.529,0,0,1,1-.72c.51-.29,1.58-.88,1.84-1,3.08-1.84,7.11.37,12.13,3.12,3.12,1.71,5.79,3.75,7.41,7.54h0a21.81,21.81,0,0,1,1.55,6.83c.45,5.24-1.32,22.19-2.39,29.77h0c-1.54,12.66-3.43,12.68-6.18,14.81-4.72,3.64-18.3,10.79-22.78,12.56-8.13,3.2-14.77-1.74-19.72-4.18a114.7,114.7,0,0,1-13.12-7.77c-1.24-.9-1.88-1.82-1.87-2.77Z"/><path class="e" d="M389.86,248c0-1.22,1.07-2.54,3.35-4,4.2-2.72,19.37-11.57,25.24-14.83a.05.05,0,0,1,.05,0c4.53-2.75,7.25-21.42,10.38-31.35a18.842,18.842,0,0,1,.66-1.82c0-.05,0-.09,0-.13l.18-.41.09-.2h0a9.349,9.349,0,0,1,2.09-3,4.529,4.529,0,0,1,1-.72c.51-.29,1.58-.88,1.84-1,3.08-1.84,7.11.37,12.13,3.12,3.12,1.71,5.79,3.75,7.41,7.54h0a21.81,21.81,0,0,1,1.55,6.83c.45,5.24-1.32,22.19-2.39,29.77h0c-1.54,12.66-3.43,12.68-6.18,14.81-4.72,3.64-18.3,10.79-22.78,12.56-8.13,3.2-14.77-1.74-19.72-4.18a114.7,114.7,0,0,1-13.12-7.77c-1.24-.9-1.88-1.82-1.87-2.77Z"/><path class="d" d="M404.85,258.56a114.708,114.708,0,0,1-13.12-7.77c-2.82-2-2.56-4.14,1.48-6.76,5.61-3.64,28.47-16.61,28.47-16.61s28.91,17.06,27.66,20.21-19.13,12.89-24.77,15.11C416.44,265.94,409.8,261,404.85,258.56Z"/><path class="f" d="M404.85,258.56a114.708,114.708,0,0,1-13.12-7.77c-2.82-2-2.56-4.14,1.48-6.76,5.61-3.64,28.47-16.61,28.47-16.61s28.91,17.06,27.66,20.21-19.13,12.89-24.77,15.11C416.44,265.94,409.8,261,404.85,258.56Z"/><path class="d" d="M433,191.51c3-1.6,7,.57,11.89,3.25,3.13,1.72,5.8,3.76,7.42,7.57l2.07-1.2c-1.62-3.79-4.29-5.83-7.41-7.54-5-2.75-9.05-5-12.13-3.12C434.56,190.63,433.49,191.22,433,191.51Z"/><path class="g" d="M433,191.51c3-1.6,7,.57,11.89,3.25,3.13,1.72,5.8,3.76,7.42,7.57l2.07-1.2c-1.62-3.79-4.29-5.83-7.41-7.54-5-2.75-9.05-5-12.13-3.12C434.56,190.63,433.49,191.22,433,191.51Z"/><path class="d" d="M418.5,229.16s2.95,1,13.47,6.13c4.31,2.11,7.15,4.25,11.19,6.8,5.95,3.74,5.5,6.52,5.5,6.52,3-2.45,5.9-30.87,5.18-39.48a21.389,21.389,0,0,0-1.7-7.15l-.24-.51c-.06-.11-.11-.22-.18-.33a.8.8,0,0,0-.08-.16q-.36-.63-.75-1.2l-.2-.28-.21-.27c-.06-.09-.14-.17-.21-.26s-.12-.14-.18-.21a11.261,11.261,0,0,0-1.07-1.11,2.266,2.266,0,0,0-.28-.26,16.33,16.33,0,0,0-1.88-1.43,3.281,3.281,0,0,0-.31-.2l-.41-.26-.35-.21c-.3-.18-.61-.35-.92-.52-3.74-2.05-6.93-3.81-9.59-3.81a4.92,4.92,0,0,0-3.32,1.27c-2,1.73-3,5.37-3.08,5.58C425.75,207.74,423,226.41,418.5,229.16Z"/><path class="h" d="M418.5,229.16s2.95,1,13.47,6.13c4.31,2.11,7.15,4.25,11.19,6.8,5.95,3.74,5.5,6.52,5.5,6.52,3-2.45,5.9-30.87,5.18-39.48a21.389,21.389,0,0,0-1.7-7.15l-.24-.51c-.06-.11-.11-.22-.18-.33a.8.8,0,0,0-.08-.16q-.36-.63-.75-1.2l-.2-.28-.21-.27c-.06-.09-.14-.17-.21-.26s-.12-.14-.18-.21a11.261,11.261,0,0,0-1.07-1.11,2.266,2.266,0,0,0-.28-.26,16.33,16.33,0,0,0-1.88-1.43,3.281,3.281,0,0,0-.31-.2l-.41-.26-.35-.21c-.3-.18-.61-.35-.92-.52-3.74-2.05-6.93-3.81-9.59-3.81a4.92,4.92,0,0,0-3.32,1.27c-2,1.73-3,5.37-3.08,5.58C425.75,207.74,423,226.41,418.5,229.16Z"/><path class="i" d="M389.86,250.38c0,1,.63,1.87,1.87,2.77a115.3,115.3,0,0,0,13.11,7.77c2.58,1.27,5.61,3.21,9.07,4.33,8.3-4.86,22.63-13.36,26.15-16.18,1.89-1.51,3-4,3.7-6.6a34.633,34.633,0,0,0,1-8.71,11.88,11.88,0,0,0,5.13-3.4c2.08-2.3,2.71-7.35,3.54-24.28h0a18.071,18.071,0,0,0-1.28-4.09l-.24-.51c0-.11-.12-.22-.18-.33a.8.8,0,0,0-.08-.16c-.24-.43-.49-.82-.75-1.2l-.2-.28c-.07-.09-.13-.18-.21-.27a2.655,2.655,0,0,0-.21-.26,1.181,1.181,0,0,0-.18-.21,10.222,10.222,0,0,0-1.07-1.11,3.454,3.454,0,0,0-.28-.26,16.328,16.328,0,0,0-1.88-1.43l-.3-.2-.42-.26-.34-.2-.93-.53c-3.74-2.05-6.93-3.8-9.59-3.8a5,5,0,0,0-3.12,1.08,1.41,1.41,0,0,0-.2.18,8.66,8.66,0,0,0-1.7,2.24c-.06.13-.13.25-.19.37a.361.361,0,0,0,0,.09,3.178,3.178,0,0,0-.16.32l-.06.12v.08l-.1.2c-.11.25-.2.48-.28.69,0,0,0,.11-.07.15s-.12.34-.17.48,0,.09-.05.13,0,.1,0,.14a.418.418,0,0,0,0,.1s0,.08,0,.11v.13a.291.291,0,0,0,0,.09c0,.07,0,.12-.05.14-3.13,9.94-5.85,28.6-10.38,31.34v.06c-5.89,3.25-21,12.1-25.25,14.82-2.27,1.47-3.35,2.79-3.35,4A6.558,6.558,0,0,0,389.86,250.38Z"/><path class="b" d="M407.77,299.89a2.54,2.54,0,0,1-.11,1.3,8.25,8.25,0,0,1-2.76,2.13,5.44,5.44,0,0,0-2.25,2.4,11.28,11.28,0,0,1-4.51,4.65,14.21,14.21,0,0,1-8.35,1c-3.5-.58-3.82-2.64-3.82-2.64s-.21-1.94.66-2.25S407.77,299.89,407.77,299.89Z"/><path class="d" d="M408.21,297.49a5.6,5.6,0,0,1-.44,2.4c-1,1.44-3.44,1.94-4.81,3.91s-3,5-7.58,6-8.06-.43-8.93-1.72-.1-2.53,2.81-4.16c3.09-1.72,6.73-6.27,6.73-6.27,1.2-1.55,1.7-3.6,2.36-5.42.07-.18.17-.39.36-.39s.33.27.45.46a1.49,1.49,0,0,0,.88.54,10.372,10.372,0,0,0,1.21.34,11.081,11.081,0,0,0,2.5.28,1,1,0,0,1,.78.2.89.89,0,0,1,.16.7,7.242,7.242,0,0,1-.12.92,1,1,0,0,0,0,.45.55.55,0,0,0,.52.34,1.12,1.12,0,0,0,.63-.2,2.75,2.75,0,0,0,1.48-1.88,5.524,5.524,0,0,1,.08-.89,1.14,1.14,0,0,1,.56.66c.09.35.06.72.12,1.08A17.367,17.367,0,0,1,408.21,297.49Z"/><path class="j" d="M408.21,297.49a5.6,5.6,0,0,1-.44,2.4c-1,1.44-3.44,1.94-4.81,3.91s-3,5-7.58,6-8.06-.43-8.93-1.72-.1-2.53,2.81-4.16c3.09-1.72,6.73-6.27,6.73-6.27,1.2-1.55,1.7-3.6,2.36-5.42.07-.18.17-.39.36-.39s.33.27.45.46a1.49,1.49,0,0,0,.88.54,10.372,10.372,0,0,0,1.21.34,11.081,11.081,0,0,0,2.5.28,1,1,0,0,1,.78.2.89.89,0,0,1,.16.7,7.242,7.242,0,0,1-.12.92,1,1,0,0,0,0,.45.55.55,0,0,0,.52.34,1.12,1.12,0,0,0,.63-.2,2.75,2.75,0,0,0,1.48-1.88,5.524,5.524,0,0,1,.08-.89,1.14,1.14,0,0,1,.56.66c.09.35.06.72.12,1.08A17.367,17.367,0,0,1,408.21,297.49Z"/><path class="b" d="M385.66,293a2.62,2.62,0,0,1-.25,1.29,8.27,8.27,0,0,1-3,1.81,5.37,5.37,0,0,0-2.5,2.15,11.26,11.26,0,0,1-5,4.13,14.1,14.1,0,0,1-8.4.07c-3.42-.95-3.51-3-3.51-3s0-1.95.89-2.17S385.66,293,385.66,293Z"/><path class="d" d="M386.36,290.68a5.739,5.739,0,0,1-.7,2.33c-1.16,1.33-3.63,1.57-5.21,3.37s-3.53,4.65-8.17,5.12-8-1.3-8.69-2.68.16-2.52,3.23-3.83c3.26-1.38,7.37-5.5,7.37-5.5,1.36-1.42,2.08-3.4,2.94-5.14.08-.17.21-.37.39-.35s.3.3.4.51a1.48,1.48,0,0,0,.82.63,9.849,9.849,0,0,0,1.17.47,10.839,10.839,0,0,0,2.45.54,1.06,1.06,0,0,1,.76.29,1,1,0,0,1,.08.71,6.564,6.564,0,0,1-.22.9,1,1,0,0,0-.06.45.55.55,0,0,0,.48.4,1.25,1.25,0,0,0,.65-.13,2.74,2.74,0,0,0,1.61-1.73s.1-.46.23-.87a1.18,1.18,0,0,1,.5.72,9.906,9.906,0,0,1,0,1.09,17.371,17.371,0,0,1-.03,2.7Z"/><path class="j" d="M386.36,290.68a5.739,5.739,0,0,1-.7,2.33c-1.16,1.33-3.63,1.57-5.21,3.37s-3.53,4.65-8.17,5.12-8-1.3-8.69-2.68.16-2.52,3.23-3.83c3.26-1.38,7.37-5.5,7.37-5.5,1.36-1.42,2.08-3.4,2.94-5.14.08-.17.21-.37.39-.35s.3.3.4.51a1.48,1.48,0,0,0,.82.63,9.849,9.849,0,0,0,1.17.47,10.839,10.839,0,0,0,2.45.54,1.06,1.06,0,0,1,.76.29,1,1,0,0,1,.08.71,6.564,6.564,0,0,1-.22.9,1,1,0,0,0-.06.45.55.55,0,0,0,.48.4,1.25,1.25,0,0,0,.65-.13,2.74,2.74,0,0,0,1.61-1.73s.1-.46.23-.87a1.18,1.18,0,0,1,.5.72,9.906,9.906,0,0,1,0,1.09,17.371,17.371,0,0,1-.03,2.7Z"/><path class="c" d="M442.18,228.61l-10.74-1.16-21.77,1.18s-13.08,8.36-22.58,15c-2.76,1.94-5.68,4.06-6.16,8.13-.69,5.77-4.95,35-4.95,35,1.34,3.44,8.22,3.37,10.41,1.36.51-2,1.25-4.09,3-9.51,1.28-4,2.19-7.4,3.25-10.64a48.729,48.729,0,0,0,1.92-11l13.85-8.69c-3.05,3.11-4.05,4.12-5.65,5.73-1.4,1.42-2.33,3.2-2.74,7.79-.82,9.09-2.25,29.57-2.35,32.35,1.15,1.6,6.75,3.57,10.42,1.72,1-5.24,2.14-9.19,3.63-16.42,1.64-8,2-13.25,1.78-16.13,0,0,6.74-4.15,14.42-9.2,3.26-2.15,7.9-4.42,10.15-6.91C441.94,243,442.32,236.4,442.18,228.61Z"/><path class="b" d="M408.42,248.3l7.82-8.88a11.71,11.71,0,0,1-6.36-6.81s.49,5.13,3.56,7.38l-3.66,5-15.21,12Z"/><path class="k" d="M407.08,194.1c-1.82,2.26-10.6,12.21-10.6,12.21-1.6-2.23-3.5-5-5.1-7.33a32.88,32.88,0,0,1-3.85-8.42,22.422,22.422,0,0,0-1.32-3.25,9.88,9.88,0,0,1-.89-3.44c0-.59-1.51-.55-1.95,1.29a13.31,13.31,0,0,0,0,3.71c-.69-.25-1.74-.79-3.25-1.3s-4.4-1.82-4.53.09a3.612,3.612,0,0,1,0,1.27,2.8,2.8,0,0,1-.32.52,2.15,2.15,0,0,0,0,2.19,1.381,1.381,0,0,1,.21.48,5.923,5.923,0,0,1-.27,1,2.12,2.12,0,0,0,.14,1.14c.21.53.54,1,.75,1.54a7.1,7.1,0,0,0,.43,1,2.93,2.93,0,0,0,1.67,1.48c1,.37,2,.77,3.45,1.29,1.13.41,1.89,2,3,4.63a113.429,113.429,0,0,0,6.24,11.75,14.944,14.944,0,0,0,.8,1.27c2.79,4.17,4.53,3.08,9.68-1.06,6.33-5.1,11.66-10.2,11.66-10.2l3.08-18.52C412.54,188.26,408.9,191.84,407.08,194.1Z"/><path class="l" d="M381.63,189.28c1.14.28,1.5,1,1.57,2.59.05.95.45,2.68,1.52,3.31a2.43,2.43,0,0,1-1.38-.49c-.52-.47-.66-.51-.91-.21a1.85,1.85,0,0,1-.68.46,1.22,1.22,0,0,1,.21,1.45c-.44.85-3,.66-4.89-.15,0,0,3.36,1.08,4,.09s-1.37-2.41-2.56-2.65c0,0,3.24.85,3.62-.12s-1.2-1.95-2.91-2.26c0,0,2.73.63,3.08-.2a1.45,1.45,0,0,0-.67-1.82Z"/><path class="c" d="M407.87,192.61c-1.84,2.21-11.41,13-11.41,13l-4.87-6.36c-.94,5-5.86,7.32-5.86,7.32s4.44,9.17,6,11.47c1.79,2.56,4.28,3.57,7.64.62s13.16-11.28,13.16-11.28l6.09-20.76C413.84,186.66,410.84,189.07,407.87,192.61Z"/><path class="b" d="M396.46,205.65a14.66,14.66,0,0,1,3.05,8.37s1.12-4.16-2-9.57Z"/><path class="d" d="M410.34,198.26c1.43-8.52,4.76-11.47,9.41-11.71l10.45-.32c2.21.66,9.24,2.07,12.24,3.09s2.65,8.34,1.78,12.82-.37,5.86-.42,13.27c-.15,7.18-1,16.59-1.6,21.51-6.63,3.87-26.39,1.5-32.87-7.42,0-6.23.37-10.72.64-15.13C410.43,206.47,409.86,201.08,410.34,198.26Z"/><path class="m" d="M415,163.25a2.69,2.69,0,0,0-1.44,2.34,3.51,3.51,0,0,0,.51,2,4.51,4.51,0,0,0,2.34,1.65,6.241,6.241,0,0,1,1.18.45,9.547,9.547,0,0,1,1.29,1.18c.62.52,1.24,1.05,1.87,1.55a40.647,40.647,0,0,0,4,2.81,29.258,29.258,0,0,0,4.12,2.14c1.52.62,2.84.17,4.46.38l-.4,4.45s.58-1,1.25-2.21c.58-1,3-6.33,3-6.33,1-2.08,2.17-4.25,2.12-6.61,0-1.9-.36-3.6-1.78-4.45a4.967,4.967,0,0,0-2-4.53,8.5,8.5,0,0,0-3.75-1.57,15.23,15.23,0,0,0-4.62,0,33.491,33.491,0,0,1-6.9.57,11.2,11.2,0,0,0-3.7.1,3.74,3.74,0,0,0-2.71,3.56C413.74,161.64,414.36,163.05,415,163.25Z"/><path class="k" d="M429.77,163.3c0,1.4,1.19,3.9,3.1,5.7a14,14,0,0,0-.28,4.69,2.48,2.48,0,0,0,.32,1,1.16,1.16,0,0,0,.81.55c.45.05.64-.22.8-.57a11.006,11.006,0,0,1,.74-1.29,2.28,2.28,0,0,1,.42-.5,2.23,2.23,0,0,1,3.65.9c.9,2.28-1,5.2-2.68,5.6-2.87.69-3.41-1.27-3.41-1.27l-.29,9.39c-.89,2.35-5.38,4.5-8.91,3.91s-2.32-2.69-.83-4.09l-.06-3.27a14,14,0,0,1-3.78-.27c-1.46-.34-2.62-1.76-3.15-4a34.23,34.23,0,0,1,0-13c.63-2.63,2.13-4.34,2.94-4.71,0,.57.37,2,3.22,2.48C425.45,165,427.55,164.12,429.77,163.3Z"/><path class="l" d="M423.15,184a17.18,17.18,0,0,0,6.27-1.15,7.18,7.18,0,0,0,2.41-2.89,6,6,0,0,1-1.66,3.72c-2.13,1.84-7,1.66-7,1.66Z"/><path class="m" d="M426.53,168.27l2.3,1.09a1.33,1.33,0,0,0-.63-1.74,1.24,1.24,0,0,0-1.67.65Z"/><path class="n" d="M426.44,177.47l-3.66,1.36a1.92,1.92,0,0,0,2.48,1.22,2,2,0,0,0,1.18-2.58Z"/><path class="l" d="M424.27,180.13a1.73,1.73,0,0,1,1.79-1.64,1.56,1.56,0,0,1,.44.08,2,2,0,0,1-1.24,1.48,1.87,1.87,0,0,1-.99.08Z"/><path class="m" d="M417.34,169.13l2.18-1.21a1.19,1.19,0,0,0-1.66-.48A1.28,1.28,0,0,0,417.34,169.13Z"/><path class="l" d="M423.15,176.46l-3.42-1.12,3.87-6.29Z"/><path class="b" d="M419.81,171.35a1,1,0,1,1-1-1A1,1,0,0,1,419.81,171.35Z"/><path class="b" d="M427.84,171.35a1,1,0,1,1-1-1A1,1,0,0,1,427.84,171.35Z"/><path class="c" d="M449.64,199.87c.06-6.42-1.77-9-8-10.8-1.67.33-4.53,6.65-4.42,13.12l-2.06,18.51-14.65,6.39,3.59,8.24s12.94-2.78,17.73-4.63c2.64-1,3.67-2.25,5.16-9.41A125.309,125.309,0,0,0,449.64,199.87Z"/><path class="c" d="M381.63,306.57c-5.78-3.34-15.15-3.34-20.93,0-2.89,1.67-4.33,3.86-4.33,6v1.88c.05,2.15,1.49,4.3,4.33,5.94,5.78,3.34,15.15,3.34,20.93,0,2.86-1.65,4.3-3.81,4.34-6v-1.88C386,310.4,384.51,308.23,381.63,306.57Z"/><path class="m" d="M360.7,318.66c-5.78-3.34-5.78-8.75,0-12.09s15.15-3.34,20.93,0,5.79,8.75,0,12.09S366.48,322,360.7,318.66Z"/><path class="c" d="M373.24,310.89h0V270.05h-4.15v40.84h0a1,1,0,0,0,.59.95,3.24,3.24,0,0,0,2.94,0A1,1,0,0,0,373.24,310.89Z"/><path class="m" d="M405.38,232.32c-18.92-10.93-49.6-10.93-68.52,0-9.46,5.46-14.18,12.62-14.18,19.78v1.39c0,7.15,4.72,14.31,14.18,19.78,18.92,10.92,49.6,10.92,68.52,0,9.46-5.47,14.19-12.63,14.18-19.78v-1.4C419.57,244.94,414.84,237.78,405.38,232.32Z"/><path class="d" d="M405.43,228.68c-18.93-10.92-49.6-10.92-68.52,0-9.46,5.47-14.19,12.63-14.18,19.78v2.39c0,7.16,4.72,14.32,14.18,19.78,18.92,10.92,49.59,10.92,68.52,0,9.46-5.46,14.18-13.62,14.18-20.78v-1.39C419.61,241.31,414.89,234.15,405.43,228.68Z"/><path class="h" d="M405.43,228.68c-18.93-10.92-49.6-10.92-68.52,0-9.46,5.47-14.19,12.63-14.18,19.78v2.39c0,7.16,4.72,14.32,14.18,19.78,18.92,10.92,49.59,10.92,68.52,0,9.46-5.46,14.18-13.62,14.18-20.78v-1.39C419.61,241.31,414.89,234.15,405.43,228.68Z"/><path class="i" d="M405.43,228.68c-18.93-10.92-49.6-10.92-68.52,0-9.46,5.47-14.19,12.63-14.18,19.78v2.39c0,7.16,4.72,14.32,14.18,19.78,18.92,10.92,49.59,10.92,68.52,0,9.46-5.46,14.18-13.62,14.18-20.78v-1.39C419.61,241.31,414.89,234.15,405.43,228.68Z"/><ellipse class="d" cx="48.45" cy="27.97" rx="48.45" ry="27.97" transform="translate(322.72 220.49)"/><path class="o" d="M336.91,268.24c-18.92-10.92-18.92-28.63,0-39.56s49.59-10.92,68.51,0,18.93,28.64,0,39.56S355.83,279.17,336.91,268.24Z"/><path class="p" d="M347.71,238.86a11.88,11.88,0,0,0,6.5-1.77,3.86,3.86,0,0,0,0-7.1,12.82,12.82,0,0,0-13,0,3.85,3.85,0,0,0,0,7.1A11.83,11.83,0,0,0,347.71,238.86Z"/><path class="q" d="M347.71,238.86a11.88,11.88,0,0,0,6.5-1.77,3.86,3.86,0,0,0,0-7.1,12.82,12.82,0,0,0-13,0,3.85,3.85,0,0,0,0,7.1A11.83,11.83,0,0,0,347.71,238.86Z"/><path class="d" d="M340.32,232.88a4.47,4.47,0,0,1-1.77-.25,4.34,4.34,0,0,1-2.09-2.57c-.52-1.23-1.36-3.9-.77-5.28.75-1.75,2.88-1.81,4.28-1.85h.49l.08,1.67c-.17,0-.44.06-.62.07-.79,0-2.53.29-2.73.74-.65,1.09,1,5.26,1.75,5.71a6.46,6.46,0,0,0,2.72,0l.56,1.4a6.271,6.271,0,0,1-1.9.36Z"/><path class="r" d="M340.32,232.88a4.47,4.47,0,0,1-1.77-.25,4.34,4.34,0,0,1-2.09-2.57c-.52-1.23-1.36-3.9-.77-5.28.75-1.75,2.88-1.81,4.28-1.85h.49l.08,1.67c-.17,0-.44.06-.62.07-.79,0-2.53.29-2.73.74-.65,1.09,1,5.26,1.75,5.71a6.46,6.46,0,0,0,2.72,0l.56,1.4a6.271,6.271,0,0,1-1.9.36Z"/><path class="d" d="M355.1,220.91c-.16-.72-.87-1.42-2.12-2a15.06,15.06,0,0,0-10.5-.11,3.34,3.34,0,0,0-2.16,1.93h0c-.54,4.68.24,10.13,1.88,13.16v.06h0a3.55,3.55,0,0,0,1.35,1.31,8.81,8.81,0,0,0,8,.09,3.53,3.53,0,0,0,1.38-1.28h0a.426.426,0,0,1,0-.07c1.7-3,2.59-8.42,2.15-13.11Z"/><path class="s" d="M355.1,220.91c-.16-.72-.87-1.42-2.12-2a15.06,15.06,0,0,0-10.5-.11,3.34,3.34,0,0,0-2.16,1.93h0c-.54,4.68.24,10.13,1.88,13.16v.06h0a3.55,3.55,0,0,0,1.35,1.31,8.81,8.81,0,0,0,8,.09,3.53,3.53,0,0,0,1.38-1.28h0a.426.426,0,0,1,0-.07c1.7-3,2.59-8.42,2.15-13.11Z"/><path class="t" d="M353,218.93c2.89,1.29,2.87,3.34,0,4.57a15.08,15.08,0,0,1-10.51-.11c-2.89-1.3-2.86-3.34.05-4.57a15.06,15.06,0,0,1,10.46.11Z"/><path class="u" d="M352,219.71c2.33.85,2.32,2.19,0,3a14.84,14.84,0,0,1-8.48-.09c-2.33-.84-2.31-2.18,0-3a14.89,14.89,0,0,1,8.48.09Z"/><path class="b" d="M351.94,221.52a4.22,4.22,0,0,1,1.17.6,4.48,4.48,0,0,1-1.18.57,14.84,14.84,0,0,1-8.48-.09,4.29,4.29,0,0,1-1.16-.6,4.32,4.32,0,0,1,1.18-.57,14.8,14.8,0,0,1,8.47.09Z"/><path class="i" d="M364.3,234.36l19.42-11.21a1.1,1.1,0,0,1,1.11,0l33.69,19.45a.25.25,0,0,1,0,.43l-19.6,11.32Z"/><path class="c" d="M365.75,232v.43a1.81,1.81,0,0,0,.9,1.56L398,252.1a1.75,1.75,0,0,0,.89.24,1.81,1.81,0,0,0,.9-.24l17.11-9.84a1.81,1.81,0,0,0,.89-1.56v-.6h0a.22.22,0,0,1-.12.19l-18.78,10.85Z"/><path class="b" d="M398.92,251.15v1.19a1.75,1.75,0,0,1-.89-.24L366.65,234a1.8,1.8,0,0,1-.9-1.56V232Z"/><path class="m" d="M365.75,232l18.6-10.75a1.08,1.08,0,0,1,1.07,0l32.28,18.64a.24.24,0,0,1,0,.41l-18.78,10.85Z"/><path class="c" d="M399.09,249.57l10.04-5.79-29.35-16.94L369.7,232.6Z"/><path class="b" d="M369.7,232.6l.38.22,9.71-5.54L408.74,244l.39-.22-29.34-16.94Z"/><path class="b" d="M404.02,233.47l-.18.1-4.92,2.84-8.75-5.05-.18-.1,5.11-2.95Z"/><path class="c" d="M403.84,233.57l-4.92,2.84-8.75-5.05,4.93-2.83Z"/><path class="k" d="M397.35,233.86c.83-.14,2.25,2.57,3.91,2.22a17.88,17.88,0,0,1,6.27-.21c1.64.39,3.45,1.68,5.49,1.71a23.22,23.22,0,0,0,5.65-1c2-.45,3.45-.84,5.44-1.23a8.31,8.31,0,0,0-.63-5.83,5.941,5.941,0,0,0-2.39-2.66s-1.88.62-5.16,1.47a10.51,10.51,0,0,1-8-.8c-.44-.25-.9-.48-1.35-.7a5.349,5.349,0,0,0-1.59-.32c-1.19-.12-2.25-.11-3.55-.3a.46.46,0,0,0-.26,0c-.22.13-.17.45-.05.67a3.17,3.17,0,0,0,1.32,1.27,15.6,15.6,0,0,0,1.71.68,7.721,7.721,0,0,0-1.28.16c-1.84.25-4.24,1.83-5.92,3S396.53,234,397.35,233.86Z"/><path class="l" d="M405.05,228.06a6,6,0,0,1,2.29.81,13.11,13.11,0,0,0-3.17,0,14.16,14.16,0,0,1-1.71-.68,3.23,3.23,0,0,1-1.21-1.08C402.06,227.89,403.91,228,405.05,228.06Z"/><path class="c" d="M398.42,251.41a2.13,2.13,0,0,1-1.84-.14l-31.24-18a2.11,2.11,0,0,1-1-1.48l-3.42-20.4a2,2,0,0,1,0-.35,2.15,2.15,0,0,1,.63-1.51L394,228.24a1.61,1.61,0,0,1,.76,1.1Z"/><path class="m" d="M398.92,251.15l-.21.12-.29.14-3.7-22.07a1.61,1.61,0,0,0-.76-1.1l-32.47-18.75a2.88,2.88,0,0,1,.43-.33l32.53,18.78a1.59,1.59,0,0,1,.77,1.1Z"/><path class="b" d="M394.42,228.66l.5-.29a1.46,1.46,0,0,1,.3.67l3.7,22.11-.21.12-.29.14-3.7-22.07a1.55,1.55,0,0,0-.3-.68Z"/><path class="d" d="M380.82,232.58a6.92,6.92,0,0,0-3.15-4.05c-1.51-.87-2.55-.47-2.32.9a6.92,6.92,0,0,0,3.15,4C380,234.35,381.05,234,380.82,232.58Z"/></g></svg>