<svg xmlns="http://www.w3.org/2000/svg" xmlns:xlink="http://www.w3.org/1999/xlink" width="525.811" height="380.514" viewBox="0 0 525.811 380.514"><defs><style>.a,.e,.g{fill:#fff;}.a,.b,.h,.p{stroke:#263238;stroke-linecap:round;stroke-linejoin:round;stroke-width:3.555px;}.b,.l{fill:#263238;}.c{fill:rgba(152,87,194,0.15);}.d,.p{fill:#9857c2;}.f{clip-path:url(#a);}.g{opacity:0.5;}.h{fill:none;}.i{clip-path:url(#b);}.j{clip-path:url(#c);}.k{clip-path:url(#d);}.m{clip-path:url(#e);}.n{opacity:0.2;}.o{clip-path:url(#f);}</style><clipPath id="a"><path class="a" d="M473.926,960.286s-35.953,7.629-65.916,24.515-53.381,30.505-53.381,37.025-11.993,110.04-11.993,110.04H615.026s-26.7-57.2-31.047-81.717-9.269-40.354-23.43-56.1S504.974,958.117,473.926,960.286Z" transform="translate(-342.637 -960.125)"/></clipPath><clipPath id="b"><path class="a" d="M637.219,970.377a35.89,35.89,0,0,0-16.9,28.323c-1.084,19.609,0,39.774-1.084,50.657s-8.714,19.622-2.724,19.067,19.609-22.333,24.515-22.333,6.532,10.353,8.714,13.619,9.836,4.641,9.836,4.641,7.049-8.449,7.049-11.173-2.182-11.993,3.783-10.9,19.055,21.791,19.609,15.246-6-16.394-6-32.132-7.566-34.326-18.512-45.764S648.366,969.532,637.219,970.377Z" transform="translate(-614.241 -969.841)"/></clipPath><clipPath id="c"><path class="a" d="M679.9,971.742a84.15,84.15,0,0,0-6.532,31.526c0,17.226,8.9,35.045,12.472,43.355s11.879,19,11.879,19-.605-21.968,4.742-32.661,10.089-18.411,10.089-18.411-6.532-6.532-16.041-21.375S679.9,971.742,679.9,971.742Z" transform="translate(-673.365 -971.742)"/></clipPath><clipPath id="d"><path class="a" d="M765.283,791.745s-1.652,24.4-4.288,32.977-6.305,34.969-14.187,46.508-18.134,21.438-29.685,22.106-27.037-19.8-35.953-32.989-9.887-26.381-12.863-39.244-3.619-27.743,1-39.257,27.743-25.726,47.164-24.074,43.86,11.879,48.816,19.458a13.254,13.254,0,0,1,0,14.515Z" transform="translate(-665.958 -757.64)"/></clipPath><clipPath id="e"><path class="b" d="M653.52,689.043s-21.438,6.936-23.09,15.511,9.244,38.588,8.916,42.208-3.632,6.608,0,11.879,10.215,13.191,12.863,8.9-1-10.555,3.291-13.191,10.227-6.923,6.923-12.535-1.639-13.872,5.284-14.843,12.863-5.6,9.231-.328-14.174,18.147-8.575,19.13,27.743-13.872,27.743-13.872-7.566,15.133-3.632,16.154S727.443,728.6,727.443,728.6s14.843,19.458,17.806,18.134,1-12.194,1-12.194,2.308,14.515,6.923,15.133,10.883-7.264,8.9-12.207-5.309-11.854-5.309-11.854,6.6-1.652,9.231-4.628,2.308-3.291-3.3-4.288-9.887-7.251-15.133-12.863-13.872-13.191-13.872-13.191,9.887,4.288,4.615-.656-33.317-16.167-48.488-16.167-20.82,7.932-20.82,7.932,2.636-9.9-.341-8.575-6.305,9.231-6.305,9.231-6.923-1.98-10.542.341-4.628,4.615-1.652,4.615a17.228,17.228,0,0,1,4.943.656Z" transform="translate(-630.259 -673.057)"/></clipPath><clipPath id="f"><path class="a" d="M659.018,925.253s-7.907-18.462-14.843-18.462-6.6,15.5-2.308,23.746,13.531,11.539,16.167,6.6" transform="translate(-638.78 -906.791)"/></clipPath></defs><g transform="translate(-129.237 -382.696)"><g transform="translate(129.237 382.696)"><path class="c" d="M622.837,760.1c3.695-13.872,15.776-60.417,23.96-107.581,9.786-56.294,18.348-133.849-20.795-166.359s-90.519,6.242-117.43-6.305-28.122-75.058-100.292-93.823-112.524,46.293-144.328,81.364S196.675,478.64,150.23,516.169c-45.978,37.126-6.986,205.162,27.012,243.927Z" transform="translate(-129.237 -382.696)"/></g><g transform="translate(179.298 416.533)"><path class="d" d="M1051.991,719.274h-4.086a1.009,1.009,0,0,1,0-2.018h4.086a1.009,1.009,0,0,1,0,2.018Zm1.009,3.657a1.009,1.009,0,0,0-1.009-1.009h-4.086a1.009,1.009,0,0,0,0,2.018h4.086A1.009,1.009,0,0,0,1053,722.931Zm0,4.666a1.009,1.009,0,0,0-1.009-1.009h-4.086a1.009,1.009,0,0,0,0,2.018h4.086a1.009,1.009,0,0,0,1.009-1.059Zm0,4.666a1.009,1.009,0,0,0-1.009-1.009h-4.086a1.009,1.009,0,0,0,0,2.018h4.086A1.009,1.009,0,0,0,1053,732.263Zm0,4.666a1.009,1.009,0,0,0-1.009-1.009h-4.086a1.009,1.009,0,0,0,0,2.005h4.086a1,1,0,0,0,1.009-1Zm0,4.653a1,1,0,0,0-1.009-1h-4.086a1.009,1.009,0,0,0,0,2.005h4.086A1.009,1.009,0,0,0,1053,741.582Zm0,4.666a1.009,1.009,0,0,0-1.009-1.009h-4.086a1.009,1.009,0,0,0,0,2.018h4.086A1.009,1.009,0,0,0,1053,746.248Zm0,4.666a1.009,1.009,0,0,0-1.009-1.009h-4.086a1.009,1.009,0,0,0,0,2.018h4.086A1.009,1.009,0,0,0,1053,750.914Zm15.259-32.649a1,1,0,0,0-1-1.009h-10.719a1.009,1.009,0,0,0,0,2.018h10.719a1,1,0,0,0,1-1.009Zm0,4.666a1,1,0,0,0-1-1.009h-10.719a1.009,1.009,0,0,0,0,2.018h10.719a1,1,0,0,0,1-1.009Zm0,4.666a1,1,0,0,0-1-1.009h-10.719a1.009,1.009,0,0,0,0,2.018h10.719a1,1,0,0,0,1-1.059Zm0,4.666a1,1,0,0,0-1-1.009h-10.719a1.009,1.009,0,0,0,0,2.018h10.719a1,1,0,0,0,1-1.009Zm0,4.666a1,1,0,0,0-1-1.009h-10.719a1.009,1.009,0,1,0,0,2.005h10.719a1,1,0,0,0,1-1Zm12.838,4.653a1,1,0,0,0-1.009-1h-10.719a1.009,1.009,0,1,0,0,2.005h10.719A1.009,1.009,0,0,0,1081.1,741.582Zm0,4.666a1.009,1.009,0,0,0-1.009-1.009h-10.719a1.009,1.009,0,0,0,0,2.018h10.719A1.009,1.009,0,0,0,1081.1,746.248Zm0,4.666a1.009,1.009,0,0,0-1.009-1.009h-10.719a1.009,1.009,0,0,0,0,2.018h10.719a1.009,1.009,0,0,0,1.009-1.009Zm-8.121-32.649a1.173,1.173,0,1,0-.545,1.116A1.173,1.173,0,0,0,1072.975,718.265Zm3.506,0a1.173,1.173,0,1,0-1.173,1.173,1.173,1.173,0,0,0,1.173-1.173Zm3.493,0a1.173,1.173,0,1,0-.545,1.116A1.173,1.173,0,0,0,1079.974,718.265Zm3.493,0a1.16,1.16,0,1,0-.335.828A1.16,1.16,0,0,0,1083.467,718.265Zm3.506,0a1.173,1.173,0,1,0-1.173,1.173,1.173,1.173,0,0,0,1.173-1.173Zm3.493,0a1.173,1.173,0,1,0-.545,1.116A1.173,1.173,0,0,0,1090.466,718.265Zm-17.491,9.281a1.173,1.173,0,1,0-1.16,1.16,1.173,1.173,0,0,0,1.16-1.16Zm3.506,0a1.173,1.173,0,1,0-1.166,1.051,1.173,1.173,0,0,0,1.166-1.051Zm3.493,0a1.173,1.173,0,1,0-1.16,1.16A1.173,1.173,0,0,0,1079.974,727.547Zm3.493,0a1.16,1.16,0,1,0-1.16,1.16,1.173,1.173,0,0,0,1.16-1.16Zm3.506,0a1.173,1.173,0,1,0-1.167,1.051A1.173,1.173,0,0,0,1086.973,727.547Zm3.493,0a1.141,1.141,0,1,1-.038,0Zm-5.536,13.405a1.173,1.173,0,1,0-.545,1.116,1.173,1.173,0,0,0,.545-1.116Zm3.493,0a1.145,1.145,0,1,0,0,.05Zm3.506,0a1.145,1.145,0,1,0,0,.05Zm3.493,0a1.173,1.173,0,1,0-.545,1.116,1.173,1.173,0,0,0,.545-1.116Zm3.506,0a1.145,1.145,0,1,0,0,.05Zm3.493,0a1.173,1.173,0,1,0-1.173,1.173,1.16,1.16,0,0,0,1.173-1.122Zm-17.491,9.622a1.173,1.173,0,1,0-1.16,1.16,1.16,1.16,0,0,0,1.16-1.11Zm3.493,0a1.133,1.133,0,1,0,0,.05Zm3.506,0a1.133,1.133,0,1,0,0,.05Zm3.493,0a1.173,1.173,0,1,0-1.16,1.16,1.16,1.16,0,0,0,1.211-1.11Zm3.506,0a1.133,1.133,0,1,0,0,.05Zm3.493,0a1.173,1.173,0,1,0-1.173,1.16,1.16,1.16,0,0,0,1.173-1.11Z" transform="translate(-771.444 -632.312)"/><path class="d" d="M1051.991,824.141h-4.086a1.009,1.009,0,0,1,0-2.018h4.086a1.009,1.009,0,0,1,0,2.018ZM1053,827.8a1.009,1.009,0,0,0-1.009-1.009h-4.086a1.009,1.009,0,0,0,0,2.005h4.086a1,1,0,0,0,1.009-.946Zm0,4.653a1,1,0,0,0-1.009-1h-4.086a1.009,1.009,0,0,0,0,2.005h4.086A1.009,1.009,0,0,0,1053,832.5Zm0,4.666a1.009,1.009,0,0,0-1.009-1.009h-4.086a1.009,1.009,0,0,0,0,2.018h4.086a1.009,1.009,0,0,0,1.009-.958Zm0,4.666a1.009,1.009,0,0,0-1.009-1.009h-4.086a1.009,1.009,0,0,0,0,2.018h4.086a1.009,1.009,0,0,0,1.009-1Zm0,4.666a1.009,1.009,0,0,0-1.009-1.009h-4.086a1.009,1.009,0,0,0,0,2.018h4.086A1.009,1.009,0,0,0,1053,846.5Zm0,4.666a1.009,1.009,0,0,0-1.009-1.009h-4.086a1.009,1.009,0,0,0,0,2.018h4.086a1.009,1.009,0,0,0,1.009-.958Zm0,4.666a1.009,1.009,0,0,0-1.009-1.009h-4.086a1,1,0,0,0,0,2.005h4.086a1,1,0,0,0,1.009-.946Zm15.259-32.649a1,1,0,0,0-1-1.009h-10.719a1.009,1.009,0,0,0,0,2.018h10.719a1,1,0,0,0,1-.958Zm0,4.666a1,1,0,0,0-1-1.009h-10.719a1.009,1.009,0,1,0,0,2.005h10.719a1,1,0,0,0,1-.946Zm0,4.653a1,1,0,0,0-1-1h-10.719a1.009,1.009,0,1,0,0,2.005h10.719a1,1,0,0,0,1-.958Zm0,4.666a1,1,0,0,0-1-1.009h-10.719a1.009,1.009,0,0,0,0,2.018h10.719a1,1,0,0,0,1-.958Zm0,4.666a1,1,0,0,0-1-1.009h-10.719a1.009,1.009,0,0,0,0,2.018h10.719a1,1,0,0,0,1-1Zm12.838,4.666a1.009,1.009,0,0,0-1.009-1.009h-10.719a1.009,1.009,0,0,0,0,2.018h10.719a1.009,1.009,0,0,0,1.009-.958Zm0,4.666a1.009,1.009,0,0,0-1.009-1.009h-10.719a1.009,1.009,0,0,0,0,2.018h10.719a1.009,1.009,0,0,0,1.009-.958Zm0,4.666a1.009,1.009,0,0,0-1.009-1.009h-10.719a1.009,1.009,0,0,0-1.009,1.009,1,1,0,0,0,1.009,1h10.719a1,1,0,0,0,1.009-.946Zm-8.121-32.649a1.135,1.135,0,1,0,0,.051Zm3.506,0a1.173,1.173,0,1,0-1.166,1.051,1.173,1.173,0,0,0,1.166-1.051Zm3.493,0a1.135,1.135,0,1,0,0,.051Zm3.493,0a1.16,1.16,0,1,0-1.16,1.16,1.173,1.173,0,0,0,1.16-1.11Zm3.506,0a1.173,1.173,0,1,0-1.167,1.051,1.173,1.173,0,0,0,1.167-1.051Zm3.493,0a5.514,5.514,0,1,0-.038.05Zm-17.491,9.319a1.173,1.173,0,1,0-.545,1.116,1.173,1.173,0,0,0,.545-1.116Zm3.506,0a1.148,1.148,0,1,0,0,.051Zm3.493,0a1.173,1.173,0,1,0-.545,1.116,1.173,1.173,0,0,0,.545-1.116Zm3.493,0a1.145,1.145,0,1,0,0,.05Zm3.506,0a1.145,1.145,0,1,0,0,.051Zm3.493,0a1.173,1.173,0,1,0-.545,1.116,1.173,1.173,0,0,0,.545-1.116Zm-5.536,13.418a1.133,1.133,0,1,0,0,.05Zm3.493,0a1.16,1.16,0,1,0-1.16,1.16,1.173,1.173,0,0,0,1.16-1.11Zm3.506,0a1.173,1.173,0,1,0-1.167,1.051A1.173,1.173,0,0,0,1091.929,845.869Zm3.493,0a.821.821,0,1,0,.051.05Zm3.506,0a1.173,1.173,0,1,0-1.167,1.051A1.173,1.173,0,0,0,1098.927,845.869Zm3.493,0a1.173,1.173,0,1,0-1.166,1.051,1.173,1.173,0,0,0,1.166-1.051Zm-17.491,9.622a1.173,1.173,0,1,0-1.16,1.16,1.16,1.16,0,0,0,1.16-1.11Zm3.493,0a1.133,1.133,0,1,0,0,.05Zm3.506,0a1.173,1.173,0,1,0-1.166,1.051,1.172,1.172,0,0,0,1.166-1.051Zm3.493,0a1.173,1.173,0,1,0-1.16,1.16,1.16,1.16,0,0,0,1.211-1.11Zm3.506,0a1.173,1.173,0,1,0-1.166,1.051,1.172,1.172,0,0,0,1.166-1.051Zm3.493,0a1.173,1.173,0,1,0-1.173,1.16,1.16,1.16,0,0,0,1.173-1.11Z" transform="translate(-771.444 -699.901)"/><path class="d" d="M1051.991,931.946h-4.086a1.009,1.009,0,0,1,0-2.018h4.086a1.009,1.009,0,0,1,0,2.018ZM1053,935.6a1.009,1.009,0,0,0-1.009-1.009h-4.086a1.009,1.009,0,0,0,0,2.005h4.086a1,1,0,0,0,1.009-1Zm0,4.653a1,1,0,0,0-1.009-1h-4.086a1.009,1.009,0,0,0,0,2.005h4.086A1.009,1.009,0,0,0,1053,940.256Zm0,4.666a1.009,1.009,0,0,0-1.009-1.009h-4.086a1.009,1.009,0,0,0,0,2.018h4.086A1.009,1.009,0,0,0,1053,944.922Zm0,4.666a1.009,1.009,0,0,0-1.009-1.009h-4.086a1.009,1.009,0,0,0,0,2.018h4.086a1.009,1.009,0,0,0,1.009-1.009Zm0,4.666a1.009,1.009,0,0,0-1.009-1.009h-4.086a1.009,1.009,0,0,0,0,2.018h4.086A1.009,1.009,0,0,0,1053,954.2Zm0,4.666a1.009,1.009,0,0,0-1.009-1.009h-4.086a1.009,1.009,0,0,0,0,2.018h4.086A1.009,1.009,0,0,0,1053,958.92Zm0,4.666a1.009,1.009,0,0,0-1.009-1.009h-4.086a1,1,0,0,0,0,2.005h4.086a1,1,0,0,0,1.009-1Zm15.259-32.649a1,1,0,0,0-1-1.009h-10.719a1.009,1.009,0,0,0,0,2.018h10.719a1,1,0,0,0,1-1.009Zm0,4.666a1,1,0,0,0-1-1.009h-10.719a1.009,1.009,0,1,0,0,2.005h10.719a1,1,0,0,0,1-1Zm0,4.653a1,1,0,0,0-1-1h-10.719a1.009,1.009,0,1,0,0,2.005h10.719a1,1,0,0,0,1-1.009Zm0,4.666a1,1,0,0,0-1-1.009h-10.719a1.009,1.009,0,0,0,0,2.018h10.719a1,1,0,0,0,1-1.009Zm0,4.666a1,1,0,0,0-1-1.009h-10.719a1.009,1.009,0,0,0,0,2.018h10.719a1,1,0,0,0,1-1.009ZM1081.1,954.2a1.009,1.009,0,0,0-1.009-1.009h-10.719a1.009,1.009,0,1,0,0,2.018h10.719a1.009,1.009,0,0,0,1.009-1.009Zm0,4.666a1.009,1.009,0,0,0-1.009-1.009h-10.719a1.009,1.009,0,1,0,0,2.018h10.719a1.009,1.009,0,0,0,1.009-.958Zm0,4.666a1.009,1.009,0,0,0-1.009-1.009h-10.719a1.009,1.009,0,0,0-1.009,1.009,1,1,0,0,0,1.009,1h10.719a1,1,0,0,0,1.009-.946Zm-8.121-32.649a1.135,1.135,0,1,0,0,.051Zm3.506,0a1.173,1.173,0,1,0-1.166,1.051A1.172,1.172,0,0,0,1076.481,930.886Zm3.493,0a1.135,1.135,0,1,0,0,.051Zm3.493,0a1.16,1.16,0,1,0-1.16,1.16,1.173,1.173,0,0,0,1.16-1.11Zm3.506,0a1.173,1.173,0,1,0-1.167,1.051A1.173,1.173,0,0,0,1086.973,930.886Zm3.493,0a5.493,5.493,0,1,0-.038.051Zm-17.491,9.319a1.173,1.173,0,1,0-.545,1.116A1.173,1.173,0,0,0,1072.975,940.206Zm3.506,0a1.148,1.148,0,1,0,0,.05Zm3.493,0a1.173,1.173,0,1,0-.545,1.116A1.173,1.173,0,0,0,1079.974,940.206Zm3.493,0a1.145,1.145,0,1,0,0,.05Zm3.506,0a1.145,1.145,0,1,0,0,.05Zm3.493,0a1.173,1.173,0,1,0-.545,1.116A1.173,1.173,0,0,0,1090.466,940.206Zm-5.536,13.418a1.13,1.13,0,1,0,0,.05Zm3.493,0a1.16,1.16,0,1,0-1.16,1.16,1.173,1.173,0,0,0,1.16-1.11Zm3.506,0a1.173,1.173,0,1,0-1.166,1.051,1.173,1.173,0,0,0,1.166-1.051Zm3.493,0a.821.821,0,1,0,.051.05Zm3.506,0a1.173,1.173,0,1,0-1.167,1.051,1.173,1.173,0,0,0,1.167-1.051Zm3.493,0a1.173,1.173,0,1,0-1.167,1.051,1.173,1.173,0,0,0,1.167-1.051Zm-17.491,9.622a1.173,1.173,0,1,0-1.16,1.16,1.16,1.16,0,0,0,1.16-1.11Zm3.493,0a1.133,1.133,0,1,0,0,.05Zm3.506,0a1.173,1.173,0,1,0-1.167,1.051A1.173,1.173,0,0,0,1091.929,963.245Zm3.493,0a1.173,1.173,0,1,0-1.16,1.16,1.16,1.16,0,0,0,1.211-1.11Zm3.506,0a1.173,1.173,0,1,0-1.167,1.051A1.173,1.173,0,0,0,1098.927,963.245Zm3.493,0a1.173,1.173,0,1,0-1.173,1.16,1.16,1.16,0,0,0,1.173-1.11Z" transform="translate(-771.444 -769.433)"/><path class="d" d="M1228.493,719.274h-4.035a1.009,1.009,0,0,1,0-2.018h4.073a1.009,1.009,0,1,1,0,2.018Zm1.009,3.657a1.009,1.009,0,0,0-1.009-1.009h-4.035a1.009,1.009,0,0,0,0,2.018h4.073A1.009,1.009,0,0,0,1229.5,722.931Zm0,4.666a1.009,1.009,0,0,0-1.009-1.009h-4.035a1.009,1.009,0,0,0,0,2.018h4.073a1.009,1.009,0,0,0,.971-1.059Zm0,4.666a1.009,1.009,0,0,0-1.009-1.009h-4.035a1.009,1.009,0,0,0,0,2.018h4.073A1.009,1.009,0,0,0,1229.5,732.263Zm0,4.666a1,1,0,0,0-1.009-1.009h-4.035a1.009,1.009,0,1,0,0,2.005h4.073A1,1,0,0,0,1229.5,736.929Zm0,4.653a1,1,0,0,0-1.009-1h-4.035a1.009,1.009,0,1,0,0,2.005h4.073A1,1,0,0,0,1229.5,741.582Zm0,4.666a1.009,1.009,0,0,0-1.009-1.009h-4.035a1.009,1.009,0,0,0,0,2.018h4.073A1.009,1.009,0,0,0,1229.5,746.248Zm0,4.666a1.009,1.009,0,0,0-1.009-1.009h-4.035a1.009,1.009,0,0,0,0,2.018h4.073a1.009,1.009,0,0,0,.971-1.009Zm15.271-32.649a1.009,1.009,0,0,0-1.009-1.009h-10.706a1.009,1.009,0,0,0,0,2.018h10.706A1.009,1.009,0,0,0,1244.774,718.265Zm0,4.666a1.009,1.009,0,0,0-1.009-1.009h-10.706a1.009,1.009,0,0,0,0,2.018h10.706A1.009,1.009,0,0,0,1244.774,722.931Zm0,4.666a1.009,1.009,0,0,0-1.009-1.009h-10.706a1.009,1.009,0,0,0,0,2.018h10.706a1.009,1.009,0,0,0,1.009-1.059Zm0,4.666a1.009,1.009,0,0,0-1.009-1.009h-10.706a1.009,1.009,0,0,0,0,2.018h10.706a1.009,1.009,0,0,0,1.009-1.009Zm0,4.666a1.009,1.009,0,0,0-1.009-1.009h-10.706a1.009,1.009,0,1,0,0,2.005h10.706a1,1,0,0,0,1.009-1Zm12.825,4.653a1,1,0,0,0-1.009-1H1245.9a1.009,1.009,0,1,0,0,2.005H1256.6A1.009,1.009,0,0,0,1257.6,741.582Zm0,4.666a1.009,1.009,0,0,0-1.009-1.009H1245.9a1.009,1.009,0,0,0,0,2.018H1256.6A1.009,1.009,0,0,0,1257.6,746.248Zm0,4.666a1.009,1.009,0,0,0-1.009-1.009H1245.9a1.009,1.009,0,0,0,0,2.018H1256.6A1.009,1.009,0,0,0,1257.6,750.914Zm-8.109-32.649a1.173,1.173,0,1,0-1.173,1.173,1.173,1.173,0,0,0,1.173-1.173Zm3.493,0a1.173,1.173,0,1,0-.545,1.116,1.173,1.173,0,0,0,.545-1.116Zm3.506,0a1.173,1.173,0,1,0-1.173,1.173,1.173,1.173,0,0,0,1.173-1.173Zm3.493,0a1.173,1.173,0,1,0-1.173,1.173,1.16,1.16,0,0,0,1.173-1.173Zm3.493,0a1.173,1.173,0,1,0-.545,1.116A1.173,1.173,0,0,0,1263.475,718.265Zm3.506,0a1.173,1.173,0,1,0-1.173,1.173,1.173,1.173,0,0,0,1.173-1.173Zm-17.491,9.281a1.173,1.173,0,1,0-1.167,1.051A1.173,1.173,0,0,0,1249.49,727.547Zm3.493,0a1.173,1.173,0,1,0-1.16,1.16,1.172,1.172,0,0,0,1.16-1.16Zm3.506,0a1.173,1.173,0,1,0-1.167,1.051A1.173,1.173,0,0,0,1256.489,727.547Zm3.493,0a1.173,1.173,0,1,0-1.166,1.051,1.172,1.172,0,0,0,1.166-1.051Zm3.493,0a1.173,1.173,0,1,0-1.16,1.16A1.173,1.173,0,0,0,1263.475,727.547Zm3.506,0a1.173,1.173,0,1,0-1.167,1.051A1.173,1.173,0,0,0,1266.981,727.547Zm-5.536,13.405a1.145,1.145,0,1,0,0,.05Zm3.493,0a1.148,1.148,0,1,0,0,.05Zm3.493,0a1.173,1.173,0,1,0-.545,1.116,1.173,1.173,0,0,0,.545-1.116Zm3.506,0a1.148,1.148,0,1,0,0,.05Zm3.493,0a1.173,1.173,0,1,0-.545,1.116,1.173,1.173,0,0,0,.545-1.116Zm3.493,0a1.173,1.173,0,1,0-.545,1.116A1.173,1.173,0,0,0,1278.923,740.952Zm-17.478,9.622a1.133,1.133,0,1,0,0,.05Zm3.493,0a1.136,1.136,0,1,0,0,.05Zm3.493,0a1.173,1.173,0,1,0-1.16,1.16,1.16,1.16,0,0,0,1.16-1.11Zm3.506,0a1.133,1.133,0,1,0,0,.05Zm3.493,0a1.173,1.173,0,1,0-1.16,1.16,1.16,1.16,0,0,0,1.16-1.11Zm3.493,0a1.173,1.173,0,1,0-1.16,1.16,1.16,1.16,0,0,0,1.16-1.11Z" transform="translate(-885.297 -632.312)"/><path class="d" d="M1228.493,827.143h-4.035a1.009,1.009,0,0,1,0-2.018h4.073a1.009,1.009,0,1,1,0,2.018Zm1.009,3.657a1.009,1.009,0,0,0-1.009-1.009h-4.035a1.009,1.009,0,0,0,0,2.018h4.073A1.009,1.009,0,0,0,1229.5,830.8Zm0,4.666a1.009,1.009,0,0,0-1.009-1.009h-4.035a1.009,1.009,0,0,0,0,2.018h4.073A1.009,1.009,0,0,0,1229.5,835.466Zm0,4.666a1.009,1.009,0,0,0-1.009-1.009h-4.035a1.009,1.009,0,0,0,0,2.018h4.073a1.009,1.009,0,0,0,.971-1.009Zm0,4.666a1,1,0,0,0-1.009-1.009h-4.035a1.009,1.009,0,1,0,0,2.005h4.073a1,1,0,0,0,.971-1Zm0,4.653a1,1,0,0,0-1.009-1h-4.035a1.009,1.009,0,1,0,0,2.005h4.073A1,1,0,0,0,1229.5,849.451Zm0,4.666a1.009,1.009,0,0,0-1.009-1.009h-4.035a1.009,1.009,0,0,0,0,2.018h4.073A1.009,1.009,0,0,0,1229.5,854.117Zm0,4.666a1.009,1.009,0,0,0-1.009-1.009h-4.035a1.009,1.009,0,0,0,0,2.018h4.073A1.009,1.009,0,0,0,1229.5,858.783Zm15.271-32.586a1.009,1.009,0,0,0-1.009-1.009h-10.706a1.009,1.009,0,0,0,0,2.018h10.706A1.009,1.009,0,0,0,1244.774,826.2Zm0,4.666a1.009,1.009,0,0,0-1.009-1.009h-10.706a1.009,1.009,0,0,0,0,2.018h10.706a1.009,1.009,0,0,0,1.009-1.072Zm0,4.666a1.009,1.009,0,0,0-1.009-1.009h-10.706a1.009,1.009,0,0,0,0,2.018h10.706a1.009,1.009,0,0,0,1.009-1.072Zm0,4.666a1.009,1.009,0,0,0-1.009-1.009h-10.706a1.009,1.009,0,0,0,0,2.018h10.706a1.009,1.009,0,0,0,1.009-1.072Zm0,4.666a1.009,1.009,0,0,0-1.009-1.009h-10.706a1.009,1.009,0,1,0,0,2.005h10.706a1,1,0,0,0,1.009-1.059Zm12.825,4.653a1,1,0,0,0-1.009-1H1245.9a1.009,1.009,0,1,0,0,2.005H1256.6a1.009,1.009,0,0,0,1-1.072Zm0,4.666a1.009,1.009,0,0,0-1.009-1.009H1245.9a1.009,1.009,0,0,0,0,2.018H1256.6a1.009,1.009,0,0,0,1-1.072Zm0,4.666a1.009,1.009,0,0,0-1.009-1.009H1245.9a1.009,1.009,0,0,0,0,2.018H1256.6a1.009,1.009,0,0,0,1-1.072ZM1249.49,826.2a1.173,1.173,0,1,0-1.173,1.173,1.173,1.173,0,0,0,1.173-1.173Zm3.493,0a1.173,1.173,0,1,0-.545,1.116,1.173,1.173,0,0,0,.545-1.116Zm3.506,0a1.173,1.173,0,1,0-1.173,1.173,1.173,1.173,0,0,0,1.173-1.173Zm3.493,0a1.173,1.173,0,1,0-1.173,1.173,1.16,1.16,0,0,0,1.173-1.173Zm3.493,0a1.173,1.173,0,1,0-.545,1.116A1.173,1.173,0,0,0,1263.475,826.2Zm3.506,0a1.173,1.173,0,1,0-1.173,1.173,1.173,1.173,0,0,0,1.173-1.173Zm-17.491,9.332a1.173,1.173,0,1,0-1.166,1.051A1.172,1.172,0,0,0,1249.49,835.529Zm3.493,0a1.229,1.229,0,1,1,0-.063Zm3.506,0a1.173,1.173,0,1,0-1.166,1.051A1.172,1.172,0,0,0,1256.489,835.529Zm3.493,0a1.173,1.173,0,1,0-1.166,1.051A1.173,1.173,0,0,0,1259.982,835.529Zm3.493,0a1.223,1.223,0,1,1,0-.063Zm3.506,0a1.173,1.173,0,1,0-1.167,1.051A1.173,1.173,0,0,0,1266.981,835.529Zm-5.536,13.367a1.173,1.173,0,1,0-1.173,1.173,1.173,1.173,0,0,0,1.173-1.173Zm3.493,0a1.173,1.173,0,1,0-1.173,1.173A1.173,1.173,0,0,0,1264.938,848.9Zm3.493,0a1.173,1.173,0,1,0-.545,1.116A1.173,1.173,0,0,0,1268.431,848.9Zm3.506,0a1.173,1.173,0,1,0-1.173,1.173,1.173,1.173,0,0,0,1.173-1.173Zm3.493,0a1.173,1.173,0,1,0-.545,1.116A1.173,1.173,0,0,0,1275.43,848.9Zm3.493,0a1.173,1.173,0,1,0-.545,1.116,1.173,1.173,0,0,0,.545-1.116Zm-17.478,9.622a1.187,1.187,0,1,1,0-.025Zm3.493,0a1.173,1.173,0,1,1,0-.025Zm3.493,0a1.173,1.173,0,1,0-1.16,1.16,1.16,1.16,0,0,0,1.16-1.185Zm3.506,0a1.173,1.173,0,1,1,0-.025Zm3.493,0a1.173,1.173,0,1,0-1.16,1.16,1.16,1.16,0,0,0,1.16-1.185Zm3.493,0a1.173,1.173,0,1,0-1.16,1.16,1.16,1.16,0,0,0,1.16-1.185Z" transform="translate(-885.297 -701.958)"/><path class="d" d="M664.7,480.267h-4.086a1.009,1.009,0,1,1,0-2.018H664.7a1.009,1.009,0,1,1,0,2.018Zm1.009,3.657a1.009,1.009,0,0,0-1.009-1.009h-4.086a1.009,1.009,0,0,0,0,2.018H664.7A1.009,1.009,0,0,0,665.711,483.924Zm0,4.666a1.009,1.009,0,0,0-1.009-1.009h-4.086a1.009,1.009,0,0,0,0,2.018H664.7A1.009,1.009,0,0,0,665.711,488.59Zm0,4.666a1.009,1.009,0,0,0-1.009-1.009h-4.086a1,1,0,0,0,0,2.005H664.7a1,1,0,0,0,1.009-1Zm0,4.653a1,1,0,0,0-1.009-1h-4.086a1.009,1.009,0,0,0,0,2.005H664.7A1.009,1.009,0,0,0,665.711,497.909Zm0,4.666a1,1,0,0,0-1.009-1h-4.086a1,1,0,0,0,0,2.005H664.7a1.009,1.009,0,0,0,1.009-1.009Zm0,4.666a1.009,1.009,0,0,0-1.009-1.009h-4.086a1.009,1.009,0,1,0,0,2.018H664.7a1.009,1.009,0,0,0,1.009-1.009Zm0,4.666A1.009,1.009,0,0,0,664.7,510.9h-4.086a1.009,1.009,0,0,0,0,2.018H664.7a1.009,1.009,0,0,0,1.009-1.009Zm15.271-32.649a1.009,1.009,0,0,0-1.009-1.009H669.254a1.009,1.009,0,1,0,0,2.018h10.719a1.009,1.009,0,0,0,1.009-1.009Zm0,4.666a1.009,1.009,0,0,0-1.009-1.009H669.254a1.009,1.009,0,1,0,0,2.018h10.719a1.009,1.009,0,0,0,1.009-1.009Zm0,4.666a1.009,1.009,0,0,0-1.009-1.009H669.254a1.009,1.009,0,0,0,0,2.018h10.719A1.009,1.009,0,0,0,680.982,488.59Zm0,4.666a1.009,1.009,0,0,0-1.009-1.009H669.254a1.009,1.009,0,0,0-1.009,1.009,1,1,0,0,0,1.009,1h10.719a1,1,0,0,0,1.009-1Zm0,4.653a1,1,0,0,0-1.009-1H669.254a1.009,1.009,0,1,0,0,2.005h10.719A1.009,1.009,0,0,0,680.982,497.909Zm12.825,4.666a1,1,0,0,0-1.009-1H682.079a1,1,0,0,0-1.009,1,1.009,1.009,0,0,0,1.009,1.009H692.8a1.009,1.009,0,0,0,1.009-1.009Zm0,4.666a1.009,1.009,0,0,0-1.009-1.009H682.079a1.009,1.009,0,0,0,0,2.018H692.8a1.009,1.009,0,0,0,1.009-1.009Zm0,4.666A1.009,1.009,0,0,0,692.8,510.9H682.079a1.009,1.009,0,0,0,0,2.018H692.8a1.009,1.009,0,0,0,1.009-1.009Zm-8.121-32.649a1.173,1.173,0,1,0-.545,1.116,1.173,1.173,0,0,0,.545-1.116Zm3.506,0a1.173,1.173,0,1,0-1.173,1.173,1.173,1.173,0,0,0,1.173-1.173Zm3.493,0a1.173,1.173,0,1,0-.545,1.116A1.173,1.173,0,0,0,692.685,479.258Zm3.506,0a1.173,1.173,0,1,0-1.173,1.173,1.173,1.173,0,0,0,1.173-1.173Zm3.493,0a1.173,1.173,0,1,0-1.173,1.173,1.16,1.16,0,0,0,1.173-1.173Zm3.493,0a1.173,1.173,0,1,0-.545,1.116,1.173,1.173,0,0,0,.545-1.116Zm-17.491,9.332a1.173,1.173,0,1,0-1.16,1.16,1.173,1.173,0,0,0,1.16-1.16Zm3.506,0a1.173,1.173,0,1,0-1.166,1.051,1.173,1.173,0,0,0,1.166-1.051Zm3.493,0a1.173,1.173,0,1,0-1.16,1.16,1.173,1.173,0,0,0,1.16-1.16Zm3.506,0a1.173,1.173,0,1,0-1.166,1.051,1.173,1.173,0,0,0,1.166-1.051Zm3.493,0a1.173,1.173,0,1,0-1.167,1.051,1.173,1.173,0,0,0,1.167-1.051Zm3.493,0a1.173,1.173,0,1,0-1.16,1.16,1.173,1.173,0,0,0,1.16-1.16ZM697.641,502a1.173,1.173,0,1,0-.545,1.116,1.173,1.173,0,0,0,.545-1.116Zm3.506,0a1.173,1.173,0,1,0-1.173,1.173A1.173,1.173,0,0,0,701.146,502Zm3.493,0a1.173,1.173,0,1,0-1.173,1.173A1.173,1.173,0,0,0,704.64,502Zm3.493,0a1.173,1.173,0,1,0-.545,1.116,1.173,1.173,0,0,0,.545-1.116Zm3.506,0a1.173,1.173,0,1,0-1.173,1.173A1.173,1.173,0,0,0,711.639,502Zm3.493,0a1.173,1.173,0,1,0-.545,1.116,1.173,1.173,0,0,0,.545-1.116Zm-17.491,9.622a1.173,1.173,0,1,0-1.16,1.16,1.173,1.173,0,0,0,1.16-1.16Zm3.506,0a1.173,1.173,0,1,0-1.166,1.051,1.173,1.173,0,0,0,1.166-1.051Zm3.493,0a1.173,1.173,0,1,0-1.166,1.051,1.173,1.173,0,0,0,1.166-1.051Zm3.493,0a1.15,1.15,0,1,1-.025,0Zm3.506,0a1.173,1.173,0,1,0-1.166,1.051A1.173,1.173,0,0,0,711.639,511.617Zm3.493,0a1.173,1.173,0,1,0-1.16,1.16,1.173,1.173,0,0,0,1.16-1.16Z" transform="translate(-521.535 -478.085)"/><path class="d" d="M664.7,585.241h-4.086a1,1,0,0,1,0-2.005H664.7a1.009,1.009,0,0,1,1.009,1.009,1,1,0,0,1-1.009,1Zm1.009,3.657a1,1,0,0,0-1.009-1h-4.086a1.009,1.009,0,0,0,0,2.005H664.7A1.009,1.009,0,0,0,665.711,588.9Zm0,4.666a1,1,0,0,0-1.009-1h-4.086a1,1,0,0,0,0,2.005H664.7a1.009,1.009,0,0,0,1.009-1.009Zm0,4.666a1.009,1.009,0,0,0-1.009-1.009h-4.086a1.009,1.009,0,0,0,0,2.018H664.7A1.009,1.009,0,0,0,665.711,598.229Zm0,4.666a1.009,1.009,0,0,0-1.009-1.009h-4.086a1.009,1.009,0,0,0,0,2.018H664.7a1.009,1.009,0,0,0,1.009-1.009Zm0,4.666a1.009,1.009,0,0,0-1.009-1.009h-4.086a1.009,1.009,0,0,0,0,2.018H664.7A1.009,1.009,0,0,0,665.711,607.561Zm0,4.666a1.009,1.009,0,0,0-1.009-1.009h-4.086a1.009,1.009,0,0,0,0,2.018H664.7A1.009,1.009,0,0,0,665.711,612.227Zm0,4.666a1.009,1.009,0,0,0-1.009-1.009h-4.086a1.009,1.009,0,0,0,0,2.005H664.7a1,1,0,0,0,1.009-1Zm15.271-32.661a1.009,1.009,0,0,0-1.009-1.009H669.254a1.009,1.009,0,0,0-1.009,1.009,1,1,0,0,0,1.009,1h10.719a1,1,0,0,0,1.009-1Zm0,4.653a1,1,0,0,0-1.009-1H669.254a1.009,1.009,0,1,0,0,2.005h10.719a1.009,1.009,0,0,0,1.009-1Zm0,4.666a1,1,0,0,0-1.009-1H669.254a1,1,0,0,0-1.009,1,1.009,1.009,0,0,0,1.009,1.009h10.719a1.009,1.009,0,0,0,1.009-1Zm0,4.666a1.009,1.009,0,0,0-1.009-1.009H669.254a1.009,1.009,0,1,0,0,2.018h10.719a1.009,1.009,0,0,0,1.009-1Zm0,4.666a1.009,1.009,0,0,0-1.009-1.009H669.254a1.009,1.009,0,0,0,0,2.018h10.719a1.009,1.009,0,0,0,1.009-1Zm12.825,4.666a1.009,1.009,0,0,0-1.009-1.009H682.079a1.009,1.009,0,0,0,0,2.018H692.8a1.009,1.009,0,0,0,1.009-1Zm0,4.666a1.009,1.009,0,0,0-1.009-1.009H682.079a1.009,1.009,0,0,0,0,2.018H692.8a1.009,1.009,0,0,0,1.009-1Zm0,4.666a1.009,1.009,0,0,0-1.009-1.009H682.079a1.009,1.009,0,1,0,0,2.005H692.8a1,1,0,0,0,1.009-.984Zm-8.121-32.649a1.173,1.173,0,1,0-1.16,1.16A1.173,1.173,0,0,0,685.686,584.232Zm3.506,0a1.173,1.173,0,1,0-1.167,1.051A1.173,1.173,0,0,0,689.192,584.232Zm3.493,0a1.173,1.173,0,1,0-1.16,1.16A1.173,1.173,0,0,0,692.685,584.232Zm3.506,0a1.173,1.173,0,1,0-1.167,1.051A1.173,1.173,0,0,0,696.191,584.232Zm3.493,0a1.173,1.173,0,1,0-1.167,1.051A1.173,1.173,0,0,0,699.684,584.232Zm3.493,0a1.173,1.173,0,1,0-1.16,1.16A1.173,1.173,0,0,0,703.177,584.232Zm-17.491,9.319a1.173,1.173,0,1,0-.545,1.116A1.173,1.173,0,0,0,685.686,593.551Zm3.506,0a1.166,1.166,0,1,0,0,.013Zm3.493,0a1.173,1.173,0,1,0-.545,1.116A1.173,1.173,0,0,0,692.685,593.551Zm3.506,0a1.167,1.167,0,1,0,0,.013Zm3.493,0a1.173,1.173,0,1,0-1.173,1.173,1.16,1.16,0,0,0,1.173-1.16Zm3.493,0a1.173,1.173,0,1,0-.545,1.116A1.173,1.173,0,0,0,703.177,593.551Zm-5.536,13.38a1.173,1.173,0,1,0-1.16,1.16A1.173,1.173,0,0,0,697.641,606.931Zm3.506,0a1.173,1.173,0,1,0-1.167,1.051A1.173,1.173,0,0,0,701.146,606.931Zm3.493,0a1.173,1.173,0,1,0-1.167,1.051A1.173,1.173,0,0,0,704.64,606.931Zm3.493,0a1.148,1.148,0,1,1-.025,0Zm3.506,0a1.173,1.173,0,1,0-1.167,1.051A1.173,1.173,0,0,0,711.639,606.931Zm3.493,0a1.173,1.173,0,1,0-1.16,1.16,1.173,1.173,0,0,0,1.16-1.16Zm-17.491,9.609a1.173,1.173,0,1,0-.545,1.116A1.173,1.173,0,0,0,697.641,616.54Zm3.506,0a1.148,1.148,0,1,0,0,.05Zm3.493,0a1.148,1.148,0,1,0,0,.05Zm3.493,0a1.173,1.173,0,1,0-.545,1.116A1.173,1.173,0,0,0,708.133,616.54Zm3.506,0a1.148,1.148,0,1,0,0,.05Zm3.493,0a1.173,1.173,0,1,0-.545,1.116A1.173,1.173,0,0,0,715.132,616.54Z" transform="translate(-521.535 -545.744)"/><path class="d" d="M664.7,693.018h-4.086a1,1,0,0,1,0-2.005H664.7a1.009,1.009,0,0,1,1.009,1.009,1,1,0,0,1-1.009,1Zm1.009,3.657a1,1,0,0,0-1.009-1h-4.086a1.009,1.009,0,0,0,0,2.005H664.7a1.009,1.009,0,0,0,1.009-1.021Zm0,4.666a1.009,1.009,0,0,0-1.009-1.009h-4.086a1.009,1.009,0,1,0,0,2.018H664.7A1.009,1.009,0,0,0,665.711,701.341Zm0,4.666A1.009,1.009,0,0,0,664.7,705h-4.086a1.009,1.009,0,0,0,0,2.018H664.7a1.009,1.009,0,0,0,1.009-1.009Zm0,4.666a1.009,1.009,0,0,0-1.009-1.009h-4.086a1.009,1.009,0,1,0,0,2.018H664.7a1.009,1.009,0,0,0,1.009-1.009Zm0,4.666a1.009,1.009,0,0,0-1.009-1.009h-4.086a1.009,1.009,0,0,0,0,2.018H664.7a1.009,1.009,0,0,0,1.009-1.009Zm0,4.666A1.009,1.009,0,0,0,664.7,719h-4.086a1.009,1.009,0,0,0,0,2.018H664.7A1.009,1.009,0,0,0,665.711,720Zm0,4.666a1.009,1.009,0,0,0-1.009-1.009h-4.086a1.009,1.009,0,0,0,0,2.005H664.7a1,1,0,0,0,1.009-1Zm15.271-32.649a1.009,1.009,0,0,0-1.009-1.009H669.254a1.009,1.009,0,0,0-1.009,1.009,1,1,0,0,0,1.009,1h10.719a1,1,0,0,0,1.009-1Zm0,4.653a1,1,0,0,0-1.009-1H669.254a1.009,1.009,0,1,0,0,2.005h10.719a1.009,1.009,0,0,0,1.009-1.021Zm0,4.666a1.009,1.009,0,0,0-1.009-1.009H669.254a1.009,1.009,0,0,0,0,2.018h10.719a1.009,1.009,0,0,0,1.009-1.009Zm0,4.666A1.009,1.009,0,0,0,679.973,705H669.254a1.009,1.009,0,1,0,0,2.018h10.719a1.009,1.009,0,0,0,1.009-1.009Zm0,4.666a1.009,1.009,0,0,0-1.009-1.009H669.254a1.009,1.009,0,0,0,0,2.018h10.719a1.009,1.009,0,0,0,1.009-1.009Zm12.825,4.666a1.009,1.009,0,0,0-1.009-1.009H682.079a1.009,1.009,0,0,0,0,2.018H692.8a1.009,1.009,0,0,0,1.009-1.009Zm0,4.666A1.009,1.009,0,0,0,692.8,719H682.079a1.009,1.009,0,0,0,0,2.018H692.8A1.009,1.009,0,0,0,693.807,720Zm0,4.666a1.009,1.009,0,0,0-1.009-1.009H682.079a1.009,1.009,0,1,0,0,2.005H692.8a1,1,0,0,0,1.009-1Zm-8.121-32.649a1.173,1.173,0,1,0-1.16,1.16,1.173,1.173,0,0,0,1.16-1.16Zm3.506,0a1.173,1.173,0,1,0-1.167,1.051A1.173,1.173,0,0,0,689.192,692.021Zm3.493,0a1.173,1.173,0,1,0-1.16,1.16,1.173,1.173,0,0,0,1.16-1.16Zm3.506,0a1.173,1.173,0,1,0-1.167,1.051A1.173,1.173,0,0,0,696.191,692.021Zm3.493,0a1.173,1.173,0,1,0-1.167,1.051A1.173,1.173,0,0,0,699.684,692.021Zm3.493,0a1.173,1.173,0,1,0-1.16,1.16,1.173,1.173,0,0,0,1.16-1.16Zm-17.491,9.319a1.173,1.173,0,1,0-.545,1.116A1.173,1.173,0,0,0,685.686,701.341Zm3.506,0a1.173,1.173,0,1,0-1.173,1.173,1.173,1.173,0,0,0,1.173-1.173Zm3.493,0a1.173,1.173,0,1,0-.545,1.116A1.173,1.173,0,0,0,692.685,701.341Zm3.506,0a1.173,1.173,0,1,0-1.173,1.173,1.173,1.173,0,0,0,1.173-1.173Zm3.493,0a1.173,1.173,0,1,0-1.173,1.173,1.16,1.16,0,0,0,1.173-1.173Zm3.493,0a1.173,1.173,0,1,0-.545,1.116A1.173,1.173,0,0,0,703.177,701.341Zm-5.536,13.418a1.173,1.173,0,1,0-1.16,1.16,1.173,1.173,0,0,0,1.16-1.16Zm3.506,0a1.173,1.173,0,1,0-1.166,1.051,1.173,1.173,0,0,0,1.166-1.051Zm3.493,0a1.173,1.173,0,1,0-1.166,1.051,1.173,1.173,0,0,0,1.166-1.051Zm3.493,0a1.153,1.153,0,1,1-.025,0Zm3.506,0a1.173,1.173,0,1,0-1.166,1.051A1.173,1.173,0,0,0,711.639,714.758Zm3.493,0a1.173,1.173,0,1,0-1.16,1.16,1.173,1.173,0,0,0,1.16-1.16Zm-17.491,9.647a1.173,1.173,0,1,0-.545,1.116A1.173,1.173,0,0,0,697.641,724.405Zm3.506,0a1.173,1.173,0,1,0-1.173,1.173A1.173,1.173,0,0,0,701.146,724.405Zm3.493,0a1.173,1.173,0,1,0-1.173,1.173A1.173,1.173,0,0,0,704.64,724.405Zm3.493,0a1.173,1.173,0,1,0-.545,1.116A1.173,1.173,0,0,0,708.133,724.405Zm3.506,0a1.173,1.173,0,1,0-1.173,1.173A1.173,1.173,0,0,0,711.639,724.405Zm3.493,0a1.173,1.173,0,1,0-.545,1.116,1.173,1.173,0,0,0,.545-1.116Z" transform="translate(-521.535 -615.298)"/><path class="d" d="M841.079,480.267h-4.124a1.009,1.009,0,1,1,0-2.018h4.086a1.009,1.009,0,1,1,0,2.018Zm1,3.657a1,1,0,0,0-1-1.009h-4.124a1.009,1.009,0,0,0,0,2.018h4.086a1,1,0,0,0,1.034-1.009Zm0,4.666a1,1,0,0,0-1-1.009h-4.124a1.009,1.009,0,0,0,0,2.018h4.086a1,1,0,0,0,1.034-1.009Zm0,4.666a1,1,0,0,0-1-1.009h-4.124a1.009,1.009,0,0,0-1.009,1.009,1,1,0,0,0,1.009,1h4.086a1,1,0,0,0,1.034-1Zm0,4.653a1,1,0,0,0-1-1h-4.124a1.009,1.009,0,1,0,0,2.005h4.086a1,1,0,0,0,1.034-1.009Zm0,4.666a1,1,0,0,0-1-1h-4.124a1,1,0,0,0-1.009,1,1.009,1.009,0,0,0,1.009,1.009h4.086a1,1,0,0,0,1.034-1.009Zm0,4.666a1,1,0,0,0-1-1.009h-4.124a1.009,1.009,0,1,0,0,2.018h4.086a1,1,0,0,0,1.034-1.009Zm0,4.666a1,1,0,0,0-1-1.009h-4.124a1.009,1.009,0,0,0,0,2.018h4.086a1,1,0,0,0,1.034-1.009Zm15.271-32.649a1.009,1.009,0,0,0-1.009-1.009H845.632a1.009,1.009,0,1,0,0,2.018h10.706a1.009,1.009,0,0,0,1.009-1.009Zm0,4.666a1.009,1.009,0,0,0-1.009-1.009H845.632a1.009,1.009,0,1,0,0,2.018h10.706a1.009,1.009,0,0,0,1.009-1.009Zm0,4.666a1.009,1.009,0,0,0-1.009-1.009H845.632a1.009,1.009,0,0,0,0,2.018h10.706A1.009,1.009,0,0,0,857.347,488.59Zm0,4.666a1.009,1.009,0,0,0-1.009-1.009H845.632a1.009,1.009,0,0,0-1.009,1.009,1,1,0,0,0,1.009,1h10.706a1,1,0,0,0,1.009-1Zm0,4.653a1,1,0,0,0-1.009-1H845.632a1.009,1.009,0,1,0,0,2.005h10.706A1.009,1.009,0,0,0,857.347,497.909Zm12.825,4.666a1,1,0,0,0-1.009-1H858.457a1,1,0,0,0-1.009,1,1.009,1.009,0,0,0,1.009,1.009h10.706a1.009,1.009,0,0,0,1.009-1.009Zm0,4.666a1.009,1.009,0,0,0-1.009-1.009H858.457a1.009,1.009,0,1,0,0,2.018h10.706a1.009,1.009,0,0,0,1.009-1.009Zm0,4.666a1.009,1.009,0,0,0-1.009-1.009H858.457a1.009,1.009,0,0,0,0,2.018h10.706a1.009,1.009,0,0,0,1.009-1.009Zm-8.109-32.649a1.173,1.173,0,1,0-1.173,1.173,1.173,1.173,0,0,0,1.173-1.173Zm3.493,0a1.173,1.173,0,1,0-.545,1.116,1.173,1.173,0,0,0,.545-1.116Zm3.506,0a1.173,1.173,0,1,0-1.173,1.173,1.173,1.173,0,0,0,1.173-1.173Zm3.493,0a1.173,1.173,0,1,0-.545,1.116,1.173,1.173,0,0,0,.545-1.116Zm3.493,0a1.173,1.173,0,1,0-.545,1.116,1.173,1.173,0,0,0,.545-1.116Zm3.506,0a1.173,1.173,0,1,0-1.173,1.173,1.173,1.173,0,0,0,1.173-1.173Zm-17.491,9.332a1.173,1.173,0,1,0-1.166,1.051A1.173,1.173,0,0,0,862.063,488.59Zm3.493,0a1.173,1.173,0,1,0-1.16,1.16,1.173,1.173,0,0,0,1.16-1.16Zm3.506,0a1.173,1.173,0,1,0-1.167,1.051A1.173,1.173,0,0,0,869.062,488.59Zm3.493,0a1.173,1.173,0,1,0-1.16,1.16,1.173,1.173,0,0,0,1.16-1.16Zm3.493,0a1.173,1.173,0,1,0-1.16,1.16,1.173,1.173,0,0,0,1.16-1.16Zm3.506,0a1.173,1.173,0,1,0-1.166,1.051,1.173,1.173,0,0,0,1.166-1.051ZM874.018,502a1.173,1.173,0,1,0-1.173,1.173A1.173,1.173,0,0,0,874.018,502Zm3.493,0a1.173,1.173,0,1,0-.545,1.116,1.173,1.173,0,0,0,.545-1.116ZM881,502a1.173,1.173,0,1,0-.545,1.116A1.173,1.173,0,0,0,881,502Zm3.506,0a1.173,1.173,0,1,0-1.173,1.173A1.173,1.173,0,0,0,884.51,502ZM888,502a1.173,1.173,0,1,0-.545,1.116A1.173,1.173,0,0,0,888,502Zm3.493,0a1.16,1.16,0,1,0-.335.828A1.16,1.16,0,0,0,891.5,502Zm-17.478,9.622a1.173,1.173,0,1,0-1.166,1.051,1.173,1.173,0,0,0,1.166-1.051Zm3.493,0a1.173,1.173,0,1,0-1.16,1.16,1.173,1.173,0,0,0,1.16-1.16Zm3.493,0a1.173,1.173,0,1,0-1.16,1.16,1.173,1.173,0,0,0,1.16-1.16Zm3.506,0a1.173,1.173,0,1,0-1.167,1.051A1.173,1.173,0,0,0,884.51,511.617Zm3.493,0a1.173,1.173,0,1,0-1.16,1.16,1.173,1.173,0,0,0,1.16-1.16Zm3.493,0a1.16,1.16,0,1,0-1.16,1.16,1.173,1.173,0,0,0,1.16-1.16Z" transform="translate(-635.25 -478.085)"/><path class="d" d="M841.079,588.021h-4.124a1.009,1.009,0,0,1,0-2.018h4.086a1.009,1.009,0,1,1,0,2.018Zm1,3.657a1,1,0,0,0-1-1.009h-4.124a1.009,1.009,0,0,0,0,2.018h4.086a1,1,0,0,0,1.034-1.009Zm0,4.666a1,1,0,0,0-1-1.009h-4.124a1.009,1.009,0,0,0,0,2.018h4.086a1,1,0,0,0,1.034-1.009Zm0,4.666a1,1,0,0,0-1-1.009h-4.124a1.009,1.009,0,1,0,0,2.005h4.086a1,1,0,0,0,1.034-1Zm0,4.653a1,1,0,0,0-1-1h-4.124a1.009,1.009,0,1,0,0,2.005h4.086a1,1,0,0,0,1.034-1.009Zm0,4.666a1,1,0,0,0-1-1h-4.124a1,1,0,0,0-1.009,1,1.009,1.009,0,0,0,1.009,1.009h4.086a1,1,0,0,0,1.034-1.009Zm0,4.666a1,1,0,0,0-1-1.009h-4.124a1.009,1.009,0,0,0,0,2.018h4.086A1,1,0,0,0,842.076,615Zm0,4.666a1,1,0,0,0-1-1.009h-4.124a1.009,1.009,0,0,0,0,2.018h4.086a1,1,0,0,0,1.034-1.009Zm15.271-32.649A1.009,1.009,0,0,0,856.338,586H845.632a1.009,1.009,0,0,0,0,2.018h10.706A1.009,1.009,0,0,0,857.347,587.012Zm0,4.666a1.009,1.009,0,0,0-1.009-1.009H845.632a1.009,1.009,0,1,0,0,2.018h10.706A1.009,1.009,0,0,0,857.347,591.678Zm0,4.666a1.009,1.009,0,0,0-1.009-1.009H845.632a1.009,1.009,0,0,0,0,2.018h10.706A1.009,1.009,0,0,0,857.347,596.344Zm0,4.666A1.009,1.009,0,0,0,856.338,600H845.632a1.009,1.009,0,1,0,0,2.005h10.706a1,1,0,0,0,1.009-1Zm0,4.653a1,1,0,0,0-1.009-1H845.632a1.009,1.009,0,1,0,0,2.005h10.706a1.009,1.009,0,0,0,1.009-1.009Zm12.825,4.666a1,1,0,0,0-1.009-1H858.457a1,1,0,0,0-1.009,1,1.009,1.009,0,0,0,1.009,1.009h10.706a1.009,1.009,0,0,0,1.009-1.009Zm0,4.666a1.009,1.009,0,0,0-1.009-1.009H858.457a1.009,1.009,0,0,0,0,2.018h10.706A1.009,1.009,0,0,0,870.172,615Zm0,4.666a1.009,1.009,0,0,0-1.009-1.009H858.457a1.009,1.009,0,0,0,0,2.018h10.706a1.009,1.009,0,0,0,1.009-1.009Zm-8.109-32.649a1.173,1.173,0,1,0-1.173,1.173,1.173,1.173,0,0,0,1.173-1.173Zm3.493,0a1.173,1.173,0,1,0-.545,1.116,1.173,1.173,0,0,0,.545-1.116Zm3.506,0a1.173,1.173,0,1,0-1.173,1.173,1.173,1.173,0,0,0,1.173-1.173Zm3.493,0a1.173,1.173,0,1,0-.545,1.116,1.173,1.173,0,0,0,.545-1.116Zm3.493,0a1.173,1.173,0,1,0-.545,1.116,1.173,1.173,0,0,0,.545-1.116Zm3.506,0a1.173,1.173,0,1,0-1.173,1.173,1.173,1.173,0,0,0,1.173-1.173Zm-17.491,9.332A1.173,1.173,0,1,0,860.9,597.4,1.173,1.173,0,0,0,862.063,596.344Zm3.493,0a1.173,1.173,0,1,0-1.16,1.16A1.173,1.173,0,0,0,865.557,596.344Zm3.506,0A1.173,1.173,0,1,0,867.9,597.4,1.173,1.173,0,0,0,869.062,596.344Zm3.493,0a1.173,1.173,0,1,0-1.16,1.16,1.173,1.173,0,0,0,1.16-1.16Zm3.493,0a1.173,1.173,0,1,0-1.16,1.16,1.173,1.173,0,0,0,1.16-1.16Zm3.506,0a1.173,1.173,0,1,0-1.166,1.051,1.173,1.173,0,0,0,1.166-1.051Zm-5.536,13.405a1.173,1.173,0,1,0-1.173,1.173,1.173,1.173,0,0,0,1.173-1.173Zm3.493,0a1.173,1.173,0,1,0-.545,1.116,1.173,1.173,0,0,0,.545-1.116Zm3.493,0a1.173,1.173,0,1,0-.545,1.116,1.173,1.173,0,0,0,.545-1.116Zm3.506,0a1.173,1.173,0,1,0-1.173,1.173,1.173,1.173,0,0,0,1.173-1.173Zm3.493,0a1.173,1.173,0,1,0-.545,1.116,1.173,1.173,0,0,0,.545-1.116Zm3.493,0a1.16,1.16,0,1,0-.335.828,1.16,1.16,0,0,0,.335-.828Zm-17.478,9.622a1.173,1.173,0,1,0-1.166,1.051,1.173,1.173,0,0,0,1.166-1.051Zm3.493,0a1.173,1.173,0,1,0-1.16,1.16,1.173,1.173,0,0,0,1.16-1.16Zm3.493,0a1.173,1.173,0,1,0-1.16,1.16,1.173,1.173,0,0,0,1.16-1.16Zm3.506,0a1.173,1.173,0,1,0-1.167,1.051A1.173,1.173,0,0,0,884.51,619.371Zm3.493,0a1.173,1.173,0,1,0-1.16,1.16,1.173,1.173,0,0,0,1.16-1.16Zm3.493,0a1.16,1.16,0,1,0-1.16,1.16,1.173,1.173,0,0,0,1.16-1.16Z" transform="translate(-635.25 -547.617)"/><path class="d" d="M275.573,719.274h-4.086a1.009,1.009,0,0,1,0-2.018h4.086a1.009,1.009,0,0,1,0,2.018Zm1.009,3.657a1.009,1.009,0,0,0-1.009-1.009h-4.086a1.009,1.009,0,1,0,0,2.018h4.086a1.009,1.009,0,0,0,1.034-1.009Zm0,4.666a1.009,1.009,0,0,0-1.009-1.009h-4.086a1.009,1.009,0,0,0,0,2.018h4.086a1.009,1.009,0,0,0,1.034-1.059Zm0,4.666a1.009,1.009,0,0,0-1.009-1.009h-4.086a1.009,1.009,0,1,0,0,2.018h4.086a1.009,1.009,0,0,0,1.034-1.009Zm0,4.666a1.009,1.009,0,0,0-1.009-1.009h-4.086a1.009,1.009,0,1,0,0,2.005h4.086a1,1,0,0,0,1.034-1Zm0,4.653a1,1,0,0,0-1.009-1h-4.086a1.009,1.009,0,1,0,0,2.005h4.086a1.009,1.009,0,0,0,1.034-1.009Zm0,4.666a1.009,1.009,0,0,0-1.009-1.009h-4.086a1.009,1.009,0,0,0,0,2.018h4.086a1.009,1.009,0,0,0,1.034-1.009Zm0,4.666a1.009,1.009,0,0,0-1.009-1.009h-4.086a1.009,1.009,0,1,0,0,2.018h4.086a1.009,1.009,0,0,0,1.034-1.009Zm15.259-32.649a1.009,1.009,0,0,0-1.009-1.009H280.125a1.009,1.009,0,0,0,0,2.018h10.706A1.009,1.009,0,0,0,291.84,718.265Zm0,4.666a1.009,1.009,0,0,0-1.009-1.009H280.125a1.009,1.009,0,0,0,0,2.018h10.706A1.009,1.009,0,0,0,291.84,722.931Zm0,4.666a1.009,1.009,0,0,0-1.009-1.009H280.125a1.009,1.009,0,1,0,0,2.018h10.706a1.009,1.009,0,0,0,1.009-1.059Zm0,4.666a1.009,1.009,0,0,0-1.009-1.009H280.125a1.009,1.009,0,1,0,0,2.018h10.706a1.009,1.009,0,0,0,1.009-1.009Zm0,4.666a1.009,1.009,0,0,0-1.009-1.009H280.125a1.009,1.009,0,1,0,0,2.005h10.706a1,1,0,0,0,1.009-1Zm12.825,4.653a1,1,0,0,0-1.009-1H293a1.009,1.009,0,1,0,0,2.005h10.706A1,1,0,0,0,304.665,741.582Zm0,4.666a1.009,1.009,0,0,0-1.009-1.009H293a1.009,1.009,0,0,0,0,2.018h10.706A1.009,1.009,0,0,0,304.665,746.248Zm0,4.666a1.009,1.009,0,0,0-1.009-1.009H293a1.009,1.009,0,0,0,0,2.018h10.706a1.009,1.009,0,0,0,.958-1.009Zm-8.109-32.649a1.173,1.173,0,1,0-.545,1.116A1.173,1.173,0,0,0,296.557,718.265Zm3.493,0a1.173,1.173,0,1,0-.545,1.116A1.173,1.173,0,0,0,300.05,718.265Zm3.506,0a1.173,1.173,0,1,0-1.173,1.173,1.173,1.173,0,0,0,1.173-1.173Zm3.493,0a1.173,1.173,0,1,0-.545,1.116A1.173,1.173,0,0,0,307.049,718.265Zm3.506,0a1.173,1.173,0,1,0-1.173,1.173A1.173,1.173,0,0,0,310.554,718.265Zm3.493,0a1.173,1.173,0,1,0-1.173,1.173,1.16,1.16,0,0,0,1.173-1.173Zm-17.491,9.281a1.173,1.173,0,1,0-1.16,1.16A1.173,1.173,0,0,0,296.557,727.547Zm3.493,0a1.173,1.173,0,1,0-1.16,1.16A1.173,1.173,0,0,0,300.05,727.547Zm3.506,0a1.173,1.173,0,1,0-1.166,1.051,1.173,1.173,0,0,0,1.166-1.051Zm3.493,0a1.173,1.173,0,1,0-1.16,1.16A1.173,1.173,0,0,0,307.049,727.547Zm3.506,0a1.173,1.173,0,1,0-1.166,1.051,1.173,1.173,0,0,0,1.166-1.051Zm3.493,0a1.173,1.173,0,1,0-1.166,1.051,1.173,1.173,0,0,0,1.166-1.051Zm-5.536,13.405a1.148,1.148,0,1,0,0,.05Zm3.493,0a1.173,1.173,0,1,0-.545,1.116A1.173,1.173,0,0,0,312,740.952Zm3.506,0a1.147,1.147,0,1,0,0,.05Zm3.493,0a1.148,1.148,0,1,0,0,.05Zm3.493,0a1.173,1.173,0,1,0-.545,1.116A1.173,1.173,0,0,0,322.5,740.952Zm3.506,0a1.146,1.146,0,1,0,0,.05Zm-17.491,9.672a1.173,1.173,0,1,0-1.173,1.16,1.173,1.173,0,0,0,1.173-1.16Zm3.493,0a1.173,1.173,0,1,0-1.16,1.16A1.16,1.16,0,0,0,312,750.624Zm3.506,0a1.173,1.173,0,1,0-1.173,1.16,1.173,1.173,0,0,0,1.173-1.16Zm3.493,0a1.173,1.173,0,1,0-1.173,1.16,1.173,1.173,0,0,0,1.173-1.16Zm3.493,0a1.173,1.173,0,1,0-1.16,1.16A1.16,1.16,0,0,0,322.5,750.624Zm3.506,0a1.173,1.173,0,1,0-1.173,1.16,1.173,1.173,0,0,0,1.173-1.16Z" transform="translate(-270.365 -632.312)"/><path class="d" d="M275.573,824.141h-4.086a1.009,1.009,0,1,1,0-2.018h4.086a1.009,1.009,0,1,1,0,2.018Zm1.009,3.657a1.009,1.009,0,0,0-1.009-1.009h-4.086a1.009,1.009,0,1,0,0,2.005h4.086a1,1,0,0,0,1.034-.946Zm0,4.653a1,1,0,0,0-1.009-1h-4.086a1.009,1.009,0,1,0,0,2.005h4.086a1.009,1.009,0,0,0,1.034-.958Zm0,4.666a1.009,1.009,0,0,0-1.009-1.009h-4.086a1.009,1.009,0,0,0,0,2.018h4.086a1.009,1.009,0,0,0,1.034-.958Zm0,4.666a1.009,1.009,0,0,0-1.009-1.009h-4.086a1.009,1.009,0,1,0,0,2.018h4.086a1.009,1.009,0,0,0,1.034-1Zm0,4.666a1.009,1.009,0,0,0-1.009-1.009h-4.086a1.009,1.009,0,0,0,0,2.018h4.086a1.009,1.009,0,0,0,1.034-.958Zm0,4.666a1.009,1.009,0,0,0-1.009-1.009h-4.086a1.009,1.009,0,1,0,0,2.018h4.086a1.009,1.009,0,0,0,1.034-.958Zm0,4.666a1.009,1.009,0,0,0-1.009-1.009h-4.086a1.009,1.009,0,0,0-1.009,1.009,1,1,0,0,0,1.009,1h4.086a1,1,0,0,0,1.034-.946Zm15.259-32.649a1.009,1.009,0,0,0-1.009-1.009H280.125a1.009,1.009,0,1,0,0,2.018h10.706a1.009,1.009,0,0,0,1.009-.958Zm0,4.666a1.009,1.009,0,0,0-1.009-1.009H280.125a1.009,1.009,0,1,0,0,2.005h10.706a1,1,0,0,0,1.009-.946Zm0,4.653a1,1,0,0,0-1.009-1H280.125a1.009,1.009,0,1,0,0,2.005h10.706a1.009,1.009,0,0,0,1.009-.958Zm0,4.666a1.009,1.009,0,0,0-1.009-1.009H280.125a1.009,1.009,0,1,0,0,2.018h10.706a1.009,1.009,0,0,0,1.009-.958Zm0,4.666a1.009,1.009,0,0,0-1.009-1.009H280.125a1.009,1.009,0,1,0,0,2.018h10.706a1.009,1.009,0,0,0,1.009-1Zm12.825,4.666a1.009,1.009,0,0,0-1.009-1.009H293a1.009,1.009,0,0,0,0,2.018h10.706a1.009,1.009,0,0,0,.958-.958Zm0,4.666a1.009,1.009,0,0,0-1.009-1.009H293a1.009,1.009,0,1,0,0,2.018h10.706a1.009,1.009,0,0,0,.958-.958Zm0,4.666a1.009,1.009,0,0,0-1.009-1.009H293a1.009,1.009,0,0,0-1.009,1.009,1,1,0,0,0,1.009,1h10.706a1,1,0,0,0,.958-.946Zm-8.109-32.649a1.135,1.135,0,1,0,0,.051Zm3.493,0a1.135,1.135,0,1,0,0,.051Zm3.506,0a1.173,1.173,0,1,0-1.166,1.051,1.173,1.173,0,0,0,1.166-1.051Zm3.493,0a1.135,1.135,0,1,0,0,.051Zm3.506,0a1.173,1.173,0,1,0-1.166,1.051,1.173,1.173,0,0,0,1.166-1.051Zm3.493,0a1.173,1.173,0,1,0-1.166,1.051,1.173,1.173,0,0,0,1.166-1.051Zm-17.491,9.319a1.173,1.173,0,1,0-1.16,1.173,1.16,1.16,0,0,0,1.16-1.122Zm3.493,0a1.173,1.173,0,1,0-.545,1.116A1.173,1.173,0,0,0,300.05,832.452Zm3.506,0a1.147,1.147,0,1,0,0,.051Zm3.493,0a1.173,1.173,0,1,0-.545,1.116A1.173,1.173,0,0,0,307.049,832.452Zm3.506,0a1.147,1.147,0,1,0,0,.051Zm3.493,0a1.173,1.173,0,1,0-1.173,1.173,1.16,1.16,0,0,0,1.173-1.122Zm-5.536,13.418a1.173,1.173,0,1,0-1.166,1.051A1.173,1.173,0,0,0,308.511,845.869Zm3.493,0a1.135,1.135,0,1,0,0,.05Zm3.506,0a1.173,1.173,0,1,0-1.166,1.051A1.173,1.173,0,0,0,315.51,845.869Zm3.493,0a1.173,1.173,0,1,0-1.166,1.051A1.173,1.173,0,0,0,319,845.869Zm3.493,0a1.134,1.134,0,1,0,0,.05Zm3.506,0a1.173,1.173,0,1,0-1.166,1.051A1.173,1.173,0,0,0,326,845.869Zm-17.491,9.672a1.173,1.173,0,1,0-1.166,1.051,1.173,1.173,0,0,0,1.166-1.051Zm3.493,0a1.173,1.173,0,1,0-1.16,1.16A1.16,1.16,0,0,0,312,855.542Zm3.506,0a1.173,1.173,0,1,0-1.166,1.051,1.173,1.173,0,0,0,1.166-1.051Zm3.493,0a1.173,1.173,0,1,0-1.166,1.051A1.173,1.173,0,0,0,319,855.542Zm3.493,0a1.173,1.173,0,1,0-1.16,1.16A1.16,1.16,0,0,0,322.5,855.542Zm3.506,0a1.173,1.173,0,1,0-1.166,1.051A1.173,1.173,0,0,0,326,855.542Z" transform="translate(-270.365 -699.902)"/><path class="d" d="M275.573,932.038h-4.086a1.009,1.009,0,1,1,0-2.018h4.086a1.009,1.009,0,0,1,0,2.018Zm1.009,3.657a1.009,1.009,0,0,0-1.009-1.009h-4.086a1.009,1.009,0,1,0,0,2.005h4.086a1,1,0,0,0,1.034-1Zm0,4.653a1,1,0,0,0-1.009-1h-4.086a1.009,1.009,0,1,0,0,2.005h4.086a1.009,1.009,0,0,0,1.034-1.009Zm0,4.666a1.009,1.009,0,0,0-1.009-1.009h-4.086a1.009,1.009,0,1,0,0,2.018h4.086a1.009,1.009,0,0,0,1.034-1.009Zm0,4.666a1.009,1.009,0,0,0-1.009-1.009h-4.086a1.009,1.009,0,0,0,0,2.018h4.086a1.009,1.009,0,0,0,1.034-1.009Zm0,4.666a1.009,1.009,0,0,0-1.009-1.009h-4.086a1.009,1.009,0,0,0,0,2.018h4.086a1.009,1.009,0,0,0,1.034-1.059Zm0,4.666A1.009,1.009,0,0,0,275.573,958h-4.086a1.009,1.009,0,1,0,0,2.018h4.086a1.009,1.009,0,0,0,1.034-1.009Zm0,4.666a1.009,1.009,0,0,0-1.009-1.009h-4.086a1.009,1.009,0,0,0-1.009,1.009,1,1,0,0,0,1.009,1h4.086a1,1,0,0,0,1.034-1Zm15.259-32.649a1.009,1.009,0,0,0-1.009-1.009H280.125a1.009,1.009,0,1,0,0,2.018h10.706a1.009,1.009,0,0,0,1.009-1.009Zm0,4.666a1.009,1.009,0,0,0-1.009-1.009H280.125a1.009,1.009,0,1,0,0,2.005h10.706a1,1,0,0,0,1.009-1Zm0,4.653a1,1,0,0,0-1.009-1H280.125a1.009,1.009,0,1,0,0,2.005h10.706a1.009,1.009,0,0,0,1.009-1.009Zm0,4.666a1.009,1.009,0,0,0-1.009-1.009H280.125a1.009,1.009,0,1,0,0,2.018h10.706a1.009,1.009,0,0,0,1.009-1.009Zm0,4.666a1.009,1.009,0,0,0-1.009-1.009H280.125a1.009,1.009,0,1,0,0,2.018h10.706a1.009,1.009,0,0,0,1.009-1.009Zm12.825,4.666a1.009,1.009,0,0,0-1.009-1.009H293a1.009,1.009,0,1,0,0,2.018h10.706a1.009,1.009,0,0,0,.958-1.059Zm0,4.666A1.009,1.009,0,0,0,303.656,958H293a1.009,1.009,0,1,0,0,2.018h10.706a1.009,1.009,0,0,0,.958-1.009Zm0,4.666a1.009,1.009,0,0,0-1.009-1.009H293a1.009,1.009,0,0,0-1.009,1.009,1,1,0,0,0,1.009,1h10.706a1,1,0,0,0,.958-1Zm-8.109-32.649a1.173,1.173,0,1,0-1.16,1.16,1.173,1.173,0,0,0,1.16-1.16Zm3.493,0a1.173,1.173,0,1,0-1.16,1.16,1.173,1.173,0,0,0,1.16-1.16Zm3.506,0a1.173,1.173,0,1,0-1.166,1.051,1.173,1.173,0,0,0,1.166-1.051Zm3.493,0a1.173,1.173,0,1,0-1.16,1.16,1.173,1.173,0,0,0,1.16-1.16Zm3.506,0a1.173,1.173,0,1,0-1.166,1.051A1.173,1.173,0,0,0,310.554,931.029Zm3.493,0a1.173,1.173,0,1,0-1.166,1.051,1.173,1.173,0,0,0,1.166-1.051Zm-17.491,9.319a1.173,1.173,0,1,0-.545,1.116,1.173,1.173,0,0,0,.545-1.116Zm3.493,0a1.173,1.173,0,1,0-.545,1.116,1.173,1.173,0,0,0,.545-1.116Zm3.506,0a1.173,1.173,0,1,0-1.173,1.173,1.173,1.173,0,0,0,1.173-1.173Zm3.493,0a1.173,1.173,0,1,0-.545,1.116,1.173,1.173,0,0,0,.545-1.116Zm3.506,0a1.173,1.173,0,1,0-1.173,1.173,1.173,1.173,0,0,0,1.173-1.173Zm3.493,0a1.173,1.173,0,1,0-1.173,1.173,1.16,1.16,0,0,0,1.173-1.173Zm-5.536,13.418a1.173,1.173,0,1,0-1.166,1.051A1.173,1.173,0,0,0,308.511,953.766Zm3.493,0a1.173,1.173,0,1,0-1.16,1.16,1.173,1.173,0,0,0,1.16-1.16Zm3.506,0a1.173,1.173,0,1,0-1.166,1.051A1.173,1.173,0,0,0,315.51,953.766Zm3.493,0a1.173,1.173,0,1,0-1.166,1.051A1.173,1.173,0,0,0,319,953.766Zm3.493,0a1.173,1.173,0,1,0-1.16,1.16,1.173,1.173,0,0,0,1.16-1.16Zm3.506,0a1.173,1.173,0,1,0-1.166,1.051A1.173,1.173,0,0,0,326,953.766Zm-17.491,9.622a1.173,1.173,0,1,0-1.166,1.051A1.173,1.173,0,0,0,308.511,963.388Zm3.493,0a1.173,1.173,0,1,0-1.16,1.16,1.16,1.16,0,0,0,1.16-1.16Zm3.506,0a1.173,1.173,0,1,0-1.166,1.051,1.173,1.173,0,0,0,1.166-1.051Zm3.493,0a1.173,1.173,0,1,0-1.166,1.051A1.173,1.173,0,0,0,319,963.388Zm3.493,0a1.173,1.173,0,1,0-1.16,1.16,1.16,1.16,0,0,0,1.16-1.16Zm3.506,0a1.173,1.173,0,1,0-1.167,1.051A1.173,1.173,0,0,0,326,963.388Z" transform="translate(-270.365 -769.525)"/><path class="d" d="M452.211,719.274h-4.073a1.009,1.009,0,0,1,0-2.018h4.073a1.009,1.009,0,0,1,0,2.018Zm1.009,3.657a1.009,1.009,0,0,0-1.009-1.009h-4.073a1.009,1.009,0,1,0,0,2.018h4.073A1.009,1.009,0,0,0,453.22,722.931Zm0,4.666a1.009,1.009,0,0,0-1.009-1.009h-4.073a1.009,1.009,0,0,0,0,2.018h4.073a1.009,1.009,0,0,0,1.009-1.059Zm0,4.666a1.009,1.009,0,0,0-1.009-1.009h-4.073a1.009,1.009,0,1,0,0,2.018h4.073A1.009,1.009,0,0,0,453.22,732.263Zm0,4.666a1.009,1.009,0,0,0-1.009-1.009h-4.073a1.009,1.009,0,1,0,0,2.005h4.073a1,1,0,0,0,1.009-1Zm0,4.653a1,1,0,0,0-1.009-1h-4.073a1.009,1.009,0,1,0,0,2.005h4.073A1.009,1.009,0,0,0,453.22,741.582Zm0,4.666a1.009,1.009,0,0,0-1.009-1.009h-4.073a1.009,1.009,0,0,0,0,2.018h4.073A1.009,1.009,0,0,0,453.22,746.248Zm0,4.666a1.009,1.009,0,0,0-1.009-1.009h-4.073a1.009,1.009,0,1,0,0,2.018h4.073A1.009,1.009,0,0,0,453.22,750.914Zm15.271-32.649a1.009,1.009,0,0,0-1.009-1.009H456.764a1.009,1.009,0,0,0,0,2.018h10.757a1.009,1.009,0,0,0,.971-1.009Zm0,4.666a1.009,1.009,0,0,0-1.009-1.009H456.764a1.009,1.009,0,0,0,0,2.018h10.757a1.009,1.009,0,0,0,.971-1.009Zm0,4.666a1.009,1.009,0,0,0-1.009-1.009H456.764a1.009,1.009,0,1,0,0,2.018h10.757a1.009,1.009,0,0,0,.971-1.059Zm0,4.666a1.009,1.009,0,0,0-1.009-1.009H456.764a1.009,1.009,0,1,0,0,2.018h10.757a1.009,1.009,0,0,0,.971-1.009Zm0,4.666a1.009,1.009,0,0,0-1.009-1.009H456.764a1.009,1.009,0,0,0,0,2.005h10.757A1,1,0,0,0,468.492,736.929Zm12.825,4.653a1,1,0,0,0-1.009-1H469.589a1.009,1.009,0,0,0,0,2.005h10.719A1.009,1.009,0,0,0,481.316,741.582Zm0,4.666a1.009,1.009,0,0,0-1.009-1.009H469.589a1.009,1.009,0,1,0,0,2.018h10.719A1.009,1.009,0,0,0,481.316,746.248Zm0,4.666a1.009,1.009,0,0,0-1.009-1.009H469.589a1.009,1.009,0,1,0,0,2.018h10.719a1.009,1.009,0,0,0,1.009-1.009ZM473.2,718.265a1.16,1.16,0,1,0-.335.828A1.16,1.16,0,0,0,473.2,718.265Zm3.506,0a1.173,1.173,0,1,0-1.173,1.173,1.173,1.173,0,0,0,1.173-1.173Zm3.493,0a1.173,1.173,0,1,0-.545,1.116A1.173,1.173,0,0,0,480.194,718.265Zm3.506,0a1.173,1.173,0,1,0-1.173,1.173A1.173,1.173,0,0,0,483.7,718.265Zm3.493,0a1.173,1.173,0,1,0-.545,1.116,1.173,1.173,0,0,0,.545-1.116Zm3.493,0a1.173,1.173,0,1,0-.545,1.116A1.173,1.173,0,0,0,490.686,718.265ZM473.2,727.547a1.16,1.16,0,1,0-1.16,1.16,1.173,1.173,0,0,0,1.16-1.16Zm3.506,0a1.173,1.173,0,1,0-1.166,1.051,1.173,1.173,0,0,0,1.166-1.051Zm3.493,0a1.173,1.173,0,1,0-1.16,1.16A1.173,1.173,0,0,0,480.194,727.547Zm3.506,0a1.173,1.173,0,1,0-1.166,1.051,1.173,1.173,0,0,0,1.166-1.051Zm3.493,0a1.173,1.173,0,1,0-1.16,1.16A1.173,1.173,0,0,0,487.193,727.547Zm3.493,0a1.173,1.173,0,1,0-1.16,1.16,1.173,1.173,0,0,0,1.16-1.16ZM485.175,741a1.173,1.173,0,1,0-.545,1.116A1.173,1.173,0,0,0,485.175,741Zm3.506,0a1.16,1.16,0,1,1-.025,0Zm3.493,0a1.173,1.173,0,1,0-.545,1.116A1.173,1.173,0,0,0,492.174,741Zm3.493,0a1.173,1.173,0,1,0-.545,1.116A1.173,1.173,0,0,0,495.667,741Zm3.506,0a1.16,1.16,0,1,1-.025,0Zm3.493,0a1.173,1.173,0,1,0-.545,1.116A1.173,1.173,0,0,0,502.666,741Zm-17.491,9.622a1.173,1.173,0,1,0-1.16,1.16A1.16,1.16,0,0,0,485.175,750.624Zm3.506,0a1.16,1.16,0,1,1-.025,0Zm3.493,0a1.173,1.173,0,1,0-1.16,1.16,1.16,1.16,0,0,0,1.135-1.16Zm3.493,0a1.173,1.173,0,1,0-1.16,1.16,1.16,1.16,0,0,0,1.135-1.16Zm3.506,0a1.16,1.16,0,1,1-.025,0Zm3.493,0a1.173,1.173,0,1,0-1.16,1.16,1.16,1.16,0,0,0,1.135-1.16Z" transform="translate(-384.354 -632.312)"/><path class="d" d="M452.211,827.143h-4.073a1.009,1.009,0,0,1,0-2.018h4.073a1.009,1.009,0,0,1,0,2.018Zm1.009,3.657a1.009,1.009,0,0,0-1.009-1.009h-4.073a1.009,1.009,0,0,0,0,2.018h4.073A1.009,1.009,0,0,0,453.22,830.8Zm0,4.666a1.009,1.009,0,0,0-1.009-1.009h-4.073a1.009,1.009,0,0,0,0,2.018h4.073A1.009,1.009,0,0,0,453.22,835.466Zm0,4.666a1.009,1.009,0,0,0-1.009-1.009h-4.073a1.009,1.009,0,1,0,0,2.018h4.073A1.009,1.009,0,0,0,453.22,840.132Zm0,4.666a1.009,1.009,0,0,0-1.009-1.009h-4.073a1.009,1.009,0,1,0,0,2.005h4.073a1,1,0,0,0,1.009-1Zm0,4.653a1,1,0,0,0-1.009-1h-4.073a1.009,1.009,0,1,0,0,2.005h4.073A1.009,1.009,0,0,0,453.22,849.451Zm0,4.666a1.009,1.009,0,0,0-1.009-1.009h-4.073a1.009,1.009,0,1,0,0,2.018h4.073A1.009,1.009,0,0,0,453.22,854.117Zm0,4.666a1.009,1.009,0,0,0-1.009-1.009h-4.073a1.009,1.009,0,1,0,0,2.018h4.073A1.009,1.009,0,0,0,453.22,858.783ZM468.492,826.2a1.009,1.009,0,0,0-1.009-1.009H456.764a1.009,1.009,0,1,0,0,2.018h10.757a1.009,1.009,0,0,0,.971-1.009Zm0,4.666a1.009,1.009,0,0,0-1.009-1.009H456.764a1.009,1.009,0,1,0,0,2.018h10.757a1.009,1.009,0,0,0,.971-1.072Zm0,4.666a1.009,1.009,0,0,0-1.009-1.009H456.764a1.009,1.009,0,1,0,0,2.018h10.757a1.009,1.009,0,0,0,.971-1.072Zm0,4.666a1.009,1.009,0,0,0-1.009-1.009H456.764a1.009,1.009,0,1,0,0,2.018h10.757a1.009,1.009,0,0,0,.971-1.072Zm0,4.666a1.009,1.009,0,0,0-1.009-1.009H456.764a1.009,1.009,0,0,0,0,2.005h10.757a1,1,0,0,0,.971-1.059Zm12.825,4.653a1,1,0,0,0-1.009-1H469.589a1.009,1.009,0,0,0,0,2.005h10.719a1.009,1.009,0,0,0,1.009-1.072Zm0,4.666a1.009,1.009,0,0,0-1.009-1.009H469.589a1.009,1.009,0,1,0,0,2.018h10.719a1.009,1.009,0,0,0,1.009-1.072Zm0,4.666a1.009,1.009,0,0,0-1.009-1.009H469.589a1.009,1.009,0,1,0,0,2.018h10.719a1.009,1.009,0,0,0,1.009-1.072ZM473.2,826.2a1.16,1.16,0,1,0-.335.828A1.16,1.16,0,0,0,473.2,826.2Zm3.506,0a1.173,1.173,0,1,0-1.173,1.173A1.173,1.173,0,0,0,476.7,826.2Zm3.493,0a1.173,1.173,0,1,0-.545,1.116A1.173,1.173,0,0,0,480.194,826.2Zm3.506,0a1.173,1.173,0,1,0-1.173,1.173A1.173,1.173,0,0,0,483.7,826.2Zm3.493,0a1.173,1.173,0,1,0-.545,1.116,1.173,1.173,0,0,0,.545-1.116Zm3.493,0a1.173,1.173,0,1,0-.545,1.116A1.173,1.173,0,0,0,490.686,826.2ZM473.2,835.529a1.16,1.16,0,1,0-1.16,1.16,1.173,1.173,0,0,0,1.16-1.223Zm3.506,0a1.173,1.173,0,1,0-1.166,1.051A1.173,1.173,0,0,0,476.7,835.529Zm3.493,0a1.221,1.221,0,1,1,0-.063Zm3.506,0a1.173,1.173,0,1,0-1.166,1.051A1.173,1.173,0,0,0,483.7,835.529Zm3.493,0a1.223,1.223,0,1,1,0-.063Zm3.493,0a1.22,1.22,0,1,1,0-.063ZM485.175,848.9a1.173,1.173,0,1,0-.545,1.116A1.173,1.173,0,0,0,485.175,848.9Zm3.506,0a1.16,1.16,0,1,1-.025,0Zm3.493,0a1.173,1.173,0,1,0-.545,1.116A1.173,1.173,0,0,0,492.174,848.9Zm3.493,0a1.173,1.173,0,1,0-.545,1.116A1.173,1.173,0,0,0,495.667,848.9Zm3.506,0a1.16,1.16,0,1,1-.025,0Zm3.493,0a1.173,1.173,0,1,0-.545,1.116A1.173,1.173,0,0,0,502.666,848.9Zm-17.491,9.6a1.173,1.173,0,1,0-1.16,1.16A1.16,1.16,0,0,0,485.175,858.493Zm3.506,0a1.16,1.16,0,1,1-.025,0Zm3.493,0a1.173,1.173,0,1,0-1.16,1.16,1.16,1.16,0,0,0,1.135-1.16Zm3.493,0a1.173,1.173,0,1,0-1.16,1.16,1.16,1.16,0,0,0,1.135-1.16Zm3.506,0a1.16,1.16,0,1,1-.025,0Zm3.493,0a1.173,1.173,0,1,0-1.16,1.16,1.16,1.16,0,0,0,1.135-1.16Z" transform="translate(-384.354 -701.958)"/></g><g transform="translate(204.935 485.694)"><path class="e" d="M473.926,960.286s-35.953,7.629-65.916,24.515-53.381,30.505-53.381,37.025-11.993,110.04-11.993,110.04H615.026s-26.7-57.2-31.047-81.717-9.269-40.354-23.43-56.1S504.974,958.117,473.926,960.286Z" transform="translate(-342.637 -858.296)"/><g class="f" transform="translate(0 101.829)"><path class="d" d="M368.325,1065.233c4.035-2.875,12.106,19.017,14.4,13.872s-14.4-31.11-15.549-40.354,9.786-10.379,22.472-19.017,24.2-15.561,24.2-4.035,5.183,32.787,9.218,24.2,12.674-19.584,13.241-4.615,0,29.963,1.74,29.963,17.277-16.129,21.312-24.2-4.615-28.8-4.615-38.021,8.071-21.892,8.071-21.892l.517-13.052c-12.9,3.531-35.423,10.656-55.323,21.867-29.963,16.835-53.381,30.492-53.381,37.012S342.637,1137,342.637,1137h14.906C360.317,1111.362,365.475,1067.313,368.325,1065.233Z" transform="translate(-342.637 -965.259)"/><path class="g" d="M368.325,1065.233c4.035-2.875,12.106,19.017,14.4,13.872s-14.4-31.11-15.549-40.354,9.786-10.379,22.472-19.017,24.2-15.561,24.2-4.035,5.183,32.787,9.218,24.2,12.674-19.584,13.241-4.615,0,29.963,1.74,29.963,17.277-16.129,21.312-24.2-4.615-28.8-4.615-38.021,8.071-21.892,8.071-21.892l.517-13.052c-12.9,3.531-35.423,10.656-55.323,21.867-29.963,16.835-53.381,30.492-53.381,37.012S342.637,1137,342.637,1137h14.906C360.317,1111.362,365.475,1067.313,368.325,1065.233Z" transform="translate(-342.637 -965.259)"/><path class="b" d="M904.516,1024.646s18.916,9.244,26.066,18.5a55.979,55.979,0,0,0-24.805-22.7Z" transform="translate(-705.205 -999.049)"/></g><path class="h" d="M473.926,960.286s-35.953,7.629-65.916,24.515-53.381,30.505-53.381,37.025-11.993,110.04-11.993,110.04H615.026s-26.7-57.2-31.047-81.717-9.269-40.354-23.43-56.1S504.974,958.117,473.926,960.286Z" transform="translate(-342.637 -858.296)"/><path class="e" d="M637.219,970.377a35.89,35.89,0,0,0-16.9,28.323c-1.084,19.609,0,39.774-1.084,50.657s-8.714,19.622-2.724,19.067,19.609-22.333,24.515-22.333,6.532,10.353,8.714,13.619,9.836,4.641,9.836,4.641,7.049-8.449,7.049-11.173-2.182-11.993,3.783-10.9,19.055,21.791,19.609,15.246-6-16.394-6-32.132-7.566-34.326-18.512-45.764S648.366,969.532,637.219,970.377Z" transform="translate(-517.897 -864.565)"/><g class="i" transform="translate(96.344 105.276)"><path class="d" d="M638.81,971.031l-1.349.114a35.89,35.89,0,0,0-16.9,28.323c-1.084,19.609,0,39.774-1.084,50.657-.706,7.011-4.1,13.115-4.842,16.394,4-2.938,16.659-16.457,20.24-23.62,4.035-8.058-4.615-28.8-4.615-38.021s8.071-21.892,8.071-21.892Z" transform="translate(-614.495 -970.609)"/><path class="g" d="M638.81,971.031l-1.349.114a35.89,35.89,0,0,0-16.9,28.323c-1.084,19.609,0,39.774-1.084,50.657-.706,7.011-4.1,13.115-4.842,16.394,4-2.938,16.659-16.457,20.24-23.62,4.035-8.058-4.615-28.8-4.615-38.021s8.071-21.892,8.071-21.892Z" transform="translate(-614.495 -970.609)"/></g><path class="h" d="M637.219,970.377a35.89,35.89,0,0,0-16.9,28.323c-1.084,19.609,0,39.774-1.084,50.657s-8.714,19.622-2.724,19.067,19.609-22.333,24.515-22.333,6.532,10.353,8.714,13.619,9.836,4.641,9.836,4.641,7.049-8.449,7.049-11.173-2.182-11.993,3.783-10.9,19.055,21.791,19.609,15.246-6-16.394-6-32.132-7.566-34.326-18.512-45.764S648.366,969.532,637.219,970.377Z" transform="translate(-517.897 -864.565)"/><path class="e" d="M679.9,971.742a84.15,84.15,0,0,0-6.532,31.526c0,17.226,8.9,35.045,12.472,43.355s11.879,19,11.879,19-.605-21.968,4.742-32.661,10.089-18.411,10.089-18.411-6.532-6.532-16.041-21.375S679.9,971.742,679.9,971.742Z" transform="translate(-556.049 -865.792)"/><g class="j" transform="translate(117.316 105.95)"><path class="d" d="M708.423,1021.446l-2.232-14.679c-2.61-3.38-5.9-7.945-9.672-13.872-9.5-14.855-16.621-21.438-16.621-21.438a84.15,84.15,0,0,0-6.532,31.526,71.172,71.172,0,0,0,3.266,19.938l31.526-1.009Z" transform="translate(-673.365 -971.559)"/><path class="g" d="M708.423,1021.446l-2.232-14.679c-2.61-3.38-5.9-7.945-9.672-13.872-9.5-14.855-16.621-21.438-16.621-21.438a84.15,84.15,0,0,0-6.532,31.526,71.172,71.172,0,0,0,3.266,19.938l31.526-1.009Z" transform="translate(-673.365 -971.559)"/><path class="b" d="M696.518,993.038C687.023,978.183,679.9,971.6,679.9,971.6a84.15,84.15,0,0,0-6.532,31.526,61.241,61.241,0,0,0,1.009,10.593l26.583.82,6.495-6.066a187.388,187.388,0,0,1-10.933-15.435Z" transform="translate(-673.365 -971.65)"/></g><path class="h" d="M679.9,971.742a84.15,84.15,0,0,0-6.532,31.526c0,17.226,8.9,35.045,12.472,43.355s11.879,19,11.879,19-.605-21.968,4.742-32.661,10.089-18.411,10.089-18.411-6.532-6.532-16.041-21.375S679.9,971.742,679.9,971.742Z" transform="translate(-556.049 -865.792)"/><path class="h" d="M579.156,1013.454s11.98-28.878,31.59-35.953" transform="translate(-495.258 -869.508)"/><path class="h" d="M433.256,1146.4s16.394,26.7,18.525,49.572" transform="translate(-401.112 -978.497)"/><path class="h" d="M490.066,1215.513s5.448,34.326,5.448,51.7a146.417,146.417,0,0,0,2.724,29.42" transform="translate(-437.77 -1023.092)"/><path class="h" d="M503.9,1265.579a172.249,172.249,0,0,0,4.363-40.858" transform="translate(-446.694 -1029.034)"/><path class="h" d="M924.673,1217.042s1.639,19.622,5.448,43.582,5.99,35.953,5.99,35.953" transform="translate(-718.212 -1024.078)"/><path class="a" d="M642.319,1341.292s-11.539,23.494-13.241,26.911-4.275,9.395-4.275,9.395H645.3s11.526-7.692,12.812-8.121,8.537,0,13.657-2.131,10.252-7.693,15.372-8.966,11.955-3.417,14.1-3.417,9.395,2.131,14.086,2.131,10.681-4.691,6.9-6.823-6.835-.857-11.955-3.417-6.835-3.417-11.955-2.522-9.395-2.131-21.779-4.691S650,1336.172,642.319,1341.292Z" transform="translate(-524.713 -1101.859)"/><path class="a" d="M775,1304.313s6.721-5.725,12.245-2.963,2.964,20.543,4.351,27.655,2.964,10.858-.593,11.261-4.943-2.371-7.705-8.689S775,1304.313,775,1304.313Z" transform="translate(-621.635 -1077.995)"/><path class="a" d="M728.789,1306.715s8.891-7.907,12.838-7.907,7.112,14.023,10.089,20.177,7.339,13.443,5.523,15.385-5.536,2.762-8.7-.593-10.088-18.172-12.043-20.543A60.785,60.785,0,0,0,728.789,1306.715Z" transform="translate(-591.813 -1076.841)"/><path class="a" d="M703.157,1323.86s.593-2.762,9.092-2.762,15.8,11.854,20.934,14.616,3.556,3.947-.189,5.725-6.129-.189-13.632-4.338S703.157,1323.86,703.157,1323.86Z" transform="translate(-575.273 -1091.224)"/><path class="a" d="M664.934,1344.248l5.99-9.824a18.917,18.917,0,0,1,7.68,3.418c2.989,2.522,8.537,7.692,15.372,7.692s8.966-2.131,6.406-4.275-10.252-5.977-15.8-9.824-9.824-10.24-14.086-8.966-7.213,9.4-11.955,20.076" transform="translate(-546.483 -1092.002)"/><path class="e" d="M765.283,791.745s-1.652,24.4-4.288,32.977-6.305,34.969-14.187,46.508-18.134,21.438-29.685,22.106-27.037-19.8-35.953-32.989-9.887-26.381-12.863-39.244-3.619-27.743,1-39.257,27.743-25.726,47.164-24.074,43.86,11.879,48.816,19.458a13.254,13.254,0,0,1,0,14.515Z" transform="translate(-551.269 -727.637)"/><g class="k" transform="translate(114.689 30.003)"><path class="d" d="M669.384,781.942c-4.615,11.551-3.96,26.394-1,39.257s3.96,26.053,12.863,39.244,24.414,33.645,35.953,32.989a26.861,26.861,0,0,0,13.2-4.792l-5.864.568c-12.106,1.148-17.869-6.911-25.36-22.472s-2.875-24.767-5.763-27.655-2.875-23.62-2.875-23.62,2.308-9.218,3.455-12.611,13.254-8.071,13.254-8.071,0,8.638,8.3,8.008,14.174-9.735,14.174-9.735l-1.16-33.2a89.259,89.259,0,0,0-12.018-1.917C697.127,756.216,673.974,770.4,669.384,781.942Z" transform="translate(-666.012 -757.737)"/><path class="g" d="M669.384,781.942c-4.615,11.551-3.96,26.394-1,39.257s3.96,26.053,12.863,39.244,24.414,33.645,35.953,32.989a26.861,26.861,0,0,0,13.2-4.792l-5.864.568c-12.106,1.148-17.869-6.911-25.36-22.472s-2.875-24.767-5.763-27.655-2.875-23.62-2.875-23.62,2.308-9.218,3.455-12.611,13.254-8.071,13.254-8.071,0,8.638,8.3,8.008,14.174-9.735,14.174-9.735l-1.16-33.2a89.259,89.259,0,0,0-12.018-1.917C697.127,756.216,673.974,770.4,669.384,781.942Z" transform="translate(-666.012 -757.737)"/></g><path class="h" d="M765.283,791.745s-1.652,24.4-4.288,32.977-6.305,34.969-14.187,46.508-18.134,21.438-29.685,22.106-27.037-19.8-35.953-32.989-9.887-26.381-12.863-39.244-3.619-27.743,1-39.257,27.743-25.726,47.164-24.074,43.86,11.879,48.816,19.458a13.254,13.254,0,0,1,0,14.515Z" transform="translate(-551.269 -727.637)"/><path class="h" d="M844.817,945.826s.328,16.823,8.9,21.11a2,2,0,0,1,1,2.976c-1,2.308-8.575,3.619-13.872-.341" transform="translate(-664.12 -849.069)"/><path class="l" d="M869.152,893.118a1.892,1.892,0,0,1-1.2-3.354c.3-.252,7.566-6.1,19.118-2.056a1.893,1.893,0,1,1-1.261,3.569c-9.546-3.354-15.4,1.362-15.448,1.412a1.891,1.891,0,0,1-1.211.429Z" transform="translate(-681.166 -810.648)"/><path class="l" d="M784.807,878.233a1.879,1.879,0,0,1-1.639-.933c-.2-.34-4.742-7.806-13.67-6.57a1.891,1.891,0,0,1-2.131-1.614,1.917,1.917,0,0,1,1.614-2.144c11.5-1.589,17.213,8.008,17.453,8.424a1.892,1.892,0,0,1-.681,2.585A1.866,1.866,0,0,1,784.807,878.233Z" transform="translate(-616.696 -798.071)"/><line class="h" x2="5.334" transform="translate(173.736 138.624)"/><path class="l" d="M653.52,689.043s-21.438,6.936-23.09,15.511,9.244,38.588,8.916,42.208-3.632,6.608,0,11.879,10.215,13.191,12.863,8.9-1-10.555,3.291-13.191,10.227-6.923,6.923-12.535-1.639-13.872,5.284-14.843,12.863-5.6,9.231-.328-14.174,18.147-8.575,19.13,27.743-13.872,27.743-13.872-7.566,15.133-3.632,16.154S727.443,728.6,727.443,728.6s14.843,19.458,17.806,18.134,1-12.194,1-12.194,2.308,14.515,6.923,15.133,10.883-7.264,8.9-12.207-5.309-11.854-5.309-11.854,6.6-1.652,9.231-4.628,2.308-3.291-3.3-4.288-9.887-7.251-15.133-12.863-13.872-13.191-13.872-13.191,9.887,4.288,4.615-.656-33.317-16.167-48.488-16.167-20.82,7.932-20.82,7.932,2.636-9.9-.341-8.575-6.305,9.231-6.305,9.231-6.923-1.98-10.542.341-4.628,4.615-1.652,4.615a17.228,17.228,0,0,1,4.943.656Z" transform="translate(-528.233 -673.057)"/><g class="m" transform="translate(102.026)"><g class="n" transform="translate(15.202 44.617)"><path class="e" d="M679.863,852.22c2.636-4.288-1-10.555,3.291-13.191s10.227-6.923,6.923-12.535-1.639-13.872,5.284-14.843c5.208-.744,9.862-3.544,10.3-2.623,2.232-3.077,3.19-5.423,0-4.477-6.129,1.841-25.12,4.906-23.292,11.034s3.064,9.181-1.829,11.022-4.906,6.129-4.906,11.034c0,4.187-1.98,11.135-2.522,13.065C675.777,853.2,678.413,854.579,679.863,852.22Z" transform="translate(-673.116 -802.388)"/><path class="e" d="M957.131,845.6l.429,6.141s.088.366.2.971a41.612,41.612,0,0,0-.58-6.772c.391,2.182,2.673,14.225,6.873,14.83,4.615.656,10.883-7.264,8.9-12.207-.429-1.059-.921-2.219-1.412-3.38-1.526,2.383-3.619,4.716-6.015,4.716C960.624,849.9,957.131,845.6,957.131,845.6Z" transform="translate(-856.385 -828.743)"/><path class="e" d="M850.726,824.193c-4.061-9.13-8.512-20.971-10.82-24.414-3.67-5.511-16.545,14.7-27.567,21.438-4.5,2.749-7.743,3.947-9.8,3.972-.4,2.106-.265,3.783.933,4.023,3.96,1,34.969-19.458,34.969-19.458A180.048,180.048,0,0,0,850.726,824.193Z" transform="translate(-756.5 -798.838)"/><path class="e" d="M733.457,831.422c-.605,1.9-.378,3.266,1.261,3.569,4.237.744,17.857-7.566,24.288-11.627,3.644-4.477,8.159-7.238,8.651-11.211.605-4.906-22.7,14.7-30.631,18.386A6.81,6.81,0,0,1,733.457,831.422Z" transform="translate(-711.855 -806.925)"/></g></g><path class="h" d="M653.52,689.043s-21.438,6.936-23.09,15.511,9.244,38.588,8.916,42.208-3.632,6.608,0,11.879,10.215,13.191,12.863,8.9-1-10.555,3.291-13.191,10.227-6.923,6.923-12.535-1.639-13.872,5.284-14.843,12.863-5.6,9.231-.328-14.174,18.147-8.575,19.13,27.743-13.872,27.743-13.872-7.566,15.133-3.632,16.154S727.443,728.6,727.443,728.6s14.843,19.458,17.806,18.134,1-12.194,1-12.194,2.308,14.515,6.923,15.133,10.883-7.264,8.9-12.207-5.309-11.854-5.309-11.854,6.6-1.652,9.231-4.628,2.308-3.291-3.3-4.288-9.887-7.251-15.133-12.863-13.872-13.191-13.872-13.191,9.887,4.288,4.615-.656-33.317-16.167-48.488-16.167-20.82,7.932-20.82,7.932,2.636-9.9-.341-8.575-6.305,9.231-6.305,9.231-6.923-1.98-10.542.341-4.628,4.615-1.652,4.615a17.228,17.228,0,0,1,4.943.656Z" transform="translate(-528.233 -673.057)"/><path class="l" d="M753.116,900.305s-4.817-5.183-17.781-4.817-22.232,2.6-24.818,4.086-1.11,3.329-.378,5.927,2.6,14.8,5.561,19.622,10.744,8.891,15.927,8.891,8.146-1.11,13.708-5.183,9.256-18.916,9.634-20,0-3.329,3.695-2.219,4.073,17.4,5.2,20.744,8.512,7.768,14.439,7.768,11.488-2.964,16.306-11.476a27.024,27.024,0,0,0,3.329-16.684s5.183-4.073,1.11-5.561-18.084-5.372-27.037-2.585C761.263,902.159,755.7,901.415,753.116,900.305Z" transform="translate(-579.078 -816.575)"/><path class="l" d="M673.239,908.071l-24.83,3.329v2.964l24.452-1.475S670.616,909.181,673.239,908.071Z" transform="translate(-539.945 -824.706)"/><path class="d" d="M785.31,938.134c-7.264,0-10.971-3.859-11.778-10.555-.971-8.02-1.828-13.607-4.351-16.293a57.263,57.263,0,0,0,10.921-2.4,22.3,22.3,0,0,1,6.394-.807,61.175,61.175,0,0,1,16.23,2.661l-1.7,1.362.378,2.131a23.682,23.682,0,0,1-2.926,14.25C793.6,937.137,788.652,938.134,785.31,938.134Zm-46.659-1.11c-3.783,0-10.479-3.317-12.85-7.175-1.9-3.077-3.493-10.87-4.351-15.044-.34-1.69-.593-2.913-.807-3.682s-.391-1.2-.593-1.753l-.113-.315c2.913-1.261,11.16-3,22.523-3.329h1.261c9.95,0,13.783,3.632,13.872,3.67l.517.568.706.3a15.556,15.556,0,0,0,1.475.517,6.305,6.305,0,0,0-1.6,3.367v.24c0,.063-.114.366-.24.82-3.682,13-6.873,16.457-8.083,17.34C744.981,936.368,742.737,937.024,738.651,937.024Z" transform="translate(-586.1 -823.192)"/><path class="l" d="M743.78,921.02h-1.9a.479.479,0,0,1-.467-.467.467.467,0,0,1,.467-.467h1.9a.467.467,0,0,1,.467.467A.479.479,0,0,1,743.78,921.02Zm.467,1.7a.467.467,0,0,0-.467-.467h-1.9a.467.467,0,0,0-.467.467.479.479,0,0,0,.467.467h1.9A.479.479,0,0,0,744.247,922.723Zm0,2.169a.479.479,0,0,0-.467-.467h-1.9a.479.479,0,0,0-.467.467.467.467,0,0,0,.467.467h1.9A.467.467,0,0,0,744.247,924.892Zm0,2.169a.479.479,0,0,0-.467-.467h-1.9a.479.479,0,0,0-.467.467.467.467,0,0,0,.467.467h1.9A.467.467,0,0,0,744.247,927.061Zm0,2.169a.479.479,0,0,0-.467-.467h-1.9a.479.479,0,0,0-.467.467.467.467,0,0,0,.467.467h1.9a.467.467,0,0,0,.467-.467Zm0,2.169a.479.479,0,0,0-.467-.467h-1.9a.479.479,0,0,0-.467.467.467.467,0,0,0,.467.467h1.9A.467.467,0,0,0,744.247,931.4Zm0,2.169a.479.479,0,0,0-.467-.467h-1.9a.479.479,0,0,0,0,.946h1.9a.479.479,0,0,0,.467-.479Zm0,2.169a.479.479,0,0,0-.467-.467h-1.9a.479.479,0,0,0,0,.946h1.9a.479.479,0,0,0,.467-.479Zm7.1-15.133a.454.454,0,0,0-.467-.467H745.9a.454.454,0,0,0-.467.467.467.467,0,0,0,.467.467h4.981a.467.467,0,0,0,.467-.517Zm0,2.169a.454.454,0,0,0-.467-.467H745.9a.454.454,0,0,0-.467.467.467.467,0,0,0,.467.467h4.981a.466.466,0,0,0,.467-.517Zm0,2.169a.467.467,0,0,0-.467-.467H745.9a.467.467,0,0,0-.467.467.454.454,0,0,0,.467.467h4.981a.454.454,0,0,0,.467-.517Zm0,2.169a.467.467,0,0,0-.467-.467H745.9a.467.467,0,0,0-.467.467.454.454,0,0,0,.467.467h4.981a.454.454,0,0,0,.467-.517Zm0,2.169a.467.467,0,0,0-.467-.467H745.9a.467.467,0,0,0-.467.467.454.454,0,0,0,.467.467h4.981a.454.454,0,0,0,.467-.517Zm5.977,2.169a.479.479,0,0,0-.479-.467h-4.981a.479.479,0,0,0-.467.467.467.467,0,0,0,.467.467h4.981a.467.467,0,0,0,.479-.517Zm0,2.169a.479.479,0,0,0-.479-.467h-4.981a.479.479,0,0,0,0,.946h4.981a.479.479,0,0,0,.479-.53Zm0,2.169a.479.479,0,0,0-.479-.467h-4.981a.479.479,0,0,0,0,.946h4.981a.479.479,0,0,0,.479-.53Zm-3.783-15.133a.727.727,0,1,1,0-.1Zm1.627,0a.727.727,0,1,1,0-.1Zm1.627,0a.727.727,0,1,1,0-.1Zm1.639,0a.683.683,0,1,1,0-.1Zm1.627,0a.729.729,0,1,1,0-.1Zm1.627,0a.727.727,0,1,1,0-.1Zm-8.146,4.338a.727.727,0,1,1,0-.1Zm1.627,0a.73.73,0,1,1,0-.1Zm1.627,0a.729.729,0,1,1,0-.1Zm1.639,0a.686.686,0,1,1,0-.1Zm1.627,0a.729.729,0,1,1,0-.1Zm1.627,0a.73.73,0,1,1,0-.1Zm-2.522,6.242a.258.258,0,1,1-.063-.1Zm1.627,0a.258.258,0,1,1-.063-.1Zm1.627,0a.258.258,0,1,1-.063-.1Zm1.627,0a.258.258,0,1,1-.063-.1Zm1.639,0a.555.555,0,1,0-.542.542.542.542,0,0,0,.479-.643Zm1.627,0a.213.213,0,1,1-.113-.1Zm-8.146,4.477a.542.542,0,1,0-.542.542A.542.542,0,0,0,759.165,935.712Zm1.627,0a.542.542,0,0,0-1.084,0,.555.555,0,0,0,.542.542.542.542,0,0,0,.479-.643Zm1.627,0a.542.542,0,0,0-1.085,0,.555.555,0,0,0,.542.542.542.542,0,0,0,.479-.643Zm1.627,0a.542.542,0,0,0-1.084,0,.555.555,0,0,0,.542.542.542.542,0,0,0,.479-.643Zm1.639,0a.555.555,0,1,0-.549.471A.555.555,0,0,0,765.685,935.712Zm1.627,0a.542.542,0,1,0-.542.542.555.555,0,0,0,.429-.643Z" transform="translate(-599.956 -832.46)"/><path class="l" d="M874.394,921.02H872.5a.479.479,0,0,1-.479-.467.467.467,0,0,1,.479-.467h1.892a.454.454,0,0,1,.467.467.467.467,0,0,1-.467.467Zm.467,1.7a.454.454,0,0,0-.467-.467H872.5a.466.466,0,0,0-.479.467.479.479,0,0,0,.479.467h1.892A.467.467,0,0,0,874.861,922.722Zm0,2.169a.467.467,0,0,0-.467-.467H872.5a.479.479,0,0,0-.479.467.467.467,0,0,0,.479.467h1.892a.454.454,0,0,0,.467-.467Zm0,2.169a.467.467,0,0,0-.467-.467H872.5a.479.479,0,0,0-.479.467.467.467,0,0,0,.479.467h1.892a.454.454,0,0,0,.467-.467Zm0,2.169a.467.467,0,0,0-.467-.467H872.5a.479.479,0,0,0-.479.467.467.467,0,0,0,.479.467h1.892a.454.454,0,0,0,.467-.467Zm0,2.169a.467.467,0,0,0-.467-.467H872.5a.479.479,0,0,0-.479.467.467.467,0,0,0,.479.467h1.892a.454.454,0,0,0,.467-.467Zm0,2.169a.467.467,0,0,0-.467-.467H872.5a.479.479,0,1,0,0,.946h1.892a.466.466,0,0,0,.467-.479Zm0,2.169a.467.467,0,0,0-.467-.467H872.5a.479.479,0,1,0,0,.946h1.892a.467.467,0,0,0,.467-.479Zm7.112-15.133a.467.467,0,0,0-.479-.467H876.45a.467.467,0,0,0-.467.467.479.479,0,0,0,.467.467h5.044a.479.479,0,0,0,.479-.517Zm0,2.169a.466.466,0,0,0-.479-.467H876.45a.467.467,0,0,0-.467.467.479.479,0,0,0,.467.467h5.044a.479.479,0,0,0,.479-.517Zm0,2.169a.479.479,0,0,0-.479-.467H876.45a.479.479,0,0,0-.467.467.467.467,0,0,0,.467.467h5.044a.467.467,0,0,0,.479-.517Zm0,2.169a.479.479,0,0,0-.479-.467H876.45a.479.479,0,0,0-.467.467.467.467,0,0,0,.467.467h5.044a.467.467,0,0,0,.479-.517Zm0,2.169a.479.479,0,0,0-.479-.467H876.45a.479.479,0,0,0-.467.467.467.467,0,0,0,.467.467h5.044a.467.467,0,0,0,.479-.517Zm5.965,2.169a.479.479,0,0,0-.467-.467h-5.044a.479.479,0,0,0-.467.467.467.467,0,0,0,.467.467h5.044a.466.466,0,0,0,.53-.517Zm0,2.169a.479.479,0,0,0-.467-.467h-5.044a.479.479,0,0,0,0,.946h5.044a.479.479,0,0,0,.53-.53Zm0,2.169a.479.479,0,0,0-.467-.467h-5.044a.479.479,0,0,0,0,.946h5.044a.479.479,0,0,0,.53-.53Zm-3.783-15.133a.7.7,0,1,0,.063-.1Zm1.639,0a.727.727,0,1,1,0-.1Zm1.627,0a.729.729,0,1,1,0-.1Zm1.627,0a.725.725,0,1,1,0-.1Zm1.627,0a.726.726,0,1,1,0-.1Zm1.627,0a.727.727,0,1,1,0-.1Zm-8.083,4.237a.542.542,0,1,0-.542.542A.542.542,0,0,0,884.218,924.891Zm1.639,0a.512.512,0,1,1-.063,0Zm1.627,0a.512.512,0,1,1-.063,0Zm1.627,0a.512.512,0,1,1-.063,0Zm1.627,0a.512.512,0,1,1-.063,0Zm1.627,0a.512.512,0,1,1-.063,0Zm-2.585,6.242a.512.512,0,1,1-.063,0Zm1.639,0a.524.524,0,1,1-.063,0Zm1.627,0a.542.542,0,1,0-.542.542A.542.542,0,0,0,893.046,931.134Zm1.627,0a.512.512,0,1,1-.063,0Zm1.627,0a.512.512,0,1,1-.063,0Zm1.627,0a.512.512,0,1,1-.063,0Zm-8.146,4.477a.542.542,0,0,0-1.084,0,.555.555,0,0,0,.542.542.542.542,0,0,0,.479-.542Zm1.639,0a.555.555,0,1,0-.549.471.555.555,0,0,0,.549-.471Zm1.627,0a.542.542,0,1,0-.542.542.555.555,0,0,0,.542-.542Zm1.627,0a.542.542,0,1,0-.542.542.555.555,0,0,0,.479-.542Zm1.627,0a.542.542,0,1,0-.542.542.555.555,0,0,0,.479-.542Zm1.627,0a.542.542,0,1,0-.542.542A.542.542,0,0,0,897.926,935.61Z" transform="translate(-684.189 -832.46)"/><path class="e" d="M659.018,925.253s-7.907-18.462-14.843-18.462-6.6,15.5-2.308,23.746,13.531,11.539,16.167,6.6" transform="translate(-533.732 -823.88)"/><g class="o" transform="translate(105.048 82.91)"><path class="d" d="M659.018,925.253s-7.907-18.462-14.843-18.462-6.6,15.5-2.308,23.746,13.531,11.539,16.167,6.6" transform="translate(-638.78 -906.791)"/><path class="g" d="M659.018,925.253s-7.907-18.462-14.843-18.462-6.6,15.5-2.308,23.746,13.531,11.539,16.167,6.6" transform="translate(-638.78 -906.791)"/></g><path class="h" d="M659.018,925.253s-7.907-18.462-14.843-18.462-6.6,15.5-2.308,23.746,13.531,11.539,16.167,6.6" transform="translate(-533.732 -823.88)"/><path class="h" d="M647.3,926.191s-1.009-8.033,2.812-6.621,8.235,14.061,8.235,14.061-3.216-3.417-2.812-.2a3.644,3.644,0,0,0,3.216,3.4" transform="translate(-539.152 -832.02)"/></g><g transform="translate(333.298 644.343)"><path class="b" d="M1108.663,1120.308H952.329l-26.7,107.316h156.346Z" transform="translate(-847.195 -1120.308)"/><rect class="b" width="233.145" height="7.629" transform="translate(0 107.316)"/><rect class="p" width="156.346" height="7.629" transform="translate(78.438 107.316)"/><path class="p" d="M1113.546,1120.308H957.2l-26.7,107.316H1086.85Z" transform="translate(-850.338 -1120.308)"/><ellipse class="l" cx="22.296" cy="22.081" rx="22.296" ry="22.081" transform="translate(148.502 33.62)"/><path class="e" d="M1132.8,1272.732a1.892,1.892,0,0,1-1.009-1.1,2.168,2.168,0,0,1,0-1.614,2.244,2.244,0,0,1,1.261-1.261l9.445-3.783c.315-.139.643,0,1,.416a2.157,2.157,0,0,1,.542,1.261,1.186,1.186,0,0,1-.643,1.1l-7.92,3.077,7.945,3.191a1.122,1.122,0,0,1,.492,1.034,2.182,2.182,0,0,1-.454,1.261c-.3.4-.605.542-.921.416Z" transform="translate(-980.125 -1213.626)"/><path class="e" d="M1175.743,1267.19a1.072,1.072,0,0,1-.4-.87,6.91,6.91,0,0,1,.3-1.337l5.246-15.133q.492-1.7,1.4-1.7a1.362,1.362,0,0,1,.908.328,1.261,1.261,0,0,1,.366.946,4.289,4.289,0,0,1-.29,1.261l-5.486,16.016a1.122,1.122,0,0,1-1.148.857A1.387,1.387,0,0,1,1175.743,1267.19Z" transform="translate(-1008.325 -1202.801)"/><path class="e" d="M1204.467,1276.491a2.183,2.183,0,0,1-.454-1.261,1.122,1.122,0,0,1,.492-1.034l7.945-3.19-7.919-3.077a1.186,1.186,0,0,1-.643-1.1,2.157,2.157,0,0,1,.542-1.261c.353-.416.681-.555,1-.416l9.445,3.783a2.36,2.36,0,0,1,1.11.908,2.069,2.069,0,0,1,.366,1.185,2.41,2.41,0,0,1-.328,1.122,1.728,1.728,0,0,1-.832.757l-9.8,4.073A.954.954,0,0,1,1204.467,1276.491Z" transform="translate(-1026.745 -1213.74)"/></g></g></svg>