<svg xmlns="http://www.w3.org/2000/svg" width="285.324" height="285.474" viewBox="0 0 285.324 285.474"><defs><style>.a,.i,.k{fill:#2fce6e;}.b,.d,.e,.f,.o{fill:#fff;}.b{opacity:0.7;}.c,.g,.m{fill:#263238;}.c,.d,.f,.h,.i,.j,.k,.l,.m,.o{stroke:#263238;}.c,.d,.f,.h,.i,.j,.n{stroke-linecap:round;stroke-linejoin:round;}.f{stroke-width:0.704px;}.h,.l{fill:#d9d9d9;}.j,.n{fill:none;}.k,.l,.m,.o{stroke-miterlimit:10;}.n{stroke:gray;}</style></defs><g transform="translate(-26.557 -15.339)"><g transform="translate(26.557 15.339)"><path class="a" d="M214.75,20.411s-45.989-16.358-91.136,9.681-67.93,77.725-87.488,119.123-8.3,83.517,26.159,102.72,57.9-9.105,106.23-10.484,61.335,5.533,101.468-21.777,47.373-91.813,15.726-139.54S214.75,20.411,214.75,20.411Z" transform="translate(-26.557 -15.339)"/><path class="b" d="M214.75,20.411s-45.989-16.358-91.136,9.681-67.93,77.725-87.488,119.123-8.3,83.517,26.159,102.72,57.9-9.105,106.23-10.484,61.335,5.533,101.468-21.777,47.373-91.813,15.726-139.54S214.75,20.411,214.75,20.411Z" transform="translate(-26.557 -15.339)"/></g><g transform="translate(33.316 210.164)"><path class="a" d="M450.087,393.358c-2.529-.36-7.341-3.5-7.348-3.5s3.029-2.529,3.237-2.681c2.46-1.574,8.132-3.162,10.655-1.094a3.87,3.87,0,0,1,.082,5.76C455.077,393.466,452.244,393.668,450.087,393.358Z" transform="translate(-186.339 -346.118)"/><path class="a" d="M379.769,353.476c-.063,0,1.119-3.794,1.22-4.022,1.182-2.668,5.058-7.126,8.283-6.785a3.863,3.863,0,0,1,3.244,4.749c-.468,2.264-2.719,4-4.692,4.926C385.51,353.438,379.769,353.476,379.769,353.476Z" transform="translate(-163.185 -330.51)"/><path class="a" d="M361.52,409.686c-1.119,1.391-2.137,2.7-3.048,3.9h-2.3c1.157-1.486,2.529-3.162,4.034-4.983.885-1.062,1.853-2.175,2.858-3.313a37.726,37.726,0,0,1-2.529-3.509c-2.055.689-6.254.506-6.8.481-.158,1.347-.3,2.668-.411,3.908-.266,2.814-.424,5.311-.531,7.417h-1.9c.152-2.15.373-4.7.7-7.588.158-1.378.348-2.839.563-4.344-.531-.158-4.837-1.5-6.418-2.9-1.435-1.265-2.909-3.288-2.75-5.312a3.4,3.4,0,0,1,3.908-3.212c2.826.512,4.976,5.223,5.318,7.765,0,.152.057,1.8.063,2.845.089-.632.171-1.208.266-1.84.19-1.265.417-2.485.632-3.794.139-.632.278-1.265.417-1.941s.341-1.322.512-1.992c.424-1.537.929-3.079,1.473-4.622-1.094-.164-4.964-.822-6.583-1.865s-3.37-2.807-3.522-4.831a3.408,3.408,0,0,1,3.377-3.794c2.871.076,5.691,4.426,6.437,6.873.044.152.36,1.973.519,2.978.335-.923.664-1.846,1.031-2.77,1.062-2.662,2.219-5.33,3.364-7.992.348-.816.689-1.638,1.031-2.453-.386-.057-5-.733-6.816-1.9-1.606-1.037-3.37-2.807-3.522-4.831a3.408,3.408,0,0,1,3.377-3.794c2.871.076,5.691,4.426,6.431,6.873.057.183.512,2.807.594,3.484.759-1.8,1.492-3.6,2.144-5.406a60.188,60.188,0,0,0,2.207-7.442c-.184,0-5-.715-6.861-1.9-1.606-1.037-3.37-2.807-3.522-4.831a3.4,3.4,0,0,1,3.377-3.794c2.871.076,5.691,4.426,6.431,6.867.051.164.4,2.163.544,3.117h.164a43.683,43.683,0,0,0,.828-7.765c.044-1.435,0-2.807-.063-4.142-.911-.038-5.059-.247-6.861-1.144s-3.661-2.416-4.034-4.426a3.408,3.408,0,0,1,2.946-4.116c2.858-.24,6.159,3.756,7.145,6.121.057.133.455,1.5.733,2.529-.038-.632-.069-1.227-.12-1.8-.183-2.169-.481-4.135-.759-5.881-.164-.993-.335-1.9-.506-2.713-.873-.506-4.376-2.567-5.533-4.154s-2.131-3.838-1.543-5.779a3.4,3.4,0,0,1,4.508-2.3c2.65,1.107,3.737,6.171,3.522,8.726,0,.221-.708,3.642-.752,3.617l-.051-.032c.177.8.36,1.657.537,2.6.316,1.739.632,3.712.892,5.881a60.733,60.733,0,0,1,.4,7.031,44.8,44.8,0,0,1-.632,7.853v.089c.392-.74,1.562-2.789,1.669-2.934,1.511-2.068,5.659-5.179,8.385-4.274a3.4,3.4,0,0,1,1.9,4.685c-.828,1.853-3.092,2.921-4.957,3.351-2.106.487-6.7-.449-7.063-.525a60.525,60.525,0,0,1-2.1,7.746c-.5,1.48-1.05,2.953-1.619,4.426.36-.632.683-1.2.74-1.265,1.511-2.068,5.653-5.179,8.385-4.275a3.4,3.4,0,0,1,1.9,4.686c-.828,1.853-3.086,2.921-4.951,3.351s-5.824-.285-6.861-.487c-.228.563-.443,1.126-.67,1.688-1.088,2.694-2.182,5.375-3.162,8.037-.348.936-.632,1.9-.974,2.814.322-.563.594-1.037.632-1.1,1.511-2.074,5.653-5.179,8.385-4.281a3.4,3.4,0,0,1,1.9,4.692c-.828,1.853-3.086,2.921-4.951,3.345s-5.444-.209-6.677-.449c-.291.974-.588,1.941-.828,2.9-.145.632-.335,1.265-.449,1.935s-.253,1.3-.38,1.948c-.19,1.265-.4,2.529-.556,3.756-.12.847-.215,1.657-.31,2.472.335-.936,1.037-2.757,1.113-2.9A13.2,13.2,0,0,1,359.585,394a3.744,3.744,0,0,1,.4-.632,3.4,3.4,0,0,1,5.027-.525c2.08,1.985,1.265,7.1.152,9.409-.063.139-.942,1.536-1.518,2.409.417-.462.809-.917,1.265-1.385.847-.936,1.714-1.846,2.649-2.826l1.423-1.385c.462-.474,1.012-.917,1.518-1.378,1.208-1.056,2.479-2.061,3.794-3.048-.816-.74-3.68-3.421-4.426-5.185s-1.265-4.2-.272-5.969a3.4,3.4,0,0,1,4.894-1.265c2.352,1.65,2.333,6.829,1.574,9.282-.044.152-.784,1.846-1.208,2.77.784-.582,1.568-1.17,2.384-1.739,2.359-1.638,4.793-3.225,7.221-4.812l2.213-1.473c-.3-.266-3.794-3.377-4.635-5.349-.771-1.752-1.265-4.2-.272-5.975a3.4,3.4,0,0,1,4.894-1.265c2.352,1.644,2.333,6.829,1.575,9.276-.057.183-1.126,2.63-1.429,3.237,1.625-1.088,3.231-2.181,4.768-3.326a59.292,59.292,0,0,0,5.95-5c-.139-.12-3.794-3.351-4.667-5.375-.771-1.752-1.265-4.2-.278-5.969a3.4,3.4,0,0,1,4.894-1.265c2.359,1.65,2.333,6.829,1.581,9.276-.051.164-.866,2.023-1.265,2.9a.988.988,0,0,1,.133.095,43.294,43.294,0,0,0,4.977-6.02c.828-1.176,1.555-2.34,2.232-3.49-.74-.537-4.091-3-5.09-4.736s-1.72-4.041-.93-5.906a3.4,3.4,0,0,1,4.723-1.815c2.529,1.378,3.067,6.532,2.586,9.049,0,.139-.449,1.5-.765,2.491.3-.525.632-1.062.892-1.568,1.043-1.9,1.9-3.712,2.611-5.324.4-.917.759-1.752,1.075-2.529-.455-.9-2.232-4.559-2.321-6.519s.335-4.376,1.9-5.691a3.4,3.4,0,0,1,5.027.569c1.6,2.384-.284,7.208-1.9,9.219-.133.177-2.592,2.649-2.618,2.605l-.032-.057c-.291.765-.632,1.581-.98,2.466-.7,1.625-1.5,3.459-2.529,5.394a59.066,59.066,0,0,1-3.541,6.089,43.9,43.9,0,0,1-4.888,6.184.589.589,0,0,1-.063.063c.734-.4,2.839-1.461,3.01-1.524,2.4-.892,7.588-1.2,9.352,1.056a3.4,3.4,0,0,1-1.012,4.957c-1.707,1.088-4.18.727-5.975.057-2.023-.759-5.337-4.066-5.6-4.331a59.646,59.646,0,0,1-6.026,5.3q-1.9,1.442-3.794,2.8a10.361,10.361,0,0,1,1.322-.632c2.4-.892,7.588-1.2,9.352,1.056a3.4,3.4,0,0,1-1.012,4.957c-1.707,1.088-4.18.734-5.975.063s-4.7-3.452-5.457-4.192c-.493.341-.986.7-1.486,1.037-2.39,1.644-4.787,3.275-7.088,4.951-.809.588-1.581,1.2-2.365,1.808.582-.3,1.069-.537,1.145-.563,2.4-.892,7.588-1.2,9.352,1.056a3.4,3.4,0,0,1-1.005,4.957c-1.714,1.088-4.186.734-5.982.057s-4.426-3.162-5.318-4.053c-.778.632-1.562,1.265-2.283,1.954-.487.462-.986.873-1.448,1.366l-1.391,1.416c-.847.936-1.726,1.9-2.529,2.82-.563.632-1.094,1.265-1.625,1.9.8-.594,2.39-1.726,2.529-1.808,2.245-1.265,7.3-2.333,9.4-.373a3.4,3.4,0,0,1-.24,5.059c-1.594,1.284-4.066,1.284-5.963.917-2.061-.43-5.691-3.079-6.159-3.408C363.145,407.688,362.3,408.706,361.52,409.686Z" transform="translate(-149.66 -323.451)"/><path class="a" d="M324.087,393.358c-2.529-.36-7.341-3.5-7.348-3.5s3.029-2.529,3.237-2.681c2.46-1.574,8.132-3.162,10.655-1.094a3.87,3.87,0,0,1,.082,5.76C329.077,393.466,326.244,393.668,324.087,393.358Z" transform="translate(-140.011 -346.118)"/><path class="a" d="M253.769,353.476c-.063,0,1.119-3.794,1.22-4.022,1.182-2.668,5.059-7.126,8.283-6.785a3.863,3.863,0,0,1,3.244,4.749c-.468,2.264-2.719,4-4.692,4.926C259.51,353.438,253.769,353.476,253.769,353.476Z" transform="translate(-116.857 -330.51)"/><path class="a" d="M235.539,409.686c-1.119,1.391-2.137,2.7-3.048,3.9h-2.3c1.157-1.486,2.529-3.162,4.034-4.983.885-1.062,1.853-2.175,2.858-3.313a37.743,37.743,0,0,1-2.529-3.509c-2.055.689-6.254.506-6.8.481-.158,1.347-.3,2.668-.411,3.908-.266,2.814-.424,5.311-.531,7.417h-1.865c.152-2.15.373-4.7.7-7.588.158-1.378.348-2.839.563-4.344-.531-.158-4.837-1.5-6.418-2.9-1.435-1.265-2.909-3.288-2.751-5.312a3.4,3.4,0,0,1,3.908-3.212c2.826.512,4.976,5.223,5.318,7.765,0,.152.057,1.8.063,2.845.089-.632.171-1.208.266-1.84.19-1.265.417-2.485.632-3.794.139-.632.278-1.265.417-1.941s.341-1.322.512-1.992c.424-1.537.929-3.079,1.473-4.622-1.094-.164-4.964-.822-6.582-1.865s-3.37-2.807-3.522-4.831a3.408,3.408,0,0,1,3.377-3.794c2.871.076,5.691,4.426,6.437,6.873.044.152.36,1.973.519,2.978.335-.923.632-1.846,1.031-2.77,1.062-2.662,2.219-5.33,3.364-7.992.348-.816.689-1.638,1.031-2.453-.386-.057-5-.733-6.816-1.9-1.606-1.037-3.37-2.807-3.522-4.831a3.408,3.408,0,0,1,3.377-3.794c2.871.076,5.691,4.426,6.431,6.873.057.183.512,2.807.594,3.484.759-1.8,1.492-3.6,2.144-5.406a60.182,60.182,0,0,0,2.207-7.442c-.183,0-5-.715-6.861-1.9-1.606-1.037-3.37-2.807-3.522-4.831a3.4,3.4,0,0,1,3.377-3.794c2.871.076,5.691,4.426,6.431,6.867.051.164.4,2.163.544,3.117h.164a43.689,43.689,0,0,0,.828-7.765c.044-1.435,0-2.807-.063-4.142-.911-.038-5.059-.247-6.861-1.144s-3.661-2.416-4.034-4.426a3.408,3.408,0,0,1,2.94-4.116c2.864-.24,6.165,3.756,7.152,6.121.057.133.455,1.5.733,2.529-.038-.632-.07-1.227-.12-1.8-.183-2.169-.481-4.135-.759-5.881-.164-.993-.335-1.9-.506-2.713-.873-.506-4.376-2.567-5.533-4.154s-2.131-3.838-1.543-5.779a3.4,3.4,0,0,1,4.508-2.3c2.649,1.107,3.737,6.171,3.522,8.726,0,.221-.708,3.642-.752,3.617l-.051-.032c.177.8.36,1.657.537,2.6.316,1.739.664,3.712.892,5.881a60.74,60.74,0,0,1,.4,7.031,44.8,44.8,0,0,1-.664,7.853v.089c.392-.74,1.562-2.789,1.669-2.934,1.511-2.068,5.659-5.179,8.385-4.274a3.4,3.4,0,0,1,1.9,4.685c-.828,1.853-3.092,2.921-4.957,3.351-2.106.487-6.7-.449-7.063-.525a60.525,60.525,0,0,1-2.1,7.746c-.5,1.48-1.05,2.953-1.619,4.426.36-.632.683-1.2.74-1.265,1.511-2.068,5.653-5.179,8.385-4.275a3.4,3.4,0,0,1,1.9,4.686c-.828,1.853-3.086,2.921-4.951,3.351s-5.824-.285-6.861-.487c-.228.563-.443,1.126-.67,1.688-1.088,2.694-2.181,5.375-3.162,8.037-.348.936-.632,1.9-.974,2.814.322-.563.594-1.037.632-1.1,1.511-2.074,5.653-5.179,8.385-4.281a3.4,3.4,0,0,1,1.9,4.692c-.828,1.853-3.086,2.921-4.951,3.345s-5.444-.209-6.677-.449c-.291.974-.588,1.941-.828,2.9-.145.632-.335,1.265-.449,1.935s-.253,1.3-.379,1.948c-.19,1.265-.4,2.529-.556,3.756-.12.847-.215,1.657-.31,2.472.335-.936,1.037-2.757,1.113-2.9A13.2,13.2,0,0,1,233.6,394a3.751,3.751,0,0,1,.4-.632,3.4,3.4,0,0,1,5.059-.525c2.08,1.985,1.265,7.1.152,9.409-.063.139-.942,1.536-1.518,2.409.417-.462.809-.917,1.265-1.385.847-.936,1.714-1.846,2.649-2.826l1.423-1.385c.462-.474,1.012-.917,1.518-1.378,1.208-1.056,2.479-2.061,3.794-3.048-.816-.74-3.68-3.421-4.426-5.185s-1.265-4.2-.272-5.969a3.4,3.4,0,0,1,4.894-1.265c2.352,1.65,2.333,6.829,1.574,9.282-.044.152-.784,1.846-1.208,2.77.784-.582,1.568-1.17,2.384-1.739,2.359-1.638,4.793-3.225,7.221-4.812l2.213-1.473c-.3-.266-3.794-3.377-4.635-5.349-.771-1.752-1.265-4.2-.272-5.975a3.4,3.4,0,0,1,4.894-1.265c2.352,1.644,2.333,6.829,1.574,9.276-.057.183-1.125,2.63-1.429,3.237,1.625-1.088,3.231-2.181,4.768-3.326a59.285,59.285,0,0,0,5.95-5c-.139-.12-3.794-3.351-4.667-5.375-.771-1.752-1.265-4.2-.278-5.969a3.4,3.4,0,0,1,4.894-1.265c2.359,1.65,2.333,6.829,1.581,9.276-.051.164-.866,2.023-1.265,2.9a1,1,0,0,1,.133.095,43.284,43.284,0,0,0,4.976-6.02c.828-1.176,1.556-2.34,2.232-3.49-.74-.537-4.091-3-5.09-4.736s-1.72-4.041-.93-5.906a3.4,3.4,0,0,1,4.723-1.815c2.529,1.378,3.067,6.532,2.586,9.049,0,.139-.449,1.5-.765,2.491.3-.525.632-1.062.892-1.568,1.043-1.9,1.9-3.712,2.611-5.324.4-.917.759-1.752,1.075-2.529-.455-.9-2.232-4.559-2.321-6.519s.335-4.376,1.9-5.691a3.4,3.4,0,0,1,5.027.569c1.6,2.384-.285,7.208-1.9,9.219-.133.177-2.593,2.649-2.618,2.605l-.032-.057c-.291.765-.632,1.581-.98,2.466-.7,1.625-1.5,3.459-2.529,5.394a59.074,59.074,0,0,1-3.541,6.089,43.912,43.912,0,0,1-4.888,6.184.589.589,0,0,1-.063.063c.734-.4,2.839-1.461,3.01-1.524,2.4-.892,7.588-1.2,9.352,1.056a3.4,3.4,0,0,1-1.012,4.957c-1.707,1.088-4.18.727-5.975.057-2.023-.759-5.337-4.066-5.6-4.331a59.668,59.668,0,0,1-6.026,5.3q-1.9,1.442-3.794,2.8a10.361,10.361,0,0,1,1.322-.632c2.4-.892,7.588-1.2,9.352,1.056a3.4,3.4,0,0,1-1.012,4.957c-1.707,1.088-4.18.734-5.975.063s-4.7-3.452-5.457-4.192c-.493.341-.986.7-1.486,1.037-2.39,1.644-4.787,3.275-7.088,4.951-.809.588-1.581,1.2-2.365,1.808.582-.3,1.069-.537,1.145-.563,2.4-.892,7.588-1.2,9.352,1.056a3.4,3.4,0,0,1-1.005,4.957c-1.714,1.088-4.186.734-5.982.057s-4.426-3.162-5.318-4.053c-.778.632-1.562,1.265-2.283,1.954-.487.462-.986.873-1.448,1.366l-1.391,1.416c-.847.936-1.726,1.9-2.529,2.82-.563.632-1.094,1.265-1.625,1.9.8-.594,2.39-1.726,2.529-1.808,2.245-1.265,7.3-2.333,9.4-.373a3.4,3.4,0,0,1-.24,5.059c-1.625,1.284-4.1,1.284-5.994.917-2.061-.43-5.691-3.079-6.159-3.408C237.164,407.688,236.316,408.706,235.539,409.686Z" transform="translate(-103.35 -323.451)"/><path class="a" d="M44.255,401.461c2.251-.323,6.526-3.111,6.526-3.111s-2.687-2.257-2.877-2.378c-2.181-1.4-7.221-2.82-9.485-.974a3.44,3.44,0,0,0-.063,5.116C39.822,401.556,42.339,401.739,44.255,401.461Z" transform="translate(-37.247 -349.434)"/><path class="a" d="M107.963,366.026c.051,0-1-3.37-1.088-3.573-1.05-2.371-4.471-6.323-7.36-6.032a3.433,3.433,0,0,0-2.883,4.224c.417,2,2.422,3.547,4.173,4.376C102.861,365.988,107.957,366.026,107.963,366.026Z" transform="translate(-59.045 -335.568)"/><path class="a" d="M93.5,415.98c.993,1.265,1.9,2.4,2.706,3.465h2.049c-1.031-1.321-2.232-2.814-3.585-4.426-.79-.942-1.65-1.935-2.529-2.94a33.624,33.624,0,0,0,2.27-3.124c1.821.632,5.552.449,6.039.424.139,1.2.259,2.371.36,3.478.234,2.5.379,4.717.474,6.589h1.657c-.133-1.9-.329-4.18-.632-6.74-.139-1.22-.31-2.529-.493-3.857.468-.145,4.293-1.341,5.691-2.58,1.265-1.132,2.586-2.921,2.447-4.717a3.029,3.029,0,0,0-3.471-2.858c-2.529.455-4.426,4.641-4.73,6.9,0,.133-.051,1.6-.051,2.529-.082-.544-.152-1.075-.24-1.638-.171-1.107-.373-2.207-.582-3.389-.126-.569-.247-1.144-.373-1.726s-.3-1.176-.455-1.771c-.373-1.366-.822-2.738-1.309-4.1.974-.152,4.426-.733,5.843-1.663s3-2.491,3.162-4.287a3.029,3.029,0,0,0-3-3.351c-2.529.07-5.059,3.92-5.691,6.1-.038.139-.322,1.758-.462,2.656-.3-.822-.588-1.644-.917-2.466-.942-2.365-1.973-4.736-2.985-7.1-.316-.727-.632-1.454-.923-2.175.348-.051,4.426-.632,6.058-1.695,1.429-.923,3-2.491,3.162-4.293a3.016,3.016,0,0,0-3-3.345c-2.529.07-5.059,3.914-5.691,6.1-.051.164-.455,2.5-.525,3.1-.677-1.6-1.328-3.2-1.9-4.8a53.6,53.6,0,0,1-1.954-6.614c.158,0,4.426-.632,6.089-1.7,1.429-.923,3-2.491,3.162-4.293a3.016,3.016,0,0,0-3-3.345c-2.529.07-5.059,3.914-5.691,6.1-.044.145-.354,1.9-.481,2.77h-.145a39.13,39.13,0,0,1-.936-6.892c-.038-1.265,0-2.529.057-3.686.809,0,4.508-.215,6.1-1.012s3.256-2.15,3.585-3.92a3.022,3.022,0,0,0-2.611-3.655c-2.529-.215-5.476,3.332-6.323,5.438-.044.114-.4,1.328-.632,2.219.038-.537.063-1.088.107-1.6.158-1.9.424-3.674.677-5.223.145-.879.3-1.676.449-2.416.778-.443,3.889-2.276,4.913-3.686s1.9-3.408,1.372-5.134a3.022,3.022,0,0,0-4-2.042c-2.359.986-3.326,5.482-3.162,7.752,0,.2.632,3.237.632,3.219l.107-.032c-.158.708-.322,1.473-.481,2.308-.285,1.549-.588,3.3-.79,5.223a53.506,53.506,0,0,0-.36,6.254,39.54,39.54,0,0,0,.588,6.956v.082c-.348-.632-1.385-2.479-1.48-2.612-1.347-1.834-5.059-4.6-7.449-3.794a3.023,3.023,0,0,0-1.682,4.167c.734,1.65,2.738,2.592,4.426,2.978,1.9.43,5.95-.4,6.273-.468a53.114,53.114,0,0,0,1.9,6.886c.443,1.315.93,2.624,1.435,3.927a12.408,12.408,0,0,1-.632-1.126c-1.347-1.84-5.027-4.6-7.449-3.794a3.023,3.023,0,0,0-1.682,4.167c.733,1.644,2.738,2.593,4.426,2.972s5.172-.247,6.1-.43c.2.5.392,1.005.594,1.5.967,2.4,1.941,4.774,2.82,7.145.316.828.588,1.663.873,2.5-.285-.5-.531-.917-.575-.98-1.347-1.84-5.059-4.6-7.449-3.794a3.023,3.023,0,0,0-1.682,4.167c.733,1.644,2.744,2.592,4.426,2.978s4.831-.19,5.931-.4c.259.86.525,1.72.733,2.567.133.575.3,1.125.4,1.72s.221,1.157.335,1.733c.171,1.107.354,2.245.493,3.332.107.752.19,1.473.278,2.2-.3-.835-.923-2.453-.993-2.58a11.628,11.628,0,0,0-4.129-4.243,3.3,3.3,0,0,0-.354-.569,3.022,3.022,0,0,0-4.471-.462c-1.846,1.764-1.132,6.323-.139,8.359.063.12.841,1.359,1.353,2.137l-1.107-1.265c-.752-.828-1.524-1.638-2.359-2.529l-1.265-1.227c-.411-.424-.9-.816-1.353-1.227-1.069-.936-2.2-1.827-3.358-2.706.727-.632,3.269-3.041,3.958-4.6s1.126-3.737.247-5.312a3.029,3.029,0,0,0-4.35-1.138c-2.093,1.467-2.074,6.07-1.4,8.22.044.139.7,1.644,1.081,2.466-.7-.519-1.4-1.043-2.125-1.549-2.093-1.454-4.256-2.858-6.412-4.274-.632-.43-1.309-.873-1.967-1.309.259-.234,3.351-3,4.116-4.749.683-1.562,1.126-3.737.247-5.311a3.029,3.029,0,0,0-4.35-1.138c-2.087,1.467-2.074,6.07-1.4,8.22.051.164,1,2.333,1.265,2.871-1.442-.961-2.864-1.935-4.237-2.953a52.857,52.857,0,0,1-5.28-4.426c.12-.108,3.358-2.978,4.142-4.78.689-1.555,1.126-3.731.247-5.305a3.022,3.022,0,0,0-4.35-1.138c-2.087,1.467-2.074,6.07-1.4,8.22.044.145.765,1.8,1.126,2.574a1.388,1.388,0,0,1-.12.082,38.818,38.818,0,0,1-4.426-5.343c-.734-1.043-1.378-2.08-1.985-3.1.632-.474,3.636-2.668,4.527-4.2s1.524-3.592.822-5.248a3.01,3.01,0,0,0-4.192-1.606c-2.238,1.22-2.732,5.8-2.3,8.037,0,.12.4,1.334.683,2.213-.266-.468-.55-.942-.8-1.4-.923-1.688-1.669-3.294-2.314-4.723-.367-.816-.677-1.562-.961-2.264.4-.8,1.985-4.047,2.068-5.792s-.3-3.883-1.688-5.059a3.016,3.016,0,0,0-4.464.506c-1.423,2.118.253,6.405,1.663,8.22.126.152,2.308,2.352,2.333,2.308v-.044c.259.677.55,1.4.879,2.188.632,1.448,1.328,3.073,2.219,4.793a53.887,53.887,0,0,0,3.162,5.413,38.907,38.907,0,0,0,4.338,5.488l.063.063c-.632-.36-2.529-1.3-2.675-1.359-2.137-.8-6.728-1.069-8.309.936a3.022,3.022,0,0,0,.892,4.426c1.524.967,3.718.632,5.311.051,1.8-.67,4.742-3.61,4.976-3.851a52.292,52.292,0,0,0,5.362,4.711c1.094.854,2.219,1.676,3.364,2.485-.575-.291-1.094-.55-1.17-.575-2.137-.79-6.734-1.069-8.309.942a3.016,3.016,0,0,0,.892,4.426c1.524.967,3.718.632,5.311.051s4.18-3.06,4.85-3.718l1.322.923c2.125,1.461,4.249,2.909,6.323,4.395.721.525,1.41,1.069,2.106,1.606-.512-.259-.949-.474-1.018-.5-2.137-.79-6.728-1.069-8.309.942a3.016,3.016,0,0,0,.9,4.426c1.518.968,3.718.632,5.311.051s3.927-2.82,4.723-3.6c.7.575,1.385,1.151,2.03,1.739.436.411.879.778,1.265,1.214l1.265,1.265c.752.828,1.537,1.682,2.251,2.529.506.569.974,1.125,1.442,1.682-.708-.531-2.125-1.536-2.251-1.606-1.992-1.107-6.488-2.074-8.353-.329a3.023,3.023,0,0,0,.215,4.49c1.359,1.182,3.579,1.2,5.242.854,1.834-.386,5.059-2.732,5.476-3.029C92.087,414.2,92.815,415.108,93.5,415.98Z" transform="translate(-40.393 -329.309)"/></g><g transform="translate(108.956 37.281)"><rect class="c" width="126.628" height="239.187" rx="7.67"/><rect class="d" width="115.373" height="186.661" transform="translate(5.634 26.26)"/><path class="e" d="M261.261,68.921H236.177a1.707,1.707,0,0,1-1.707-1.707h0a1.707,1.707,0,0,1,1.707-1.714h25.084a1.707,1.707,0,0,1,1.707,1.714h0A1.707,1.707,0,0,1,261.261,68.921Z" transform="translate(-185.402 -55.724)"/><path class="f" d="M259.863,399.462a6.835,6.835,0,1,0-2,4.84A6.842,6.842,0,0,0,259.863,399.462Z" transform="translate(-189.708 -176)"/><rect class="g" width="6.937" height="6.937" transform="translate(59.849 219.99)"/></g><g transform="translate(232.215 72.902)"><path class="h" d="M360.356,272.892l-.746,5.691s-3.086,21.138-.949,32.065,6.172,22.087,6.412,24.7-1.189,12.823.474,21.138,4.749,24.7,4.749,24.7l-2.612,6.178s-5.463,3.56-6.171,4.749a1.069,1.069,0,0,0,.474,1.663H379.06a9.71,9.71,0,0,0,.715-4.041V373.109c0-1.663.948-29.921,1.9-34.91s1.9-42.751,1.9-42.751h.955s4.515,37.522,5.691,41.562,6.178,21.372,7.588,24.939,3.092,15.909,4.041,19a63.931,63.931,0,0,1,2.137,8.549,20.862,20.862,0,0,0,1.189,4.274h12.868a6.133,6.133,0,0,0-.714-3.56c-.955-1.423-7.12-7.588-8.075-12.115s1.429-25.426,1.2-32.773-2.378-8.315-2.378-14.727,2.378-25.887,2.378-35.151-1.265-17.8-3.585-22.675l-3.3-3.212H362.7Z" transform="translate(-354.046 -166.374)"/><path class="i" d="M437.363,447.294v.031s-3.326-2.137-4.515-.474a5.192,5.192,0,0,0-1.189,2.612H429.13a42.464,42.464,0,0,1,1.107,4.989,20.876,20.876,0,0,0,1.189,4.275h12.8a6.134,6.134,0,0,0-.714-3.56C442.839,454.155,439.57,450.778,437.363,447.294Z" transform="translate(-380.233 -231.328)"/><path class="d" d="M432.385,465.04h12.823a7.414,7.414,0,0,0-.044-1.65H431.81C432.1,464.339,432.385,465.04,432.385,465.04Z" transform="translate(-381.218 -237.642)"/><path class="i" d="M381.764,455.123v-4.034H377.25a3.708,3.708,0,0,0-1.9-3.326c-2.137-1.429-4.281,1.9-4.281,1.9h-.114l-1.309,3.086s-5.463,3.56-6.172,4.749a1.069,1.069,0,0,0,.474,1.663h17.073A9.711,9.711,0,0,0,381.764,455.123Z" transform="translate(-356.01 -231.764)"/><path class="d" d="M363.464,463.39a1.069,1.069,0,0,0,.487,1.65h17.073a7,7,0,0,0,.493-1.65Z" transform="translate(-356.009 -237.641)"/><path class="d" d="M409.184,369.34c.4-8.087,1.41-19.083,1.265-24.028-.234-7.366-2.378-8.315-2.378-14.727s2.378-25.874,2.378-35.138-1.265-17.8-3.585-22.675l-3.3-3.212H362.7l-2.34,3.332-.746,5.691s-3.086,21.138-.949,32.065,6.172,22.087,6.412,24.7-1.189,12.823.474,21.138c.734,3.648,1.733,8.852,2.63,13.544a44.261,44.261,0,0,0,11.673,1.056c.2-6.873,1.024-28.574,1.846-32.881.948-4.989,1.9-42.751,1.9-42.751h.929s4.515,37.522,5.691,41.562,6.178,21.372,7.588,24.939a51.981,51.981,0,0,1,1.9,7.942A20.53,20.53,0,0,0,409.184,369.34Z" transform="translate(-354.046 -166.374)"/><line class="j" y1="10.212" x2="12.823" transform="translate(33.355 116.724)"/><line class="j" x2="6.652" y2="5.463" transform="translate(14.587 117.672)"/><path class="c" d="M402.453,108.957s-5.457-3.225-5.33-1.486,2.479,2.972,2.479,2.972-7.815-1.113-9.055-.632.873,1.119.873,1.119-9.674,7.436-13.019,12.52-6.323,12.526-2.852,18.23,8.555,10.168,17.111,12.646,16.984-.126,22.688-2.479,11.382-9.055,10.414-17.484-8.454-17.224-14.037-23.168-9.049-5.059-9.049-4.218a11.222,11.222,0,0,1-.221,1.979Z" transform="translate(-359.962 -106.373)"/><path class="h" d="M380.927,165.947l-1.265,9.542s-9.055,2.972-12.4,4.338-4.837,3.1-5.457,4.584-9.485,22.131-9.864,24.091.247,2.852,2.972,4.091,10.307-3.345,10.307-3.345l.993,3.471s-4.964,8.429-5.83,11.154-2.232,10.787-2.232,10.787,9.422,4.711,24.3,4.344,22.194-4.464,22.194-4.464a110.808,110.808,0,0,0-3.345-12.773c-1.733-4.711-3.225-6.57-3.225-8.429s5.457-11.534,5.457-11.534l11.521,5.432a124.777,124.777,0,0,1-3.465-15.719c-.746-6.323-2.03-7.354-4.515-9.586s-13.386-5.451-13.759-5.691.493-10.661.493-10.661S384.4,168.059,380.927,165.947Z" transform="translate(-351.815 -128.143)"/><path class="c" d="M404.539,172.479a19.3,19.3,0,0,0,5.413-3.737c.133-1.777.247-3.162.247-3.162s-9.384,2.491-12.855.379l-.854,6.323C398.412,174,401.549,173.6,404.539,172.479Z" transform="translate(-368.232 -128.143)"/><path class="i" d="M401.247,230.846c-1.739-4.711-3.225-6.57-3.225-8.429s5.457-11.534,5.457-11.534L415,216.315a124.779,124.779,0,0,1-3.465-15.719c-.4-3.421-.967-5.286-1.789-6.639-17.667,2.245-37.307-1.783-45.141-3.686a7.392,7.392,0,0,0-2.839,3.219c-.632,1.492-9.485,22.131-9.864,24.091s.247,2.852,2.972,4.091,10.332-3.345,10.332-3.345l.993,3.471s-4.964,8.429-5.83,11.154-2.232,10.787-2.232,10.787,9.422,4.711,24.3,4.344,22.194-4.464,22.194-4.464A111.366,111.366,0,0,0,401.247,230.846Z" transform="translate(-351.8 -137.221)"/><path class="j" d="M374.369,222.71s-2.466-5.166-1.8-7.86a12.831,12.831,0,0,1,1.126-3.37" transform="translate(-359.395 -145.019)"/><path class="i" d="M415.611,200.6c-.4-3.421-.967-5.286-1.789-6.639-17.667,2.245-37.307-1.783-45.141-3.686a7.391,7.391,0,0,0-2.839,3.219c-.215.525-1.461,3.427-2.991,7.044,6.956,1.9,33.6,8.492,53.665,5.4C416.136,204.092,415.807,202.24,415.611,200.6Z" transform="translate(-355.863 -137.221)"/><path class="h" d="M397.206,129.7l15.808,10.187L412.578,144s2.82-2.814,3.256.221-.632,4.553-2.605,5.419a5.46,5.46,0,0,1-3.035.632s-4.768,5.2-8.22,6.5-7.145,1.644-8.852-1.176-4.135-7.929-3.484-10.964S396.15,129.7,396.15,129.7Z" transform="translate(-365.672 -114.95)"/><path class="j" d="M402.255,144.93a3.383,3.383,0,0,1-.746,2.106c-.74.746-2.479,1.739-2.479,2.479s1.612,2.232,3.1,2.112" transform="translate(-369.166 -120.55)"/><path class="j" d="M399.81,158a4.249,4.249,0,0,0,4.964-.126" transform="translate(-369.453 -125.308)"/><path class="j" d="M409.23,147.734s2.725-.993,4.211,1.113" transform="translate(-372.916 -121.495)"/><path class="j" d="M395.89,145.691s2.232-.993,3.351.247" transform="translate(-368.011 -120.691)"/><path class="j" d="M398.05,138.564a3.162,3.162,0,0,1,3.471-.993" transform="translate(-368.805 -117.782)"/><path class="j" d="M411.19,139.63s3.471.126,4.211,3.351" transform="translate(-373.637 -118.601)"/><path class="h" d="M357.7,226.985s-3.844,1.486-5.059,3.845-.993,7.809,3.838,9.175,40.544-5.83,40.544-5.83a41.018,41.018,0,0,0,2.852,3.845c.873.866,3.1,2.605,3.225,3.345s.373,5.457,1.366,5.691.632-2.232.632-2.232,1.612-2.352,1.612-3.471a42.034,42.034,0,0,0,0-5.577c-.247-.866-6.077-5.95-7.316-6.323s-32.982-1.265-35.954-1.739S358.684,226.852,357.7,226.985Z" transform="translate(-351.88 -150.71)"/><rect class="k" width="7.48" height="16.75" rx="2.31" transform="translate(42.426 45.484) rotate(-146.39)"/><path class="l" d="M428.448,170.1s.784-2.011,1.562-3.459.784-2.125.228-2.125a3.086,3.086,0,0,0-2.46,2.346,11.6,11.6,0,0,0-.221,3.686Z" transform="translate(-379.633 -127.753)"/><path class="l" d="M415.083,174.561s6.367-6.367,6.589-6.924,0-7.809-.095-9.858a.632.632,0,0,0-.538-.632h0a.632.632,0,0,0-.765.588l-.5,5.874-1.461-7.4a.632.632,0,0,0-.632-.531h0a.632.632,0,0,0-.632.689l.411,8.22-1.834-7.038a.683.683,0,0,0-.841-.487h0a.683.683,0,0,0-.5.733l.828,7.588-1.562,1.34v-2.681l-1.9-3.162a.531.531,0,0,0-.689-.2h0a.525.525,0,0,0-.247.689l1.265,2.776s-2.46,10.054-2.574,10.389a8.176,8.176,0,0,0,.784,2.795c.335.67,15.3,32.387,16.194,33.614s6.924,3.13,9.6.221,1.789-5.8.335-9.156S415.083,174.561,415.083,174.561Z" transform="translate(-372.977 -124.502)"/></g><g transform="translate(143.816 73.298)"><circle class="a" cx="26.557" cy="26.557" r="26.557" transform="translate(0 0)"/><path class="g" d="M261.337,129.99H229.86l15.517,14.961Z" transform="translate(-218.567 -115.453)"/><path class="g" d="M264.37,142.439l10.958,9.687V132.17Z" transform="translate(-231.255 -116.255)"/><path class="g" d="M238.163,142.159l-11.1-10.7v19.95Z" transform="translate(-217.537 -115.993)"/><path class="g" d="M249.8,150.47l-4.932,4.622-4.793-4.616L228.52,160.1h32.172Z" transform="translate(-218.074 -122.983)"/><circle class="a" cx="26.557" cy="26.557" r="26.557" transform="translate(0 58.173)"/><path class="g" d="M245.4,220.846a1.176,1.176,0,0,0,1.688.449,28.622,28.622,0,0,0,2.529-1.5,3.376,3.376,0,0,0,.7-.942c-.158-.373-.24-.632-.367-.86-.341-.632-.708-1.265-1.069-1.9l-3.661-6.323a1.265,1.265,0,0,0-1.967-.525c-.784.443-1.562.885-2.327,1.353a1.157,1.157,0,0,0-.474,1.669Q242.919,216.578,245.4,220.846Z" transform="translate(-222.394 -144.493)"/><path class="g" d="M271.576,255.381q-2.4-4.173-4.818-8.334a1.2,1.2,0,0,0-1.815-.512q-1.208.677-2.39,1.385a1.189,1.189,0,0,0-.525,1.669l5.236,8.935a1.17,1.17,0,0,0,1.385.108c.847-.462,1.7-.923,2.529-1.461a3.944,3.944,0,0,0,.746-.917A6.109,6.109,0,0,0,271.576,255.381Z" transform="translate(-230.336 -158.219)"/><path class="g" d="M249.931,238.655a3.794,3.794,0,0,1-3.162-.278,7.98,7.98,0,0,1-1.5-1,14.9,14.9,0,0,1-4.673-7.834c-.462-1.9-.588-3.794.866-5.311L236.071,215c-.424.272-.835.531-1.22.8a5.021,5.021,0,0,0-2.359,4.641,29.978,29.978,0,0,0,.816,5.571,44.11,44.11,0,0,0,9.3,17.123,23.244,23.244,0,0,0,5.691,5,6.178,6.178,0,0,0,7.006-.322Z" transform="translate(-219.529 -146.709)"/><circle class="a" cx="26.557" cy="26.557" r="26.557" transform="translate(0 116.347)"/><path class="g" d="M244.38,340.87h-5.9v2.991a3.68,3.68,0,0,0,3.421,3.674Z" transform="translate(-221.736 -192.989)"/><path class="g" d="M264.106,324.67h-2.529v5.2a5.059,5.059,0,0,1-5.059,5.059h-.089l-9.03,6.658h9.8l-2.422,6.513,8.808-6.513h.531a3.693,3.693,0,0,0,3.693-3.686v-9.548a3.693,3.693,0,0,0-3.705-3.686Z" transform="translate(-225.016 -187.033)"/><path class="g" d="M248.816,312h-18.66a3.686,3.686,0,0,0-3.686,3.686v9.548a3.693,3.693,0,0,0,3.686,3.693h11.755l-2.422,6.469,8.815-6.488h.531a3.7,3.7,0,0,0,3.693-3.693v-9.548A3.693,3.693,0,0,0,248.816,312Z" transform="translate(-217.32 -182.375)"/><circle class="a" cx="1.322" cy="1.322" r="1.322" transform="translate(15.732 136.505)"/><path class="a" d="M248.033,324.232a1.322,1.322,0,1,1-1.322-1.322A1.322,1.322,0,0,1,248.033,324.232Z" transform="translate(-224.277 -186.386)"/><path class="a" d="M256.533,324.232a1.322,1.322,0,1,1-1.315-1.322A1.322,1.322,0,0,1,256.533,324.232Z" transform="translate(-227.402 -186.386)"/></g><g transform="translate(37.871 70.722)"><path class="d" d="M147.806,194.505l.481-.632,7.834-10.674s1.062-6.367,1.593-7.961,1.593-4.951,1.948-6.19.708-2.656,1.416-2.125.708,2.656.354,3.718a6.026,6.026,0,0,0-.177,3c.177.531,9.554-7.43,10.433-6.722s-.348,4.072-2.118,6.367-9.023,10.617-9.023,10.617-8.315,22.289-10.794,25.83-3,1.948-5.482,0a41.011,41.011,0,0,1-5.691-6.367Z" transform="translate(-79.06 -126.415)"/><path class="d" d="M173.6,179.034s.885-3.162,1.771-3.9,4.243-2.826,4.243-2.826l2.3-7.082s.708-.531.531,1.062a44.075,44.075,0,0,1-1.062,6.722,21.427,21.427,0,0,1-2.833,4.426" transform="translate(-91.936 -125.803)"/><path class="i" d="M133.03,167.8l13.62,26.715-10.433,10.617-3.01-10.085Z" transform="translate(-77.019 -126.779)"/><path class="m" d="M136.09,214.341l1.252,4.186,10.433-10.617-1.878-3.68Z" transform="translate(-78.144 -140.174)"/><path class="c" d="M75.774,446l-1.265,5.014s-7.417,4.11-7.986,4.679-.348,2.966-.348,2.966H87.409a19.47,19.47,0,0,0-.455-5.476,60.2,60.2,0,0,1-.588-6.709Z" transform="translate(-52.422 -229.068)"/><path class="d" d="M66.186,465.2H87.413a12.734,12.734,0,0,0,0-1.372H66.148A13.351,13.351,0,0,0,66.186,465.2Z" transform="translate(-52.426 -235.624)"/><path class="d" d="M66.884,459.587a9.876,9.876,0,0,1,5.134-2.283c3.421-.576,6.507.683,7.189,1.366a7.335,7.335,0,0,1,1.138,2.624l-14.3.114a1.2,1.2,0,0,1,.841-1.821Z" transform="translate(-52.321 -233.171)"/><path class="d" d="M95.221,451.076c0,1.233-.43,2.226-.967,2.226s-.974-.993-.974-2.226.436-2.226.974-2.226S95.221,449.849,95.221,451.076Z" transform="translate(-62.404 -230.116)"/><path class="c" d="M158.394,446l1.265,5.014s7.417,4.11,7.986,4.679.341,2.966.341,2.966H146.759a19.185,19.185,0,0,1,.455-5.476,61.334,61.334,0,0,0,.582-6.709Z" transform="translate(-82.054 -229.068)"/><path class="d" d="M167.977,465.2H146.756a13.57,13.57,0,0,1-.038-1.372h21.3A12.71,12.71,0,0,1,167.977,465.2Z" transform="translate(-82.05 -235.624)"/><path class="d" d="M171.248,459.587a9.915,9.915,0,0,0-5.134-2.283c-3.421-.575-6.507.683-7.189,1.366a7.385,7.385,0,0,0-1.144,2.624l14.309.114a1.2,1.2,0,0,0-.841-1.821Z" transform="translate(-86.119 -233.171)"/><path class="d" d="M150.2,451.076c0,1.233.436,2.226.974,2.226s.967-.993.967-2.226-.43-2.226-.967-2.226S150.2,449.849,150.2,451.076Z" transform="translate(-83.332 -230.116)"/><path class="d" d="M80.592,275.432l-.7,11.066.942,95.366,10.591.474,10.6-88.069,1.416-.474,19.785,88.544,10.6-.474L129.1,322.527l-7.12-50.927Z" transform="translate(-57.48 -164.944)"/><path class="n" d="M116.36,281.77v8.075l2.2-3.667.373-5.508" transform="translate(-70.89 -168.279)"/><path class="i" d="M74.992,165.679s-23.883,10.44-24.237,11.483-6.722,27.424-5.691,29.9a6.045,6.045,0,0,0,7.588,3.162c3.358-1.265,6.545-14.151,6.545-14.151s7.43,22.643,7.43,24.945.708,16.44.708,16.44,13.62,1.941,24.945-.708,16.807-4.249,16.807-4.249l-5.305-32.375s-2.833-32.021-3.162-33.26-20.525-1.593-22.131-1.416S74.992,165.679,74.992,165.679Z" transform="translate(-44.634 -125.898)"/><path class="m" d="M56.89,221.441a16.44,16.44,0,0,0-4.218-6.886c-1.973-1.751-4.6-.759-6.393.329-.948,4.913-1.562,9.042-1.17,9.946a6.045,6.045,0,0,0,7.588,3.162C54.234,227.423,55.746,224.476,56.89,221.441Z" transform="translate(-44.648 -143.619)"/><path class="g" d="M74.212,229.882l40.285-8.467-.322-2s-.063-.632-.158-1.777l-40.936,8.6C73.459,227.416,73.839,228.617,74.212,229.882Z" transform="translate(-54.976 -145.104)"/><path class="m" d="M121.149,257.5l-3.977-24.243L77.62,241.48a28.76,28.76,0,0,1,1.069,4.553c0,2.3.708,16.44.708,16.44s13.62,1.941,24.945-.708S121.149,257.5,121.149,257.5Z" transform="translate(-56.646 -150.848)"/><path class="m" d="M90.427,165.536c-1.593.177-3.541.177-3.541.177s-4.477,1.96-9.586,4.268l20.677,21.347s4.426-21.29,4.034-23.124a19.166,19.166,0,0,0-.733-2.529C96.2,165.492,91.186,165.454,90.427,165.536Z" transform="translate(-56.528 -125.932)"/><path class="d" d="M98.814,155.02s1.062,9.2,1.593,10.971-3.01,14.151-3.01,14.151S87.135,169.7,85.9,166.7,81.83,153.25,81.83,153.25,90.853,157.853,98.814,155.02Z" transform="translate(-58.194 -121.429)"/><path class="c" d="M81.83,153.25s.632,2.384,1.454,5.2c.43.24.948.512,1.581.828a18.135,18.135,0,0,0,10.749,1.967,5,5,0,0,0,3.642-2.656c-.253-1.979-.436-3.566-.436-3.566C90.853,157.853,81.83,153.25,81.83,153.25Z" transform="translate(-58.194 -121.429)"/><path class="d" d="M89.329,117.554a65.057,65.057,0,0,0,4.477,7.7c1.8,2.327,4.654,7.525,3.4,10.566s-2.074,8.22-6.089,8.777a18.185,18.185,0,0,1-10.749-1.973c-3.225-1.612-3.579-2.15-3.579-2.15a8.108,8.108,0,0,1-4.3-1.265c-1.612-1.265-4.831-5.191-3.939-8.593s3.048-3.762,3.048-3.762-4.477-1.789-1.612-6.266S78.934,114.5,81.8,114.5,89.329,117.554,89.329,117.554Z" transform="translate(-53.255 -107.182)"/><path class="j" d="M100.08,128.67a5.192,5.192,0,0,0,1.612,1.612c1.265.9,3.041.36,2.529,1.973a2.556,2.556,0,0,1-2.864,1.967" transform="translate(-64.904 -112.392)"/><path class="j" d="M101.571,140.57s-3.4,1.966-5.729,1.789a6.374,6.374,0,0,1-3.4-1.075" transform="translate(-62.095 -116.767)"/><path class="c" d="M95,142.962s1.265,4.477,3.041,3.041a6.608,6.608,0,0,0,2.15-3.794A11.742,11.742,0,0,1,95,142.962Z" transform="translate(-63.036 -117.37)"/><path class="g" d="M93.715,130.68c.392.632.4,1.322,0,1.562s-1.012-.063-1.41-.683-.4-1.322,0-1.568S93.317,130.054,93.715,130.68Z" transform="translate(-61.934 -112.846)"/><path class="g" d="M102.755,126.405c.392.632.4,1.328,0,1.568s-1.012-.063-1.41-.689-.4-1.322,0-1.562S102.357,125.785,102.755,126.405Z" transform="translate(-65.258 -111.278)"/><path class="j" d="M88.77,128.706s.519-2.39,2.39-2.706" transform="translate(-60.745 -111.41)"/><path class="j" d="M98.47,123.576s1.043-1.973,2.706-1.144" transform="translate(-64.312 -110.024)"/><path class="c" d="M68.364,118.85s11.641,0,12.539-1.973-1.8-3.4-1.8-3.4,10.029.36,11.1-2.687-3.579-4.293-5.014-4.293h-2.15s-.537-4.477-5.729-3.4-15.22,7.879-16.44,11.818-4.116,5.191-1.967,9.845,8.056,8.416,8.056,8.416-.9-3.4.9-3.579,4.831,1.069,5.368,1.069,2.15-1.429,1.265-2.327-1.789-1.429-1.967-1.967.892-2.327.177-3.939S68.364,118.85,68.364,118.85Z" transform="translate(-49.483 -102.926)"/><rect class="k" width="7.904" height="17.692" rx="2.31" transform="translate(13.68 25.998) rotate(-33.61)"/><path class="o" d="M69.581,158.683s-.828-2.118-1.65-3.655-.828-2.238-.24-2.238a3.256,3.256,0,0,1,2.574,2.472,12.476,12.476,0,0,1,.234,3.9Z" transform="translate(-52.843 -121.26)"/><path class="o" d="M68.263,163.429s-6.722-6.722-6.956-7.31.032-8.22.1-10.414a.7.7,0,0,1,.569-.632h0a.7.7,0,0,1,.809.632l.531,6.2,1.537-7.816a.689.689,0,0,1,.683-.556h0a.7.7,0,0,1,.689.727l-.436,8.707,1.941-7.43a.715.715,0,0,1,.885-.512h0a.721.721,0,0,1,.525.7l-.879,8,1.65,1.416v-2.833l1.979-3.326a.55.55,0,0,1,.727-.215h0a.563.563,0,0,1,.259.727l-1.315,2.934s2.6,10.61,2.713,10.964a8.756,8.756,0,0,1-.822,2.953c-.354.708-16.162,34.2-17.073,35.5s-7.31,3.3-10.117.234-1.9-6.134-.354-9.668S68.263,163.429,68.263,163.429Z" transform="translate(-44.45 -117.856)"/><line class="n" x2="8.954" y2="5.179" transform="translate(26.172 117.316)"/><line class="n" x1="5.413" y2="7.063" transform="translate(57.023 113.782)"/></g><g transform="translate(28.734 300.301)"><line class="j" x2="282.647"/></g></g></svg>