<svg xmlns="http://www.w3.org/2000/svg" width="590.703" height="549.362" viewBox="0 0 590.703 549.362"><defs><style>.a{fill:rgba(240,240,240,0.2);}.b,.f{fill:#f1e40e;}.c,.i,.k{opacity:0.5;}.ab,.d,.f,.p{opacity:0.7;}.e{opacity:0.3;}.g,.w{opacity:0.6;}.h{opacity:0.2;}.j{fill:#fafafa;}.ac,.k,.r,.w{fill:#fff;}.l{fill:#e0e0e0;}.m,.t{fill:#37474f;}.n{opacity:0.8;}.o{fill:#455a64;}.q{opacity:0.4;}.ad,.s{opacity:0.15;}.t{opacity:0.9;}.u{fill:#263238;}.v{fill:#f5f5f5;}.x{fill:#ebebeb;}.y{opacity:0.65;}.z{fill:#ffbe9d;}.aa{fill:#edf705;}.ab{fill:#cdc20b;}.ac{stroke:#c7c7c7;}.ae{fill:#d9b500;}</style></defs><g transform="translate(-12.47 -40.595)"><g transform="translate(12.47 248.913)"><ellipse class="a" cx="295.352" cy="170.522" rx="295.352" ry="170.522"/></g><g transform="translate(63.98 40.595)"><path class="b" d="M217.07,373.777l39.475-22.821c4.07-2.36,6.1-5.431,6.1-8.514v-5.493l-47.477-26.9a8.739,8.739,0,0,1-3.933-6.816V254.54l-68.95,39.837v48.688a8.739,8.739,0,0,0,3.933,6.8l41.385,23.895C195.747,378.471,208.943,378.471,217.07,373.777Z" transform="translate(-31.73 12.554)"/><g class="c" transform="translate(110.56 267.094)"><path d="M217.07,373.777l39.475-22.821c4.07-2.36,6.1-5.431,6.1-8.514v-5.493l-47.477-26.9a8.739,8.739,0,0,1-3.933-6.816V254.54l-68.95,39.837v48.688a8.739,8.739,0,0,0,3.933,6.8l41.385,23.895C195.747,378.471,208.943,378.471,217.07,373.777Z" transform="translate(-142.29 -254.54)"/></g><path class="b" d="M158.847,345.273v5.468l-12.634-7.278a8.739,8.739,0,0,1-3.933-6.816V287.958l13.146-7.578c.262,3.333.562,6.779.836,10.137l-9.213,5.331v38.027a8.651,8.651,0,0,0,3.92,6.8Z" transform="translate(-31.732 18.973)"/><path class="d" d="M158.847,345.273v5.468l-12.634-7.278a8.739,8.739,0,0,1-3.933-6.816V287.958l13.146-7.578c.262,3.333.562,6.779.836,10.137l-9.213,5.331v38.027a8.651,8.651,0,0,0,3.92,6.8Z" transform="translate(-31.732 18.973)"/><path class="b" d="M146.1,338.754a8.664,8.664,0,0,0,3.933,6.8l36.616,21.148c8.14,4.707,21.336,4.707,29.475,0l39.5-22.821c8.14-4.694,8.14-12.309,0-17l-36.641-21.161a8.664,8.664,0,0,1-3.933-6.8V260.89L146.1,300.727Z" transform="translate(-30.783 14.132)"/><path class="e" d="M146.1,338.754a8.664,8.664,0,0,0,3.933,6.8l36.616,21.148c8.14,4.707,21.336,4.707,29.475,0l39.5-22.821c8.14-4.694,8.14-12.309,0-17l-36.641-21.161a8.664,8.664,0,0,1-3.933-6.8V260.89L146.1,300.727Z" transform="translate(-30.783 14.132)"/><path class="f" d="M226.985,310.353h0l-8-4.619a8.664,8.664,0,0,1-3.933-6.8V260.89L146.1,300.727v38.027a8.664,8.664,0,0,0,3.933,6.8L157.9,350.1Z" transform="translate(-30.783 14.132)"/><path class="g" d="M226.985,310.353h0l-8-4.619a8.664,8.664,0,0,1-3.933-6.8V260.89L146.1,300.727v38.027a8.664,8.664,0,0,0,3.933,6.8L157.9,350.1Z" transform="translate(-30.783 14.132)"/><path class="b" d="M250.58,320.56V326.1c0,3.084-2.047,6.142-6.1,8.5L205,357.314a29.5,29.5,0,0,1-14.07,3.5v-5.468a29.5,29.5,0,0,0,14.07-3.5l39.475-22.834C248.532,326.727,250.58,323.606,250.58,320.56Z" transform="translate(-19.646 28.955)"/><path class="h" d="M250.58,320.56V326.1c0,3.084-2.047,6.142-6.1,8.5L205,357.314a29.5,29.5,0,0,1-14.07,3.5v-5.468a29.5,29.5,0,0,0,14.07-3.5l39.475-22.834C248.532,326.727,250.58,323.606,250.58,320.56Z" transform="translate(-19.646 28.955)"/><path class="b" d="M58.334,445.989a10.549,10.549,0,0,0,9.525-.175L334.5,291.871a10.886,10.886,0,0,0,4.906-8.514V49.977A10.5,10.5,0,0,0,334.8,41.65a10.487,10.487,0,0,0-9.513.175L58.646,195.768a10.836,10.836,0,0,0-4.906,8.5V437.724a10.574,10.574,0,0,0,4.594,8.264Z" transform="translate(-53.728 -40.595)"/><path class="e" d="M58.334,445.989a10.549,10.549,0,0,0,9.525-.175L334.5,291.871a10.886,10.886,0,0,0,4.906-8.514V49.977A10.5,10.5,0,0,0,334.8,41.65a10.487,10.487,0,0,0-9.513.175L58.646,195.768a10.836,10.836,0,0,0-4.906,8.5V437.724a10.574,10.574,0,0,0,4.594,8.264Z" transform="translate(-53.728 -40.595)"/><path class="b" d="M66.026,444.634,332.664,290.691a10.849,10.849,0,0,0,4.919-8.5V48.8c0-3.134-2.21-4.394-4.919-2.834L66.026,199.906a10.886,10.886,0,0,0-4.906,8.564V441.8C61.12,444.934,63.317,446.207,66.026,444.634Z" transform="translate(-51.894 -39.427)"/><path class="b" d="M66.026,444.634,332.664,290.691a10.849,10.849,0,0,0,4.919-8.5V48.8c0-3.134-2.21-4.394-4.919-2.834L66.026,199.906a10.886,10.886,0,0,0-4.906,8.564V441.8C61.12,444.934,63.317,446.207,66.026,444.634Z" transform="translate(-51.894 -39.427)"/><path class="i" d="M66.026,444.634,332.664,290.691a10.849,10.849,0,0,0,4.919-8.5V48.8c0-3.134-2.21-4.394-4.919-2.834L66.026,199.906a10.886,10.886,0,0,0-4.906,8.564V441.8C61.12,444.934,63.317,446.207,66.026,444.634Z" transform="translate(-51.894 -39.427)"/><path class="b" d="M67.126,372.384a10.587,10.587,0,0,1-8.739-.187,10.524,10.524,0,0,1-4.607-8.339V337.64l9.213,5.331v26.217C62.931,372.047,64.741,373.332,67.126,372.384Z" transform="translate(-53.718 33.198)"/><path class="d" d="M67.126,372.384a10.587,10.587,0,0,1-8.739-.187,10.524,10.524,0,0,1-4.607-8.339V337.64l9.213,5.331v26.217C62.931,372.047,64.741,373.332,67.126,372.384Z" transform="translate(-53.718 33.198)"/><path class="b" d="M61.12,373.648v26.217c0,3.134,2.2,4.407,4.906,2.834L332.664,248.781a10.849,10.849,0,0,0,4.919-8.5V214Z" transform="translate(-51.894 2.483)"/><g class="c" transform="translate(9.226 216.483)"><path d="M61.12,373.648v26.217c0,3.134,2.2,4.407,4.906,2.834L332.664,248.781a10.849,10.849,0,0,0,4.919-8.5V214Z" transform="translate(-61.12 -214)"/></g><path class="j" d="M68.5,393.2V208.434a6.479,6.479,0,0,1,2.946-5.106L323.628,57.75c1.623-.936,2.946-.175,2.946,1.71V244.177a6.517,6.517,0,0,1-2.946,5.106L71.446,394.849C69.811,395.835,68.5,395.073,68.5,393.2Z" transform="translate(-50.061 -36.432)"/><path class="b" d="M172.757,286.606a10.162,10.162,0,0,0-4.607,7.977c0,2.934,2.06,4.132,4.607,2.659a10.187,10.187,0,0,0,4.607-7.977C177.363,286.319,175.3,285.133,172.757,286.606Z" transform="translate(-25.306 20.363)"/><path class="k" d="M172.757,286.606a10.162,10.162,0,0,0-4.607,7.977c0,2.934,2.06,4.132,4.607,2.659a10.187,10.187,0,0,0,4.607-7.977C177.363,286.319,175.3,285.133,172.757,286.606Z" transform="translate(-25.306 20.363)"/><path class="b" d="M64.392,173.116a10.474,10.474,0,0,0-1.448,4.919V385.123l-9.213-5.331V172.666a10.324,10.324,0,0,1,1.448-4.856Z" transform="translate(-53.73 -8.992)"/><path class="d" d="M64.392,173.116a10.474,10.474,0,0,0-1.448,4.919V385.123l-9.213-5.331V172.666a10.324,10.324,0,0,1,1.448-4.856Z" transform="translate(-53.73 -8.992)"/><g transform="translate(104.779 333.359)"><path class="l" d="M139.208,431.545l66.616,38.576a8.24,8.24,0,0,0,7.491,0l196.8-113.407c2.072-1.248,2.072-3.121,0-4.32l-66.628-38.576a8.24,8.24,0,0,0-7.491,0L139.208,427.238C137.148,428.424,137.136,430.372,139.208,431.545Z" transform="translate(-137.659 -306.302)"/><g transform="translate(4.259)"><path class="b" d="M405.236,346.8a2.634,2.634,0,0,0-1.548-2.16L341.1,308.519a8.24,8.24,0,0,0-7.491,0L142.606,418.955a2.647,2.647,0,0,0-1.536,2.16v6.567a2.6,2.6,0,0,0,1.548,2.147l62.558,36.129a8.277,8.277,0,0,0,7.491,0L403.676,355.685a2.622,2.622,0,0,0,1.548-2.147Z" transform="translate(-141.07 -307.619)"/><path class="i" d="M405.236,346.8a2.634,2.634,0,0,0-1.548-2.16L341.1,308.519a8.24,8.24,0,0,0-7.491,0L142.606,418.955a2.647,2.647,0,0,0-1.536,2.16v6.567a2.6,2.6,0,0,0,1.548,2.147l62.558,36.129a8.277,8.277,0,0,0,7.491,0L403.676,355.685a2.622,2.622,0,0,0,1.548-2.147Z" transform="translate(-141.07 -307.619)"/><path class="b" d="M205.207,459.239l-62.558-35.967c-2.06-1.186-2.072-3.109,0-4.307L333.657,308.529a8.24,8.24,0,0,1,7.491,0l62.583,36.129c2.06,1.248,2.06,3.121,0,4.32L212.722,459.251A8.277,8.277,0,0,1,205.207,459.239Z" transform="translate(-141.063 -307.616)"/><path class="e" d="M205.207,459.239l-62.558-35.967c-2.06-1.186-2.072-3.109,0-4.307L333.657,308.529a8.24,8.24,0,0,1,7.491,0l62.583,36.129c2.06,1.248,2.06,3.121,0,4.32L212.722,459.251A8.277,8.277,0,0,1,205.207,459.239Z" transform="translate(-141.063 -307.616)"/><path class="b" d="M208.7,437.543v6.716a7.954,7.954,0,0,1-3.508-.861l-62.534-36.129a2.634,2.634,0,0,1-1.561-2.16V398.53a2.672,2.672,0,0,0,1.561,2.16l62.533,35.98a7.64,7.64,0,0,0,3.508.874Z" transform="translate(-141.063 -285.034)"/><path class="d" d="M208.7,437.543v6.716a7.954,7.954,0,0,1-3.508-.861l-62.534-36.129a2.634,2.634,0,0,1-1.561-2.16V398.53a2.672,2.672,0,0,0,1.561,2.16l62.533,35.98a7.64,7.64,0,0,0,3.508.874Z" transform="translate(-141.063 -285.034)"/><path class="m" d="M259.24,346.345l7.128,4.12a.974.974,0,0,0,.462.112l6.567-3.658-7.665-4.32Z" transform="translate(-111.714 -298.929)"/><path class="m" d="M266.11,342.383l7.166,4.132a.886.886,0,0,0,.424.087h.262l6.3-3.645L272.6,338.65Z" transform="translate(-110.007 -299.91)"/><path class="m" d="M247.67,353.5l7.153,4.132a.925.925,0,0,0,.424.087l10.637-6-7.665-4.307Z" transform="translate(-114.588 -297.734)"/><path class="m" d="M240.8,357.005l7.141,4.12a.974.974,0,0,0,.437.1l6.579-3.658-7.665-4.307Z" transform="translate(-116.295 -296.28)"/><path class="m" d="M210.908,409.765l6.579-3.658-7.665-4.307-6.492,3.745,7.153,4.145A1.173,1.173,0,0,0,210.908,409.765Z" transform="translate(-125.603 -284.222)"/><path class="m" d="M233.92,360.965l7.129,4.12a.887.887,0,0,0,.462.112l6.567-3.658-7.665-4.32Z" transform="translate(-118.004 -295.297)"/><path class="m" d="M273.5,347.09l-6.492,3.745,7.141,4.12a.836.836,0,0,0,.437.1l6.579-3.658Z" transform="translate(-109.784 -297.813)"/><path class="m" d="M254.51,375.585l6.579-3.658-7.678-4.307-6.492,3.745,7.153,4.132A.936.936,0,0,0,254.51,375.585Z" transform="translate(-114.775 -292.713)"/><path class="m" d="M281.51,351.1l6.567-3.658-7.665-4.32-6.492,3.745L281.086,351A.887.887,0,0,0,281.51,351.1Z" transform="translate(-108.067 -298.799)"/><path class="m" d="M247.64,379.587l6.567-3.658-7.665-4.32-6.492,3.745,7.129,4.12A.886.886,0,0,0,247.64,379.587Z" transform="translate(-116.481 -291.722)"/><path class="m" d="M240.77,383.587l6.567-3.658-7.665-4.32-6.492,3.745,7.153,4.132A.974.974,0,0,0,240.77,383.587Z" transform="translate(-118.188 -290.728)"/><path class="m" d="M268.911,369.63l13.8-7.828-17.353-9.912L258,356.16l9.076,5.231a.45.45,0,0,1,.262.375.4.4,0,0,1-.225.337l-5.73,3.308,7.116,4.107A.912.912,0,0,0,268.911,369.63Z" transform="translate(-112.022 -296.621)"/><path class="m" d="M220.18,368.905l7.153,4.132a.886.886,0,0,0,.424.087l6.579-3.658-7.678-4.307Z" transform="translate(-121.417 -293.324)"/><path class="m" d="M261.378,371.655,267.957,368l-7.665-4.307-6.492,3.745,7.1,4.095a.925.925,0,0,0,.474.125Z" transform="translate(-113.065 -293.689)"/><path class="m" d="M183.08,407.9l6.579-3.658-7.678-4.32-6.492,3.745,7.129,4.107A.975.975,0,0,0,183.08,407.9Z" transform="translate(-132.519 -284.689)"/><path class="m" d="M165.2,400.64l7.166,4.145a1.05,1.05,0,0,0,.412.087h.262l6.317-3.645-7.678-4.307Z" transform="translate(-135.076 -285.434)"/><path class="m" d="M192.673,411.332h.262l6.242-3.645-7.665-4.307-6.492,3.745,7.166,4.132A1.073,1.073,0,0,0,192.673,411.332Z" transform="translate(-130.152 -283.83)"/><path class="m" d="M197.17,417.695l6.579-3.658-7.678-4.307-6.492,3.745,7.128,4.107a.837.837,0,0,0,.462.112Z" transform="translate(-129.019 -282.252)"/><path class="m" d="M172.07,396.673l7.153,4.145a1.173,1.173,0,0,0,.424.087l6.579-3.658-7.678-4.307Z" transform="translate(-133.369 -286.423)"/><path class="m" d="M204.038,413.737l6.567-3.67-7.665-4.307-6.479,3.745,7.153,4.132a.924.924,0,0,0,.424.1Z" transform="translate(-127.31 -283.238)"/><path class="m" d="M192.69,384.745l7.141,4.132a.973.973,0,0,0,.437.087l6.579-3.645L199.169,381Z" transform="translate(-128.246 -289.389)"/><path class="m" d="M199.56,380.805l7.129,4.12a.887.887,0,0,0,.449.112l6.579-3.658-7.665-4.319Z" transform="translate(-126.54 -290.368)"/><path class="m" d="M206.43,376.833l7.116,4.12a.949.949,0,0,0,.462.112l6.579-3.658-7.665-4.307Z" transform="translate(-124.833 -291.352)"/><path class="m" d="M185.81,388.745l7.129,4.107a.911.911,0,0,0,.449.125l6.592-3.67L192.289,385Z" transform="translate(-129.956 -288.396)"/><path class="m" d="M213.31,372.875l7.153,4.132a1.023,1.023,0,0,0,.424.087l6.579-3.658-7.678-4.307Z" transform="translate(-123.124 -292.338)"/><path class="m" d="M178.94,392.745l7.153,4.12a.974.974,0,0,0,.437.1l6.567-3.658L185.432,389Z" transform="translate(-131.662 -287.402)"/><path class="m" d="M227.05,364.935l7.166,4.145a1.049,1.049,0,0,0,.412.087l6.579-3.658-7.665-4.319Z" transform="translate(-119.711 -294.311)"/><path class="m" d="M244.22,363.993l7.129,4.107a.911.911,0,0,0,.462.112h.262l6.3-3.645-7.665-4.307Z" transform="translate(-115.445 -294.542)"/><path class="m" d="M281.31,333.615l7.128,4.107a.937.937,0,0,0,.449.112l6.579-3.658-7.678-4.307Z" transform="translate(-106.231 -302.091)"/><path class="m" d="M288.18,329.645l7.128,4.107a.887.887,0,0,0,.449.112l6.579-3.658-7.665-4.307Z" transform="translate(-104.525 -303.077)"/><path class="m" d="M237.35,367.955l7.128,4.12a.937.937,0,0,0,.449.112l6.579-3.658-7.665-4.32Z" transform="translate(-117.152 -293.56)"/><path class="m" d="M295.05,325.675l7.128,4.12a.961.961,0,0,0,.449.112l6.579-3.67-7.665-4.307Z" transform="translate(-102.818 -304.064)"/><path class="m" d="M258.68,364.242h.262l6.3-3.645-7.665-4.307-6.492,3.745,7.128,4.107a.949.949,0,0,0,.462.1Z" transform="translate(-113.739 -295.528)"/><path class="m" d="M289.07,338.1l7.116,4.107a1.023,1.023,0,0,0,.474.125l6.567-3.658-7.665-4.32Z" transform="translate(-104.304 -300.978)"/><path class="m" d="M302.82,330.153l7.116,4.107a.911.911,0,0,0,.462.125l6.579-3.658-7.69-4.307Z" transform="translate(-100.888 -302.948)"/><path class="m" d="M303.51,338.357l6.579-3.658-7.678-4.32-6.492,3.745,7.153,4.132A.974.974,0,0,0,303.51,338.357Z" transform="translate(-102.602 -301.964)"/><path class="m" d="M326.569,335.928a1.036,1.036,0,0,0,.4.087h.275l6.3-3.633-17.366-9.913-6.492,3.745Z" transform="translate(-99.181 -303.929)"/><path class="m" d="M230.47,371.92l7.141,4.12a.874.874,0,0,0,.449.112h.262l6.317-3.633-7.678-4.32Z" transform="translate(-118.861 -292.569)"/><path class="m" d="M311.3,342.833h.262l6.3-3.645L310.2,334.88l-6.492,3.745,7.128,4.107A.948.948,0,0,0,311.3,342.833Z" transform="translate(-100.667 -300.846)"/><path class="m" d="M318.17,338.865l6.579-3.658-7.678-4.307-6.492,3.745,7.116,4.107a.986.986,0,0,0,.474.112Z" transform="translate(-98.96 -301.835)"/><path class="m" d="M196.11,391.745l7.129,4.107a.949.949,0,0,0,.462.125l6.567-3.658L202.6,388Z" transform="translate(-127.397 -287.65)"/><path class="m" d="M182.37,399.745l7.116,4.107a.911.911,0,0,0,.462.112h.262l6.317-3.645L188.849,396Z" transform="translate(-130.81 -285.663)"/><path class="m" d="M206.4,403.407l6.579-3.658-7.69-4.32-6.479,3.745,7.166,4.132a.848.848,0,0,0,.424.1Z" transform="translate(-126.726 -285.805)"/><path class="m" d="M199.51,407.365l6.579-3.658-7.678-4.307-6.492,3.745,7.166,4.132A.888.888,0,0,0,199.51,407.365Z" transform="translate(-128.438 -284.818)"/><path class="m" d="M213.268,399.432h.275l6.3-3.633-7.665-4.32-6.492,3.745,7.116,4.107a.913.913,0,0,0,.462.1Z" transform="translate(-125.017 -286.786)"/><path class="m" d="M223.6,375.893l7.141,4.12a.962.962,0,0,0,.449.1h.262l6.3-3.645-7.665-4.307Z" transform="translate(-120.568 -291.585)"/><path class="m" d="M227.02,391.495l6.579-3.658-7.678-4.307-6.492,3.745,7.129,4.107a.973.973,0,0,0,.462.112Z" transform="translate(-121.604 -288.761)"/><path class="m" d="M220.15,395.453l6.567-3.6-7.665-4.307L212.56,391.3l7.166,4.145a1.112,1.112,0,0,0,.424.012Z" transform="translate(-123.31 -287.762)"/><path class="m" d="M209.86,383.835l7.116,4.107a.911.911,0,0,0,.462.112l6.579-3.658-7.665-4.307Z" transform="translate(-123.981 -289.615)"/><path class="m" d="M189.24,395.745l7.116,4.107a.961.961,0,0,0,.474.112l6.567-3.658L195.732,392Z" transform="translate(-129.104 -286.657)"/><path class="m" d="M216.73,379.865l7.129,4.107a.912.912,0,0,0,.462.112l6.567-3.658-7.665-4.307Z" transform="translate(-122.274 -290.602)"/><path class="m" d="M203,387.79l7.116,4.12a.911.911,0,0,0,.462.112h.262l6.317-3.633-7.678-4.32Z" transform="translate(-125.685 -288.627)"/><path class="m" d="M233.888,387.525l6.579-3.658-7.678-4.307-6.479,3.745,7.141,4.12A.837.837,0,0,0,233.888,387.525Z" transform="translate(-119.894 -289.747)"/><path class="m" d="M273,338.415l7.154,4.132a.961.961,0,0,0,.424.087l6.579-3.658-7.678-4.307Z" transform="translate(-108.296 -300.899)"/><path class="m" d="M164.812,400.87l-6.492,3.745,7.166,4.132a.887.887,0,0,0,.424.087h.262l6.317-3.645Z" transform="translate(-136.785 -284.453)"/><path class="m" d="M175.74,403.89l-9.65,5.568,7.166,4.145a1.05,1.05,0,0,0,.412.087h.275l9.463-5.468Z" transform="translate(-134.854 -283.703)"/><path class="m" d="M156.743,394.8l-7.853,4.532,7.141,4.107a.874.874,0,0,0,.449.112l7.927-4.432Z" transform="translate(-139.127 -285.961)"/><path class="m" d="M189.47,413.7l-7.84,4.532,7.116,4.107a.973.973,0,0,0,.462.112l7.927-4.444Z" transform="translate(-130.994 -281.266)"/><path class="m" d="M185.757,407.34l-11.9,6.866,7.153,4.132a.962.962,0,0,0,.424.087h.262l11.735-6.766Z" transform="translate(-132.924 -282.846)"/><path class="m" d="M167.44,397.075l6.567-3.658-7.715-4.307-6.492,3.745,7.128,4.12a.911.911,0,0,0,.512.1Z" transform="translate(-136.417 -287.375)"/><path class="m" d="M189.39,422.918l7.128,4.12a1.038,1.038,0,0,0,.449.1l9.738-5.481-7.665-4.307Z" transform="translate(-129.066 -280.359)"/><path class="m" d="M174.3,393.1l6.579-3.658L173.2,385.14l-6.479,3.745,7.153,4.132A.961.961,0,0,0,174.3,393.1Z" transform="translate(-134.698 -288.361)"/><path class="m" d="M204.778,375.513h.262l6.317-3.645-7.678-4.307-6.479,3.745,7.128,4.12a.887.887,0,0,0,.449.087Z" transform="translate(-127.126 -292.728)"/><path class="m" d="M211.648,371.587l6.579-3.658-7.665-4.32-6.492,3.745,7.141,4.12a.861.861,0,0,0,.437.112Z" transform="translate(-125.419 -293.709)"/><path class="m" d="M197.923,379.472h.262l6.242-3.645-7.665-4.307-6.492,3.745,7.153,4.095A.95.95,0,0,0,197.923,379.472Z" transform="translate(-128.848 -291.744)"/><path class="m" d="M188.038,385.172h.275l6.3-3.633-7.665-4.32-6.492,3.745,7.141,4.12A.812.812,0,0,0,188.038,385.172Z" transform="translate(-131.285 -290.328)"/><path class="m" d="M181.168,389.147l6.579-3.658-7.665-4.32-6.492,3.745,7.153,4.132A.886.886,0,0,0,181.168,389.147Z" transform="translate(-132.991 -289.347)"/><path class="m" d="M326.13,343.613l7.166,4.145a1.05,1.05,0,0,0,.412.075h.262l6.242-3.645-7.665-4.307Z" transform="translate(-95.097 -299.604)"/><path class="m" d="M290.31,364.285l7.116,4.107a.849.849,0,0,0,.462.125l6.579-3.658-7.665-4.32Z" transform="translate(-103.995 -294.472)"/><path class="m" d="M312.38,352.539l7.128,4.107a.937.937,0,0,0,.449.112h.262l14.894-8.6-7.665-4.307Z" transform="translate(-98.513 -298.618)"/><path class="m" d="M297.18,360.325l7.116,4.095a.886.886,0,0,0,.474.125l6.579-3.658-7.678-4.307Z" transform="translate(-102.289 -295.456)"/><path class="m" d="M304.06,356.355l7.091,4.082a.812.812,0,0,0,.487.137l6.579-3.658-7.678-4.307Z" transform="translate(-100.58 -296.442)"/><path class="m" d="M218.508,367.585h.275l6.3-3.645-7.665-4.32-6.492,3.745,7.116,4.107a.948.948,0,0,0,.462.112Z" transform="translate(-123.715 -294.701)"/><path class="m" d="M331.722,331.41l-6.492,3.745,16.866,9.738a1.049,1.049,0,0,0,.412.087h.262l6.3-3.645Z" transform="translate(-95.321 -301.709)"/><path class="m" d="M206.76,412.692l7.116,4.107a.974.974,0,0,0,.462.112l7.927-4.444-7.715-4.307Z" transform="translate(-124.751 -282.642)"/><path class="m" d="M214.71,412.817l7.116,4.107a.962.962,0,0,0,.474.125h.262l48.763-28.189-7.678-4.32Z" transform="translate(-122.776 -288.51)"/><path class="m" d="M217.778,405.795l6.579-3.658-7.665-4.307-6.492,3.745,7.153,4.12a.961.961,0,0,0,.424.1Z" transform="translate(-123.897 -285.208)"/><path class="m" d="M198.8,417.282l7.116,4.107a.986.986,0,0,0,.462.125l7.928-4.444-7.665-4.32Z" transform="translate(-126.729 -281.502)"/><path class="m" d="M255.59,384.482l7.128,4.12a1.023,1.023,0,0,0,.449.112h.275l7.653-4.419L263.43,380Z" transform="translate(-112.621 -289.638)"/><path class="m" d="M271.5,375.3l7.153,4.132a.912.912,0,0,0,.437.1h.262l7.665-4.419-7.665-4.32Z" transform="translate(-108.668 -291.926)"/><path class="m" d="M263.54,379.9l7.166,4.132a.962.962,0,0,0,.424.087l7.928-4.444-7.665-4.307Z" transform="translate(-110.646 -290.788)"/><path class="m" d="M279.46,370.915l7.129,4.107a.91.91,0,0,0,.462.112h.262l9.463-5.468-7.665-4.307Z" transform="translate(-106.691 -293.275)"/><path class="m" d="M288.328,347.127h.262l6.317-3.633-7.615-4.345L280.8,342.9l7.154,4.132a.935.935,0,0,0,.375.1Z" transform="translate(-106.358 -299.786)"/><path class="m" d="M297,360.063h.262l6.317-3.645-7.665-4.307-6.492,3.745,7.141,4.132a.936.936,0,0,0,.437.075Z" transform="translate(-104.217 -296.566)"/><path class="m" d="M272.77,375.354l17.865-10.187-7.678-4.307L265.18,371.122l7.166,4.132a.862.862,0,0,0,.425.1Z" transform="translate(-110.238 -294.393)"/><path class="m" d="M312.188,351.283h.275l6.3-3.645L311.1,343.33l-6.492,3.745,7.154,4.132a.962.962,0,0,0,.424.075Z" transform="translate(-100.443 -298.747)"/><path class="m" d="M319.07,347.322h.262l6.3-3.633-7.665-4.32-6.492,3.745,7.141,4.132A.987.987,0,0,0,319.07,347.322Z" transform="translate(-98.736 -299.731)"/><path class="m" d="M265.888,378.027l6.579-3.658L264.8,370.05,258.31,373.8l7.128,4.12A1,1,0,0,0,265.888,378.027Z" transform="translate(-111.945 -292.109)"/><path class="m" d="M304.44,346.8h.262l6.3-3.645-7.715-4.319-6.492,3.745,7.116,4.095a.849.849,0,0,0,.524.125Z" transform="translate(-102.383 -299.863)"/><path class="m" d="M231.508,397.855l6.579-3.658-7.678-4.307-6.479,3.745,7.153,4.132a.886.886,0,0,0,.424.087Z" transform="translate(-120.486 -287.181)"/><path class="m" d="M259.018,381.99l6.579-3.658L257.919,374l-6.479,3.745,7.166,4.145A1.137,1.137,0,0,0,259.018,381.99Z" transform="translate(-113.652 -291.128)"/><path class="m" d="M224.673,401.823h.262l6.242-3.645-7.665-4.307-6.492,3.745,7.166,4.132a.886.886,0,0,0,.487.075Z" transform="translate(-122.202 -286.192)"/><path class="m" d="M238.4,393.9l6.579-3.658-7.69-4.32-6.492,3.745,7.178,4.145a.9.9,0,0,0,.424.087Z" transform="translate(-118.779 -288.167)"/><path class="m" d="M245.28,389.915h.287l6.3-3.645-7.69-4.27-6.492,3.745,7.129,4.12a.886.886,0,0,0,.462.05Z" transform="translate(-117.067 -289.141)"/><path class="m" d="M252.15,385.952h.262l6.317-3.645L251.052,378l-6.492,3.745,7.166,4.132a1.074,1.074,0,0,0,.424.075Z" transform="translate(-115.361 -290.135)"/><path class="m" d="M235.265,357.917l6.554-3.658-7.678-4.32-6.492,3.745,7.129,4.107A.824.824,0,0,0,235.265,357.917Z" transform="translate(-119.562 -297.105)"/><path class="m" d="M325.94,343.352h.262l6.317-3.633-7.678-4.32-6.492,3.745,7.166,4.145A1.075,1.075,0,0,0,325.94,343.352Z" transform="translate(-97.03 -300.717)"/><path class="m" d="M249.01,349.977l6.567-3.658L247.912,342l-6.492,3.745,7.116,4.107a.962.962,0,0,0,.474.125Z" transform="translate(-116.141 -299.078)"/><path class="m" d="M264.268,341.167l6.579-3.658-7.678-4.32-6.479,3.745,7.128,4.12a.874.874,0,0,0,.449.112Z" transform="translate(-112.347 -301.266)"/><path class="m" d="M257.4,345.137l6.567-3.658-7.678-4.32-6.492,3.745,7.129,4.12a.949.949,0,0,0,.474.112Z" transform="translate(-114.059 -300.28)"/><path class="m" d="M228.388,361.887l6.579-3.67-7.678-4.307-6.479,3.745,7.128,4.12A1.025,1.025,0,0,0,228.388,361.887Z" transform="translate(-121.261 -296.119)"/><path class="m" d="M242.128,353.94h.275l6.242-3.645-7.6-4.295-6.492,3.745,7.116,4.107a.948.948,0,0,0,.462.087Z" transform="translate(-117.847 -298.084)"/><path class="m" d="M271.138,337.195l6.579-3.658-7.665-4.307-6.492,3.745,7.128,4.107a.874.874,0,0,0,.449.112Z" transform="translate(-110.641 -302.25)"/><path class="m" d="M297.395,318.93l6.567-3.658L299.792,313l-6.492,3.745,3.645,2.06A1.036,1.036,0,0,0,297.395,318.93Z" transform="translate(-103.253 -306.282)"/><path class="m" d="M309.51,325.928l6.579-3.658L308.412,318l-6.492,3.745,7.128,4.12a.975.975,0,0,0,.462.062Z" transform="translate(-101.111 -305.04)"/><path class="m" d="M276.815,330.833h.262l6.3-3.645-4.17-2.247-6.492,3.745,3.633,2.06a1.11,1.11,0,0,0,.462.087Z" transform="translate(-108.365 -303.316)"/><path class="m" d="M283.642,326.855h.262l6.242-3.633L286.052,321l-6.492,3.745,3.658,2.06A.962.962,0,0,0,283.642,326.855Z" transform="translate(-106.666 -304.295)"/><path class="m" d="M290.512,322.893l6.579-3.658L292.922,317l-6.492,3.745,3.67,2.072a1.05,1.05,0,0,0,.412.075Z" transform="translate(-104.959 -305.288)"/></g></g></g><g transform="translate(105.914 62.739)"><g class="n" transform="translate(4.919 2.78)"><path class="o" d="M348.752,63.3V248.625a8.5,8.5,0,0,1-3.845,6.667L95.11,399.784a2.5,2.5,0,0,1-1.248.375,2.175,2.175,0,0,1-.487,0,1.426,1.426,0,0,1-.325-.112l-.212-.125-.225-.15a1.524,1.524,0,0,1-.212-.187,3.147,3.147,0,0,1-.712-1.011,4.844,4.844,0,0,1-.4-1.948V212.159a8.552,8.552,0,0,1,3.858-6.679L344.907,61.1a2.809,2.809,0,0,1,2.584-.325,2.271,2.271,0,0,1,.337.187h0a1,1,0,0,1,.25.262.6.6,0,0,1,.112.137.674.674,0,0,1,.125.2,1.723,1.723,0,0,1,.225.487,1.437,1.437,0,0,1,.087.35.087.087,0,0,1,0,.075,1.572,1.572,0,0,1,.062.35A1.41,1.41,0,0,1,348.752,63.3Z" transform="translate(-91.253 -60.551)"/><path class="o" d="M346.625,61.808a1,1,0,0,1,.375.075h.075l.1.137h0l.1.137v.062h0l.112.362h0a.7.7,0,0,0,0,.087V248.635a7.253,7.253,0,0,1-3.221,5.593L94.493,398.72a1.248,1.248,0,0,1-.649.2h-.35l-.162-.112h0v-.062a1.636,1.636,0,0,1-.412-.587,3.5,3.5,0,0,1-.3-1.448V212.168a7.228,7.228,0,0,1,3.233-5.593L345.526,62.158a2.422,2.422,0,0,1,1.1-.35m0-1.248a3.471,3.471,0,0,0-1.71.512L95.118,205.5a8.552,8.552,0,0,0-3.858,6.667V396.56a4.844,4.844,0,0,0,.4,1.948,3.146,3.146,0,0,0,.712,1.011,1.523,1.523,0,0,0,.212.187l.225.15.212.125a1.422,1.422,0,0,0,.325.112,2.175,2.175,0,0,0,.487,0h.062a2.5,2.5,0,0,0,1.248-.375L344.914,255.3a8.5,8.5,0,0,0,3.845-6.667V62.82a1.572,1.572,0,0,0-.062-.35.087.087,0,0,0,0-.075,1.437,1.437,0,0,0-.087-.35,1.723,1.723,0,0,0-.225-.487.675.675,0,0,0-.125-.2.6.6,0,0,0-.112-.137,1,1,0,0,0-.25-.262h0a2.272,2.272,0,0,0-.337-.187,2.035,2.035,0,0,0-.874-.187Z" transform="translate(-91.26 -60.56)"/><g class="p" transform="translate(0.037 0.047)"><path class="o" d="M348.752,63.3V248.625a8.5,8.5,0,0,1-3.845,6.667L95.11,399.784a2.5,2.5,0,0,1-1.248.375,2.175,2.175,0,0,1-.487,0,1.426,1.426,0,0,1-.325-.112l-.212-.125-.225-.15a1.524,1.524,0,0,1-.212-.187,3.147,3.147,0,0,1-.712-1.011,4.844,4.844,0,0,1-.4-1.948V212.159a8.552,8.552,0,0,1,3.858-6.679L344.907,61.1a2.809,2.809,0,0,1,2.584-.325,2.271,2.271,0,0,1,.337.187h0a1,1,0,0,1,.25.262.6.6,0,0,1,.112.137.674.674,0,0,1,.125.2,1.723,1.723,0,0,1,.225.487,1.437,1.437,0,0,1,.087.35.087.087,0,0,1,0,.075,1.572,1.572,0,0,1,.062.35A1.41,1.41,0,0,1,348.752,63.3Z" transform="translate(-91.29 -60.598)"/></g></g><path class="b" d="M348.477,61.3a2.809,2.809,0,0,0-2.584.325L96.1,206.055a8.552,8.552,0,0,0-3.858,6.667v12.584l-4.919-2.884V209.937a8.5,8.5,0,0,1,3.845-6.654L340.974,58.853a2.659,2.659,0,0,1,2.8-.225C344.458,59.041,347.654,60.876,348.477,61.3Z" transform="translate(-87.32 -58.333)"/><path class="b" d="M348.76,63.269c0-2.422-1.735-3.408-3.845-2.185L95.105,205.515a8.5,8.5,0,0,0-3.845,6.654v12.584L348.76,75.9Z" transform="translate(-86.341 -57.78)"/><g class="q" transform="translate(1.174)"><path class="r" d="M345.66,61.663l-249.8,144.4a7.74,7.74,0,0,0-2.709,2.909l-4.894-2.821a7.765,7.765,0,0,1,2.672-2.821L340.741,58.854a2.7,2.7,0,0,1,2.8-.237c.687.424,3.883,2.247,4.694,2.684a2.722,2.722,0,0,0-2.572.362Z" transform="translate(-88.26 -58.333)"/></g><path class="s" d="M87.32,193.039V180.555a7.915,7.915,0,0,1,1.174-3.845l4.906,2.809a7.715,7.715,0,0,0-1.161,3.833v12.584Z" transform="translate(-87.32 -28.925)"/><path class="o" d="M279.432,74.255a5.755,5.755,0,0,0-2.172,4.607c0,1.848.974,2.784,2.172,2.1a5.755,5.755,0,0,0,2.172-4.607C281.542,74.5,280.569,73.568,279.432,74.255Z" transform="translate(-40.135 -54.433)"/><path class="o" d="M285.652,70.639a5.718,5.718,0,0,0-2.172,4.594c0,1.848.974,2.784,2.172,2.1a5.755,5.755,0,0,0,2.222-4.607C287.875,70.876,286.851,69.9,285.652,70.639Z" transform="translate(-38.59 -55.337)"/><path class="o" d="M291.923,67.051a5.718,5.718,0,0,0-2.172,4.607c0,1.848.974,2.784,2.172,2.085a5.718,5.718,0,0,0,2.172-4.607C294.095,67.239,293.121,66.3,291.923,67.051Z" transform="translate(-37.032 -56.231)"/><path class="t" d="M93.65,367.705l-.474-.275a12.448,12.448,0,0,0-1.248-.662h0l-.649-.362h0l-1.011-.574c-.325-.2-.612-.362-.849-.487s-.4-.225-.474-.262a2.061,2.061,0,0,1-.662-.537,2.884,2.884,0,0,1-.512-.774,4.681,4.681,0,0,1-.449-2.035V189.78l4.919,2.884V364.472a5.78,5.78,0,0,0,.4,1.948,3.145,3.145,0,0,0,.712,1.011.624.624,0,0,0,.212.187Z" transform="translate(-87.32 -25.679)"/><path class="u" d="M165.334,244.809s-9.089-5.88-10.262-5.918l-25.842-.811,10.275,5.468V244Z" transform="translate(-76.909 -13.68)"/><path class="j" d="M122.67,271.847V255.618l44.294-55.068v21.473l-25.83,30.8v.449l25.83.811v21.473Z" transform="translate(-78.538 -23.003)"/><path class="o" d="M169.009,201.768l-10.262-5.918L114.44,250.918l10.275,5.918Z" transform="translate(-80.583 -24.171)"/><path class="m" d="M114.44,239.96v16.18l10.275,5.918v-16.18Z" transform="translate(-80.583 -13.213)"/><path class="j" d="M182.363,277.1l-13.733,7.94,34.282-125.654,13.258-7.653Z" transform="translate(-67.121 -35.131)"/><path class="o" d="M211.383,152.908l-10.275-5.917-13.258,7.653,10.262,5.918Z" transform="translate(-62.346 -36.309)"/><path class="m" d="M194.672,153.12l10.262,5.918L170.665,284.691l-10.275-5.918Z" transform="translate(-69.168 -34.786)"/><path class="u" d="M208.94,210.846l10.262,5.918,25.83-31.086L234.77,179.76Z" transform="translate(-57.107 -28.168)"/><path class="j" d="M242.99,188.967l-25.83-.974V166.52l44.294,3.92V186.67L217.16,241.6V220.052l25.83-30.636Z" transform="translate(-55.065 -31.457)"/><path class="o" d="M208.94,161.78,219.2,167.7l44.307,3.92L253.234,165.7Z" transform="translate(-57.107 -32.634)"/><path class="m" d="M219.2,167.7V189.17l-10.262-5.918V161.78" transform="translate(-57.107 -32.634)"/><path class="m" d="M208.94,204.66l10.262,5.918V232.05l-10.262-5.918Z" transform="translate(-57.107 -21.982)"/><g class="n" transform="translate(228.923 34.74)"><path class="o" d="M384.846,88.9V274.233a8.514,8.514,0,0,1-3.858,6.679L274.51,342.334a2.359,2.359,0,0,1-1.248.374,2.169,2.169,0,0,1-.487-.062l-.337-.112-.2-.125-.225-.15a1.524,1.524,0,0,1-.212-.187,2.958,2.958,0,0,1-.712-1.011,4.844,4.844,0,0,1-.4-1.948V154.721a8.539,8.539,0,0,1,3.845-6.679l106.4-61.36a2.809,2.809,0,0,1,2.6-.337,1.748,1.748,0,0,1,.325.2h0a1.248,1.248,0,0,1,.25.25.6.6,0,0,1,.112.137.675.675,0,0,1,.125.2,1.674,1.674,0,0,1,.237.5,1.336,1.336,0,0,1,.087.337.087.087,0,0,1,0,.075,1.57,1.57,0,0,1,.062.35A1.007,1.007,0,0,1,384.846,88.9Z" transform="translate(-270.69 -86.158)"/><path class="o" d="M382.679,87.408a.787.787,0,0,1,.375.087h.075l.112.137h0l.087.15h0l.125.362h0a.213.213,0,0,1,0,.087,3.333,3.333,0,0,1,0,.375V274.235a7.266,7.266,0,0,1-3.233,5.593L273.879,341.263a1.248,1.248,0,0,1-.649.2h-.35l-.162-.1h0a1.785,1.785,0,0,1-.4-.587,3.5,3.5,0,0,1-.3-1.448v-184.6a7.254,7.254,0,0,1,3.221-5.593L381.717,87.77a2.272,2.272,0,0,1,1.086-.362m0-1.248a3.533,3.533,0,0,0-1.71.524l-106.478,61.36a8.539,8.539,0,0,0-3.845,6.679V339.115a4.844,4.844,0,0,0,.4,1.948,2.959,2.959,0,0,0,.712,1.011,1.519,1.519,0,0,0,.212.187l.225.15.2.125.337.112a2.175,2.175,0,0,0,.487.062h0a2.385,2.385,0,0,0,1.248-.375l106.328-61.422a8.539,8.539,0,0,0,3.858-6.679V88.42a1.574,1.574,0,0,0-.062-.35.087.087,0,0,0,0-.075,1.336,1.336,0,0,0-.087-.337,1.672,1.672,0,0,0-.237-.5.675.675,0,0,0-.125-.2.6.6,0,0,0-.112-.137,1.251,1.251,0,0,0-.25-.25h0a1.746,1.746,0,0,0-.325-.2,2.085,2.085,0,0,0-.886-.187Z" transform="translate(-270.67 -86.16)"/><g class="n" transform="translate(0 0.011)"><path class="o" d="M384.846,88.9V274.233a8.514,8.514,0,0,1-3.858,6.679L274.51,342.334a2.359,2.359,0,0,1-1.248.374,2.169,2.169,0,0,1-.487-.062l-.337-.112-.2-.125-.225-.15a1.524,1.524,0,0,1-.212-.187,2.958,2.958,0,0,1-.712-1.011,4.844,4.844,0,0,1-.4-1.948V154.721a8.539,8.539,0,0,1,3.845-6.679l106.4-61.36a2.809,2.809,0,0,1,2.6-.337,1.748,1.748,0,0,1,.325.2h0a1.248,1.248,0,0,1,.25.25.6.6,0,0,1,.112.137.675.675,0,0,1,.125.2,1.674,1.674,0,0,1,.237.5,1.336,1.336,0,0,1,.087.337.087.087,0,0,1,0,.075,1.57,1.57,0,0,1,.062.35A1.007,1.007,0,0,1,384.846,88.9Z" transform="translate(-270.69 -86.169)"/></g></g><path class="b" d="M384.569,86.9a2.809,2.809,0,0,0-2.6.337l-106.478,61.36a8.539,8.539,0,0,0-3.845,6.679v12.584l-4.919-2.884V152.488a8.5,8.5,0,0,1,3.845-6.654l106.49-61.372a2.7,2.7,0,0,1,2.784-.225C380.549,84.636,383.745,86.509,384.569,86.9Z" transform="translate(-42.751 -51.969)"/><path class="b" d="M384.838,88.884c0-2.5-1.723-3.421-3.845-2.2L274.515,148.059a8.5,8.5,0,0,0-3.845,6.667V167.31l114.168-65.792Z" transform="translate(-41.772 -51.423)"/><g class="q" transform="translate(225.103 31.969)"><path class="r" d="M381.7,87.236,275.233,148.608a7.865,7.865,0,0,0-2.722,2.846l-4.881-2.821a7.629,7.629,0,0,1,2.672-2.809L376.829,84.452a2.709,2.709,0,0,1,2.8-.225c.7.424,3.883,2.235,4.694,2.672A2.759,2.759,0,0,0,381.7,87.236Z" transform="translate(-267.63 -83.94)"/></g><path class="s" d="M266.73,152.109V139.625a7.953,7.953,0,0,1,1.174-3.845l4.894,2.809a7.827,7.827,0,0,0-1.149,3.833v12.584Z" transform="translate(-42.751 -39.093)"/><path class="o" d="M343.982,99.866a5.718,5.718,0,0,0-2.172,4.594c0,1.848.974,2.784,2.172,2.1a5.755,5.755,0,0,0,2.172-4.607C346.155,100.091,345.181,99.167,343.982,99.866Z" transform="translate(-24.099 -48.073)"/><path class="o" d="M350.252,96.236a5.743,5.743,0,0,0-2.172,4.607c0,1.848.974,2.784,2.172,2.085a5.68,5.68,0,0,0,2.172-4.607C352.425,96.473,351.463,95.537,350.252,96.236Z" transform="translate(-22.542 -48.974)"/><path class="o" d="M356.522,92.606a5.755,5.755,0,0,0-2.172,4.607c0,1.848.974,2.784,2.172,2.085a5.693,5.693,0,0,0,2.185-4.594C358.707,92.855,357.733,91.907,356.522,92.606Z" transform="translate(-20.984 -49.876)"/><path class="t" d="M273.047,326.775l-.474-.275-1.186-.662h0l-.649-.375h0l-1.011-.574c-.325-.2-.624-.362-.849-.487s-.4-.225-.474-.262a2.059,2.059,0,0,1-.662-.537,2.882,2.882,0,0,1-.512-.774,4.681,4.681,0,0,1-.449-2.035V148.85l4.919,2.884V323.542a5.78,5.78,0,0,0,.4,1.948,2.959,2.959,0,0,0,.712,1.011.625.625,0,0,0,.212.187A.285.285,0,0,0,273.047,326.775Z" transform="translate(-42.738 -35.846)"/><path class="b" d="M278.24,160.864a1.623,1.623,0,0,1,.2-.712l2.771-5.73a.362.362,0,0,1,.125-.162V154.2a.187.187,0,0,1,.225,0,.35.35,0,0,1,.087.275v1.985a2.61,2.61,0,0,1,0,.6,3.6,3.6,0,0,1-.2.524l-1.461,3.021,1.461,1.348a.861.861,0,0,1,.2.287,1.887,1.887,0,0,1,0,.537V164.7a.875.875,0,0,1-.087.387.6.6,0,0,1-.225.262h0a.15.15,0,0,1-.125,0l-2.772-2.5a.587.587,0,0,1-.2-.487Z" transform="translate(-39.891 -34.527)"/><path class="b" d="M287.285,148.327a2.584,2.584,0,0,1,.212-.562.936.936,0,0,1,.412-.437l1.036-.6a.15.15,0,0,1,.212,0,.349.349,0,0,1,.1.275.686.686,0,0,1,0,.212l-4.744,20.224a2.273,2.273,0,0,1-.2.549.986.986,0,0,1-.412.462l-1,.574a.162.162,0,0,1-.212,0,.4.4,0,0,1-.1-.287,1.589,1.589,0,0,1,0-.212Z" transform="translate(-38.811 -36.384)"/><path class="b" d="M292.922,153.492a1.56,1.56,0,0,1-.187.712l-2.771,5.73a.8.8,0,0,1-.125.175h-.075a.175.175,0,0,1-.212,0,.4.4,0,0,1-.087-.287V157.9a2.6,2.6,0,0,1,0-.6,2.57,2.57,0,0,1,.2-.524l1.461-3.021-1.461-1.336a.836.836,0,0,1-.2-.3,1.881,1.881,0,0,1,0-.537v-1.923a.911.911,0,0,1,.087-.387.674.674,0,0,1,.212-.262h.2l2.771,2.5a.6.6,0,0,1,.187.5Z" transform="translate(-37.108 -35.807)"/><path class="b" d="M298.713,151.539a.225.225,0,0,1,.275,0,.474.474,0,0,1,.112.35V154a1.061,1.061,0,0,1-.112.474.7.7,0,0,1-.275.337l-1.248.749a.187.187,0,0,1-.262,0,.424.424,0,0,1-.112-.337V153.1a1.1,1.1,0,0,1,.112-.474.712.712,0,0,1,.262-.325Z" transform="translate(-35.209 -35.19)"/><path class="b" d="M302.216,149.53a.212.212,0,0,1,.275,0,.475.475,0,0,1,.112.35v2.11a1.061,1.061,0,0,1-.112.474.7.7,0,0,1-.275.337l-1.248.749a.225.225,0,0,1-.275,0,.474.474,0,0,1-.112-.35v-2.122a1.149,1.149,0,0,1,.112-.474.662.662,0,0,1,.275-.325Z" transform="translate(-34.342 -35.69)"/><path class="b" d="M305.726,147.511a.187.187,0,0,1,.262,0,.474.474,0,0,1,.112.35v2.11a1.148,1.148,0,0,1-.112.487.786.786,0,0,1-.262.325l-1.311.749a.2.2,0,0,1-.262,0,.474.474,0,0,1-.112-.35v-2.122a1.15,1.15,0,0,1,.112-.474.787.787,0,0,1,.262-.325Z" transform="translate(-33.482 -36.192)"/><path class="b" d="M279.453,179.288l63.969-36.928c.762-.437,1.373-.125,1.373.687a2.921,2.921,0,0,1-1.373,2.272l-63.969,36.941c-.762.437-1.373.125-1.373-.7a2.934,2.934,0,0,1,1.373-2.272Z" transform="translate(-39.931 -37.508)"/><path class="l" d="M295.893,198.28l63.969-36.941c.762-.437,1.373-.125,1.373.7a2.934,2.934,0,0,1-1.373,2.272l-63.969,36.928c-.762.437-1.373.125-1.373-.687a2.921,2.921,0,0,1,1.373-2.272Z" transform="translate(-35.847 -32.793)"/><path class="l" d="M295.893,203.934l30.624-17.665c.749-.437,1.361-.125,1.361.7a2.909,2.909,0,0,1-1.361,2.26l-30.624,17.678c-.762.424-1.373.125-1.373-.7A2.934,2.934,0,0,1,295.893,203.934Z" transform="translate(-35.847 -26.6)"/><path class="l" d="M295.893,213.423l30.624-17.665c.749-.424,1.361-.125,1.361.7a2.959,2.959,0,0,1-1.361,2.272l-30.624,17.665c-.762.437-1.373.125-1.373-.7A2.934,2.934,0,0,1,295.893,213.423Z" transform="translate(-35.847 -24.241)"/><path class="b" d="M334.943,142.858l25.48-14.819c.762-.437,1.373-.125,1.373.687A2.921,2.921,0,0,1,360.424,131l-25.48,14.769c-.762.437-1.373.125-1.373-.687a2.921,2.921,0,0,1,1.373-2.222Z" transform="translate(-26.146 -41.065)"/><path class="b" d="M279.453,283.7l63.969-36.928c.762-.437,1.373-.125,1.373.687a2.921,2.921,0,0,1-1.373,2.272l-63.969,36.941c-.762.424-1.373.125-1.373-.7A2.934,2.934,0,0,1,279.453,283.7Z" transform="translate(-39.931 -11.57)"/><path class="b" d="M334.943,247.248l25.48-14.769c.761-.437,1.373-.125,1.373.7a2.934,2.934,0,0,1-1.373,2.272l-25.48,14.769c-.762.437-1.373.125-1.373-.7a2.934,2.934,0,0,1,1.373-2.272Z" transform="translate(-26.146 -15.12)"/><path class="b" d="M334.943,218.833l25.48-14.794c.762-.437,1.373-.125,1.373.687A2.921,2.921,0,0,1,360.424,207l-25.48,14.769c-.762.437-1.373.125-1.373-.687a2.921,2.921,0,0,1,1.373-2.247Z" transform="translate(-26.146 -22.185)"/><path class="b" d="M334.943,228.318l25.48-14.769c.761-.437,1.373-.125,1.373.687a2.921,2.921,0,0,1-1.373,2.272l-25.48,14.769c-.762.437-1.373.125-1.373-.687a2.921,2.921,0,0,1,1.373-2.272Z" transform="translate(-26.146 -19.823)"/><path class="v" d="M279.453,274.219l63.969-36.941c.762-.424,1.373-.125,1.373.7a2.934,2.934,0,0,1-1.373,2.272l-63.969,36.928c-.762.437-1.373.125-1.373-.687A2.921,2.921,0,0,1,279.453,274.219Z" transform="translate(-39.931 -13.927)"/><path class="b" d="M317.533,227.554l14.319-8.265c.749-.437,1.361-.125,1.361.687a2.934,2.934,0,0,1-1.361,2.272l-14.319,8.265c-.762.437-1.373.137-1.373-.687A2.921,2.921,0,0,1,317.533,227.554Z" transform="translate(-30.471 -18.397)"/><path class="b" d="M279.453,185.75l37.315-21.56c.749-.437,1.361-.125,1.361.687a2.934,2.934,0,0,1-1.361,2.272l-37.315,21.56c-.762.437-1.373.125-1.373-.687A2.921,2.921,0,0,1,279.453,185.75Z" transform="translate(-39.931 -32.085)"/><path class="w" d="M279.453,185.75l37.315-21.56c.749-.437,1.361-.125,1.361.687a2.934,2.934,0,0,1-1.361,2.272l-37.315,21.56c-.762.437-1.373.125-1.373-.687A2.921,2.921,0,0,1,279.453,185.75Z" transform="translate(-39.931 -32.085)"/><path class="b" d="M279.453,192.393l12.659-7.353c.749-.437,1.361-.125,1.361.7a2.958,2.958,0,0,1-1.361,2.272l-12.659,7.316c-.762.437-1.373.125-1.373-.7a2.934,2.934,0,0,1,1.373-2.235Z" transform="translate(-39.931 -26.905)"/><path class="w" d="M279.453,192.393l12.659-7.353c.749-.437,1.361-.125,1.361.7a2.958,2.958,0,0,1-1.361,2.272l-12.659,7.316c-.762.437-1.373.125-1.373-.7a2.934,2.934,0,0,1,1.373-2.235Z" transform="translate(-39.931 -26.905)"/><path class="b" d="M279.453,201.888l12.659-7.328c.749-.437,1.361-.125,1.361.7a2.959,2.959,0,0,1-1.361,2.272l-12.659,7.316c-.762.437-1.373.125-1.373-.7A2.9,2.9,0,0,1,279.453,201.888Z" transform="translate(-39.931 -24.54)"/><path class="w" d="M279.453,201.888l12.659-7.328c.749-.437,1.361-.125,1.361.7a2.959,2.959,0,0,1-1.361,2.272l-12.659,7.316c-.762.437-1.373.125-1.373-.7A2.9,2.9,0,0,1,279.453,201.888Z" transform="translate(-39.931 -24.54)"/><path class="b" d="M279.453,211.381l12.659-7.341c.749-.437,1.361-.137,1.361.687A2.934,2.934,0,0,1,292.112,207l-12.659,7.316c-.762.437-1.373.125-1.373-.687A2.921,2.921,0,0,1,279.453,211.381Z" transform="translate(-39.931 -22.186)"/><path class="w" d="M279.453,211.381l12.659-7.341c.749-.437,1.361-.137,1.361.687A2.934,2.934,0,0,1,292.112,207l-12.659,7.316c-.762.437-1.373.125-1.373-.687A2.921,2.921,0,0,1,279.453,211.381Z" transform="translate(-39.931 -22.186)"/><path class="b" d="M279.453,220.865l12.659-7.316c.749-.437,1.361-.125,1.361.687a2.934,2.934,0,0,1-1.361,2.272l-12.659,7.316c-.762.437-1.373.125-1.373-.687a2.921,2.921,0,0,1,1.373-2.272Z" transform="translate(-39.931 -19.823)"/><path class="w" d="M279.453,220.865l12.659-7.316c.749-.437,1.361-.125,1.361.687a2.934,2.934,0,0,1-1.361,2.272l-12.659,7.316c-.762.437-1.373.125-1.373-.687a2.921,2.921,0,0,1,1.373-2.272Z" transform="translate(-39.931 -19.823)"/><path class="b" d="M313.581,163.6l16.229-9.338c.749-.437,1.373-.125,1.373.687a2.946,2.946,0,0,1-1.373,2.272l-16.229,9.338c-.749.437-1.361.125-1.361-.687A2.934,2.934,0,0,1,313.581,163.6Z" transform="translate(-31.45 -34.552)"/><path class="w" d="M313.581,163.6l16.229-9.338c.749-.437,1.373-.125,1.373.687a2.946,2.946,0,0,1-1.373,2.272l-16.229,9.338c-.749.437-1.361.125-1.361-.687A2.934,2.934,0,0,1,313.581,163.6Z" transform="translate(-31.45 -34.552)"/><path class="v" d="M308.273,216.55l37.253-21.51c.749-.437,1.361-.125,1.361.7a2.959,2.959,0,0,1-1.361,2.272l-37.253,21.51c-.749.437-1.373.125-1.373-.7a2.934,2.934,0,0,1,1.373-2.272Z" transform="translate(-32.771 -24.421)"/><path class="v" d="M325.461,216.14l37.315-21.56c.762-.437,1.373-.125,1.373.687a2.921,2.921,0,0,1-1.373,2.272L325.461,219.1c-.749.437-1.361.125-1.361-.687A2.934,2.934,0,0,1,325.461,216.14Z" transform="translate(-28.498 -24.535)"/><path class="v" d="M342.363,194.408l16.23-9.338c.761-.437,1.373-.125,1.373.7a2.934,2.934,0,0,1-1.373,2.272l-16.23,9.338c-.762.424-1.373.125-1.373-.7A2.934,2.934,0,0,1,342.363,194.408Z" transform="translate(-24.303 -26.898)"/><path class="b" d="M295.893,185.73l37.315-21.56c.749-.437,1.361-.125,1.361.7a2.959,2.959,0,0,1-1.361,2.272l-37.315,21.548c-.762.437-1.373.137-1.373-.687a2.934,2.934,0,0,1,1.373-2.272Z" transform="translate(-35.847 -32.09)"/><path class="w" d="M295.893,185.73l37.315-21.56c.749-.437,1.361-.125,1.361.7a2.959,2.959,0,0,1-1.361,2.272l-37.315,21.548c-.762.437-1.373.137-1.373-.687a2.934,2.934,0,0,1,1.373-2.272Z" transform="translate(-35.847 -32.09)"/><path class="b" d="M330.021,163.578l16.229-9.338c.762-.437,1.373-.125,1.373.687a2.921,2.921,0,0,1-1.373,2.272l-16.229,9.338c-.749.437-1.361.125-1.361-.687a2.933,2.933,0,0,1,1.361-2.272Z" transform="translate(-27.366 -34.557)"/><path class="w" d="M330.021,163.578l16.229-9.338c.762-.437,1.373-.125,1.373.687a2.921,2.921,0,0,1-1.373,2.272l-16.229,9.338c-.749.437-1.361.125-1.361-.687a2.933,2.933,0,0,1,1.361-2.272Z" transform="translate(-27.366 -34.557)"/></g><g transform="translate(502.832 75.018)"><path class="b" d="M430.165,98.477V84.208l-12-1.036a.736.736,0,0,0-.5.1c-.474.25-11.835,6.754-11.972,6.841a.874.874,0,0,0-.2,1.348l12.721,13.8Z" transform="translate(-405.254 -64.443)"/><path class="b" d="M418.216,103.939l-12.721-13.8a.886.886,0,0,1,.724-1.473l12,1.049Z" transform="translate(-405.252 -63.075)"/><path class="b" d="M430.054,84.21l-11.935,6.841L406.085,90.04a1.161,1.161,0,0,0-.424,0c.961-.562,11.436-6.554,11.86-6.779a.8.8,0,0,1,.512-.1Z" transform="translate(-405.155 -64.445)"/><path class="k" d="M430.054,84.21l-11.935,6.841L406.085,90.04a1.161,1.161,0,0,0-.424,0c.961-.562,11.436-6.554,11.86-6.779a.8.8,0,0,1,.512-.1Z" transform="translate(-405.155 -64.445)"/><path class="b" d="M415.66,78.782a9.6,9.6,0,0,1,4.32-7.491l3.521-2.085a9.526,9.526,0,0,1,8.652,0l37.54,21.723a9.538,9.538,0,0,1,4.332,7.491v43.37a9.551,9.551,0,0,1-4.332,7.491l-3.521,2.035a9.6,9.6,0,0,1-8.652,0l-11.073-6.4-14.407-8.29-12.06-6.966a9.55,9.55,0,0,1-4.32-7.491Z" transform="translate(-402.671 -68.168)"/><path class="h" d="M465.548,136.615a9.551,9.551,0,0,1-4.332,7.491L457.7,146.14a9.7,9.7,0,0,1-7.915.35c2.047.762,3.6-.387,3.6-2.846V100.236a8.826,8.826,0,0,0-1.248-4.27L464.274,89a8.826,8.826,0,0,1,1.248,4.27Z" transform="translate(-394.195 -62.993)"/><path class="k" d="M415.77,77.541c.512-1.835,2.185-2.422,4.182-1.248L457.5,97.916a8.664,8.664,0,0,1,3.046,3.233l12.16-6.979a8.627,8.627,0,0,0-3.046-3.221L432.137,69.2a9.6,9.6,0,0,0-8.589,0l-3.533,2.035A9.576,9.576,0,0,0,415.77,77.541Z" transform="translate(-402.644 -68.163)"/><path class="o" d="M437,89.747l-14.294-2,2,26.379L437,130.1Z" transform="translate(-400.92 -63.303)"/><path class="m" d="M434.16,89.35l14.294,14.519-2.01,24.057L434.16,129.7Z" transform="translate(-398.075 -62.906)"/><path class="j" d="M441.851,122.869l3.283,1.9L436,92.57l-9.126,21.648,3.271,1.9,1.973-4.694,7.765,4.482Zm-8.577-14.282,2.7-6.417,2.7,9.538Z" transform="translate(-399.886 -62.106)"/><path class="b" d="M430.165,163.306V149.1l-12-1.049a.924.924,0,0,0-.5.1c-.474.25-11.835,6.754-11.972,6.841a.886.886,0,0,0-.2,1.361l12.721,13.733Z" transform="translate(-405.254 -48.324)"/><path class="x" d="M418.22,168.767,405.5,155.034a.874.874,0,0,1,.724-1.473l12,1.049Z" transform="translate(-405.256 -46.956)"/><path class="b" d="M430.047,149.1l-11.935,6.841-12-1.049a.948.948,0,0,0-.424,0c.961-.574,11.436-6.554,11.86-6.791a.887.887,0,0,1,.512-.1Z" transform="translate(-405.148 -48.337)"/><path class="v" d="M430.047,149.1l-11.935,6.841-12-1.049a.948.948,0,0,0-.424,0c.961-.574,11.436-6.554,11.86-6.791a.887.887,0,0,1,.512-.1Z" transform="translate(-405.148 -48.337)"/><path class="x" d="M415.66,143.612a9.55,9.55,0,0,1,4.32-7.491l3.521-2.035a9.526,9.526,0,0,1,8.652,0l37.54,21.673a9.55,9.55,0,0,1,4.332,7.491v43.4a9.538,9.538,0,0,1-4.332,7.491l-3.521,2.035a9.525,9.525,0,0,1-8.652,0l-11.073-6.392-14.407-8.327L419.98,194.5a9.575,9.575,0,0,1-4.32-7.491Z" transform="translate(-402.671 -52.05)"/><path class="l" d="M465.548,201.482a9.538,9.538,0,0,1-4.332,7.491l-3.521,2.035a9.65,9.65,0,0,1-7.915.35c2.047.774,3.6-.375,3.6-2.846v-43.4a8.74,8.74,0,0,0-1.248-4.257L464.3,153.83a8.738,8.738,0,0,1,1.249,4.257Z" transform="translate(-394.195 -46.887)"/><path class="v" d="M415.77,142.372c.512-1.835,2.185-2.422,4.182-1.248L457.5,162.8a8.664,8.664,0,0,1,3.046,3.233l12.16-7.016a8.665,8.665,0,0,0-3.046-3.233l-37.528-21.685a9.6,9.6,0,0,0-8.652,0l-3.533,2.035a9.576,9.576,0,0,0-4.182,6.242Z" transform="translate(-402.644 -52.046)"/><path class="b" d="M437,165.937l3.146-5.942,11.148,6.442L437,193.315l-14.294-43.4,11.136,6.429Z" transform="translate(-400.92 -47.859)"/><path class="s" d="M437,165.937l3.146-5.942,11.148,6.442L437,193.315l-14.294-43.4,11.136,6.429Z" transform="translate(-400.92 -47.859)"/><path class="m" d="M435.782,165.227l-3.158-9.575-4.994-2.871c3.982,12.1,8.127,24.656,8.127,24.656l8.115-15.281-4.994-2.871Z" transform="translate(-399.697 -47.148)"/><path class="b" d="M430.165,228.159v-14.22l-12-1.049a.924.924,0,0,0-.5.1L405.7,219.832a.886.886,0,0,0-.2,1.361l12.721,13.733Z" transform="translate(-405.254 -32.216)"/><path class="m" d="M418.22,233.607,405.5,219.874a.874.874,0,0,1,.724-1.473l12,1.049Z" transform="translate(-405.256 -30.848)"/><path class="b" d="M430.047,213.952l-11.935,6.829-12-1.049a.949.949,0,0,0-.424,0l11.86-6.791a.987.987,0,0,1,.512-.1Z" transform="translate(-405.148 -32.229)"/><path class="o" d="M430.047,213.952l-11.935,6.829-12-1.049a.949.949,0,0,0-.424,0l11.86-6.791a.987.987,0,0,1,.512-.1Z" transform="translate(-405.148 -32.229)"/><path class="m" d="M415.66,208.45a9.575,9.575,0,0,1,4.32-7.491l3.521-2.035a9.6,9.6,0,0,1,8.652,0l37.54,21.673a9.576,9.576,0,0,1,4.332,7.491v43.358a9.538,9.538,0,0,1-4.332,7.491l-3.521,2.035a9.526,9.526,0,0,1-8.652,0l-11.073-6.392-14.407-8.327L419.98,259.3a9.55,9.55,0,0,1-4.32-7.491Z" transform="translate(-402.671 -35.941)"/><path class="u" d="M465.548,266.3a9.538,9.538,0,0,1-4.332,7.491l-3.521,2.035a9.651,9.651,0,0,1-7.915.35c2.047.774,3.6-.375,3.6-2.846V229.968a8.826,8.826,0,0,0-1.248-4.27L464.3,218.67a8.826,8.826,0,0,1,1.248,4.27Z" transform="translate(-394.195 -30.78)"/><path class="o" d="M415.77,207.222c.512-1.835,2.185-2.422,4.182-1.248L457.5,227.659a8.627,8.627,0,0,1,3.046,3.221l12.16-7.016a8.665,8.665,0,0,0-3.046-3.233l-37.528-21.685a9.6,9.6,0,0,0-8.652,0l-3.533,2.047a9.538,9.538,0,0,0-4.182,6.23Z" transform="translate(-402.644 -35.936)"/><path class="b" d="M445.39,236.7c.886-4.494.524-8.627-1.248-10.974a4.157,4.157,0,0,0-3.4-1.8h-.312a6.792,6.792,0,0,0-3.308,1.248c-2.5-4.719-4.994-7.615-6.779-7.615h-.262a1.6,1.6,0,0,0-1.124.849c-.861,1.436-.911,4.544-.262,8.627a6.9,6.9,0,0,0-4.669.337,2.934,2.934,0,0,0-1.448,2.722c0,2.709,2.385,6.429,6.092,9.987-.886,4.494-.524,8.627,1.248,10.974a4.831,4.831,0,0,0,1.411,1.248,3.883,3.883,0,0,0,1.972.524,4.992,4.992,0,0,0,1.323-.187,8.078,8.078,0,0,0,2.384-1.248c2.01,3.745,4.02,6.454,5.63,7.391a2.5,2.5,0,0,0,1.248.375.847.847,0,0,0,.25,0,1.623,1.623,0,0,0,1.136-.849c.861-1.436.9-4.544.25-8.652a11.622,11.622,0,0,0,1.985.2,5.081,5.081,0,0,0,2.559-.574,2.946,2.946,0,0,0,1.448-2.722C451.482,243.964,449.1,240.244,445.39,236.7Zm-4.282,7.228a24.275,24.275,0,0,1-1.373,2.185c-.824-.4-1.7-.849-2.622-1.386s-1.81-1.086-2.647-1.66c-.487-1.248-.974-2.572-1.436-3.945s-.861-2.647-1.248-3.9c.35-.774.724-1.548,1.149-2.31s.9-1.511,1.361-2.185c.836.4,1.71.849,2.634,1.386s1.9,1.149,2.784,1.748c.487,1.248.961,2.5,1.436,3.933s.811,2.5,1.149,3.67A25.857,25.857,0,0,1,441.108,243.927Zm1.248-6.379c-.275-.824-.562-1.635-.849-2.422a30.357,30.357,0,0,1,2.359,1.923c-.225.861-.487,1.748-.811,2.634-.25-.7-.474-1.411-.724-2.135Zm-5.218-7.041q-.961-.549-1.873-1.011a16.1,16.1,0,0,1,1.773-1.873c.587,1.186,1.186,2.5,1.785,3.908-.574-.35-1.136-.7-1.71-1.024Zm-5.306,1.1c-.225.412-.449.824-.649,1.248-.337-1.311-.624-2.5-.849-3.683a23.392,23.392,0,0,1,2.5.861,10.48,10.48,0,0,0-.986,1.573Zm0,7.765c.287.836.574,1.648.874,2.5-.886-.662-1.723-1.348-2.5-2.035a28.891,28.891,0,0,1,.874-2.809c.25.749.5,1.536.761,2.31Zm5.094,6.966c.637.362,1.248.687,1.86,1a15.905,15.905,0,0,1-1.685,1.81c-.574-1.149-1.149-2.4-1.71-3.745.524.312,1.036.637,1.561.936Zm5.306-1.1c.262-.462.5-.924.724-1.4.362,1.373.662,2.672.9,3.87a22.9,22.9,0,0,1-2.572-.9,16.607,16.607,0,0,0,.974-1.573Zm-1.7-12.484c-.836-2.135-1.71-4.095-2.584-5.855a6.679,6.679,0,0,1,2.085-1.049,4.034,4.034,0,0,1,1.061-.15,2.758,2.758,0,0,1,1.436.362,3.033,3.033,0,0,1,.849.762c1.186,1.573,1.511,4.881.762,8.739a44.687,44.687,0,0,0-3.558-2.834Zm-6.9-3.982a26.5,26.5,0,0,0-3.658-1.336c-.624-3.87-.549-6.529.075-7.565a.811.811,0,0,1,.549-.512h.112a1.348,1.348,0,0,1,.674.225c1.186.687,2.9,2.909,4.756,6.379a17.1,17.1,0,0,0-2.484,2.784Zm-3.271,5.83a28.718,28.718,0,0,0-1.386,4.095c-3.2-3.1-5.106-6.092-5.106-7.927a1.823,1.823,0,0,1,.949-1.673,4.331,4.331,0,0,1,2.122-.449,10.112,10.112,0,0,1,2.047.237c.362,1.71.824,3.658,1.4,5.693Zm3.258,9.638c.824,2.047,1.673,3.957,2.5,5.705a5.967,5.967,0,0,1-3,1.248,2.759,2.759,0,0,1-2.5-1.111c-1.186-1.586-1.511-4.894-.762-8.739a42.859,42.859,0,0,0,3.783,2.871Zm6.766,3.883a25.656,25.656,0,0,0,3.745,1.373c.637,3.883.562,6.554-.062,7.6a.862.862,0,0,1-.562.449c-1.136.2-3.271-2.335-5.605-6.741a16.686,16.686,0,0,0,2.509-2.734Zm3.346-5.992a29.624,29.624,0,0,0,1.248-3.933c3.2,3.1,5.106,6.092,5.106,7.928a1.848,1.848,0,0,1-.949,1.673,6.242,6.242,0,0,1-4.045.237,49.324,49.324,0,0,0-1.336-5.93Z" transform="translate(-400.953 -31.056)"/><path class="b" d="M437.184,236.465c0,1.873-1.136,2.734-2.5,1.923a6.067,6.067,0,0,1-2.5-4.856c0-1.86,1.136-2.722,2.5-1.91a6.067,6.067,0,0,1,2.5,4.844Z" transform="translate(-398.565 -27.638)"/><g class="y" transform="translate(21.622 186.504)"><path class="r" d="M445.39,236.7c.886-4.494.524-8.627-1.248-10.974a4.157,4.157,0,0,0-3.4-1.8h-.312a6.792,6.792,0,0,0-3.308,1.248c-2.5-4.719-4.994-7.615-6.779-7.615h-.262a1.6,1.6,0,0,0-1.124.849c-.861,1.436-.911,4.544-.262,8.627a6.9,6.9,0,0,0-4.669.337,2.934,2.934,0,0,0-1.448,2.722c0,2.709,2.385,6.429,6.092,9.987-.886,4.494-.524,8.627,1.248,10.974a4.831,4.831,0,0,0,1.411,1.248,3.883,3.883,0,0,0,1.972.524,4.992,4.992,0,0,0,1.323-.187,8.078,8.078,0,0,0,2.384-1.248c2.01,3.745,4.02,6.454,5.63,7.391a2.5,2.5,0,0,0,1.248.375.847.847,0,0,0,.25,0,1.623,1.623,0,0,0,1.136-.849c.861-1.436.9-4.544.25-8.652a11.622,11.622,0,0,0,1.985.2,5.081,5.081,0,0,0,2.559-.574,2.946,2.946,0,0,0,1.448-2.722C451.482,243.964,449.1,240.244,445.39,236.7Zm-4.282,7.228a24.275,24.275,0,0,1-1.373,2.185c-.824-.4-1.7-.849-2.622-1.386s-1.81-1.086-2.647-1.66c-.487-1.248-.974-2.572-1.436-3.945s-.861-2.647-1.248-3.9c.35-.774.724-1.548,1.149-2.31s.9-1.511,1.361-2.185c.836.4,1.71.849,2.634,1.386s1.9,1.149,2.784,1.748c.487,1.248.961,2.5,1.436,3.933s.811,2.5,1.149,3.67A25.857,25.857,0,0,1,441.108,243.927Zm1.248-6.379c-.275-.824-.562-1.635-.849-2.422a30.357,30.357,0,0,1,2.359,1.923c-.225.861-.487,1.748-.811,2.634-.25-.7-.474-1.411-.724-2.135Zm-5.218-7.041q-.961-.549-1.873-1.011a16.1,16.1,0,0,1,1.773-1.873c.587,1.186,1.186,2.5,1.785,3.908-.574-.35-1.136-.7-1.71-1.024Zm-5.306,1.1c-.225.412-.449.824-.649,1.248-.337-1.311-.624-2.5-.849-3.683a23.392,23.392,0,0,1,2.5.861,10.48,10.48,0,0,0-.986,1.573Zm0,7.765c.287.836.574,1.648.874,2.5-.886-.662-1.723-1.348-2.5-2.035a28.891,28.891,0,0,1,.874-2.809c.25.749.5,1.536.761,2.31Zm5.094,6.966c.637.362,1.248.687,1.86,1a15.905,15.905,0,0,1-1.685,1.81c-.574-1.149-1.149-2.4-1.71-3.745.524.312,1.036.637,1.561.936Zm5.306-1.1c.262-.462.5-.924.724-1.4.362,1.373.662,2.672.9,3.87a22.9,22.9,0,0,1-2.572-.9,16.607,16.607,0,0,0,.974-1.573Zm-1.7-12.484c-.836-2.135-1.71-4.095-2.584-5.855a6.679,6.679,0,0,1,2.085-1.049,4.034,4.034,0,0,1,1.061-.15,2.758,2.758,0,0,1,1.436.362,3.033,3.033,0,0,1,.849.762c1.186,1.573,1.511,4.881.762,8.739a44.687,44.687,0,0,0-3.558-2.834Zm-6.9-3.982a26.5,26.5,0,0,0-3.658-1.336c-.624-3.87-.549-6.529.075-7.565a.811.811,0,0,1,.549-.512h.112a1.348,1.348,0,0,1,.674.225c1.186.687,2.9,2.909,4.756,6.379a17.1,17.1,0,0,0-2.484,2.784Zm-3.271,5.83a28.718,28.718,0,0,0-1.386,4.095c-3.2-3.1-5.106-6.092-5.106-7.927a1.823,1.823,0,0,1,.949-1.673,4.331,4.331,0,0,1,2.122-.449,10.112,10.112,0,0,1,2.047.237c.362,1.71.824,3.658,1.4,5.693Zm3.258,9.638c.824,2.047,1.673,3.957,2.5,5.705a5.967,5.967,0,0,1-3,1.248,2.759,2.759,0,0,1-2.5-1.111c-1.186-1.586-1.511-4.894-.762-8.739a42.859,42.859,0,0,0,3.783,2.871Zm6.766,3.883a25.656,25.656,0,0,0,3.745,1.373c.637,3.883.562,6.554-.062,7.6a.862.862,0,0,1-.562.449c-1.136.2-3.271-2.335-5.605-6.741a16.686,16.686,0,0,0,2.509-2.734Zm3.346-5.992a29.624,29.624,0,0,0,1.248-3.933c3.2,3.1,5.106,6.092,5.106,7.928a1.848,1.848,0,0,1-.949,1.673,6.242,6.242,0,0,1-4.045.237,49.324,49.324,0,0,0-1.336-5.93Z" transform="translate(-422.575 -217.56)"/><path class="r" d="M437.184,236.465c0,1.873-1.136,2.734-2.5,1.923a6.067,6.067,0,0,1-2.5-4.856c0-1.86,1.136-2.722,2.5-1.91a6.067,6.067,0,0,1,2.5,4.844Z" transform="translate(-420.187 -214.143)"/></g></g><g transform="translate(415.605 312.678)"><path class="z" d="M414.266,287.989c.7-25.6-1.359-31.793-8.192-36.489l-2.639,14.858s3.111,17.516,2.777,23.345c-.3,5.13-.8,11.54-1.969,15.675a3.151,3.151,0,0,1-1.359,1.762,17.779,17.779,0,0,0-3.751,3.574c-.985,1.073-1.89,1.339-1.762,1.684a1.693,1.693,0,0,0,2.166.758A11.088,11.088,0,0,0,402,311.817a15.458,15.458,0,0,1-2.521,4.342c-2.442,2.954-2.55,4.825,2.373,4.874,3.092,0,5.553-1.881,7.877-8.674a55.435,55.435,0,0,0,2.166-7.631C413.025,298,414.157,292.115,414.266,287.989Z" transform="translate(-326.031 -213.762)"/><path class="aa" d="M400.38,249.518a9.846,9.846,0,0,1,10.545,5.337c2.865,5.11,3.564,13.912,3.938,22.646,0,0-5.681,4.756-12.495,2.422Z" transform="translate(-326.077 -213.73)"/><path class="ab" d="M400.38,249.518a9.846,9.846,0,0,1,10.545,5.337c2.865,5.11,3.564,13.912,3.938,22.646,0,0-5.681,4.756-12.495,2.422Z" transform="translate(-326.077 -213.73)"/><path class="ac" d="M409.887,392.636c.512.2.64,1.182.719,3.141.059,1.477.384,4.066-1.359,4.588s-4.283.246-5.4-1.152a68.931,68.931,0,0,0-4.313-5.405c-1.713-1.841-3.574-3.574-4.273-6.164-.62-2.333-.1-3.348,1.5-4.027,2.2-.985,5.642,2.117,7.365,2.6C405.6,386.63,409.365,392.439,409.887,392.636Z" transform="translate(-325.995 -215.794)"/><path class="z" d="M410.015,390.916v2.412a5.907,5.907,0,0,1-6.085.158c-.108-.226-.63-3.436-.63-3.436Z" transform="translate(-326.122 -215.896)"/><path class="ac" d="M389.9,406.86a38.7,38.7,0,0,1,1.063,3.938c.3,1.457.719,3.938.217,4.982s-2.5,1.8-5.583,1.782c-1.969,0-5.1,1.339-7.227,2.53s-6.774,1.713-9.108,1.438c-2.737-.325-5.573-1.91-6.016-3.042s.138-2.314,6.607-5.071c.059,0,8.98-2.954,12.1-6.37Z" transform="translate(-325.504 -216.155)"/><path class="z" d="M390.2,404.22v2.806c0,.985-1.191,2.54-4.313,2.432-2.186-.079-3.722-.67-3.633-2.471v-2.609Z" transform="translate(-325.798 -216.114)"/><path class="m" d="M411.117,357.509a65.464,65.464,0,0,0-2.845-12.534s.857-10.831,1.27-21.061c.443-11.077,0-24.989.187-27.756,0,0-35.731-7.227-36.371,5.573s1.418,45.38,1.841,51,1.388,10.6,2.55,19.692,4.362,30.237,4.362,30.237a8.438,8.438,0,0,0,7.946-.157s2.521-25.6,2.255-32.088a55.561,55.561,0,0,0-2.462-14.159s.679-10.555,1.28-19.692,1.231-13.6,1.369-17.585l.768-.384s.788,15.842,1.211,21.464,1.309,11.008,2.954,21.454c1.418,9.068,5.622,28.238,5.622,28.238,4.076,2.205,6.518-.3,6.518-.3S412.21,365.376,411.117,357.509Z" transform="translate(-325.659 -214.419)"/><path class="u" d="M392.8,319.223s8.664-4.283,13-8.123c0,0-4.027,5.671-9.314,8.192,0,0-1.881,19.692-1.871,19.278l-1.093-19.377Z" transform="translate(-325.961 -214.68)"/><path class="z" d="M384.96,245.374l2.117,11.638,10.516-.778-2.205-13.184Z" transform="translate(-325.84 -213.632)"/><path class="aa" d="M408.509,255.486c-1.034-3.161-5.051-6.607-9.068-5.908a118.465,118.465,0,0,0-17.575,4.441c-3.673,1.31-7.03,4.49-7.335,16.591,0,0-1.231,28.2-1.25,33.654a44.6,44.6,0,0,0,24.152,2.383c11.047-2.412,12.386-7,12.386-7s.138-20.283-.2-29.036C409.326,263.166,409.228,257.662,408.509,255.486Z" transform="translate(-325.66 -213.731)"/><g class="ad" transform="translate(47.62 35.756)"><path class="b" d="M408.509,255.486c-1.034-3.161-5.051-6.607-9.068-5.908a118.465,118.465,0,0,0-17.575,4.441c-3.673,1.31-7.03,4.49-7.335,16.591,0,0-1.231,28.2-1.25,33.654a44.6,44.6,0,0,0,24.152,2.383c11.047-2.412,12.386-7,12.386-7s.138-20.283-.2-29.036C409.326,263.166,409.228,257.662,408.509,255.486Z" transform="translate(-373.28 -249.487)"/></g><path class="z" d="M376.693,231s-2.668,4.253-2.343,4.657,2.363.729,2.363.729Z" transform="translate(-325.676 -213.447)"/><path class="z" d="M384.123,219.08c-5.553,1.3-7.109,3.791-7.434,12.682-.345,9.275.67,12.17,1.91,13.391.847.827,5.415.876,7.709.187,2.865-.857,9.334-3.318,12.278-8.044,3.466-5.573,4.244-13.026.335-15.99C393.407,217.13,386.387,218.548,384.123,219.08Z" transform="translate(-325.711 -213.253)"/><path class="ae" d="M376.733,221.313a11.342,11.342,0,0,0,5.169,4.125c1.063,1.211.482,5.908,2.353,6.7,0,0,.807-3.446,3.7-3.072s3.4,4.057,1.615,6.351-3.505,1.467-3.505,1.467.2,4.923,2.432,7.621c0,0,2.481.748,7.01-.325,2.777-.66,6.646-4.234,8.221-7.965,3.338-7.877,3.417-14.936-1.615-16.935-.62-3.594-3.5-5.14-6.745-5.809-7-1.447-11.51,2.954-16.9,2.54C375.394,215.789,374.823,218.034,376.733,221.313Z" transform="translate(-325.696 -213.172)"/><path class="z" d="M336.656,275.042c1.723.768,25.265,14.06,25.265,14.06l10.256-10.951,9.21-9.834a13.134,13.134,0,0,0,0-14.277s-5.218.985-7.956,5.1S358.9,278.074,358.9,278.074q-4.372-2.186-8.724-4.431c-2.383-1.241-4.775-2.471-7.109-3.8a9.245,9.245,0,0,1-1.841-1.132c-1.152-1.142-.985-3.938-.926-5.4a14.956,14.956,0,0,1,.1-2.1c.1-.857.266-2.954-1.28-2.284a1.968,1.968,0,0,0-.738.61,3.839,3.839,0,0,0-.551,1.054c-.286.906-.2,1.9-.463,2.816a.857.857,0,0,1-.187.364.709.709,0,0,1-.482.148c-2.245-.069-4.372-3.22-5.405-4.923a4.431,4.431,0,0,0-1.7-1.969c-1.221-.581-2.7.246-3.5,1.349a7.069,7.069,0,0,0-1.1,4.923,9.846,9.846,0,0,0,2.954,6.2,30.177,30.177,0,0,0,8.714,5.534Z" transform="translate(-324.915 -213.802)"/><path class="aa" d="M383.694,253.42c-2.245.256-5.977.423-9.639,4.569-4.313,4.864-9.935,12.741-9.935,12.741A12.465,12.465,0,0,0,373.966,280s7.709-7.877,9.846-12.248S386.3,256.354,383.694,253.42Z" transform="translate(-325.519 -213.792)"/><path class="ab" d="M383.694,253.42c-2.245.256-5.977.423-9.639,4.569-4.313,4.864-9.935,12.741-9.935,12.741A12.465,12.465,0,0,0,373.966,280s7.709-7.877,9.846-12.248S386.3,256.354,383.694,253.42Z" transform="translate(-325.519 -213.792)"/></g></g></svg>