<svg xmlns="http://www.w3.org/2000/svg" width="397.719" height="380.578" viewBox="0 0 397.719 380.578"><defs><style>.a,.d,.j{fill:#263238;}.a,.b,.c,.e,.f,.i{stroke:#263238;}.a,.b,.c,.e,.f,.i,.j{stroke-linecap:round;stroke-linejoin:round;}.a,.b,.c,.e,.j{stroke-width:2.793px;}.b,.f,.h,.l{fill:#fff;}.c,.k{fill:#9857c2;}.e,.g,.i{fill:none;}.f{stroke-width:2.793px;}.g,.j{stroke:#fff;}.g{stroke-miterlimit:10;}.g,.i{stroke-width:5.585px;}.l{opacity:0.4;}</style></defs><g transform="translate(-200.029 -242.008)"><g transform="translate(234.683 243.404)"><path class="a" d="M460.068,327.072H703.184a9.142,9.142,0,0,1,9.142,9.142V506.169h-261.4V336.2A9.142,9.142,0,0,1,460.068,327.072Z" transform="translate(-411.716 -327.072)"/><path class="b" d="M693.242,851.555H353.435l39.209-79.17H654.033Z" transform="translate(-353.435 -593.288)"/><rect class="c" width="229.728" height="150.737" transform="translate(55.045 14.174)"/><circle class="d" cx="32.47" cy="32.47" r="32.47" transform="translate(49.992 97.858) rotate(-45)"/><circle class="d" cx="32.47" cy="32.47" r="32.47" transform="translate(125.032 97.855) rotate(-45)"/><circle class="d" cx="32.47" cy="32.47" r="32.47" transform="translate(207.002 73.591) rotate(-13.12)"/><path class="b" d="M536.436,491.714s14.309-39.085,22.721-39.085,23.227,38.625,23.227,38.625l-2.5.225s-14.545-33.852-18.858-35.941-12.276,10.221-22.047,36.132Z" transform="translate(-462.836 -402.132)"/><path class="b" d="M532.843,544.143h43.005A4.852,4.852,0,0,1,580.7,549v23.069a3.886,3.886,0,0,1-3.886,3.886H531.888A3.886,3.886,0,0,1,528,572.065V549.007A4.852,4.852,0,0,1,532.843,544.143Z" transform="translate(-457.794 -456.841)"/><line class="b" x2="47.711" transform="translate(70.646 104.351)"/><path class="b" d="M649.453,546.964s-1.123,1.37-1.123,5.234-1.359,24.316-1.123,25.215,1.595.236,1.595.236" transform="translate(-529.04 -458.528)"/><rect class="b" width="3.639" height="8.176" transform="translate(92.682 99.803)"/><path class="b" d="M707.847,521.2s15.174-1.325,32.987-1.325,26.18,1.123,26.394,2.246-2.415,15.4-2.415,16.712,0,19.8-.438,20.9-2.426,1.977-3.3,2.19-47.071.663-48.385.663a2.639,2.639,0,0,1-2.426-2.639c0-1.314.663-15.836-.438-21.115S707.847,521.2,707.847,521.2Z" transform="translate(-565.309 -442.334)"/><path class="b" d="M748.41,493.481s-.225-17.375,1.539-23.316a12.354,12.354,0,0,1,11.658-8.794A16.331,16.331,0,0,1,776.3,473.489c2.246,8.57.438,19.352.225,20.452s-2.639,4.178-3.089-1.763.449-19.79-1.314-23.754a10.479,10.479,0,0,0-11.434-5.717c-4.627,1.123-7.042,3.077-7.918,8.794s.876,18.925-.225,21.778S748.8,497.434,748.41,493.481Z" transform="translate(-589.553 -407.358)"/><path class="b" d="M716.232,523.7s-1.123,11.658-1.123,16.061-.225,7.255-.225,7.255" transform="translate(-569.516 -444.621)"/><path class="e" d="M846.166,524.26s.449,11.658.449,18.476" transform="translate(-647.998 -444.955)"/><path class="b" d="M957.464,462.534a1.123,1.123,0,0,1-1.123-.966c-2.168-13.556-4.886-28.505-6.278-33.357-2.055,4.582-6.57,19.172-10.31,32.436a1.165,1.165,0,0,1-2.246-.618c0-.09,2.4-8.547,5.009-16.982,5.425-17.588,6.447-17.97,7.255-18.229a1.336,1.336,0,0,1,1.213.18c.6.438,1.415,1.033,4.65,18.914,1.561,8.626,2.931,17.207,2.943,17.3a1.123,1.123,0,0,1-.955,1.314.743.743,0,0,1-.157.011Z" transform="translate(-702.578 -385.464)"/><path class="b" d="M896.573,507.668s22.362-1.37,30.067-1.067,21.4,1.123,21.34,2.01-.326,29.2-1.123,34.818-4.807,12.669-8.289,13.961-15.185.82-21.182.573-11.4-1.033-14.1-4.863-4.627-19.913-4.627-19.913Z" transform="translate(-678.133 -434.372)"/><path class="b" d="M934.075,521.206a2.246,2.246,0,1,0-.725,1.6A2.246,2.246,0,0,0,934.075,521.206Z" transform="translate(-697.867 -441.755)"/><circle class="f" cx="2.28" cy="2.28" r="2.28" transform="translate(252.685 82.38) rotate(-80.56)"/><path class="b" d="M906.291,602.027s16.061-1.359,45.454.124" transform="translate(-683.942 -491.105)"/><rect class="d" width="221.832" height="18.038" transform="translate(58.606 18.622)"/><line class="g" x2="21.991" transform="translate(166.192 28.899)"/><line class="g" x2="21.991" transform="translate(213.622 28.899)"/><path class="h" d="M1008.4,382.226a.449.449,0,0,0-.371-.191H995.975l-.461-1.393a.472.472,0,0,0-.449-.315H992.01a.466.466,0,0,0,0,.932h2.718l2.943,8.839a.472.472,0,0,0,.449.314h.168a1.663,1.663,0,0,0-.258.865,1.617,1.617,0,1,0,3.223,0,1.561,1.561,0,0,0-.258-.865h2.246a1.651,1.651,0,0,0-.247.865,1.617,1.617,0,1,0,3.223,0,1.662,1.662,0,0,0-.258-.865h.359a.472.472,0,0,0,.472-.472.46.46,0,0,0-.472-.46h-7.862l-.517-1.55h8.761a.46.46,0,0,0,.449-.337l1.337-4.964A.472.472,0,0,0,1008.4,382.226Zm-8.76,9.738a.685.685,0,1,1,.674-.685.685.685,0,0,1-.674.685Zm4.953,0a.685.685,0,1,1,.674-.685.674.674,0,0,1-.674.685Zm1.247-4.964h-1.73v-4.021h1.73Zm-4.4-4.021h1.741V387h-1.741ZM1000.5,387h-1.741v-4.021h1.707Zm-4.223-4.021h1.55V387h-.213Zm10.5,2.37v-2.37h.629Z" transform="translate(-734.911 -358.909)"/><path class="h" d="M1032.276,379.146a3.426,3.426,0,1,0-3.426,3.369A3.425,3.425,0,0,0,1032.276,379.146Z" transform="translate(-755.163 -356.121)"/><path class="d" d="M1030.223,383.042a.416.416,0,0,1-.157-.258.7.7,0,0,1,.18-.629l1.572-1.539a.787.787,0,0,0,.315-.573.438.438,0,0,0-.18-.359.674.674,0,0,0-.427-.135h-.382l-.157.067-.168.1-.146.079a.281.281,0,0,1-.191,0,.337.337,0,0,1-.191-.124.776.776,0,0,1-.112-.213.337.337,0,0,1,0-.236.382.382,0,0,1,.18-.2,2.5,2.5,0,0,1,1.393-.371,1.472,1.472,0,0,1,1.033.393,1.191,1.191,0,0,1,.393.9,1.459,1.459,0,0,1-.18.7,2.178,2.178,0,0,1-.562.663l-1.2.955h1.572a.236.236,0,0,1,.213.124.55.55,0,0,1,.079.281.673.673,0,0,1-.079.3.258.258,0,0,1-.213.124h-2.246a.4.4,0,0,1-.337-.045Z" transform="translate(-757.928 -357.906)"/><path class="h" d="M592.881,393.182h-81.2a5.4,5.4,0,0,1-5.4-5.414h0a5.4,5.4,0,0,1,5.4-5.4h81.2a5.4,5.4,0,0,1,5.4,5.4h0a5.4,5.4,0,0,1-5.4,5.414Z" transform="translate(-444.806 -360.128)"/><line class="i" x2="33.245" transform="translate(79.238 140.438)"/><line class="i" x2="33.245" transform="translate(79.238 146.739)"/><line class="i" x2="33.256" transform="translate(154.32 140.438)"/><line class="i" x2="33.256" transform="translate(154.32 146.739)"/><line class="i" x2="33.245" transform="translate(229.413 140.438)"/><line class="i" x2="33.245" transform="translate(229.413 146.739)"/><path class="j" d="M727.568,820.375l.449-9.648h-13.8l-.921,9.648Z" transform="translate(-568.564 -616.21)"/><path class="j" d="M798.54,820.375l-.472-9.648H784.253l.011,9.648Z" transform="translate(-610.986 -616.21)"/><path class="j" d="M1000.2,845.027h14.758l-3.459-10.31H997.219Z" transform="translate(-738.301 -630.551)"/><path class="j" d="M692.09,820.375l.921-9.648H679.2l-1.37,9.648Z" transform="translate(-547.362 -616.21)"/><path class="j" d="M621.113,820.375l1.831-9.648h-13.8l-2.3,9.648Z" transform="translate(-504.924 -616.21)"/><path class="j" d="M937.751,820.375l-2.314-9.648H921.623l1.853,9.648Z" transform="translate(-693.108 -616.21)"/><path class="j" d="M972.561,820.375l-2.785-9.648h-13.8l2.314,9.648Z" transform="translate(-713.643 -616.21)"/><path class="j" d="M585.619,820.375l2.3-9.648H574.107l-2.763,9.648Z" transform="translate(-483.705 -616.21)"/><path class="j" d="M833.35,820.375l-.932-9.648H818.6l.472,9.648Z" transform="translate(-631.521 -616.21)"/><path class="j" d="M1007.354,820.375l-3.246-9.648H990.293l2.785,9.648Z" transform="translate(-734.16 -616.21)"/><path class="j" d="M902.941,820.375l-1.853-9.648H887.274l1.393,9.648Z" transform="translate(-672.573 -616.21)"/><path class="j" d="M868.148,820.375l-1.393-9.648h-13.8l.932,9.648Z" transform="translate(-652.055 -616.21)"/><path class="j" d="M763.062,820.375l-.011-9.648H749.236l-.449,9.648Z" transform="translate(-589.784 -616.21)"/><path class="j" d="M508.77,834.716H494.5l-3.942,10.31h14.769Z" transform="translate(-435.406 -630.551)"/><path class="j" d="M517.854,810.728h-13.8l-3.7,9.648H514.63Z" transform="translate(-441.266 -616.21)"/><path class="j" d="M550.124,820.375l2.763-9.648H539.073l-3.223,9.648Z" transform="translate(-462.486 -616.21)"/><path class="j" d="M473.308,887.832l-4.537,11.883h15.87l3.965-11.883Z" transform="translate(-422.385 -662.305)"/><path class="j" d="M499.045,860.353H484.276L480.053,871.4h15.3Z" transform="translate(-429.129 -645.877)"/><path class="j" d="M512.195,887.832l-3.965,11.883H524.1l3.392-11.883Z" transform="translate(-445.974 -662.305)"/><path class="j" d="M656.607,820.375l1.37-9.648H644.163l-1.831,9.648Z" transform="translate(-526.143 -616.21)"/><path class="j" d="M652.2,845.027l1.483-10.31H639.411l-1.965,10.31Z" transform="translate(-523.221 -630.551)"/><path class="j" d="M615.491,845.027l1.966-10.31H603.182l-2.46,10.31Z" transform="translate(-501.268 -630.551)"/><path class="j" d="M688.91,845.027l.977-10.31H675.623l-1.483,10.31Z" transform="translate(-545.158 -630.551)"/><path class="j" d="M545,834.716H530.724l-3.448,10.31h14.769Z" transform="translate(-457.36 -630.551)"/><path class="j" d="M1007.8,871.4h15.3l-3.718-11.052H1004.62Z" transform="translate(-742.725 -645.877)"/><path class="j" d="M578.768,845.027l2.46-10.31H566.953L564,845.027Z" transform="translate(-479.314 -630.551)"/><path class="j" d="M521.783,860.353l-3.7,11.052h15.3l3.167-11.052Z" transform="translate(-451.868 -645.877)"/><path class="j" d="M907,845.027l-1.988-10.31H890.736l1.494,10.31Z" transform="translate(-674.643 -630.551)"/><path class="j" d="M871.028,845.027l-1.494-10.31H855.27l.988,10.31Z" transform="translate(-653.441 -630.551)"/><path class="j" d="M978.976,845.027,976,834.716H961.725l2.482,10.31Z" transform="translate(-717.082 -630.551)"/><path class="j" d="M762.356,845.027l-.011-10.31H748.069l-.483,10.31Z" transform="translate(-589.066 -630.551)"/><path class="j" d="M835.039,845.027l-.988-10.31H819.776l.505,10.31Z" transform="translate(-632.222 -630.551)"/><path class="j" d="M799.062,845.027l-.505-10.31H784.281l.011,10.31Z" transform="translate(-611.003 -630.551)"/><path class="j" d="M725.633,845.027l.483-10.31H711.84l-.977,10.31Z" transform="translate(-567.112 -630.551)"/><path class="j" d="M857.728,860.353l1.078,11.052h15.286L872.5,860.353Z" transform="translate(-654.91 -645.877)"/><path class="j" d="M894.451,860.353l1.595,11.052h15.3l-2.123-11.052Z" transform="translate(-676.864 -645.877)"/><path class="j" d="M559.291,860.353,556.124,871.4h15.3l2.639-11.052Z" transform="translate(-474.606 -645.877)"/><path class="j" d="M931.174,860.353,933.3,871.4h15.3l-2.651-11.052Z" transform="translate(-698.818 -645.877)"/><path class="j" d="M784.309,860.353l.011,11.052h15.3l-.539-11.052Z" transform="translate(-611.019 -645.877)"/><path class="j" d="M967.9,860.353l2.651,11.052h15.3l-3.179-11.052Z" transform="translate(-720.771 -645.877)"/><path class="j" d="M821.032,860.353l.539,11.052h15.3l-1.078-11.052Z" transform="translate(-632.973 -645.877)"/><path class="j" d="M634.306,860.353,632.195,871.4h15.3l1.572-11.052Z" transform="translate(-520.083 -645.877)"/><path class="j" d="M596.8,860.353,594.159,871.4h15.3l2.112-11.052Z" transform="translate(-497.344 -645.877)"/><path class="j" d="M746.818,860.353,746.3,871.4h15.3l-.011-11.052Z" transform="translate(-588.298 -645.877)"/><path class="j" d="M709.311,860.353,708.266,871.4h15.3l.517-11.052Z" transform="translate(-565.559 -645.877)"/><path class="j" d="M671.8,860.353,670.231,871.4h15.3l1.045-11.052Z" transform="translate(-542.821 -645.877)"/><path class="j" d="M942.988,845.027l-2.482-10.31H926.231l1.988,10.31Z" transform="translate(-695.862 -630.551)"/><path class="j" d="M523.346,796.036l3.3-9.884H513.305l-3.763,9.884Z" transform="translate(-446.759 -601.519)"/><path class="j" d="M484.467,810.728H471.708l-4.111,9.648h13.174Z" transform="translate(-421.683 -616.21)"/><path class="j" d="M494.34,786.152H482.03l-4.212,9.884h12.759Z" transform="translate(-427.794 -601.519)"/><path class="j" d="M474.244,834.716H461.07l-4.392,10.31H470.3Z" transform="translate(-415.156 -630.551)"/><path class="j" d="M463.29,860.353H449.666L444.949,871.4h14.118Z" transform="translate(-408.144 -645.877)"/><path class="j" d="M451.538,887.832H437.42l-5.065,11.883H447Z" transform="translate(-400.614 -662.305)"/><path class="j" d="M1068.18,834.716l3.965,10.31h13.062l-4.392-10.31Z" transform="translate(-780.722 -630.551)"/><path class="j" d="M1082.283,871.4h13.534l-4.717-11.052h-13.062Z" transform="translate(-786.616 -645.877)"/><path class="j" d="M1093.154,899.715h14.039l-5.065-11.883h-13.534Z" transform="translate(-792.926 -662.305)"/><path class="j" d="M798.052,796.036l-.483-9.884H784.226l.011,9.884Z" transform="translate(-610.969 -601.519)"/><path class="j" d="M1062.687,820.375h12.635l-4.111-9.648h-12.22Z" transform="translate(-775.23 -616.21)"/><path class="j" d="M1045.032,871.4h15.3l-4.245-11.052h-14.769Z" transform="translate(-764.662 -645.877)"/><path class="j" d="M557.679,796.036l2.83-9.884H547.166l-3.3,9.884Z" transform="translate(-467.277 -601.519)"/><path class="j" d="M1024.643,810.728l3.246,9.648h14.264l-3.7-9.648Z" transform="translate(-754.695 -616.21)"/><path class="j" d="M1065.569,796.036l-4.212-9.884h-11.8l3.8,9.884Z" transform="translate(-769.587 -601.519)"/><path class="j" d="M1033.532,796.036l-3.8-9.884H1016.4l3.313,9.884Z" transform="translate(-749.77 -601.519)"/><path class="j" d="M936.452,887.832l2.291,11.883H954.6l-2.853-11.883Z" transform="translate(-701.973 -662.305)"/><path class="j" d="M1054.546,899.715h15.87l-4.56-11.883h-15.3Z" transform="translate(-770.188 -662.305)"/><path class="j" d="M999.884,796.036l-3.313-9.884H983.228l2.842,9.884Z" transform="translate(-729.937 -601.519)"/><path class="j" d="M1012.523,887.832l3.426,11.883h15.859l-3.987-11.883Z" transform="translate(-747.45 -662.305)"/><path class="j" d="M974.487,887.832l2.853,11.883h15.87l-3.426-11.883Z" transform="translate(-724.711 -662.305)"/><path class="j" d="M1036.173,845.027h14.769l-3.965-10.31h-14.264Z" transform="translate(-759.52 -630.551)"/><path class="j" d="M695.048,796.036l.932-9.884H682.637l-1.4,9.884Z" transform="translate(-549.399 -601.519)"/><path class="j" d="M966.236,796.036l-2.842-9.884H950.052l2.381,9.884Z" transform="translate(-710.103 -601.519)"/><path class="j" d="M660.7,796.036l1.4-9.884H648.771l-1.887,9.884Z" transform="translate(-528.864 -601.519)"/><path class="j" d="M763.719,796.036l-.011-9.884H750.376l-.472,9.884Z" transform="translate(-590.451 -601.519)"/><path class="j" d="M626.366,796.036l1.887-9.884H614.91l-2.347,9.884Z" transform="translate(-508.346 -601.519)"/><path class="j" d="M592.028,796.036l2.347-9.884H581.044l-2.83,9.884Z" transform="translate(-487.812 -601.519)"/><path class="j" d="M729.386,796.036l.472-9.884H716.515l-.932,9.884Z" transform="translate(-569.933 -601.519)"/><path class="j" d="M932.616,796.036l-2.381-9.884H916.9l1.9,9.884Z" transform="translate(-690.286 -601.519)"/><path class="j" d="M898.968,796.036l-1.9-9.884H883.727l1.426,9.884Z" transform="translate(-670.453 -601.519)"/><path class="j" d="M831.7,796.036l-.966-9.884H817.4l.483,9.884Z" transform="translate(-630.803 -601.519)"/><path class="j" d="M704.043,887.832H551.082l-3.392,11.883H706.334Z" transform="translate(-469.564 -662.305)"/><path class="j" d="M865.32,796.036l-1.426-9.884H850.55l.966,9.884Z" transform="translate(-650.62 -601.519)"/><rect class="a" width="339.965" height="4.83" transform="translate(0 258.267)"/></g><g transform="translate(201.999 411.159)"><path class="b" d="M334.875,953.75s25.114-52.653,28.977-62.8,57.965-35.75,60.863-40.613,6.739-19.8,9.67-26.079.483-8.7,2.415-14.017,5.312-11.591.483-11.591-11.108,5.313-13.534,14.006-12.074,15.949-12.074,15.949l.483-5.8c.483-5.807,6.278-23.676,8.693-27.54s16.915-19.318,18.846-19.8,6.278,3.864,10.625,3.864,5.313-3.369,2.9-5.312-4.347-8.221-10.108-12.085-12.074,0-12.074,0a76.661,76.661,0,0,0-5.312-7.727c-2.426-2.9-7.256-7.727-13.534-9.176a12.58,12.58,0,0,0-10.625,2.415,54.425,54.425,0,0,0-6.739-.966c-4.83-.483-8.21,2.415-13.04,10.108S369.22,779.3,369.22,779.3s1.932-14.017,1.932-19.812.483-12.074-1.932-14.489-4.829.483-5.8,9.176-12.074,39.13-13.478,47.341-16.9,53.619-25.125,65.221-52.653,62.312-52.653,62.312m132.262-146.3s6.739-19.329,8.693-19.329,9.176,5.313,9.176,5.313Z" transform="translate(-272.169 -744.185)"/><path class="k" d="M397.088,886.9s8.233-25.754,9.6-32.38c.977-4.672,4.436.775,4.436.775s6.739-4.818,6.739-.775a12.231,12.231,0,0,0,2.527,7.087s-1.516-7.087,5.616-9.109,10.108,1.011,8.6,9.109,1.011,5.054,2.527,3.032-.505-7.087,8.6-10.625,14.174,0,12.647,7.592-4.043,14.163-4.043,25.293,2.022,21.25,4.043,21.25,13.163-11.636,15.185-4.043-2.022,7.593-12.647,16.69-38.456,16.7-43.005,25.832S410.33,961.3,407.3,961.8s-8.1-17.7-22.777-15.724-29.853,16.7-26.3,10.625,16.69-15.724,24.282-32.886S397.088,886.9,397.088,886.9Z" transform="translate(-323.297 -808.574)"/><path class="l" d="M397.088,886.9s8.233-25.754,9.6-32.38c.977-4.672,4.436.775,4.436.775s6.739-4.818,6.739-.775a12.231,12.231,0,0,0,2.527,7.087s-1.516-7.087,5.616-9.109,10.108,1.011,8.6,9.109,1.011,5.054,2.527,3.032-.505-7.087,8.6-10.625,14.174,0,12.647,7.592-4.043,14.163-4.043,25.293,2.022,21.25,4.043,21.25,13.163-11.636,15.185-4.043-2.022,7.593-12.647,16.69-38.456,16.7-43.005,25.832S410.33,961.3,407.3,961.8s-8.1-17.7-22.777-15.724-29.853,16.7-26.3,10.625,16.69-15.724,24.282-32.886S397.088,886.9,397.088,886.9Z" transform="translate(-323.297 -808.574)"/><path class="b" d="M548.979,752.39s-13.478,23.193-16.42,28.022-5.312,9.176-8.7,11.108-5.8,6.278-4.83,7.727" transform="translate(-419.615 -749.09)"/><path class="b" d="M486.078,831.672a26.643,26.643,0,0,1-5.8,7.244c-3.864,3.369-8.21,6.278-9.176,10.108a18.982,18.982,0,0,1-3.369,6.739" transform="translate(-389.083 -796.486)"/><path class="b" d="M578.074,840.078s-9.659,6.278-12.074,8.21-3.369,6.278-3.369,6.278" transform="translate(-445.812 -801.512)"/><line class="b" x1="8.704" y2="6.761" transform="translate(150.131 17.788)"/><path class="b" d="M998.966,929.676s-43.96-42.983-47.341-51.665-2.415-10.625-5.312-16.847-11.591-16.971-12.074-24.709-4.346-26.091-4.346-32.369-1.449-15.454-3.37-16.9-12.568-3.875-12.568-3.875-5.8-18.352-10.108-19.318-13.085,3.83-13.085,3.83-1.932-3.369-4.347-8.693-6.739-5.312-12.074-3.369-15.949,6.278-15.949,6.278-12.074-9.176-15.937-3.369-8.693,16.42-9.659,20.284,5.717,3.729,7.166,2.763,6.885-4.964,6.885-4.964,10.58,8,12.512,12.355,5.8,24.631,6.278,28.494-1.449,15.938-1.449,15.938-9.176-16.42-13.478-21.25-10.625-7.727-15.455-7.727-8.21,5.313-4.346,7.727,8.21,5.312,9.176,8.693,10.625,20.778,11.591,27.057,7.727,18.835,14.006,22.7,29.471,8.693,33.818,13.051,35.267,65.693,35.267,65.693M867.086,771.189h7.739l8.21,15.949Z" transform="translate(-605.191 -750.391)"/><path class="k" d="M972.479,870.763s-5.616-15.724-12.141-12.647-7.593,4.56-7.593,4.56-3.549-5.616-9.614-3.549-8.1-2.022-8.1-2.022-8.1-5.054-13.152-1.011-1.011,15.174,1.011,24.282-2.527,26.821-3.538,28.337-14.68-4.549-16.2,1.011,4.549,17.712,16.7,21.755,21.25,6.076,25.832,10.625,16.2,37.446,26.315,39.973,21.25-12.141,31.875-11.13,24.282,8.6,18.723,2.022-28.842-30.325-30.325-38.951-7.087-14.68-9.614-18.723-7.1-28.337-8.671-34.93A48.864,48.864,0,0,1,972.479,870.763Z" transform="translate(-649.249 -810.15)"/><path class="l" d="M972.479,870.763s-5.616-15.724-12.141-12.647-7.593,4.56-7.593,4.56-3.549-5.616-9.614-3.549-8.1-2.022-8.1-2.022-8.1-5.054-13.152-1.011-1.011,15.174,1.011,24.282-2.527,26.821-3.538,28.337-14.68-4.549-16.2,1.011,4.549,17.712,16.7,21.755,21.25,6.076,25.832,10.625,16.2,37.446,26.315,39.973,21.25-12.141,31.875-11.13,24.282,8.6,18.723,2.022-28.842-30.325-30.325-38.951-7.087-14.68-9.614-18.723-7.1-28.337-8.671-34.93A48.864,48.864,0,0,1,972.479,870.763Z" transform="translate(-649.249 -810.15)"/><path class="b" d="M982.223,787.521l6.739,12.557s2.752,6.593,5.537,9.367,5.211,4.863,6.256,8.345,1.381,5.211,1.381,5.211" transform="translate(-696.652 -770.092)"/><line class="b" x2="6.773" y2="14.017" transform="translate(308.752 32.917)"/><line class="b" x2="8.693" y2="9.176" transform="translate(253.202 11.667)"/><path class="b" d="M1061.2,868.9a63.6,63.6,0,0,0,1.045,8.693" transform="translate(-743.865 -818.741)"/><path class="b" d="M974.794,848.959s4.167,3.122,4.863,7.289" transform="translate(-692.211 -806.82)"/><path class="b" d="M867.355,803.05s-3.819-1.527-3.819-4.582" transform="translate(-625.699 -776.636)"/><path class="b" d="M938.489,788.77s-2.763-2.123-2.763-4.8" transform="translate(-668.855 -767.972)"/></g></g></svg>