<svg xmlns="http://www.w3.org/2000/svg" width="743.094" height="469.462" viewBox="0 0 743.094 469.462"><defs><style>.a{fill:#263238;}.b{fill:#fff;}.c{fill:#e0e0e0;}.d{fill:#455a64;}.e{fill:#18cea9;}.f{fill:#ebebeb;}.g{fill:#eb996e;}.h{fill:#ffbe9d;}.i{opacity:0.6;}.j{fill:#fafafa;}.k{opacity:0.3;}.l{opacity:0.2;}.m{fill:#d9b500;}</style></defs><g transform="translate(-66.94 -90.144)"><g transform="translate(66.94 558.98)"><path class="a" d="M809.214,472.223c0,.18-166.359.313-371.535.313S66.12,472.4,66.12,472.223s166.323-.313,371.559-.313S809.214,472.018,809.214,472.223Z" transform="translate(-66.12 -471.91)"/></g><g transform="translate(219.73 90.144)"><rect class="a" width="9.587" height="175.753" transform="translate(213.765 293.396)"/><path class="a" d="M317.12,483.022l66.9-64.342,4.8,4.282-62.333,60.06Z" transform="translate(-167.986 -13.873)"/><path class="a" d="M444.34,482.878l-66.772-64.2-4.787,4.282,62.321,60.06Z" transform="translate(-156.694 -13.873)"/><rect class="b" width="431.908" height="314.819" transform="translate(3.885 8.48)"/><path class="a" d="M628.31,404.07c0-2.105-.108-123.9-.265-314.807l.265.253H196.475l.313-.313V404.01l-.289-.277,431.908.277L196.5,404.3h-.289V88.89H628.647v.253C628.406,280.137,628.31,401.977,628.31,404.07Z" transform="translate(-192.517 -80.783)"/><path class="a" d="M242.859,116.67H239.25v-.95h8.42v.95h-3.609v9.455h-1.095Z" transform="translate(-183.785 -75.339)"/><path class="a" d="M246.77,120.95a5.461,5.461,0,1,1,5.461,5.293,5.233,5.233,0,0,1-5.461-5.293Zm9.816,0a4.366,4.366,0,1,0-4.354,4.306,4.222,4.222,0,0,0,4.354-4.306Z" transform="translate(-182.26 -75.42)"/><path class="a" d="M261.13,115.72h4.234c3.32,0,5.569,2.141,5.569,5.2s-2.249,5.208-5.569,5.208H261.13Zm4.174,9.455a4.258,4.258,0,1,0,0-8.5h-3.128v8.5Z" transform="translate(-179.346 -75.339)"/><path class="a" d="M270.57,120.95a5.461,5.461,0,1,1,5.461,5.293,5.233,5.233,0,0,1-5.461-5.293Zm9.816,0a4.366,4.366,0,1,0-4.354,4.306,4.222,4.222,0,0,0,4.354-4.306Z" transform="translate(-177.431 -75.42)"/><path class="a" d="M371.609,115.72l-3.5,10.4h-1.2l-3.043-8.865-3.079,8.865H359.64l-3.5-10.4h1.131l3,8.949,3.1-8.949h1.022l3.067,8.986,3.043-8.986Z" transform="translate(-160.07 -75.339)"/><path class="a" d="M369.8,120.95a5.461,5.461,0,1,1,5.461,5.293,5.233,5.233,0,0,1-5.461-5.293Zm9.816,0a4.366,4.366,0,1,0-4.354,4.306,4.21,4.21,0,0,0,4.4-4.306Z" transform="translate(-157.299 -75.42)"/><path class="a" d="M388.031,126.131l-2.406-3.344H382v3.308H380.91v-10.4H384.8c2.646,0,4.246,1.335,4.246,3.609a3.224,3.224,0,0,1-2.406,3.26l2.538,3.609Zm-.06-6.832c0-1.672-1.107-2.622-3.176-2.622h-2.767V121.9H384.8C386.864,121.9,387.971,120.874,387.971,119.3Z" transform="translate(-155.044 -75.345)"/><path class="a" d="M393.072,121.229l-2.117,2.153v2.743H389.86v-10.4h1.095v6.351l6.1-6.291h1.263l-4.5,4.715,4.812,5.69h-1.3Z" transform="translate(-153.229 -75.339)"/><path class="a" d="M465.11,115.72h4.234c3.332,0,5.569,2.141,5.569,5.2s-2.237,5.208-5.569,5.208H465.11Zm4.174,9.455a4.258,4.258,0,1,0,0-8.5h-3.1v8.5Z" transform="translate(-137.962 -75.339)"/><path class="a" d="M474.55,120.95a5.461,5.461,0,1,1,5.461,5.293,5.233,5.233,0,0,1-5.461-5.293Zm9.816,0a4.366,4.366,0,1,0-4.354,4.306,4.21,4.21,0,0,0,4.354-4.306Z" transform="translate(-136.047 -75.42)"/><path class="a" d="M494.365,115.72v10.4h-.9l-6.688-8.42v8.42H485.68v-10.4h.9l6.7,8.42v-8.42Z" transform="translate(-133.788 -75.339)"/><path class="a" d="M503.07,125.175v.95h-7.35v-10.4h7.133v.95h-6.014v3.7h5.377v.938h-5.377v3.861Z" transform="translate(-131.751 -75.339)"/><path class="a" d="M607.854,148.593c0,.168-87.414.313-195.216.313s-195.228-.144-195.228-.313,87.39-.313,195.228-.313S607.854,148.424,607.854,148.593Z" transform="translate(-188.216 -68.733)"/><path class="a" d="M318.053,401.842c-.168,0-.313-67.6-.313-150.974s.144-151,.313-151,.313,67.59.313,151S318.221,401.842,318.053,401.842Z" transform="translate(-167.861 -78.555)"/><path class="a" d="M437.153,401.842c-.18,0-.313-67.6-.313-150.974s.132-151,.313-151,.313,67.59.313,151S437.321,401.842,437.153,401.842Z" transform="translate(-143.697 -78.555)"/><path class="c" d="M259.129,158.42s-3.019,27.534.854,42.606l36.784-1.612s-7.879-27.149-3.043-39.178Z" transform="translate(-179.979 -66.676)"/><path class="c" d="M218.728,171s-3.007,27.534.866,42.606l36.772-1.612s-7.879-27.161-3.031-39.19Z" transform="translate(-188.174 -64.124)"/><path class="d" d="M258.94,158.42s.253,29.723,1.756,38.793l37.289-1.768s-3.272-29.218-2.009-37.025Z" transform="translate(-179.79 -66.676)"/><path class="b" d="M275.6,161.921h.541a8.685,8.685,0,0,1,1.552.084,8.421,8.421,0,0,1,2.406.7,7.819,7.819,0,0,1,2.586,2.045,9.046,9.046,0,0,1,1.78,3.609,8.612,8.612,0,0,1-.385,4.607,14.083,14.083,0,0,1-1.047,2.31,23.454,23.454,0,0,0-1.2,2.322,19.931,19.931,0,0,0-1.5,5.293v.12H276.5l-3.861.06h-.144v-.132a10.958,10.958,0,0,0-1.792-5.1c-.445-.758-.938-1.48-1.4-2.2a23.177,23.177,0,0,1-1.311-2.141,7.218,7.218,0,0,1-.577-4.535,9.624,9.624,0,0,1,1.431-3.717,7.048,7.048,0,0,1,2.406-2.177,8.589,8.589,0,0,1,2.285-.89,11.519,11.519,0,0,1,1.528-.253h0a10.418,10.418,0,0,0-1.5.289,9.756,9.756,0,0,0-2.237.914,7.049,7.049,0,0,0-2.346,2.165,9.478,9.478,0,0,0-1.371,3.609,6.917,6.917,0,0,0,.589,4.391,22.15,22.15,0,0,0,1.3,2.105c.457.722.95,1.443,1.407,2.213a11.187,11.187,0,0,1,1.84,5.221l-.144-.132,3.861-.06,3.681-.06-.132.12a19.787,19.787,0,0,1,1.54-5.365,22.643,22.643,0,0,1,1.2-2.346,13.458,13.458,0,0,0,1.035-2.141,8.42,8.42,0,0,0,.409-4.487,8.661,8.661,0,0,0-1.72-3.512,7.518,7.518,0,0,0-2.49-2.033,8.889,8.889,0,0,0-2.322-.734,9.3,9.3,0,0,0-1.54-.12h-.541Z" transform="translate(-178.099 -65.967)"/><path class="b" d="M276.874,181.433a.784.784,0,0,1,0-.12v-.337c0-.313-.12-.758-.2-1.335-.168-1.2-.421-2.827-.589-4.92,0-.517-.072-1.071-.1-1.636s0-1.2,0-1.78a5.172,5.172,0,0,1,.421-1.864,2.791,2.791,0,0,1,1.431-1.419,1.865,1.865,0,0,1,2.021.385,1.371,1.371,0,0,1,.433,1.01,1.8,1.8,0,0,1-.373,1.071,2.406,2.406,0,0,1-.9.722,4.449,4.449,0,0,1-1.107.373,13.736,13.736,0,0,1-2.406.277,13.954,13.954,0,0,1-2.406-.12,4.187,4.187,0,0,1-1.131-.325,3.02,3.02,0,0,1-.938-.662,2.321,2.321,0,0,1-.541-1,1.744,1.744,0,0,1,.132-1.107,1.5,1.5,0,0,1,.782-.758,1.347,1.347,0,0,1,1.059,0,2.069,2.069,0,0,1,.794.674,2.61,2.61,0,0,1,.4.926,11.836,11.836,0,0,1,.192,1.9c.06,1.2.12,2.406.18,3.416.1,2.081.18,3.777.241,4.944a8.272,8.272,0,0,0,.06,1.347.53.53,0,0,1,0,.349v.12a.432.432,0,0,1,0-.12V181.1a8.886,8.886,0,0,0-.084-1.347c-.072-1.2-.168-2.851-.289-4.932-.06-1.047-.12-2.189-.192-3.416a12.894,12.894,0,0,0-.192-1.889,2.671,2.671,0,0,0-.385-.89,2.009,2.009,0,0,0-.746-.638,1.3,1.3,0,0,0-.974,0,1.383,1.383,0,0,0-.722.71,1.612,1.612,0,0,0-.132,1.034,2.069,2.069,0,0,0,.517.938,3.368,3.368,0,0,0,2,.962,13.76,13.76,0,0,0,2.346.108,13.591,13.591,0,0,0,2.334-.265,4.811,4.811,0,0,0,1.083-.361,2.406,2.406,0,0,0,.854-.686,1.756,1.756,0,0,0,.361-1.01,1.335,1.335,0,0,0-.4-.938,1.816,1.816,0,0,0-1.913-.361,2.718,2.718,0,0,0-1.371,1.371A4.871,4.871,0,0,0,276,171.3v1.78a10.346,10.346,0,0,0,.084,1.636c.156,2.081.4,3.753.541,4.92.084.565.144,1.022.192,1.323v.349a.991.991,0,0,1,.06.12Z" transform="translate(-177.455 -64.777)"/><path class="b" d="M271.711,179.349q.078.6.1,1.2c0,.9.108,1.985.168,3.236V183.7l2.5,2.9h-.132l2.911-.156-.132.06c.469-.577.95-1.2,1.455-1.768l.722-.878v.108c0-1.7-.084-3.308-.12-4.812l.168.144-5.425.06h-1.564a3.437,3.437,0,0,1-.589,0,3.067,3.067,0,0,1,.517,0l1.528-.072,5.461-.289h.156v.156c0,1.468.1,3.079.144,4.812v.072h0l-.722.878-1.455,1.768h-.072l-2.9.144h-.084l-2.466-2.935h0v-3.32A4.253,4.253,0,0,1,271.711,179.349Z" transform="translate(-177.2 -62.501)"/><path class="b" d="M279.161,182.949l-.277-.12a7.054,7.054,0,0,0-.758-.3,7.518,7.518,0,0,0-2.622-.4,7.217,7.217,0,0,0-2.586.553,7.366,7.366,0,0,0-.734.349l-.265.132a2.076,2.076,0,0,1,.241-.168,6.066,6.066,0,0,1,.722-.385,7.026,7.026,0,0,1,2.622-.6,7.11,7.11,0,0,1,2.658.445c.313.12.565.241.746.325A1.047,1.047,0,0,1,279.161,182.949Z" transform="translate(-177.157 -61.89)"/><path class="b" d="M279.161,181.977a.538.538,0,0,1-.277-.12,3.233,3.233,0,0,0-.758-.289,7.217,7.217,0,0,0-5.208.156l-.734.337-.265.132.241-.168a6.335,6.335,0,0,1,.722-.373,6.8,6.8,0,0,1,2.622-.6,7.012,7.012,0,0,1,2.646.433,5.161,5.161,0,0,1,.746.337Z" transform="translate(-177.157 -62.085)"/><path class="b" d="M279.1,181.057l-.277-.108a6.682,6.682,0,0,0-.746-.3,7.434,7.434,0,0,0-5.954.505l-.265.132.241-.18a7.918,7.918,0,0,1,.734-.373,6.953,6.953,0,0,1,2.61-.6,7.133,7.133,0,0,1,2.658.433c.325.132.577.253.746.337Z" transform="translate(-177.169 -62.272)"/><path class="e" d="M218.31,171s.253,29.723,1.756,38.793l37.289-1.768s-3.332-29.17-2.021-37.025Z" transform="translate(-188.033 -64.124)"/><path class="b" d="M248.64,181.431c0,.168-5.581.65-12.486,1.059s-12.522.613-12.534.445,5.581-.65,12.5-1.071S248.628,181.262,248.64,181.431Z" transform="translate(-186.956 -62.02)"/><path class="b" d="M248.65,186.66a123.656,123.656,0,0,1-12.486,1.071,124.006,124.006,0,0,1-12.534.433c0-.168,5.581-.65,12.486-1.059S248.638,186.492,248.65,186.66Z" transform="translate(-186.954 -60.959)"/><path class="b" d="M241.564,191.807a41.68,41.68,0,0,1-7.109.746,40.514,40.514,0,0,1-7.145.108,41.019,41.019,0,0,1,7.109-.734A41.3,41.3,0,0,1,241.564,191.807Z" transform="translate(-186.207 -59.923)"/><path class="f" d="M276.128,197.75s-3.007,27.534.866,42.606l36.784-1.612s-7.891-27.161-3.043-39.19Z" transform="translate(-176.529 -58.697)"/><path class="e" d="M276.06,197s.253,29.723,1.768,38.793l37.289-1.756s-3.272-29.218-2.009-37.037Z" transform="translate(-176.317 -58.849)"/><path class="b" d="M306.388,207.4a123.666,123.666,0,0,1-12.486,1.071,123.745,123.745,0,0,1-12.522.433c0-.168,5.581-.65,12.486-1.059S306.388,207.232,306.388,207.4Z" transform="translate(-175.237 -56.751)"/><path class="b" d="M306.4,212.633c0,.168-5.581.65-12.486,1.059s-12.51.613-12.522.445a123.647,123.647,0,0,1,12.486-1.071,123.738,123.738,0,0,1,12.522-.433Z" transform="translate(-175.235 -55.68)"/><path class="b" d="M299.324,217.789a42.691,42.691,0,0,1-7.109.734,41.27,41.27,0,0,1-7.145.12,40.081,40.081,0,0,1,7.109-.746A39.179,39.179,0,0,1,299.324,217.789Z" transform="translate(-174.489 -54.654)"/><path class="f" d="M269.789,293.66s-3.019,27.534.854,42.606l36.784-1.612s-7.879-27.149-3.043-39.178Z" transform="translate(-177.816 -39.238)"/><path class="e" d="M269.72,292.93s.253,29.723,1.768,38.781l37.289-1.756s-3.284-29.218-2.021-37.025Z" transform="translate(-177.603 -39.386)"/><path class="b" d="M300.05,303.313c0,.168-5.581.65-12.486,1.059s-12.522.613-12.534.445a124.144,124.144,0,0,1,12.5-1.071A123.751,123.751,0,0,1,300.05,303.313Z" transform="translate(-176.526 -37.283)"/><path class="b" d="M300.06,308.55c0,.168-5.581.65-12.486,1.071s-12.522.6-12.534.433,5.581-.65,12.5-1.059S300.048,308.382,300.06,308.55Z" transform="translate(-176.524 -36.229)"/><path class="b" d="M292.974,313.7a41.019,41.019,0,0,1-7.109.734,41.292,41.292,0,0,1-7.145.12,41.685,41.685,0,0,1,7.109-.746,40.515,40.515,0,0,1,7.145-.108Z" transform="translate(-175.777 -35.194)"/><path class="f" d="M226.8,275.15s-3.007,27.534.866,42.606l36.784-1.612S256.569,289,261.4,276.966Z" transform="translate(-186.537 -42.993)"/><path class="e" d="M226.74,274.42s.253,29.723,1.756,38.793l37.289-1.768s-3.272-29.218-2.009-37.025Z" transform="translate(-186.323 -43.141)"/><path class="b" d="M257.07,284.8c0,.168-5.581.65-12.5,1.059s-12.51.613-12.522.445a123.658,123.658,0,0,1,12.486-1.071,124,124,0,0,1,12.534-.433Z" transform="translate(-185.246 -41.038)"/><path class="b" d="M257.08,290.007c0,.168-5.593.65-12.5,1.071a123.732,123.732,0,0,1-12.522.433c0-.168,5.581-.65,12.486-1.059S257.068,289.875,257.08,290.007Z" transform="translate(-185.244 -39.988)"/><path class="b" d="M249.994,295.187a41.681,41.681,0,0,1-7.109.746,40.518,40.518,0,0,1-7.145.108,41.015,41.015,0,0,1,7.109-.734,41.3,41.3,0,0,1,7.145-.12Z" transform="translate(-184.497 -38.948)"/><path class="f" d="M386.248,278.56s-3.007,27.534.866,42.606l36.772-1.612s-7.879-27.149-3.031-39.19Z" transform="translate(-154.187 -42.301)"/><path class="e" d="M386.18,277.83s.253,29.711,1.768,38.781l37.289-1.756s-3.272-29.218-2.021-37.025Z" transform="translate(-153.975 -42.45)"/><path class="b" d="M416.508,288.21a123.656,123.656,0,0,1-12.486,1.071c-6.9.421-12.51.613-12.522.445a123.658,123.658,0,0,1,12.486-1.071C410.891,288.234,416.5,288.042,416.508,288.21Z" transform="translate(-152.896 -40.356)"/><path class="b" d="M416.52,293.443c0,.168-5.581.65-12.486,1.059s-12.522.613-12.534.445,5.581-.65,12.5-1.071a123.76,123.76,0,0,1,12.522-.433Z" transform="translate(-152.896 -39.285)"/><path class="b" d="M409.4,298.6a40.814,40.814,0,0,1-7.109.734,41.293,41.293,0,0,1-7.145.12,41.886,41.886,0,0,1,7.109-.746A40.486,40.486,0,0,1,409.4,298.6Z" transform="translate(-152.155 -38.258)"/><path class="f" d="M278.065,223.028s-3.753,27.45-11.151,41.127l-35.3-10.465s14.23-24.443,12.438-37.289Z" transform="translate(-185.335 -54.913)"/><path class="d" d="M278.192,222.681s-7.446,28.773-11.1,37.205l-35.75-10.73S241.6,221.6,242.262,213.72Z" transform="translate(-185.39 -55.456)"/><path class="b" d="M242.44,224.92a124.945,124.945,0,0,1,12.029,3.452,123.5,123.5,0,0,1,11.86,4.066c0,.156-5.437-1.383-12.029-3.464a123.1,123.1,0,0,1-11.86-4.054Z" transform="translate(-183.138 -53.184)"/><path class="b" d="M241.16,230c.06-.156,5.449,1.383,12.029,3.464s11.909,3.9,11.86,4.054-5.449-1.383-12.029-3.452S241.112,230.158,241.16,230Z" transform="translate(-183.398 -52.155)"/><path class="b" d="M245,236.26a39.7,39.7,0,0,1,6.9,1.84,39.44,39.44,0,0,1,6.712,2.406,41.873,41.873,0,0,1-6.9-1.852A42.5,42.5,0,0,1,245,236.26Z" transform="translate(-182.618 -50.883)"/><path class="f" d="M308.662,246s3.019,27.534-.854,42.606L271,286.9s7.879-27.161,3.043-39.19Z" transform="translate(-177.343 -48.907)"/><path class="d" d="M271.765,240.6s-2.514,32.983-4.535,39.286l33.5,3.524,5.04-4.812s3.272-24.178,2.767-31.985Z" transform="translate(-178.108 -50.003)"/><path class="a" d="M295.858,272l-.758,5.04,5.04-4.788Z" transform="translate(-172.454 -43.632)"/><path class="b" d="M300.309,255.758a26.207,26.207,0,0,1-3.753-.433l-9.022-1.275-9.034-1.131a25.547,25.547,0,0,1-3.741-.553,21.156,21.156,0,0,1,3.789.12c2.322.168,5.545.481,9.07.95s6.724,1,9.01,1.443a20.365,20.365,0,0,1,3.681.878Z" transform="translate(-176.581 -47.623)"/><path class="b" d="M298.961,261.421a19.332,19.332,0,0,1-3.609-.12c-2.237-.156-5.317-.457-8.7-.878s-6.447-.914-8.649-1.311a21.44,21.44,0,0,1-3.536-.782,20.182,20.182,0,0,1,3.609.349l8.649,1.119,8.661,1.071A21.183,21.183,0,0,1,298.961,261.421Z" transform="translate(-176.639 -46.406)"/><path class="b" d="M296.876,266.669a99.65,99.65,0,0,1-11.259-1.2,102.75,102.75,0,0,1-11.187-1.816,103.468,103.468,0,0,1,11.271,1.2,106.47,106.47,0,0,1,11.175,1.816Z" transform="translate(-176.648 -45.326)"/><path class="f" d="M534.438,275s3.019,27.522-.854,42.606L496.8,315.994s7.879-27.161,3.043-39.19Z" transform="translate(-131.532 -43.024)"/><path class="d" d="M497.565,269.65s-2.514,32.983-4.535,39.274l33.5,3.524,5.04-4.812s3.272-24.19,2.767-32Z" transform="translate(-132.297 -44.109)"/><path class="a" d="M521.638,301.05l-.758,5.04,5.04-4.787Z" transform="translate(-126.647 -37.739)"/><path class="b" d="M526.127,284.81a25.408,25.408,0,0,1-3.753-.445l-9.01-1.263-9.046-1.131a22.042,22.042,0,0,1-3.729-.565,21,21,0,0,1,3.777.12c2.334.168,5.545.481,9.07.95s6.724,1.01,9.01,1.456a20.009,20.009,0,0,1,3.681.878Z" transform="translate(-130.763 -41.731)"/><path class="b" d="M524.741,290.523a19.316,19.316,0,0,1-3.609-.12c-2.237-.168-5.3-.457-8.7-.89s-6.435-.9-8.649-1.3a19.25,19.25,0,0,1-3.536-.794,23.355,23.355,0,0,1,3.609.349l8.661,1.131,8.661,1.059A20.282,20.282,0,0,1,524.741,290.523Z" transform="translate(-130.832 -40.504)"/><path class="b" d="M522.656,295.717a203.814,203.814,0,0,1-22.446-3.007,100,100,0,0,1,11.271,1.2,102.817,102.817,0,0,1,11.175,1.8Z" transform="translate(-130.84 -39.431)"/><path class="f" d="M497.87,158.37s3.007,27.522-.866,42.594l-36.784-1.6s7.879-27.161,3.043-39.19Z" transform="translate(-138.954 -66.686)"/><path class="d" d="M460.983,153s-2.514,33-4.523,39.286l33.488,3.524,5.04-4.812s3.272-24.178,2.779-31.985Z" transform="translate(-139.716 -67.776)"/><path class="a" d="M485.056,184.41l-.746,5.04,5.028-4.787Z" transform="translate(-134.066 -61.403)"/><path class="b" d="M489.559,168.158a22.4,22.4,0,0,1-3.765-.433l-9.01-1.2-9.034-1.131a23.714,23.714,0,0,1-3.741-.565,21.015,21.015,0,0,1,3.777.12c2.334.168,5.545.481,9.082.95s6.712,1.01,9.01,1.456A23.045,23.045,0,0,1,489.559,168.158Z" transform="translate(-138.185 -65.384)"/><path class="b" d="M488.129,173.831a19.81,19.81,0,0,1-3.609-.108c-2.225-.168-5.3-.469-8.7-.89s-6.435-.9-8.637-1.3a18.921,18.921,0,0,1-3.536-.794,23.387,23.387,0,0,1,3.609.349l8.661,1.119,8.661,1.071a22.858,22.858,0,0,1,3.548.553Z" transform="translate(-138.258 -64.176)"/><path class="b" d="M486.074,179.089a101.839,101.839,0,0,1-11.259-1.2,99.425,99.425,0,0,1-11.175-1.816,105.468,105.468,0,0,1,11.259,1.2,102.82,102.82,0,0,1,11.175,1.816Z" transform="translate(-138.26 -63.095)"/><path class="f" d="M380.18,168.34s3.007,27.534-.866,42.606l-36.784-1.612s7.879-27.161,3.043-39.19Z" transform="translate(-162.831 -64.663)"/><path class="d" d="M343.293,163s-2.514,32.983-4.523,39.274l33.488,3.536L377.3,201s3.284-24.178,2.779-32Z" transform="translate(-163.594 -65.747)"/><path class="a" d="M367.366,194.39l-.746,5.04,5.028-4.787Z" transform="translate(-157.944 -59.378)"/><path class="b" d="M371.869,178.149a26.094,26.094,0,0,1-3.765-.433l-9.01-1.275-9.034-1.131a24.829,24.829,0,0,1-3.741-.553,19.688,19.688,0,0,1,3.777.12c2.334.168,5.545.481,9.082.95s6.712,1,9.01,1.443A20.727,20.727,0,0,1,371.869,178.149Z" transform="translate(-162.062 -63.37)"/><path class="b" d="M370.469,183.813a19.246,19.246,0,0,1-3.609-.12c-2.225-.156-5.3-.457-8.7-.89s-6.435-.9-8.637-1.3a18.925,18.925,0,0,1-3.536-.794,22.683,22.683,0,0,1,3.609.361l8.661,1.119,8.661,1.059a20.279,20.279,0,0,1,3.548.565Z" transform="translate(-162.129 -62.154)"/><path class="b" d="M368.384,189.059a99.936,99.936,0,0,1-11.259-1.2,102.824,102.824,0,0,1-11.175-1.816,103.449,103.449,0,0,1,11.259,1.2A102.814,102.814,0,0,1,368.384,189.059Z" transform="translate(-162.137 -61.072)"/><path class="f" d="M332.79,213.54l2.9,67.313,84.021,1.01-3.765-67.434Z" transform="translate(-164.807 -55.493)"/><rect class="b" width="83.468" height="63.031" transform="translate(167.009 157.566)"/><path class="a" d="M415.5,276.234v-4.571c0-2.959,0-7.217-.06-12.751,0-10.994-.084-26.716-.132-45.71l.253.253-83.5.072h0l.313-.313v63.019l-.289-.277,60.144.144,17.117.072h6.147a2.123,2.123,0,0,1-.373,0h-5.7l-17.057.072-60.385.144H331.7V212.77h84.07v.265c0,19.09-.1,34.884-.132,45.89,0,5.473,0,9.755-.06,12.7v3.32C415.529,275.873,415.5,276.234,415.5,276.234Z" transform="translate(-165.028 -55.649)"/><rect class="b" width="33.837" height="42.582" transform="translate(177.077 170.918)"/><path class="a" d="M374.211,266.911a1.955,1.955,0,0,1,0-.216V263.76c0-2.069,0-5.016-.084-8.745,0-7.494-.084-18.1-.132-30.686l.277.277H340.435l.313-.313h0v42.57l-.265-.265,24.491.144h8.7a4.042,4.042,0,0,1,.65,0,2.953,2.953,0,0,1-.589,0h-1.78l-6.808.06-24.659.144h-.253V224.113h0l.313-.313h34.114v.277c0,12.666-.1,23.324-.132,30.866,0,3.7-.06,6.628-.084,8.685V265.9a5.772,5.772,0,0,1-.229,1.01Z" transform="translate(-163.298 -53.411)"/><rect class="b" width="64.848" height="6.135" transform="translate(178.376 161.175)"/><path class="a" d="M406.325,222.358a1.8,1.8,0,0,1,0-.421v-1.2c0-1.071,0-2.586-.072-4.523l.132.12c-10.946.108-35.87.192-64.848.192h0l.313-.313h0v6.111l-.313-.313,45.95.132,13.8.1h.156l-13.725.1-46.179.132h-.313v-6.423h0c.132-.144-.313.313.313-.313h0c28.977,0,53.9.072,64.848.18h.12v.132c0,1.973,0,3.5-.072,4.6v1.2C406.337,222.238,406.325,222.37,406.325,222.358Z" transform="translate(-163.102 -55.049)"/><rect class="b" width="28.16" height="25.67" transform="translate(215.052 170.918)"/><path class="a" d="M400.125,249.941a2.62,2.62,0,0,1,0-.493v-1.4c0-1.263,0-3.019-.072-5.233,0-4.523-.084-10.9-.144-18.536l.277.265H372.026c-.072.06.589-.589.3-.313h0v25.633l-.277-.265,20.317.132,5.762.072h2.093a2.4,2.4,0,0,1-.493,0h-1.492l-5.7.072-20.449.132h-.265v-25.67h0c-.277.277.385-.385.325-.313H400.57v.265c-.06,7.71-.108,14.146-.144,18.7,0,2.189,0,3.921-.06,5.172v1.347C400.366,249.869,400.125,249.953,400.125,249.941Z" transform="translate(-156.902 -53.366)"/><rect class="b" width="28.16" height="12.895" transform="translate(215.052 200.605)"/><path class="a" d="M400.131,261.9a5.439,5.439,0,0,1,0-.938c0-.662,0-1.516-.06-2.6,0-2.273-.072-5.461-.12-9.358l.229.229-28.16.084c-.289.277.373-.385.3-.313h0v12.871l-.3-.3,20.136.144,5.87.084h2.165a2.541,2.541,0,0,1-.505,0h-1.528l-5.8.084-20.341.144h-.289V248.864h0c-.06.072.6-.589.325-.313l28.16.084h.229v.229c0,3.957-.1,7.217-.132,9.5v2.538a8.414,8.414,0,0,1-.18,1Z" transform="translate(-156.908 -48.404)"/><path class="b" d="M373.345,224.3c-10.465,14.435-22.518,28.039-33,42.51" transform="translate(-163.273 -53.31)"/><path class="a" d="M340.35,266.81a12.747,12.747,0,0,1,1.2-1.78c.77-1.119,1.925-2.718,3.38-4.679,2.9-3.909,7.061-9.2,11.716-14.988s8.877-11.042,11.86-14.88l3.536-4.547a14.116,14.116,0,0,1,1.347-1.636,13.23,13.23,0,0,1-1.143,1.78c-.782,1.119-1.937,2.718-3.38,4.679-2.911,3.909-7.073,9.2-11.728,14.988s-8.865,11.03-11.86,14.88l-3.536,4.547A12.717,12.717,0,0,1,340.35,266.81Z" transform="translate(-163.273 -53.31)"/><line class="b" x2="33.837" y2="42.582" transform="translate(177.077 170.918)"/><path class="a" d="M374.188,266.822c-.132.108-7.819-9.334-17.165-21.1s-16.84-21.375-16.672-21.484,7.819,9.334,17.165,21.1S374.32,266.714,374.188,266.822Z" transform="translate(-163.274 -53.322)"/><circle class="e" cx="5.293" cy="5.293" r="5.293" transform="translate(160.296 165.709)"/><path class="a" d="M331.7,230.538a5.329,5.329,0,1,1,5.317-5.329A5.329,5.329,0,0,1,331.7,230.538Zm0-10.585a5.269,5.269,0,1,0,5.257,5.257A5.269,5.269,0,0,0,331.7,219.952Z" transform="translate(-166.112 -54.207)"/><circle class="e" cx="5.293" cy="5.293" r="5.293" transform="translate(246.868 152.863)"/><path class="a" d="M403.669,219.858A5.329,5.329,0,1,1,409,214.529,5.329,5.329,0,0,1,403.669,219.858Zm0-10.585a5.257,5.257,0,1,0,3.725,1.535A5.269,5.269,0,0,0,403.669,209.272Z" transform="translate(-151.508 -56.374)"/><path class="f" d="M433.495,194.715l-24.924,12.823L396.53,205.83l6.447-11.427,26.283-9.262Z" transform="translate(-151.875 -61.255)"/><path class="d" d="M395.67,203.691l6.1-9.828,27-9.8,5.425,10.67-26.175,10.453Z" transform="translate(-152.05 -61.474)"/><path class="b" d="M423.733,189.333a15.29,15.29,0,0,1-2.61,1.2c-1.648.662-3.921,1.564-6.447,2.526l-6.484,2.406c-1.648.6-2.731.962-2.67.926-.2-.253,3.9-2.009,8.925-3.933S423.673,189.141,423.733,189.333Z" transform="translate(-150.053 -60.408)"/><path class="b" d="M419.187,193.35a23.938,23.938,0,0,1-5.81,2.755,23.623,23.623,0,0,1-6.207,1.72q5.959-2.384,12.029-4.475Z" transform="translate(-149.717 -59.589)"/><path class="f" d="M457.69,203.944l9.118,48.151,91.034-17.237L542.024,187.97Z" transform="translate(-139.467 -60.681)"/><rect class="b" width="87.762" height="43.424" transform="translate(316.324 143.612) rotate(-10.72)"/><path class="a" d="M550.471,230.669l-.168-.77c-.108-.529-.253-1.275-.445-2.225-.385-1.973-.95-4.812-1.672-8.516-1.419-7.374-3.476-18.043-6.014-31.107l.277.18-86.211,16.407h0l.253-.373c2.827,15.048,5.557,29.483,8.047,42.714l-.349-.241,61.925-11.572L544,231.86l4.812-.878,1.2-.217.433-.06-.385.1-1.2.241-4.715.938-17.791,3.452-62.069,11.885-.289.06v-.289l-8.1-42.666-.06-.3.313-.06h0l86.235-16.251h.229v.229c2.406,13.172,4.427,23.865,5.8,31.275.662,3.669,1.2,6.52,1.552,8.48.168.95.289,1.684.385,2.2S550.471,230.669,550.471,230.669Z" transform="translate(-139.842 -60.713)"/><rect class="b" width="24.262" height="24.262" transform="translate(326.693 151.402) rotate(-10.72)"/><path class="a" d="M493.115,228.154a3.093,3.093,0,0,1-.12-.457c-.072-.337-.156-.77-.277-1.3-.241-1.2-.565-2.815-.986-4.812l-3.392-17.165.313.216-23.829,4.547c0,.084.469-.686.253-.361h0v.385l.072.409.156.806c.108.541.2,1.083.313,1.624.192,1.071.4,2.129.6,3.188.385,2.093.782,4.162,1.2,6.159.746,4.006,1.456,7.783,2.093,11.247l-.313-.2,17.225-3.128,4.884-.854,1.311-.217h.469a1.382,1.382,0,0,1-.4.108l-1.2.277-4.812.974-17.346,3.428h-.265v-.265c-.662-3.464-1.4-7.217-2.153-11.247q-.577-3-1.2-6.159c-.2-1.047-.409-2.117-.6-3.188-.108-.529-.2-1.071-.313-1.612l-.156-.818-.072-.409v-.385h0l.253-.373L488.556,204h.265v.265c1.3,7.157,2.406,13.135,3.152,17.394.361,2.033.638,3.609.842,4.812.084.505.156.926.2,1.2A1.567,1.567,0,0,1,493.115,228.154Z" transform="translate(-138.071 -57.429)"/><path class="a" d="M492.367,227.114s-.132-.613-.469-1.7a8.419,8.419,0,0,0-2.526-4.006h0a8.9,8.9,0,0,0-2.947-1.792,9.119,9.119,0,0,0-4.006-.457h-.565l.3-.481a6.015,6.015,0,0,0,.216-5.7,5.317,5.317,0,0,0-2.1-2.406,5.7,5.7,0,0,0-3.224-.758,6.014,6.014,0,0,0-3.488,1.3,5.22,5.22,0,0,0-1.852,3,6.111,6.111,0,0,0,1.961,5.942l.3.241-.325.2a10.309,10.309,0,0,0-3.609,3.609,11.141,11.141,0,0,0-1.383,3.741,15.735,15.735,0,0,0-.1,3.512,3.49,3.49,0,0,1-.2-.9,9.539,9.539,0,0,1,0-2.646,10.828,10.828,0,0,1,1.311-3.921,10.574,10.574,0,0,1,3.693-3.9v.433a6.58,6.58,0,0,1-2.213-6.484,5.726,5.726,0,0,1,2.045-3.356,6.628,6.628,0,0,1,3.837-1.443,6.231,6.231,0,0,1,3.609.842,6.1,6.1,0,0,1,2.346,2.634,6.616,6.616,0,0,1-.3,6.267l-.289-.289a9.623,9.623,0,0,1,4.234.541,9.2,9.2,0,0,1,3.055,1.949h0a8.168,8.168,0,0,1,2.5,4.27,10.217,10.217,0,0,1,.253,1.3C492.379,227.018,492.391,227.114,492.367,227.114Z" transform="translate(-137.324 -56.388)"/><path class="b" d="M492.11,204.231l20.678-3.921" transform="translate(-132.484 -58.177)"/><path class="a" d="M512.788,200.31a85.213,85.213,0,0,1-10.285,2.273,88.006,88.006,0,0,1-10.393,1.648,88.792,88.792,0,0,1,10.285-2.274,91.114,91.114,0,0,1,10.393-1.648Z" transform="translate(-132.484 -58.177)"/><path class="b" d="M492.87,207.694l4.174-.794" transform="translate(-132.329 -56.84)"/><path class="a" d="M497.044,206.917c0,.168-.878.493-2.033.71s-2.105.253-2.141.084.878-.481,2.033-.7S497.008,206.749,497.044,206.917Z" transform="translate(-132.33 -56.857)"/><path class="a" d="M531.145,208.692c0,.168-8.216,1.877-18.416,3.8s-18.512,3.368-18.548,3.188,8.2-1.8,18.428-3.8S531.109,208.524,531.145,208.692Z" transform="translate(-132.064 -56.479)"/><path class="a" d="M532.009,212.132c0,.168-8.264,1.876-18.524,3.825s-18.609,3.38-18.645,3.212,8.264-1.889,18.524-3.825S531.973,211.976,532.009,212.132Z" transform="translate(-131.93 -55.781)"/><path class="a" d="M532.164,216.22a7.323,7.323,0,0,1-1.419.385l-3.9.842c-3.3.686-7.855,1.588-12.895,2.538s-9.623,1.78-12.943,2.406l-3.933.638a6.907,6.907,0,0,1-1.456.156,6.159,6.159,0,0,1,1.407-.4l3.861-.818c3.3-.686,7.855-1.588,12.907-2.538s9.623-1.792,12.931-2.406l3.933-.65A6.315,6.315,0,0,1,532.164,216.22Z" transform="translate(-131.771 -54.949)"/><path class="e" d="M496.246,200.147a8.349,8.349,0,0,1,.914-.493,25.259,25.259,0,0,1,2.791-1.119,25.622,25.622,0,0,1,10.946-1.022,23.288,23.288,0,0,1,7.35,2.105,10.237,10.237,0,0,1,3.392,2.67,5.16,5.16,0,0,1,1.034,4.463,7.6,7.6,0,0,1-2.839,3.9,23.768,23.768,0,0,1-4.282,2.538,40.251,40.251,0,0,1-9.84,3.368,23.637,23.637,0,0,1-10.393-.144,15.469,15.469,0,0,1-4.619-1.9,7.638,7.638,0,0,1-3.152-3.609,5.389,5.389,0,0,1,.505-4.559,11.187,11.187,0,0,1,2.935-3.152,29.278,29.278,0,0,1,6.724-3.609,29.711,29.711,0,0,1,10.826-1.925,27.037,27.037,0,0,1,2.983.229,6.577,6.577,0,0,1,1.035.192,6.2,6.2,0,0,1-1.047-.06c-.674,0-1.684-.12-2.971-.108A30.133,30.133,0,0,0,497.858,200a28.451,28.451,0,0,0-6.556,3.609,10.826,10.826,0,0,0-2.779,3.019,4.871,4.871,0,0,0-.445,4.09,7.085,7.085,0,0,0,2.935,3.344,14.927,14.927,0,0,0,4.439,1.816,23.588,23.588,0,0,0,10.14.12,39.985,39.985,0,0,0,9.683-3.308,22.94,22.94,0,0,0,4.174-2.406,6.917,6.917,0,0,0,2.646-3.609,4.547,4.547,0,0,0-.9-3.982,9.721,9.721,0,0,0-3.2-2.538,23.336,23.336,0,0,0-7.217-2.141,26.079,26.079,0,0,0-10.826.818c-1.2.385-2.177.734-2.8,1A5.149,5.149,0,0,1,496.246,200.147Z" transform="translate(-133.468 -58.784)"/><path class="e" d="M515.29,200.881a52.613,52.613,0,0,1,6.111-5.365,53.657,53.657,0,0,1,6.508-4.9A53.306,53.306,0,0,1,521.8,196a52.733,52.733,0,0,1-6.508,4.884Z" transform="translate(-127.781 -60.143)"/><path class="e" d="M523.163,199.037a44.857,44.857,0,0,1-7.217,1.78l-.854.18-.481.1.108-.469a15.048,15.048,0,0,1,2.61-6.014c.156.072-1.2,2.586-2.009,6.111l-.361-.385.866-.18a43.114,43.114,0,0,1,7.338-1.119Z" transform="translate(-127.919 -59.334)"/><path class="e" d="M514.845,202.62a106.356,106.356,0,0,1-11.343,2.057,109.014,109.014,0,0,1-11.451,1.443,106.241,106.241,0,0,1,11.355-2.057,104.908,104.908,0,0,1,11.439-1.443Z" transform="translate(-132.496 -57.708)"/><path class="e" d="M491.31,195.726a5.293,5.293,0,1,1-6.183-4.21A5.293,5.293,0,0,1,491.31,195.726Z" transform="translate(-134.775 -59.98)"/><path class="a" d="M486.11,202.048a5.329,5.329,0,1,1,1-.1A5.725,5.725,0,0,1,486.11,202.048Zm0-10.6a5.591,5.591,0,0,0-.986.1,5.233,5.233,0,1,0,.986-.1Z" transform="translate(-134.784 -59.987)"/><path class="c" d="M196.77,90.295l430.609,11.74.265-12.835Z" transform="translate(-192.404 -80.72)"/><rect class="d" width="444.466" height="9.575"/></g><g transform="translate(540.225 208.067)"><path class="a" d="M574.6,186.376a12.594,12.594,0,0,1,19.655,11.909c-.313,2.5-1.371,5.016-.722,7.446,1.2,4.571,7.638,6.351,8.42,10.994a12.45,12.45,0,0,1-.806,5.461c-.493,1.792-.806,3.825.12,5.437a15.879,15.879,0,0,0,2.911,2.911c3.127,3.128,3.079,8.625.445,12.2a13.978,13.978,0,0,1-11.692,5.136,25.91,25.91,0,0,1-12.438-4.246" transform="translate(-436.242 -179.38)"/><path class="a" d="M584.1,190.043a12.991,12.991,0,0,0-9.5-8.42c-4.318-1.047-9.623-2.406-13.641-.433a11.391,11.391,0,0,0-5.822,5.69c-1.2,3.091.614,8.853,1.5,12.029s1.552,6.8-.2,9.623-5.16,3.777-7.314,6.147a8.577,8.577,0,0,0,.89,11.9c-3.825-.229-7.049,3.669-6.917,7.506s2.935,7.217,6.351,8.913a24.466,24.466,0,0,0,11.187,2.105,67.36,67.36,0,0,0,14.146-1.467c3.825-.806,7.819-2.093,10.309-5.112,2.3-2.779,2.923-6.568,2.935-10.164,0-12.727-6.664-25.345-3.765-37.747" transform="translate(-442.636 -180.184)"/><path class="g" d="M565.154,301.35S540.266,382.112,541.842,408.2s20.521,90.986,20.521,90.986Z" transform="translate(-442.903 -155.601)"/><path class="h" d="M597.746,290.058c.553-.144,11.475,15.89,11.836,29.675a33,33,0,0,1-.156,4.054A50.664,50.664,0,0,1,606,337.837c-9.226,23.3-18.741,50.966-18.9,57.233-.493,19.391-8.877,106.467-8.877,106.467l-18.4.481L554.31,395.6l9.118-106.419Z" transform="translate(-440.359 -158.07)"/><path class="h" d="M472.643,244.635c1.889-1.973,10.453,5.461,11.223,6.014s1.624-.529.9-1.01c-1.034-.686-11.8-8.24-9.972-10.188,1.01-1.083,2.791.926,2.791.926s9.539,7.795,10.369,6.856-4.607-5.738-6.556-7.217-2.021-2.971-.662-3.284c.926-.217,7.013,4.162,8.9,5.678s7.025,5.726,6.195,1.588.084-7.626,1-8.42,2.31.217,2.009,1.492a15.326,15.326,0,0,0,0,4.258,10.176,10.176,0,0,0,.938,3.284c.577,1.2,1.119,2.2,1.6,3.031,5.726,3.464,22.217,12.618,39.022,14.567,3.031.349,14.771-18.043,14.771-18.043l18.3,14.88s.144,1.2-13.027,17.43c-17.911,22.121-70.068-15.638-70.068-15.638v-.06a125.562,125.562,0,0,1-12.209-6.014c-5.353-3.3-5.064-3.789-4.571-4.342,1.311-1.492,9.623,5.449,8.709,2.923S471.212,246.139,472.643,244.635Z" transform="translate(-456.956 -169.002)"/><path class="f" d="M460.7,232.07s-3.019,27.522.854,42.594l36.784-1.6s-7.879-27.161-3.043-39.19Z" transform="translate(-459.578 -169.657)"/><path class="e" d="M460.63,231.33s.253,29.723,1.756,38.793l37.289-1.768s-3.272-29.218-2.009-37.025Z" transform="translate(-459.365 -169.807)"/><path class="b" d="M490.96,241.72a123.674,123.674,0,0,1-12.486,1.071,124,124,0,0,1-12.534.433c0-.168,5.581-.65,12.486-1.059S490.948,241.552,490.96,241.72Z" transform="translate(-458.288 -167.711)"/><path class="b" d="M490.97,247c0,.168-5.581.65-12.5,1.059s-12.51.613-12.522.445a123.65,123.65,0,0,1,12.486-1.071A123.907,123.907,0,0,1,490.97,247Z" transform="translate(-458.286 -166.63)"/><path class="b" d="M483.884,252.1a40.274,40.274,0,0,1-7.109.746,41.3,41.3,0,0,1-7.145.12,40.274,40.274,0,0,1,7.109-.746,41.292,41.292,0,0,1,7.145-.12Z" transform="translate(-457.539 -165.614)"/><path class="d" d="M620.288,379.8s3.609-77.177-7.506-83.913S550.316,300,550.316,300,534.33,372.854,535,373.456C540.32,378.075,620.288,379.8,620.288,379.8Z" transform="translate(-444.28 -157.158)"/><path class="a" d="M609.268,359.834a70.966,70.966,0,0,1-9.262-.156,67.241,67.241,0,0,1-9.226-.794,69.772,69.772,0,0,1,9.262.168,68.237,68.237,0,0,1,9.226.782Z" transform="translate(-432.96 -143.945)"/><path class="a" d="M601.479,366.315a8.59,8.59,0,0,1-.144-3.176,8.422,8.422,0,0,1,.481-3.139,8.022,8.022,0,0,1,.144,3.176A7.929,7.929,0,0,1,601.479,366.315Z" transform="translate(-430.836 -143.702)"/><path class="a" d="M593.706,366.477a10.9,10.9,0,0,1-.589-3.609,10.309,10.309,0,0,1,0-3.609,10.9,10.9,0,0,1,.589,3.609A10.351,10.351,0,0,1,593.706,366.477Z" transform="translate(-432.518 -143.852)"/><path class="e" d="M560.729,468.047v-2.406l18.994-.361v7.41l-1.2.084c-5.221.289-26.572,1.119-30.072.072C544.647,471.679,560.729,468.047,560.729,468.047Z" transform="translate(-441.666 -122.342)"/><g class="i" transform="translate(131.273 345.029)"><path class="b" d="M568.71,472.445a6.555,6.555,0,0,1,2.406-4.03,6.435,6.435,0,0,1,4.427-1.383v5.293Z" transform="translate(-568.71 -467.018)"/></g><g class="i" transform="translate(106.239 347.737)"><path class="b" d="M552.892,469.27s-5.642,1.636-4.932,2.562,22.313.9,31.84,0v-.421l-25.2.253S554.035,469.318,552.892,469.27Z" transform="translate(-547.899 -469.27)"/></g><path class="a" d="M579.927,471H579.6l-.938.06-3.44.144c-2.9.108-6.917.2-11.355.217s-8.42-.072-11.355-.168l-3.44-.132-.938-.06a1.131,1.131,0,0,1-.325,0h1.263l3.44.072c2.911,0,6.917.108,11.355.1s8.42-.084,11.355-.144l3.44-.084h.938A1.4,1.4,0,0,1,579.927,471Z" transform="translate(-441.678 -121.183)"/><path class="a" d="M553.75,472.1a7.915,7.915,0,0,0-.637-1.636,7.613,7.613,0,0,0-1.2-1.323,2.6,2.6,0,0,1,1.371,1.2A2.5,2.5,0,0,1,553.75,472.1Z" transform="translate(-440.846 -121.559)"/><path class="a" d="M558.548,469.136a4.051,4.051,0,0,1-.589-.722,2.106,2.106,0,0,1-.409-.854,4.163,4.163,0,0,1,.6.734C558.428,468.727,558.609,469.1,558.548,469.136Z" transform="translate(-439.701 -121.88)"/><path class="a" d="M559.862,468.38a2.97,2.97,0,0,1-.674-.445c-.325-.289-.553-.565-.517-.613s.349.144.674.445S559.9,468.332,559.862,468.38Z" transform="translate(-439.475 -121.929)"/><path class="a" d="M560.795,466.729a4.154,4.154,0,0,1-1.985.024,2.273,2.273,0,0,1,1-.12A2.238,2.238,0,0,1,560.795,466.729Z" transform="translate(-439.446 -122.071)"/><path class="a" d="M561.118,465.66a1.852,1.852,0,0,1-1.095.325,1.973,1.973,0,0,1-1.2-.144,5.218,5.218,0,0,1,1.119-.084A6.241,6.241,0,0,1,561.118,465.66Z" transform="translate(-439.444 -122.265)"/><path class="a" d="M558.45,467.784a3.609,3.609,0,0,1-1.2,0,6.959,6.959,0,0,1-1.3-.289,3.73,3.73,0,0,1-.746-.3.661.661,0,0,1-.3-.385.481.481,0,0,1,.181-.481,2.237,2.237,0,0,1,2.767.65,2.047,2.047,0,0,1,.4.806.746.746,0,0,1,0,.325,3.777,3.777,0,0,0-.565-1.034,2.189,2.189,0,0,0-1.035-.674,1.912,1.912,0,0,0-1.456.108c-.192.144-.108.361.108.493a3.344,3.344,0,0,0,.674.289,8.163,8.163,0,0,0,1.263.325C557.981,467.748,558.45,467.748,558.45,467.784Z" transform="translate(-440.241 -122.176)"/><path class="a" d="M557.607,467.948a1.2,1.2,0,0,1-.132-.842,1.925,1.925,0,0,1,.325-.89,1.262,1.262,0,0,1,1.01-.625.493.493,0,0,1,.385.565,1.2,1.2,0,0,1-.217.541,3.886,3.886,0,0,1-.565.734,1.779,1.779,0,0,1-.7.493,7.739,7.739,0,0,0,.577-.6,3.967,3.967,0,0,0,.505-.722c.168-.265.277-.722,0-.782s-.614.277-.794.517a2.056,2.056,0,0,0-.349.794A5.282,5.282,0,0,0,557.607,467.948Z" transform="translate(-439.722 -122.279)"/><path class="a" d="M575.74,467.031s-.541,0-1.4.06a6.014,6.014,0,0,0-3.055,1.2,6.2,6.2,0,0,0-1.9,2.706,12.043,12.043,0,0,0-.349,1.347s0-.132,0-.385a6.02,6.02,0,0,1,.2-1.022,5.762,5.762,0,0,1,5.1-4.066,5.443,5.443,0,0,1,1.034,0,1.285,1.285,0,0,1,.361.156Z" transform="translate(-437.37 -122.024)"/><path class="a" d="M567.933,469.483a15.648,15.648,0,0,1-5.533.06h2.767C566.73,469.543,567.933,469.423,567.933,469.483Z" transform="translate(-438.717 -121.493)"/><path class="a" d="M570.2,469.471s-.1.265-.229.553-.192.529-.253.529-.1-.3,0-.625S570.165,469.435,570.2,469.471Z" transform="translate(-437.244 -121.493)"/><path class="a" d="M571.391,468a1.155,1.155,0,0,1-.265.433c-.193.192-.4.325-.445.289s.084-.253.277-.445A1.013,1.013,0,0,1,571.391,468Z" transform="translate(-437.039 -121.79)"/><path class="a" d="M573.122,467.376c0,.072-.265.072-.553.168s-.469.241-.517.2.108-.313.445-.421S573.194,467.328,573.122,467.376Z" transform="translate(-436.761 -121.936)"/><path class="a" d="M574.216,467.058c0,.06-.084.156-.241.217a.534.534,0,0,1-.325,0,.456.456,0,0,1,.241-.217C574.047,467,574.191,467,574.216,467.058Z" transform="translate(-436.435 -121.991)"/><path class="e" d="M531.65,261.875l21.183,11.909,1.467-1.492,1.564,2.935-1.443,39.467,57.462-10.826-4.691-6.748c-4.511-6.231-3.5-14.976-1.648-22.446l.638-2.55,12.125.192s1.2-6.832,0-22.037v-.674a26.1,26.1,0,0,0-27.8-23.625L569.565,227.4s-16.66-3.428-28.027,16.155Z" transform="translate(-444.956 -170.905)"/><path class="a" d="M553.569,250.49a16.326,16.326,0,0,1-.758,2.971c-.626,2.009-1.371,4.378-2.189,7.013a9.166,9.166,0,0,0,.373,6.989,28.364,28.364,0,0,1,1.2,2.779,10.226,10.226,0,0,1-1.648-2.6,9.874,9.874,0,0,1-1.022-3.224,10.671,10.671,0,0,1,.433-4.114c.854-2.779,1.744-5.208,2.406-6.989a14.746,14.746,0,0,1,1.2-2.827Z" transform="translate(-441.338 -165.92)"/><path class="a" d="M607.709,267.466a8.673,8.673,0,0,1-1.648,0l-4.463-.289c-3.753-.265-8.949-.674-14.687-1.2l-2.731-.229h-.3v-.3c.325-5.088.313-9.623.517-12.859.084-1.624.2-2.935.3-3.825a6.4,6.4,0,0,1,.229-1.371,5.908,5.908,0,0,1,0,1.4c0,1.01-.072,2.285-.12,3.813-.1,3.236,0,7.759-.3,12.895l-.289-.337,2.743.241c5.726.493,10.922.974,14.675,1.359l4.439.481A8.2,8.2,0,0,1,607.709,267.466Z" transform="translate(-434.36 -166.549)"/><path class="j" d="M616.522,246.111a3.452,3.452,0,0,1-.806-.144l-2.31-.517a72.052,72.052,0,0,0-8.553-1.5,31.44,31.44,0,0,0-6.014,0,29.336,29.336,0,0,0-6.664,1.431c-4.619,1.443-9.395,3.945-14.916,5.281a24.9,24.9,0,0,1-4.162.638,21,21,0,0,1-4.09-.229,25.55,25.55,0,0,1-7.217-2.6c-4.33-2.261-7.975-4.715-11.464-5.834a16.443,16.443,0,0,0-8.42-.938,18.438,18.438,0,0,0-3.007.962,8.227,8.227,0,0,1,2.959-1.2,16.263,16.263,0,0,1,8.661.758c3.609,1.095,7.289,3.537,11.584,5.738a24.7,24.7,0,0,0,7.073,2.5,19.872,19.872,0,0,0,8-.4c5.413-1.311,10.2-3.8,14.88-5.233a29.433,29.433,0,0,1,6.808-1.4,30.947,30.947,0,0,1,6.014.144,62.678,62.678,0,0,1,8.565,1.7l2.273.638a3.888,3.888,0,0,1,.806.2Z" transform="translate(-443.485 -167.808)"/><path class="j" d="M589.342,272.549a12.927,12.927,0,0,1-1.576.1,26.873,26.873,0,0,0-4.246.626,60.726,60.726,0,0,0-6.1,1.816c-2.273.794-4.812,1.708-7.482,2.406a22.482,22.482,0,0,1-7.879.686A14.278,14.278,0,0,1,555.974,276a10.285,10.285,0,0,1-3.055-3.115,6.286,6.286,0,0,1-.517-1.059c-.108-.253-.144-.385-.12-.4s.265.505.842,1.323a10.7,10.7,0,0,0,3.091,2.875,14.254,14.254,0,0,0,5.906,1.973,22.542,22.542,0,0,0,7.662-.722c2.682-.662,5.16-1.564,7.458-2.322a49.308,49.308,0,0,1,6.195-1.708,21.062,21.062,0,0,1,4.318-.433A5.64,5.64,0,0,1,589.342,272.549Z" transform="translate(-440.772 -161.671)"/><g class="k" transform="translate(120.483 81.575)"><path d="M589.584,248c-2.586,6.4-2.9,13.448-3.789,20.293s-2.586,13.953-7.217,19.03-12.029,7.434-18.837,9.419l29.916-2.61Z" transform="translate(-559.74 -248)"/></g><path class="e" d="M592.386,409.493s10.742-45.71,20.341-73.544c9.623-28.1-4.2-45.938-4.2-45.938l-54.37,6.351-10.465,40.2s-8.312,42.931-4.98,74.579Z" transform="translate(-443.683 -157.902)"/><path class="j" d="M606.807,339.182a22.852,22.852,0,0,0-1.419-2.249,14.327,14.327,0,0,0-5.677-4.342A21.207,21.207,0,0,0,589.233,331a93.962,93.962,0,0,0-13,2.406,36.906,36.906,0,0,1-13.232.9,28.473,28.473,0,0,1-10.068-4.078,64.66,64.66,0,0,0-6.411-3.464c-1.576-.686-2.5-.938-2.478-1a2.4,2.4,0,0,1,.674.144,17.365,17.365,0,0,1,1.9.638,53.33,53.33,0,0,1,6.532,3.3,28.869,28.869,0,0,0,9.936,3.9,37.589,37.589,0,0,0,13.063-.95,90.636,90.636,0,0,1,13.1-2.346,21.363,21.363,0,0,1,10.706,1.768,14.062,14.062,0,0,1,5.69,4.6,7.209,7.209,0,0,1,.6.974,7.565,7.565,0,0,1,.385.758A2.786,2.786,0,0,1,606.807,339.182Z" transform="translate(-442.443 -150.647)"/><path class="j" d="M595.187,376.085a18.306,18.306,0,0,0-1.684-1.756,12.269,12.269,0,0,0-6.014-2.67,19.908,19.908,0,0,0-9.623,1.143c-3.536,1.2-7.217,3.1-11.283,4.607a24.985,24.985,0,0,1-12.113,1.468A25.633,25.633,0,0,1,545,375.689a23.348,23.348,0,0,1-5.317-4.126,15.849,15.849,0,0,1-1.2-1.383,2.408,2.408,0,0,1-.373-.529s.6.65,1.744,1.732a24.539,24.539,0,0,0,5.365,3.921,26.005,26.005,0,0,0,9.322,3,24.78,24.78,0,0,0,11.836-1.48c4.03-1.468,7.7-3.4,11.3-4.559a19.956,19.956,0,0,1,9.924-1.034,12.125,12.125,0,0,1,6.014,2.911,8.679,8.679,0,0,1,1.2,1.4A2.7,2.7,0,0,1,595.187,376.085Z" transform="translate(-443.646 -141.744)"/><g class="l" transform="translate(102.945 145.727)"><path d="M546.17,358.358a14.892,14.892,0,0,0-.409,6.616c.529,2.165,2.406,4.174,4.607,4.114,1.2,0,2.406-.6,3.452,0a4.006,4.006,0,0,1,1.311,2.5,12.7,12.7,0,0,0,22.169,4.523c2.959-3.7,3.609-8.805,2.983-13.508s-2.49-9.13-4.042-13.556a173.649,173.649,0,0,1-6.989-28.352,9.888,9.888,0,0,1,.216-5.738c1.359-2.947,5.052-3.8,8.24-4.354a304.623,304.623,0,0,0,35.966-8.54c-6.7-1.48-13.689-.457-20.449.782Q581.98,304.9,570.9,307.729a10.9,10.9,0,0,0-5.172,2.406,11.427,11.427,0,0,0-2.406,5.329,178.711,178.711,0,0,1-18.164,44.29" transform="translate(-545.16 -301.331)"/></g><path class="d" d="M560.025,311.879l52.073-8.42a63.469,63.469,0,0,0-2.406-7.386c-1.046-2.622-3.945-4.667-5.269-6.014-3.091-3.128-46.5,16.022-46.5,16.022Z" transform="translate(-439.626 -157.962)"/><path class="d" d="M562.092,310.938l-14.362-4.775,2.141-11.872,14.074,10.982Z" transform="translate(-441.694 -157.033)"/><path class="d" d="M560.482,308.432s-3.982,14.314-3.861,23.781.493,29.242,1.8,36.219,20.257-1,16.6-7.482-10.128-29.735-10.3-35.208.337-19.1.337-19.1Z" transform="translate(-439.891 -154.528)"/><path class="a" d="M573.571,350.14a6.846,6.846,0,0,1-1.407,2.273,16.756,16.756,0,0,1-11.151,6.014,6.989,6.989,0,0,1-2.682-.072,26.394,26.394,0,0,1,2.622-.373,18.75,18.75,0,0,0,10.826-5.846C572.873,350.934,573.438,350.092,573.571,350.14Z" transform="translate(-439.543 -145.703)"/><path class="a" d="M562.843,360.978c-.156.06-.638-.818-1.071-1.961s-.662-2.117-.493-2.177.638.806,1.071,1.949S563.012,360.918,562.843,360.978Z" transform="translate(-438.956 -144.343)"/><path class="a" d="M567.823,359.1c-.156.072-.734-.758-1.275-1.852s-.878-2.057-.722-2.129.722.746,1.275,1.852S567.98,359.018,567.823,359.1Z" transform="translate(-438.03 -144.693)"/><path class="a" d="M571.965,356.018c-.144.084-.77-.734-1.4-1.828s-1.01-2.045-.854-2.129.77.722,1.4,1.828S572.122,355.934,571.965,356.018Z" transform="translate(-437.24 -145.314)"/><path class="d" d="M559.78,306.218c-5,9.142-2.863,21.159-8.721,29.759-2.334,3.44-5.858,6.159-7.217,10.08a9.623,9.623,0,0,0,1.66,9.322,8.18,8.18,0,0,0,9.01,2.237,9.888,9.888,0,0,0,4.944-5.257,29.6,29.6,0,0,0,1.852-7.145q2.779-16.167,5.545-32.346c.361-2.153.71-4.5-.349-6.411s-4.15-2.755-5.413-.962" transform="translate(-442.593 -154.96)"/><path class="a" d="M557.162,356.512a13.791,13.791,0,0,1-.241-1.925c-.12-1.2-.265-3.055-.385-5.281-.265-4.463-.433-10.646-.277-17.466s.613-12.991,1.071-17.442c.229-2.225.445-4.018.626-5.257a12.874,12.874,0,0,1,.337-1.913,10.668,10.668,0,0,1-.084,1.937c-.12,1.359-.265,3.128-.433,5.269-.349,4.451-.734,10.609-.89,17.418s0,12.967.1,17.43c.072,2.153.132,3.921.18,5.281a10.135,10.135,0,0,1,0,1.949Z" transform="translate(-439.975 -154.408)"/><path class="a" d="M556.348,348.9a6.279,6.279,0,0,1-2.406-.277,15.385,15.385,0,0,1-9.2-6.616,5.691,5.691,0,0,1-1.01-2.153,19.535,19.535,0,0,0,12.582,9.046Z" transform="translate(-442.505 -147.79)"/><path class="a" d="M549.7,345.6c.108.144-.565.83-1.492,1.54s-1.756,1.2-1.865,1.046.565-.83,1.492-1.54S549.542,345.471,549.7,345.6Z" transform="translate(-441.978 -146.627)"/><path class="a" d="M545.522,342.528c.084.144-.349.553-.806,1.083s-.83,1-.986.926,0-.734.517-1.335S545.438,342.372,545.522,342.528Z" transform="translate(-442.517 -147.256)"/><path class="a" d="M565.729,302.352a2.209,2.209,0,0,1,.4.746,5.268,5.268,0,0,1,.169,2.3,5.666,5.666,0,0,1-1.5,3.091,5.433,5.433,0,0,1-9.262-3.164,5.161,5.161,0,0,1,.2-2.3,1.685,1.685,0,0,1,.4-.746,7.805,7.805,0,0,0-.168,2.971,5.461,5.461,0,0,0,1.443,2.779,5.16,5.16,0,0,0,6.977,0,5.341,5.341,0,0,0,1.479-2.755,7.411,7.411,0,0,0-.132-2.923Z" transform="translate(-440.121 -155.412)"/><path class="a" d="M562.256,309.122a32.343,32.343,0,0,0-1.2-3.609,30.144,30.144,0,0,0-2.213-3.043,6.519,6.519,0,0,1,3.464,6.6Z" transform="translate(-439.44 -155.374)"/><path class="h" d="M526.407,305.89c.541-2.67,11.752-.926,12.714-.842s1.095-1.311.229-1.335c-1.2,0-14.435-.71-13.857-3.332.277-1.455,2.839-.7,2.839-.7s12.233,1.54,12.438.289-6.953-2.406-9.382-2.622-3.3-1.456-2.31-2.406c.674-.674,8.156-.18,10.561.084s9,1.131,6.087-1.937-3.969-6.508-3.609-7.65a1.323,1.323,0,0,1,2.49.192,15.837,15.837,0,0,0,2.285,3.609,10.044,10.044,0,0,0,2.538,2.3c1.131.71,2.117,1.2,2.971,1.72,6.688-.12,25.525-1.119,40.79-8.42,2.755-1.311,2.959-22.289,2.959-22.289l23.42,2.081s0,6.014-1.78,21.652c-3.284,28.28-67.686,23.961-67.686,23.961h0a125.73,125.73,0,0,1-13.532,1.407c-6.279,0-6.291-.517-6.171-1.2.325-1.973,11.055-.493,8.925-2.153S525.986,307.923,526.407,305.89Z" transform="translate(-446.209 -163.473)"/><g class="k" transform="translate(101.549 84.763)"><path d="M544,265.578a51.628,51.628,0,0,0,10.609-14.928c-1.708,4.547-3.44,9.25-3.308,14.11,0,1.431.156,3.091-.9,4.066a23.311,23.311,0,0,0-6.279-3.212" transform="translate(-544 -250.65)"/></g><path class="h" d="M587.486,190.554l-.06,3.031-.6,45.313a9.731,9.731,0,0,1-10.285,9.274h0c-5.69-.12-10.309-4.523-10.333-9.84,0-5.581-.132-11.451-.132-11.451s-7.217-1.2-8.673-10.573c-.746-4.667-.505-12.318-.12-18.561a9.912,9.912,0,0,1,10.922-9.238Z" transform="translate(-439.83 -178.506)"/><path class="a" d="M559,201.183a1.206,1.206,0,1,0,1.2-1.083A1.2,1.2,0,0,0,559,201.183Z" transform="translate(-439.407 -176.143)"/><path class="a" d="M558.6,199.705c.156.156,1.059-.517,2.406-.517s2.237.65,2.406.493-.084-.361-.493-.662a3.344,3.344,0,0,0-1.913-.589,3.187,3.187,0,0,0-1.877.613C558.663,199.344,558.531,199.633,558.6,199.705Z" transform="translate(-439.492 -176.482)"/><path class="a" d="M569.16,201.183a1.206,1.206,0,1,0,1.2-1.083A1.2,1.2,0,0,0,569.16,201.183Z" transform="translate(-437.346 -176.143)"/><path class="a" d="M569.183,199.905c.144.156,1.059-.517,2.406-.517s2.237.65,2.406.493-.084-.361-.505-.662a3.32,3.32,0,0,0-3.777,0C569.243,199.544,569.111,199.833,569.183,199.905Z" transform="translate(-437.345 -176.441)"/><path class="a" d="M565.823,209.478a8.806,8.806,0,0,0-2.093-.373c-.337,0-.649-.1-.71-.325a1.8,1.8,0,0,1,.229-.986c.313-.794.637-1.636.974-2.514a43.3,43.3,0,0,0,2.2-6.58,43.044,43.044,0,0,0-2.731,6.375c-.325.89-.638,1.732-.926,2.538a1.864,1.864,0,0,0-.18,1.3.878.878,0,0,0,.553.481,2.5,2.5,0,0,0,.553.072A7.652,7.652,0,0,0,565.823,209.478Z" transform="translate(-438.689 -176.427)"/><path class="g" d="M564.53,220.966a23.925,23.925,0,0,0,12.594-3.356s-3.043,6.447-12.426,5.569Z" transform="translate(-438.285 -172.591)"/><path class="e" d="M565.75,210.408a2.406,2.406,0,0,1,2.093-.866,2.129,2.129,0,0,1,1.467.782,1.359,1.359,0,0,1,.1,1.552,1.564,1.564,0,0,1-1.7.421,4.741,4.741,0,0,1-1.636-1,1.2,1.2,0,0,1-.373-.385.433.433,0,0,1,0-.481" transform="translate(-438.062 -174.23)"/><path class="a" d="M569.136,208.41c-.217,0-.217,1.4-1.419,2.406s-2.694.842-2.706,1.034.337.277.962.289a3.512,3.512,0,0,0,2.261-.782,3.079,3.079,0,0,0,1.107-2.009C569.389,208.747,569.232,208.4,569.136,208.41Z" transform="translate(-438.188 -174.457)"/><path class="a" d="M586.257,233.932c-2.767-.962-6.014-1.937-7.085-4.679a13.978,13.978,0,0,1-.2-8.649c.373-1.3.9-2.731.325-3.957a7.554,7.554,0,0,0-2.045-2.105,8.673,8.673,0,0,1-2.658-5.906,15.229,15.229,0,0,1,1.2-6.484,5.148,5.148,0,0,0,.565-3.536,5.545,5.545,0,0,0-1.624-1.973,15.424,15.424,0,0,1-3.26-4.354,4.367,4.367,0,0,1-.445-3.717c.674-1.407,2.406-1.852,4.006-1.973,3.717-.277,7.819.541,10.176,3.416,2.129,2.574,2.406,6.171,2.514,9.5.481,10.513.938,21.111-.878,31.467" transform="translate(-437.013 -178.893)"/><path class="a" d="M554.344,190.026a13.69,13.69,0,0,0,1.6.866,10.932,10.932,0,0,1,1.359,1.2c.241.241.505.493.734.77,0,.06.1.132.168.2l.265.265.65.613a16.974,16.974,0,0,0,2.009,1.588,10.5,10.5,0,0,0,10.609.65,11.1,11.1,0,0,0,3.9-3.128c1.6-2.129,1.841-3.849,1.107-4.812s-2.586-.806-4.655-.289a28.1,28.1,0,0,1-3.067.6,7.506,7.506,0,0,1-2.406-.06,6.47,6.47,0,0,1-1.131-.409c-.517-.229-1.2-.589-1.937-.938-.373-.18-.782-.361-1.2-.529l-.662-.241-.734-.217a8.2,8.2,0,0,0-2.815-.229,5.052,5.052,0,0,0-3.837,2,1.528,1.528,0,0,0,.048,2.093Z" transform="translate(-440.441 -179.024)"/><path class="a" d="M568.9,195.634c.132.349,1.419.18,2.935.373s2.755.589,2.947.277-.12-.481-.613-.818a4.812,4.812,0,0,0-2.189-.77,5.1,5.1,0,0,0-2.3.265C569.13,195.189,568.841,195.465,568.9,195.634Z" transform="translate(-437.4 -177.246)"/><path class="a" d="M559.007,196.591c.229.3,1.119,0,2.189,0s1.985.192,2.189-.108,0-.445-.445-.722a3.188,3.188,0,0,0-3.537.108C559.007,196.146,558.9,196.447,559.007,196.591Z" transform="translate(-439.414 -177.121)"/></g><g transform="translate(118.014 197.165)"><path class="d" d="M111.869,461.27l-2.719,11.006,18.729,2.105.674-10.91Z" transform="translate(-108.464 -112.254)"/><path class="a" d="M118.742,461.72a45.482,45.482,0,0,1-1.792,10.02,45.481,45.481,0,0,1,1.792-10.02Z" transform="translate(-106.882 -112.163)"/><path class="a" d="M127.87,471.683a15.157,15.157,0,0,1-2.706-.3l-6.5-.962c-2.538-.385-4.812-.77-6.484-1.107a12.278,12.278,0,0,1-2.634-.674,16.079,16.079,0,0,1,2.706.313l6.5.962c2.538.385,4.812.77,6.484,1.107a13.9,13.9,0,0,1,2.634.661Z" transform="translate(-108.383 -110.759)"/><path class="d" d="M186.053,468.552l-.192-6.832H165.58l.132,12.318h1.2c5.617.192,28.569.553,32.3-.674C203.375,472.053,186.053,468.552,186.053,468.552Z" transform="translate(-97.016 -112.163)"/><path class="a" d="M165.44,471.708h1.347l3.7.084c3.115,0,7.434,0,12.2-.06s9.082-.277,12.2-.457l3.693-.241,1-.072h.349a1.286,1.286,0,0,0-.349,0h-1.01l-3.693.156c-3.115.132-7.422.3-12.185.4s-9.082.12-12.2.12h-4.7A1.132,1.132,0,0,0,165.44,471.708Z" transform="translate(-97.044 -110.29)"/><path class="a" d="M188.215,472.082a8.685,8.685,0,0,1,.65-1.78,9.083,9.083,0,0,1,1.2-1.431,2.634,2.634,0,0,0-1.431,1.311A2.743,2.743,0,0,0,188.215,472.082Z" transform="translate(-92.429 -110.712)"/><path class="a" d="M183.172,469.409a2.482,2.482,0,0,0,.626-.794c.289-.481.469-.878.409-.914s-.337.313-.626.794S183.112,469.372,183.172,469.409Z" transform="translate(-93.449 -110.95)"/><path class="a" d="M181.791,468.628a2.89,2.89,0,0,0,.7-.493c.337-.325.589-.625.541-.674s-.361.168-.71.493S181.743,468.58,181.791,468.628Z" transform="translate(-93.728 -110.999)"/><path class="a" d="M180.89,466.87a4.3,4.3,0,0,0,2.117,0,4.715,4.715,0,0,0-2.117,0Z" transform="translate(-93.909 -111.142)"/><path class="a" d="M180.56,465.74a2.154,2.154,0,0,0,1.2.313,2.129,2.129,0,0,0,1.2-.192,6.643,6.643,0,0,0-1.2,0A5.942,5.942,0,0,0,180.56,465.74Z" transform="translate(-93.976 -111.347)"/><path class="a" d="M183.71,467.951a4.126,4.126,0,0,0,1.311,0,8.773,8.773,0,0,0,1.383-.337,4.011,4.011,0,0,0,.782-.349.722.722,0,0,0,.313-.421.529.529,0,0,0-.2-.517,2.406,2.406,0,0,0-2.947.77,2.3,2.3,0,0,0-.409.878.758.758,0,0,0,0,.361,3.609,3.609,0,0,1,.565-1.131,2.406,2.406,0,0,1,1.107-.746,1.985,1.985,0,0,1,1.552.072c.217.144.144.385-.084.529a4.055,4.055,0,0,1-.734.337,8.161,8.161,0,0,1-1.335.373A11.444,11.444,0,0,0,183.71,467.951Z" transform="translate(-93.337 -111.273)"/><path class="a" d="M184.295,468.1a1.2,1.2,0,0,0,.132-.9,2.117,2.117,0,0,0-.373-.95,1.3,1.3,0,0,0-1.107-.638.505.505,0,0,0-.385.613,1.383,1.383,0,0,0,.229.577,4.333,4.333,0,0,0,.637.77,1.9,1.9,0,0,0,.758.517,8.378,8.378,0,0,1-.638-.638,4.107,4.107,0,0,1-.553-.77c-.192-.277-.325-.77,0-.83s.674.277.878.529a2.406,2.406,0,0,1,.385.842,4.079,4.079,0,0,1,.036.878Z" transform="translate(-93.573 -111.373)"/><path class="a" d="M165.68,467.025a14.639,14.639,0,0,1,1.5,0,6.592,6.592,0,0,1,3.308,1.287,6.484,6.484,0,0,1,2.105,2.839c.337.866.373,1.456.421,1.444a1.071,1.071,0,0,0,0-.409,5.4,5.4,0,0,0-.241-1.095,6.327,6.327,0,0,0-2.129-2.983,6.243,6.243,0,0,0-3.44-1.2,6.019,6.019,0,0,0-1.119,0C165.824,466.9,165.68,466.94,165.68,467.025Z" transform="translate(-96.995 -111.116)"/><path class="a" d="M173.9,470.019a12.336,12.336,0,0,0,2.971.229,11.284,11.284,0,0,0,2.971-.313,24.628,24.628,0,0,0-2.971.06C175.235,470.055,173.9,469.947,173.9,470.019Z" transform="translate(-95.328 -110.502)"/><path class="a" d="M170.59,470.062s.108.277.253.589.217.565.289.553.1-.313-.072-.662S170.626,469.99,170.59,470.062Z" transform="translate(-95.999 -110.473)"/><path class="a" d="M169.3,468.542a1.383,1.383,0,0,0,.313.457c.217.2.421.349.469.289s-.084-.253-.3-.457S169.348,468.494,169.3,468.542Z" transform="translate(-96.261 -110.781)"/><path class="a" d="M167.5,467.892c0,.06.289.06.589.156s.517.253.577.2-.132-.325-.505-.445S167.476,467.82,167.5,467.892Z" transform="translate(-96.626 -110.937)"/><path class="a" d="M166.22,467.568c0,.06.1.168.277.229s.325.06.349,0-.1-.168-.265-.229S166.244,467.507,166.22,467.568Z" transform="translate(-96.886 -110.985)"/><path class="h" d="M246.251,251.176l-5.774,2.755L235.16,245.6l3.115-6.435c.289-.6.613-1.275.938-2.045a8.768,8.768,0,0,0,.686-2.827,13.147,13.147,0,0,0-.1-3.609c-.289-1.071.854-1.961,1.624-1.323s1.636,3.609,1.059,7.109,3.609-.217,5.088-1.564,6.447-5.269,7.217-5.124c1.2.229,1.107,1.516-.457,2.827s-5.954,5.557-5.221,6.339h0a4.342,4.342,0,0,1,3.777,3.368c.385,1.744.71,4.15-.277,4.956A57.91,57.91,0,0,1,246.251,251.176Z" transform="translate(-82.899 -159.349)"/><path class="h" d="M151.356,183.861,151.2,234l21.508,1.022.626-12.2s7.638,1.516,9.623-5.569c1.2-4.535.95-39.563.95-39.563Z" transform="translate(-99.933 -169.788)"/><path class="m" d="M190.087,183.967c-1.443,3-8.348,8.42-8.348,8.42l-3.115,8.348c-2.706-2.117-6.339-2-7.025,2.755-.493,3.44,3.777,4.138,3.777,4.138-2.49,4.234-4.174,7.662-7.795,11.692-3.921,4.354-6.123,4.812-10.381,4.812h-4.679s-9.623-8.011-7.7-29.134,20.882-14.952,25.4-20.233C177.565,166.284,194.923,173.959,190.087,183.967Z" transform="translate(-101.279 -171.121)"/><path class="d" d="M145.66,211.407h.6a10.308,10.308,0,0,0,1.7-.2,12.149,12.149,0,0,0,5.509-2.923,30.638,30.638,0,0,0,5.569-7.47c1.816-3,3.813-6.508,7.217-8.877a17.43,17.43,0,0,1,5.485-2.406c1.877-.481,3.7-.782,5.437-1.119a20.521,20.521,0,0,0,8.685-3.236,9.431,9.431,0,0,0,3.512-5.064,7.711,7.711,0,0,0,.192-2.3,3.584,3.584,0,0,0,.072.589,6.651,6.651,0,0,1-.168,1.72,9.358,9.358,0,0,1-3.5,5.184,20.328,20.328,0,0,1-8.745,3.332c-3.428.7-7.434,1.2-10.826,3.44s-5.353,5.81-7.217,8.793a30.276,30.276,0,0,1-5.666,7.482,12.029,12.029,0,0,1-5.593,2.887,6.736,6.736,0,0,1-2.261.168Z" transform="translate(-101.057 -169.764)"/><path class="d" d="M144.74,194.692s.337-.132,1-.349a14.05,14.05,0,0,1,2.947-.71,6.652,6.652,0,0,1,4.619,1,3.885,3.885,0,0,1,1.66,2.466,3.488,3.488,0,0,1-.95,3.152,2.731,2.731,0,0,1-1.7.686,3.476,3.476,0,0,1-1.852-.493A5.533,5.533,0,0,1,148,197.314a7.722,7.722,0,0,1,2.129-8.18,7.819,7.819,0,0,1,4.354-1.949,13.46,13.46,0,0,1,4.956.637,34.318,34.318,0,0,0,4.992,1.2,20.33,20.33,0,0,0,5.269,0,17.563,17.563,0,0,0,5.064-1.4,6.015,6.015,0,0,0,3.38-3.548,4.607,4.607,0,0,0-1.119-4.487,3.921,3.921,0,0,0-4.318-.637,3.224,3.224,0,0,0-1.6,1.492,3.609,3.609,0,0,0-.337,2.105,4.908,4.908,0,0,0,2.177,3.428,7.109,7.109,0,0,0,3.753,1.059,11,11,0,0,0,3.609-.541,12.979,12.979,0,0,0,5.341-3.248,14.014,14.014,0,0,0,3.765-6.7c.132-.674.217-1.022.217-1.022a4.894,4.894,0,0,1-.168,1.034,13.845,13.845,0,0,1-3.717,6.8,13.232,13.232,0,0,1-5.377,3.308,11.066,11.066,0,0,1-3.609.565,7.289,7.289,0,0,1-3.849-1.071,5.112,5.112,0,0,1-2.285-3.609,3.741,3.741,0,0,1,.361-2.237,3.488,3.488,0,0,1,1.7-1.6,4.186,4.186,0,0,1,4.583.674,4.812,4.812,0,0,1,1.2,4.727,6.171,6.171,0,0,1-3.512,3.7,17.779,17.779,0,0,1-5.148,1.431,20.257,20.257,0,0,1-5.329,0,34.051,34.051,0,0,1-5.028-1.2,13.064,13.064,0,0,0-4.812-.638,7.482,7.482,0,0,0-6.315,9.828,5.4,5.4,0,0,0,2.406,3.019,3.38,3.38,0,0,0,1.744.481,2.6,2.6,0,0,0,1.588-.638,3.32,3.32,0,0,0,.914-3A3.717,3.717,0,0,0,153.4,194.7a6.616,6.616,0,0,0-4.535-1.01,14,14,0,0,0-2.947.662Z" transform="translate(-101.244 -170.226)"/><path class="a" d="M137.779,305.738,109.15,493.809l23.781,3.019,33.56-157.746,8.444,158.8,25.778-.445L196.323,300.89Z" transform="translate(-108.464 -144.793)"/><path class="a" d="M174.486,498.6v-.577l-8.2-154.258L133.516,497.593l-24.936-3.164,28.8-189.142h.469l59.182-4.908v.638l4.4,197.153Zm-7.53-163.989,8.661,162.762,24.6-.433-4.366-195.3-57.426,4.812-28.472,186.94,22.626,2.875Z" transform="translate(-108.58 -144.896)"/><path class="d" d="M178.953,492.4c-.168,0-.313-37.686-.313-84.2s.144-84.2.313-84.2.313,37.674.313,84.2S179.073,492.4,178.953,492.4Z" transform="translate(-94.366 -140.104)"/><path class="d" d="M124.571,489.817a2.61,2.61,0,0,1,0-.421,10.976,10.976,0,0,1,.217-1.2l.866-4.571c.806-4.006,1.949-9.731,3.356-16.84,2.875-14.17,6.965-33.681,11.656-55.273s9.118-41.042,12.4-55.116c1.648-7.013,3-12.69,3.933-16.672.481-1.925.842-3.44,1.107-4.511.132-.493.229-.878.313-1.2a2.276,2.276,0,0,1,.12-.4,1.957,1.957,0,0,1,0,.409c-.06.3-.144.7-.241,1.2-.241,1.083-.577,2.6-1,4.547-.89,3.982-2.165,9.623-3.741,16.708-3.176,14.11-7.518,33.6-12.221,55.152S132.5,452.72,129.5,466.866c-1.492,7.037-2.694,12.751-3.609,16.744-.421,1.949-.746,3.476-.986,4.547l-.265,1.2a2.249,2.249,0,0,1-.072.457Z" transform="translate(-105.337 -138.154)"/><path class="d" d="M168.5,332.517a25.406,25.406,0,0,1-4.054.4c-2.514.18-6.014.361-9.791.734s-7.217.878-9.731,1.2a24.744,24.744,0,0,1-4.066.4,27.26,27.26,0,0,1,3.994-.842c2.478-.421,5.918-1,9.743-1.383s7.314-.481,9.828-.541A26.219,26.219,0,0,1,168.5,332.517Z" transform="translate(-102.031 -138.396)"/><path class="d" d="M184.5,324.054a6.351,6.351,0,0,1-2.815.325,12.029,12.029,0,0,1-10.658-7.662,6.014,6.014,0,0,1-.589-2.767c.108,0,.289,1.046,1,2.6a13.052,13.052,0,0,0,4.15,5.076,12.919,12.919,0,0,0,6.135,2.31C183.42,324.114,184.49,323.946,184.5,324.054Z" transform="translate(-96.03 -142.143)"/><path class="e" d="M130.59,332.664h62.646l-2.406-50.641c-.409-9.948-.349-11.139-.589-20.317,0,0,9.346,11.307,16.708,19.246a14.976,14.976,0,0,0,17.394,3.332l38.492-26.848L255.618,239l-34.98,21.411c-1.6-.986-15.229-20.449-24.635-29.9a33.356,33.356,0,0,0-22.686-9.816,168.978,168.978,0,0,0-21.255.854A22.241,22.241,0,0,0,132.286,241.8c-.674,8.132-.132,17.562-.132,33.609Z" transform="translate(-104.115 -161.073)"/><path class="e" d="M144.458,225.24c-5.906,2.622-30.577,34.234-32.322,54.755-1.3,15.3,28.472,13.641,28.472,13.641s2.021-62.791,1.143-61.9" transform="translate(-107.867 -160.141)"/><path class="a" d="M134.5,229.69v.662c0,.433-.084,1.119-.144,1.876-.12,1.636-.289,3.994-.445,6.917-.337,5.846-.613,13.917-.89,22.855s-.529,17.021-.83,22.855c-.144,2.923-.3,5.281-.421,6.917-.06.758-.12,1.371-.156,1.877a4.743,4.743,0,0,1-.072.65v-.65c0-.421.06-1.131.108-1.889.084-1.72.2-4.066.337-6.917.253-5.846.481-13.929.758-22.855s.589-17.009.962-22.855c.18-2.923.373-5.281.529-6.917.072-.746.144-1.371.192-1.864S134.5,229.69,134.5,229.69Z" transform="translate(-103.922 -159.238)"/><path class="a" d="M133.042,263.18a7.082,7.082,0,0,1-.842,1.2c-.553.71-1.335,1.66-2.249,2.67s-1.78,1.889-2.406,2.514a7.746,7.746,0,0,1-1.095.95,9.046,9.046,0,0,1,.962-1.083c.613-.65,1.468-1.54,2.406-2.55s1.72-1.937,2.31-2.61a8.01,8.01,0,0,1,.914-1.095Z" transform="translate(-104.954 -152.443)"/><path class="a" d="M204.25,259.9a18.587,18.587,0,0,1,.589-3.079,21.75,21.75,0,0,1,.83-3.019,18.359,18.359,0,0,1-.589,3.079,18.84,18.84,0,0,1-.83,3.019Z" transform="translate(-89.17 -154.346)"/><path class="a" d="M207.44,260.5a25.476,25.476,0,0,1-.926-3.464,28.518,28.518,0,0,1-.674-3.512,24.965,24.965,0,0,1,.926,3.452,28.462,28.462,0,0,1,.674,3.524Z" transform="translate(-88.847 -154.403)"/><path class="a" d="M184.2,263.008s-.132-.108-.361-.337-.626-.589-1.01-.974c-.866-.842-2.129-2.081-3.609-3.669-2.935-3.152-7.073-7.771-9.395-14.074a23.156,23.156,0,0,1-1.48-9.226,19.162,19.162,0,0,1,1.672-7.458,10.826,10.826,0,0,1,3.248-3.97,10.334,10.334,0,0,1,1.2-.77l.433-.241a14.321,14.321,0,0,0-1.54,1.083,11.054,11.054,0,0,0-3.152,3.982,19.03,19.03,0,0,0-1.588,7.374,22.855,22.855,0,0,0,1.467,9.13c2.31,6.255,6.4,10.826,9.3,14.05,1.468,1.6,2.706,2.851,3.609,3.729l.974,1Z" transform="translate(-96.459 -160.739)"/><path class="j" d="M146.616,242.138c-.132.108-1.2-.962-2.31-2.406a8.71,8.71,0,0,1-1.816-2.8,9.431,9.431,0,0,1,2.31,2.406,9.262,9.262,0,0,1,1.816,2.8Z" transform="translate(-101.7 -157.769)"/><path class="j" d="M159.484,255.39a34.678,34.678,0,0,1-6.6,6.58,18.042,18.042,0,0,1,3.079-3.512,17.167,17.167,0,0,1,3.524-3.067Z" transform="translate(-99.592 -154.024)"/><path class="j" d="M171.006,276.681a28.317,28.317,0,0,1-1.7-3.067,27.876,27.876,0,0,1-1.84-2.983,6.363,6.363,0,0,1,2.406,2.67A6.447,6.447,0,0,1,171.006,276.681Z" transform="translate(-96.632 -150.932)"/><path class="j" d="M139.494,275.036a17.25,17.25,0,0,1-1.732-9.876c.192,0,.265,2.249.746,4.956S139.674,274.964,139.494,275.036Z" transform="translate(-102.685 -152.042)"/><path class="j" d="M155.99,283.682a8.059,8.059,0,0,1-1.2-4.054,8.348,8.348,0,0,1,.409-4.2c.192,0,0,1.889.217,4.15S156.159,283.622,155.99,283.682Z" transform="translate(-99.226 -149.958)"/><path class="j" d="M150.691,296.185a21.111,21.111,0,0,1-4.559-2.478,21.414,21.414,0,0,1-4.222-3.007,22.107,22.107,0,0,1,4.559,2.478,21.878,21.878,0,0,1,4.222,3.007Z" transform="translate(-101.818 -146.86)"/><path class="j" d="M176.587,291.43a53.9,53.9,0,0,1-4.715,2.935,54.793,54.793,0,0,1-4.691,3,16.251,16.251,0,0,1,4.354-3.524,15.866,15.866,0,0,1,5.052-2.406Z" transform="translate(-96.691 -146.712)"/><path class="j" d="M144.183,306.415a19.381,19.381,0,0,1-4.812-.65,19.465,19.465,0,0,1-4.812-1.275,19.886,19.886,0,0,1,4.872.662,19.584,19.584,0,0,1,4.751,1.263Z" transform="translate(-103.309 -144.062)"/><path class="j" d="M162.129,309.862a11.379,11.379,0,0,1-3.609-6.592,23.493,23.493,0,0,1,1.78,3.284,23.046,23.046,0,0,1,1.828,3.308Z" transform="translate(-98.448 -144.31)"/><path class="j" d="M179.873,304.632c.132.108-.517,1.107-1.443,2.225s-1.8,1.925-1.937,1.816.517-1.107,1.456-2.225S179.741,304.523,179.873,304.632Z" transform="translate(-94.805 -144.035)"/><path class="j" d="M144.415,249.654c.1.144-.746.866-1.876,1.636A5.6,5.6,0,0,1,140.3,252.4c-.1-.1.746-.878,1.889-1.636S144.319,249.51,144.415,249.654Z" transform="translate(-102.146 -155.193)"/><path class="j" d="M157.676,236.274a18.274,18.274,0,0,1-1.792-4.932,17.851,17.851,0,0,1-.914-5.172,28.868,28.868,0,0,1,1.516,5A28.048,28.048,0,0,1,157.676,236.274Z" transform="translate(-99.168 -159.952)"/><path class="j" d="M171.29,248.545a24.061,24.061,0,0,1-3.272-.686,22.2,22.2,0,0,1-3.308-.577A8.6,8.6,0,0,1,171.29,248.545Z" transform="translate(-97.192 -155.707)"/><path class="j" d="M180.293,236.815a9.07,9.07,0,0,1-7.133-1.095,34.619,34.619,0,0,1,3.609.662C178.657,236.694,180.281,236.634,180.293,236.815Z" transform="translate(-95.478 -158.015)"/><path class="j" d="M188.236,251.4a14.688,14.688,0,0,1,.2-5.317,14.892,14.892,0,0,1,1.48-5.1,46.793,46.793,0,0,1-.866,5.208,47.954,47.954,0,0,1-.818,5.209Z" transform="translate(-92.45 -156.947)"/><path class="j" d="M200.014,266.128a35.087,35.087,0,0,1-6.484-6.688,35.087,35.087,0,0,1,6.483,6.688Z" transform="translate(-91.345 -153.202)"/><path class="j" d="M208.483,263.78a10.237,10.237,0,0,1-1.672,3.188,10.754,10.754,0,0,1-2.2,2.839,10.549,10.549,0,0,1,1.672-3.188A10.755,10.755,0,0,1,208.483,263.78Z" transform="translate(-89.097 -152.322)"/><path class="j" d="M218.793,260.036a14.831,14.831,0,0,1-2.129-3.681,14.434,14.434,0,0,1-1.564-3.945A28.435,28.435,0,0,1,218.793,260.036Z" transform="translate(-86.969 -154.629)"/><path class="j" d="M233.725,253.184a15.949,15.949,0,0,1-4.427-.469,16.225,16.225,0,0,1-4.318-1.083,15.422,15.422,0,0,1,4.427.469,15.7,15.7,0,0,1,4.318,1.083Z" transform="translate(-84.964 -154.789)"/><path class="j" d="M120.43,269.343a35.666,35.666,0,0,1,4.03-8.553,36.255,36.255,0,0,1-4.03,8.553Z" transform="translate(-106.176 -152.928)"/><path class="j" d="M128.821,255.753a13.233,13.233,0,0,1-2.971-2.827,13.557,13.557,0,0,1-2.49-3.236,13.231,13.231,0,0,1,2.959,2.815,14.435,14.435,0,0,1,2.5,3.248Z" transform="translate(-105.581 -155.18)"/><path class="j" d="M127.838,275.884c.108.132-.541.854-1.455,1.612a4.425,4.425,0,0,1-1.84,1.119c-.108-.084.529-.854,1.443-1.612S127.73,275.751,127.838,275.884Z" transform="translate(-105.344 -149.87)"/><path class="j" d="M130.176,240.742c.132.108-.253.818-.854,1.576s-1.2,1.275-1.347,1.2.253-.806.854-1.564S130.044,240.634,130.176,240.742Z" transform="translate(-104.651 -156.998)"/><g class="k" transform="translate(75.806 88.122)"><path d="M171.6,244.38c4.066,12.787,7.217,26.211,11.283,38.986l-.974-26.463A63.14,63.14,0,0,1,171.6,244.38Z" transform="translate(-171.6 -244.38)"/></g><g class="k" transform="translate(25.43 91.13)"><path d="M131.656,289.294c-3.043-14.134-2.682-28.869,2.406-42.414Z" transform="translate(-129.721 -246.88)"/></g></g></g></svg>