<svg xmlns="http://www.w3.org/2000/svg" width="670.398" height="495.822" viewBox="0 0 670.398 495.822"><defs><style>.a{fill:#263238;}.b{fill:#455a64;}.c{fill:#7d05b8;}.d{fill:#fafafa;}.e{fill:#ffbe9d;}.f{opacity:0.6;}.g{fill:#fff;}.h{opacity:0.3;}.i{fill:#eb996e;}.j{fill:#d9b500;}.k{fill:#9b05b8;}.l{fill:#e0e0e0;}</style></defs><g transform="translate(11.893 454.366)"><path class="a" d="M685.645,445.218c0,.209-147.415.388-329.238.388s-329.267-.179-329.267-.388,147.385-.388,329.267-.388S685.645,444.994,685.645,445.218Z" transform="translate(-27.14 -444.83)"/></g><g transform="translate(189.551)"><path class="b" d="M148.113,279.393,186.7,410.96a13.656,13.656,0,0,0,13.06,9.868l156.6.433a14.422,14.422,0,0,0,10.534-4.55,14.734,14.734,0,0,0,3.974-10.857h0A14.56,14.56,0,0,0,356.411,392H296.533L248.576,257H164.631a17.168,17.168,0,0,0-13.825,7,17.555,17.555,0,0,0-2.693,15.389Z" transform="translate(-147.391 -83.04)"/><path class="a" d="M260.6,354.852c0,.313-15.971.552-35.664.552s-35.65-.239-35.65-.552,15.956-.552,35.65-.552S260.6,354.539,260.6,354.852Z" transform="translate(-127.389 -35.083)"/><path class="a" d="M155.682,259.78c.281-.09,10.948,31.425,23.816,70.4s23.047,70.658,22.767,70.747-10.947-31.35-23.816-70.4S155.387,259.885,155.682,259.78Z" transform="translate(-143.436 -81.67)"/><path class="b" d="M236.234,483.707l-9.544-.224V366.74h9.544Z" transform="translate(-109.534 -28.952)"/><path class="b" d="M199.86,449.4H288.7L248.452,435.26h-9.544Z" transform="translate(-122.343 4.82)"/><path class="c" d="M184.65,251.911l14.7,74.211-2.63,55.61,98.808-16.6-3.871-48.668-.118-40.308L315.769,323.6l18.852-36.829-34.527-63.223h0A58.254,58.254,0,0,0,277.5,208.767a45.922,45.922,0,0,0-14.168-2.747h0a56.1,56.1,0,0,1-34.2,0c-1.389.179-3.309.373-5.747.657h-.443a43.96,43.96,0,0,0-38.132,41.5Z" transform="translate(-129.604 -108.167)"/><path class="c" d="M225.852,206.47s-40.6.314-45.622,43.637l-.68,31.8,34.955-.3Z" transform="translate(-132.039 -107.945)"/><path class="d" d="M322.628,243.982c0,.314-31.941.567-71.343.567S180,244.281,180,243.982s31.927-.552,71.343-.552S322.628,243.684,322.628,243.982Z" transform="translate(-131.824 -89.728)"/><path class="d" d="M322.647,248.6c0,.3-31.941.552-71.343.552s-71.343-.254-71.343-.552,31.926-.567,71.343-.567S322.647,248.284,322.647,248.6Z" transform="translate(-131.843 -87.461)"/><path class="d" d="M320.353,240.182c0,.314-31.424.567-70.191.567S180,240.481,180,240.182s31.424-.552,70.206-.552S320.353,239.869,320.353,240.182Z" transform="translate(-131.824 -91.601)"/><path class="a" d="M256.724,310.661c-.31,0-.177-17.571.3-39.218s1.108-39.2,1.4-39.2.177,17.571-.3,39.218S257.02,310.661,256.724,310.661Z" transform="translate(-95.276 -95.243)"/><path class="e" d="M247.4,265.69s19.206,1.388,22.663,6.524,8.731,19.751,6.737,19.855a5.4,5.4,0,0,1-3.457-1.09l-5.26-9.435s.842,9.107-2.3,9.286S247,294.174,247,294.174Z" transform="translate(-99.839 -78.757)"/><path class="c" d="M179.584,251.847l-.074,50.026a19.063,19.063,0,0,0,7.381,14.088,18.656,18.656,0,0,0,15.4,3.453l77.43-16.123-.163-32.082-66.823,13-.886-33.963Z" transform="translate(-132.058 -86.367)"/><path class="a" d="M213.155,320.594a6.608,6.608,0,0,1,1.019-.284l2.955-.687,11.376-2.433,40.348-8.375-.4.478V276.345l.65.552-13.622,2.642L202.3,289.766l-.576.119v-.478c.5-14.929.931-27.29,1.226-36.068.177-4.27.31-7.658.414-10.077,0-1.09.1-1.971.148-2.642a4.068,4.068,0,0,1,.1-.911,7.253,7.253,0,0,1,0,.911v2.657c0,2.418-.089,5.807-.148,10.077-.207,8.793-.488,21.184-.827,36.068l-.561-.463,53.186-10.45,13.622-2.628.65-.134v34.038l-.4.075-40.407,7.912-11.435,2.165-3.029.537A5.076,5.076,0,0,1,213.155,320.594Z" transform="translate(-121.455 -91.562)"/><path class="a" d="M252.286,206.781a3.764,3.764,0,0,1,.31.732,15.281,15.281,0,0,1,.606,2.209,18.232,18.232,0,0,1-.369,8.42,22.148,22.148,0,0,1-6.707,10.45,20.766,20.766,0,0,1-14.094,5.389,19.1,19.1,0,0,1-13.932-5.718,19.872,19.872,0,0,1-5.186-11.331,17.879,17.879,0,0,1,.975-8.375,11.607,11.607,0,0,1,.99-2.06c.266-.448.414-.672.458-.657s-.473,1-1.049,2.866a19.074,19.074,0,0,0-.606,8.121,19.49,19.49,0,0,0,5.141,10.719,18.249,18.249,0,0,0,13.208,5.315,20,20,0,0,0,13.415-5.031,21.852,21.852,0,0,0,6.648-9.943,19.1,19.1,0,0,0,.68-8.121C252.522,207.856,252.167,206.811,252.286,206.781Z" transform="translate(-116.175 -108.255)"/><path class="d" d="M242.092,298.655a23.758,23.758,0,0,1,0-4.941c.118-2.986.266-7.226.3-11.853s0-8.823-.162-11.868a24.509,24.509,0,0,1,0-4.941,19.9,19.9,0,0,1,.739,4.9c.281,2.986.5,7.255.473,11.943s-.3,8.868-.606,11.943A20.427,20.427,0,0,1,242.092,298.655Z" transform="translate(-102.243 -79.072)"/><path class="d" d="M239.4,299.145a24.707,24.707,0,0,1-.133-4.912c0-3.449.074-7.464.118-11.779V270.617a23.3,23.3,0,0,1,.177-4.9,20.1,20.1,0,0,1,.606,4.867c.192,2.986.355,7.211.325,11.824s-.207,8.793-.443,11.824A20.471,20.471,0,0,1,239.4,299.145Z" transform="translate(-103.559 -78.742)"/><path class="c" d="M301.765,421.25l14.626,40.726L337.163,490.8a4.507,4.507,0,0,1-1.226,6.375h0a4.392,4.392,0,0,1-4,.343c-8.377-3.508-39.107-16.586-40.023-19.616-1.049-3.523-20.89-47.324-20.89-47.324Z" transform="translate(-88.372 -2.085)"/><g class="f" transform="translate(202.549 473.087)"><path class="g" d="M329.565,479.375l-45.075-22,.665,1.717a6.758,6.758,0,0,0,2.955,3.464c3.693,2.015,14.035,7.345,37.275,17.213a4.393,4.393,0,0,0,4.122-.388Z" transform="translate(-284.49 -457.37)"/></g><g class="f" transform="translate(202.584 456.794)"><path class="g" d="M287.611,446.507a2.672,2.672,0,0,1,1.936,2.986,2.557,2.557,0,0,1-2.955,1.971,2.822,2.822,0,0,1-2.039-3.195,2.654,2.654,0,0,1,3.265-1.7" transform="translate(-284.514 -446.456)"/></g><path class="a" d="M304.239,465.132a13.35,13.35,0,0,1,2.3-4.479c1.876-2.12,4.3-2.433,4.255-2.7s-.635-.224-1.625,0a7.078,7.078,0,0,0-5.067,5.583C303.973,464.52,304.136,465.132,304.239,465.132Z" transform="translate(-72.6 15.912)"/><path class="a" d="M307.54,467.323c.251.1,1.034-1.717,2.866-3.135a32.849,32.849,0,0,1,3.708-2.03c0-.254-2.216-.358-4.284,1.284S307.289,467.293,307.54,467.323Z" transform="translate(-70.966 18.005)"/><path class="a" d="M298.8,462.392c.266.119,1.477-2.672,4.107-5.121s5.481-3.464,5.393-3.732-3.206.358-6.028,2.986S298.565,462.362,298.8,462.392Z" transform="translate(-75.126 13.801)"/><path class="a" d="M295.092,452.975c.192.209,2.039-1.6,4.875-2.836s5.378-1.493,5.363-1.717-2.718-.508-5.747.851S294.96,452.841,295.092,452.975Z" transform="translate(-76.883 11.214)"/><path class="a" d="M292.01,444.975c.207.179,1.906-2.03,4.994-3.09s5.762-.463,5.821-.731-.606-.448-1.729-.627a9.545,9.545,0,0,0-8.126,2.866C292.172,444.259,291.877,444.9,292.01,444.975Z" transform="translate(-78.366 7.376)"/><path class="a" d="M297.331,442.712a4,4,0,0,0-.547-1.493,11.344,11.344,0,0,0-2.733-3.523,4.946,4.946,0,0,0-2.866-1.493,1.772,1.772,0,0,0-1.714,1.1,2.91,2.91,0,0,0,0,2.06,6.186,6.186,0,0,0,7.224,3.464,7.233,7.233,0,0,0,5.23-6.136,2.555,2.555,0,0,0-.635-2,1.744,1.744,0,0,0-2.024-.209,6.192,6.192,0,0,0-2.1,2.418,13.063,13.063,0,0,0-1.477,4.21,3.71,3.71,0,0,0,0,1.642,19.873,19.873,0,0,1,2.157-5.494,5.829,5.829,0,0,1,1.876-2.06.909.909,0,0,1,1.108.1,1.745,1.745,0,0,1,.355,1.329,6.487,6.487,0,0,1-4.595,5.27,5.344,5.344,0,0,1-6.116-2.807,2.1,2.1,0,0,1-.118-1.493.96.96,0,0,1,.946-.612,4.487,4.487,0,0,1,2.438,1.194A16.586,16.586,0,0,1,297.331,442.712Z" transform="translate(-79.653 4.325)"/><path class="c" d="M343.9,414.164l-1.256,33.1s32.857,12.421,33.212,18.556l-63.528-.179L312.15,414Z" transform="translate(-68.736 -5.659)"/><g class="f" transform="translate(252.398 438.711)"><path class="g" d="M320.076,434.4a2.63,2.63,0,0,0-1.8,2.986,2.5,2.5,0,0,0,2.955,1.836,2.779,2.779,0,0,0,1.891-3.18,2.608,2.608,0,0,0-3.25-1.568" transform="translate(-318.231 -434.343)"/></g><g class="f" transform="translate(243.532 454.829)"><path class="g" d="M312.23,450.29v-5.15l61.105,2.06s2.822,1.254,2.5,3.269Z" transform="translate(-312.23 -445.14)"/></g><path class="a" d="M335.352,436.149c0,.313-1.551.463-3.088,1.493s-2.349,2.329-2.63,2.195.177-1.941,2.054-3.12S335.426,435.865,335.352,436.149Z" transform="translate(-60.425 5.125)"/><path class="a" d="M339.366,437.982c.074.313-1.271.836-2.334,2.165s-1.359,2.732-1.67,2.717-.5-1.792.842-3.419S339.366,437.683,339.366,437.982Z" transform="translate(-57.762 6.099)"/><path class="a" d="M340.659,445.133c-.281,0-.709-1.493.1-3.21s2.246-2.4,2.379-2.135-.768,1.179-1.477,2.6S340.969,445.1,340.659,445.133Z" transform="translate(-55.301 7.024)"/><path class="a" d="M335.258,431.362c-.133.284-1.551-.149-3.309,0s-3.132.672-3.295.4,1.167-1.388,3.235-1.493S335.406,431.109,335.258,431.362Z" transform="translate(-60.863 2.358)"/><g class="h" transform="translate(243.414 415.059)"><path d="M343.648,418.5l-.222,5.9-31.247-.373-.03-5.315Z" transform="translate(-312.15 -418.5)"/></g><path class="a" d="M336.332,428.23a6.129,6.129,0,0,1-3.191,0,14.915,14.915,0,0,1-3.324-1.045,14.732,14.732,0,0,1-1.832-.985,4.441,4.441,0,0,1-.96-.761,1.384,1.384,0,0,1-.133-1.672,1.708,1.708,0,0,1,1.359-.717,3.968,3.968,0,0,1,1.2.179,12.371,12.371,0,0,1,1.98.687,11.159,11.159,0,0,1,2.955,1.956c1.477,1.388,1.98,2.553,1.876,2.627s-.857-.881-2.364-2.03a12.335,12.335,0,0,0-2.837-1.627,10.807,10.807,0,0,0-1.817-.567c-.68-.194-1.256-.194-1.477.1s-.074.164,0,.358a3.3,3.3,0,0,0,.709.567,16.2,16.2,0,0,0,1.684.97,17.782,17.782,0,0,0,3.073,1.194,20.123,20.123,0,0,1,3.1.761Z" transform="translate(-61.804 -1.198)"/><path class="a" d="M333.2,430.181a5.4,5.4,0,0,1-.827-3.12,10.857,10.857,0,0,1,.443-3.523,12.016,12.016,0,0,1,.813-1.941,2.664,2.664,0,0,1,2.039-1.6,1.477,1.477,0,0,1,1.33.9,4.7,4.7,0,0,1,.325,1.194,7.087,7.087,0,0,1,0,2.165,7.506,7.506,0,0,1-1.374,3.314c-1.241,1.657-2.541,2.03-2.571,1.926a13.063,13.063,0,0,0,1.935-2.359,7.246,7.246,0,0,0,1.019-2.986,6.634,6.634,0,0,0,0-1.866c-.089-.672-.34-1.224-.591-1.164a2.287,2.287,0,0,0-1.123,1.06,11.31,11.31,0,0,0-.8,1.732,11.661,11.661,0,0,0-.621,3.21C333.052,428.957,333.377,430.122,333.2,430.181Z" transform="translate(-59.086 -2.702)"/><path class="a" d="M340.423,307.9C302.853,311.831,253.05,317,253.05,317l6.8,61.79s73.161-19.542,72.644-17.914,3.4,131.462,3.4,131.462h44.056l.827-147.093A37.161,37.161,0,0,0,368.9,317.417a36.355,36.355,0,0,0-28.472-9.512Z" transform="translate(-96.95 -58.047)"/><path class="a" d="M192.21,336.324v19.154c0,13.048,14.7,26.872,27.6,26.872h9.987c7.86,0,20.181-5.792,26.593-10.45l3.812-2.822,45.888,143.629s52.492-9.51,52.492-11.182-35.546-117.638-51.96-171.456c-6.707-21.975-30.006-34.754-51.532-27.3-.724.254-1.477.537-2.2.836C229.307,313.124,192.21,336.324,192.21,336.324Z" transform="translate(-125.995 -61.535)"/><path class="b" d="M329.471,500.584a2.688,2.688,0,0,1-.222-.508c-.162-.4-.355-.911-.591-1.493-.5-1.359-1.226-3.359-2.083-5.971-1.758-5.18-4.166-12.749-7.091-22.109-5.91-18.706-13.71-44.637-22.25-73.3-4.255-14.346-8.288-28.006-11.982-40.457-1.832-6.21-3.561-12.122-5.186-17.661q-1.241-4.15-2.364-7.987a70.789,70.789,0,0,0-2.393-7.27,29.859,29.859,0,0,0-7.387-10.614,63.469,63.469,0,0,0-7.771-6.106c-2.246-1.493-4.033-2.642-5.26-3.389l-1.374-.881a1.846,1.846,0,0,1-.458-.328,1.881,1.881,0,0,1,.5.239l1.477.776c1.256.687,3.088,1.747,5.378,3.225a58.81,58.81,0,0,1,7.948,5.971,30.056,30.056,0,0,1,7.712,10.749,70.818,70.818,0,0,1,2.482,7.33c.783,2.553,1.581,5.225,2.423,7.987l5.289,17.616c3.708,12.436,7.786,26.1,12.07,40.427,8.539,28.618,16.251,54.535,21.925,73.4l6.766,22.2,1.891,5.971c.192.642.34,1.149.473,1.568S329.5,500.584,329.471,500.584Z" transform="translate(-96.946 -60.609)"/><path class="b" d="M314.788,330.882c.266.179-2.231,3.971-4.314,9.121s-3.029,9.6-3.354,9.539.148-4.688,2.334-9.972S314.566,330.7,314.788,330.882Z" transform="translate(-71.182 -46.629)"/><path class="b" d="M322.647,334.891c.118.3-3.664,1.986-7.609,5.135s-6.486,6.449-6.752,6.255,1.95-3.881,6.072-7.121S322.544,334.623,322.647,334.891Z" transform="translate(-70.591 -44.666)"/><path class="b" d="M287.122,499.474c-.281.09-12.676-38.337-27.686-85.84s-26.918-86.094-26.593-86.184,12.676,38.337,27.686,85.855S287.417,499.384,287.122,499.474Z" transform="translate(-106.601 -48.317)"/><path class="b" d="M231.47,318.515l150.177,1.463,28.011-79.988-109.239.746-25.352,71.927-43.6.672Z" transform="translate(-107.252 -91.424)"/><path class="g" d="M310.234,275.442a6.15,6.15,0,1,1,6.87-5.225A6.14,6.14,0,0,1,310.234,275.442Z" transform="translate(-72.154 -79.984)"/><path class="e" d="M217.106,173.64l-2.733,60.4c-.458,10.271.946,25.468,17.049,25.468h0c13.976-1.075,18.1-14.272,18.527-23.886.192-4.479.369-8.33.428-8.793,0,0,15.276-.746,17.064-15.914.857-7.33,1.477-22.587,1.773-36.381A28.371,28.371,0,0,0,244.1,145.529l-1.477-.149C226.856,144.648,217.416,157.726,217.106,173.64Z" transform="translate(-115.448 -138.069)"/><path class="i" d="M244.889,202.353a34.9,34.9,0,0,1-19-7.733s3.472,11.42,18.615,11.674Z" transform="translate(-109.916 -113.785)"/><path class="a" d="M249.17,172.146a2.164,2.164,0,0,1-2.3,1.971,2.044,2.044,0,0,1-1.457-.671,2.088,2.088,0,0,1-.538-1.524,2.164,2.164,0,0,1,2.29-1.971,2.044,2.044,0,0,1,1.467.665,2.088,2.088,0,0,1,.543,1.529Z" transform="translate(-100.856 -125.946)"/><path class="a" d="M251.5,170.594c-.3.254-1.788-1.135-4.107-1.373s-4.122.746-4.344.433.222-.627,1.019-1.09a5.931,5.931,0,0,1,3.516-.7,5.618,5.618,0,0,1,3.221,1.493C251.455,169.952,251.647,170.489,251.5,170.594Z" transform="translate(-101.752 -126.991)"/><path class="a" d="M233.785,171.046a2.164,2.164,0,0,1-2.3,1.971,2.074,2.074,0,0,1-1.457-.674,2.118,2.118,0,0,1-.552-1.52,2.194,2.194,0,0,1,2.3-1.971,2.059,2.059,0,0,1,1.462.67A2.1,2.1,0,0,1,233.785,171.046Z" transform="translate(-108.208 -126.488)"/><path class="a" d="M236.1,169.255c-.3.254-1.788-1.135-4.107-1.388s-4.122.746-4.344.433.222-.612,1.019-1.075a5.858,5.858,0,0,1,3.516-.7,5.721,5.721,0,0,1,3.221,1.493C236.055,168.6,236.247,169.135,236.1,169.255Z" transform="translate(-109.104 -127.653)"/><path class="a" d="M237.79,187a14.96,14.96,0,0,1,3.826-.284c.606,0,1.167,0,1.315-.448a3.241,3.241,0,0,0-.207-1.821c-.414-1.493-.827-3.075-1.271-4.717-1.743-6.718-2.955-12.227-2.674-12.3s1.906,5.33,3.649,12.047c.414,1.657.813,3.24,1.182,4.747a3.422,3.422,0,0,1,0,2.374,1.479,1.479,0,0,1-1.049.776,4.008,4.008,0,0,1-1.019,0A15.61,15.61,0,0,1,237.79,187Z" transform="translate(-104.235 -127.187)"/><path class="a" d="M233.252,181.13c.369,0,.118,2.553,2.068,4.583s4.654,2.03,4.639,2.389-.65.433-1.788.343a6.3,6.3,0,0,1-3.886-1.866,5.538,5.538,0,0,1-1.566-3.822C232.735,181.7,233.134,181.1,233.252,181.13Z" transform="translate(-106.656 -120.434)"/><path class="e" d="M219.723,172.214c-.251-.134-10-4.195-10.77,6.225s9.751,9.047,9.78,8.748S219.723,172.214,219.723,172.214Z" transform="translate(-118.021 -125.267)"/><path class="i" d="M215.026,181.921a3.261,3.261,0,0,1-.5.239,1.858,1.858,0,0,1-1.344-.075,4.575,4.575,0,0,1-1.773-4.195,6.1,6.1,0,0,1,.694-2.553,2.1,2.1,0,0,1,1.477-1.3.929.929,0,0,1,1.019.582c.118.3,0,.508.089.522s.236-.149.192-.6a1.108,1.108,0,0,0-.369-.672,1.321,1.321,0,0,0-.975-.343,2.559,2.559,0,0,0-1.994,1.493,6.3,6.3,0,0,0-.827,2.851c-.089,2.1.827,4.15,2.29,4.7a1.9,1.9,0,0,0,1.655-.164C214.982,182.175,215.055,181.936,215.026,181.921Z" transform="translate(-117.165 -124.181)"/><g transform="translate(93.385)"><path class="j" d="M229.171,151.068c1.477-5.33,5.393-7.942,10.549-9.719a16.817,16.817,0,0,1,15.513,2.538c2.955,2.239,5.171,5.479,8.628,6.688,5.673,1.986,12.321-2.3,17.729.269a7.847,7.847,0,0,1,4.307,9,7.752,7.752,0,0,1-7.971,5.926c3.693,1.373,4.846,6.7,2.689,10.032s-6.6,4.583-10.49,3.852a21.689,21.689,0,0,1-10.179-5.762c-2.955-2.657-5.555-5.673-8.687-8.091a16.753,16.753,0,0,0-10.874-4.031c-5.333.284-9.9,4.344-12.277,9.181s-2.955,10.331-3.221,15.72-.384,10.853-1.965,16a2.106,2.106,0,0,1-1.064,1.493c-.872.269-1.61-.657-2.039-1.493a79.725,79.725,0,0,1-8.938-29.425c-.606-5.971-.458-11.615,2.792-16.646s11.45-8.718,15.468-5.539" transform="translate(-210.6 -140.473)"/><path class="j" d="M272.421,172.446a21.744,21.744,0,0,1-18.822-6.464c-3.324-3.523-5.673-8.33-10.105-10.256a12.2,12.2,0,0,0-9.47.284,23.658,23.658,0,0,0-7.771,5.822c2.083,8.032-.768,16.422-3.59,24.229a4.169,4.169,0,0,1-1.477,2.269c-1.315.821-3.058-.119-4-1.359a12.981,12.981,0,0,1-2.068-7.061,43.254,43.254,0,0,1,1.861-16.84,29.387,29.387,0,0,1,9.455-13.824,27.178,27.178,0,0,1,19.93-5.165,33.471,33.471,0,0,1,18.674,9.092,19.9,19.9,0,0,1,5.54,8.032" transform="translate(-208.524 -138.816)"/></g></g><g transform="translate(0 282.944)"><path class="k" d="M60.355,378.961a27.674,27.674,0,0,1,17.256-2.135c3.132.523,6.412,1.493,8.554,3.867s2.541,6.584.089,8.629a8.149,8.149,0,0,1-5.392,1.373c-4.58,0-9.662-.866-13.3,1.926-2.1,1.582-3.487,4.225-5.91,5a5.887,5.887,0,0,1-6.486-2.911,10.338,10.338,0,0,1-.724-7.464,11.459,11.459,0,0,1,5.91-8.285Z" transform="translate(-2.397 -307.187)"/><path class="k" d="M51.133,378.233c3.221,4.643,9.485,3.105,12.381.269s4.137-6.942,5.245-10.868c2.556-8.957,5.127-18.362,3.236-27.484a15.341,15.341,0,0,0-3.487-7.464,7.841,7.841,0,0,0-7.476-2.523c-3.147.851-5.112,3.971-6.53,6.942a66.06,66.06,0,0,0-6.412,28.111c0,4.479.517,9.286,3.043,13.018" transform="translate(-5.246 -330.003)"/><path class="k" d="M56.128,380a17.073,17.073,0,0,0,2.615-15.571,30.061,30.061,0,0,0-9.13-13.436,48.872,48.872,0,0,0-16.251-9.749,17.36,17.36,0,0,0-7.387-1.254,7.7,7.7,0,0,0-6.161,3.762c-1.714,3.314-.074,7.33,1.714,10.614a125.95,125.95,0,0,0,10.726,16.586c3.221,4.18,6.9,8.315,11.819,10.211s9.987,1.672,12.587-1.762" transform="translate(-19.09 -325.092)"/><path class="a" d="M50.008,423.389a9.827,9.827,0,0,0,.3-2.105c.148-1.493.34-3.463.561-5.762a84.214,84.214,0,0,1,1.271-8.45,66.739,66.739,0,0,1,3.043-9.987,37.023,37.023,0,0,1,5.053-8.957,18.844,18.844,0,0,1,6.368-5.449,17.038,17.038,0,0,1,5.363-1.687,10.243,10.243,0,0,0,2.083-.313,10.44,10.44,0,0,0-2.113,0,15.844,15.844,0,0,0-5.6,1.493,18.62,18.62,0,0,0-6.722,5.389,36.288,36.288,0,0,0-5.171,9.2,61.423,61.423,0,0,0-2.955,10.152,72.2,72.2,0,0,0-1.123,8.554c-.177,2.448-.236,4.479-.281,5.807a9.9,9.9,0,0,0-.074,2.12Z" transform="translate(-4.343 -305.053)"/><path class="a" d="M50.4,437.75a4.524,4.524,0,0,0,0-.97v-2.807c0-2.433,0-5.971.133-10.3.207-8.689.946-18.049,2.379-31.231,1.359-12.406,3.176-26.872,5.1-36.217.4-2.135.813-4.061,1.211-5.733s.694-3.135.99-4.314.488-2.015.65-2.732a3.947,3.947,0,0,0,.177-.955,3.563,3.563,0,0,0-.34.911c-.222.7-.488,1.6-.813,2.687s-.724,2.613-1.138,4.285-.886,3.6-1.344,5.718a324.855,324.855,0,0,0-5.348,33.6C50.665,402.966,50,414.909,50,423.672c0,4.344,0,7.882.148,10.316,0,1.135.133,2.06.177,2.792a3.71,3.71,0,0,0,.074.97Z" transform="translate(-4.334 -323.848)"/><path class="a" d="M60.254,412.21a19.247,19.247,0,0,0,0-2.986,79.223,79.223,0,0,0-.886-7.942,106.169,106.169,0,0,0-2.526-11.5,95.719,95.719,0,0,0-4.787-13.675A73.139,73.139,0,0,0,38,354.018a37.942,37.942,0,0,0-3.324-3.105,17.264,17.264,0,0,0-1.477-1.194l-1.285-.9a18.23,18.23,0,0,0-2.438-1.582,86.271,86.271,0,0,1,7.993,7.211,76.66,76.66,0,0,1,13.7,22.02,108.914,108.914,0,0,1,4.816,13.54c1.256,4.255,2.083,8.151,2.718,11.435s.946,5.971,1.152,7.867A17.654,17.654,0,0,0,60.254,412.21Z" transform="translate(-14.13 -321.507)"/><path class="a" d="M35.28,418.18l2.3,31.858h40.51l2.29-31.858Z" transform="translate(-11.361 -286.542)"/><rect class="a" width="53.851" height="12.555" transform="translate(20.004 119.082)"/><path class="b" d="M32.63,438.71v3.478H85.595V438.71Z" transform="translate(-12.626 -276.424)"/><path class="b" d="M36.822,447.161,34.34,441.04H82.858l-2.9,6.121Z" transform="translate(-11.81 -275.275)"/><path class="l" d="M79.427,426.6a3.081,3.081,0,0,1-.192.284l-.606.821-2.364,2.986-.1.134-.1-.134-5.791-8.106h.325l-5.7,8.256-.177.254-.207-.239c-2.1-2.538-4.432-5.285-6.766-8.136h.384c-.1.149-.236.3-.369.463l-6.043,7.658-.207.254-.192-.269-5.7-8.166h.325L38.9,430.839l-.118.134-.1-.164c-.916-1.567-1.655-2.822-2.2-3.732l-.561-1-.177-.343a1.364,1.364,0,0,1,.236.313l.635.955,2.3,3.672h-.222l6.929-8.181.163-.209.163.224,5.762,8.121h-.384l6.043-7.673.369-.478.192-.239.192.239,6.752,8.151H64.49l5.777-8.121.163-.239.163.239,5.673,8.181h-.251l2.467-2.986.65-.776C79.323,426.674,79.412,426.584,79.427,426.6Z" transform="translate(-11.142 -284.541)"/><path class="b" d="M80.851,418.084c0,.149-10.15.254-22.678.254s-22.663-.1-22.663-.254,10.15-.254,22.663-.254S80.851,418.084,80.851,418.084Z" transform="translate(-11.252 -286.715)"/><path class="a" d="M83.5,441.354c0,.134-11.036.254-24.628.254s-24.643-.119-24.643-.254,11.036-.254,24.643-.254S83.5,441.219,83.5,441.354Z" transform="translate(-11.863 -275.246)"/></g><g transform="translate(94.304 82.238)"><path class="a" d="M400.8,195.56,372.66,314.5h7.875L408.25,195.56Z" transform="translate(55.399 -195.56)"/><path class="a" d="M385.564,248c-.5,2.18,12.75,67.015,12.75,67.015h-6.382l-10-51.385Z" transform="translate(59.824 -169.714)"/><rect class="c" width="131.828" height="141.211" transform="translate(407.286 231.052)"/><rect class="a" width="6.471" height="6.539" transform="translate(539.1 251.683)"/><rect class="a" width="6.471" height="6.539" transform="translate(539.1 272.449)"/><rect class="a" width="6.471" height="6.539" transform="translate(539.1 293.215)"/><rect class="a" width="6.471" height="6.539" transform="translate(539.1 313.981)"/><path class="a" d="M452.5,393.572a10.256,10.256,0,0,1,1.98-.433,31.2,31.2,0,0,1,5.555-.537,14.788,14.788,0,0,1,8.008,2.135,9.376,9.376,0,0,1,4.432,8.957,11.351,11.351,0,0,1-1.684,5.121,13.378,13.378,0,0,1-3.4,3.643,17.257,17.257,0,0,1-7.712,3.075,24.752,24.752,0,0,1-5.57.194,8.772,8.772,0,0,1-2.024-.284,12.47,12.47,0,0,1,2.024,0,29.155,29.155,0,0,0,5.481-.433,17.2,17.2,0,0,0,7.387-3.105,11.5,11.5,0,0,0,4.742-8.256,8.688,8.688,0,0,0-4.063-8.3,14.557,14.557,0,0,0-7.638-2.18,38.021,38.021,0,0,0-5.5.284,9.8,9.8,0,0,1-2.024.119Z" transform="translate(93.318 -98.446)"/><path class="a" d="M451.28,380.04a2.715,2.715,0,0,1,.606-.373,13.306,13.306,0,0,1,1.921-.776,14.963,14.963,0,0,1,7.579-.433,6.871,6.871,0,0,1,2.408.97,4.221,4.221,0,0,1,1.7,2.329,7.107,7.107,0,0,1-4.211,7.987,4.259,4.259,0,0,1-3.561-.194,3.689,3.689,0,0,1-2.054-3.135,3.764,3.764,0,0,1,2.1-3.239,5.62,5.62,0,0,1,3.767-.4,7.972,7.972,0,0,1,3.295,1.582,8.981,8.981,0,0,1,3.28,5.972,8.393,8.393,0,0,1-1.684,5.971,11.967,11.967,0,0,1-4.048,3.449,19.047,19.047,0,0,1-7.387,1.941c-.886.075-1.581.1-2.054.1a2.282,2.282,0,0,1-.724,0s.99-.134,2.748-.358a20.333,20.333,0,0,0,7.121-2.12,11.634,11.634,0,0,0,3.8-3.359,7.838,7.838,0,0,0,1.477-5.449,8.276,8.276,0,0,0-3.043-5.419,7.045,7.045,0,0,0-2.955-1.418,4.99,4.99,0,0,0-3.265.328,2.723,2.723,0,0,0-.044,5.016,3.469,3.469,0,0,0,2.955.164,5.764,5.764,0,0,0,2.438-1.791,6.1,6.1,0,0,0,1.477-5.315,4.443,4.443,0,0,0-3.62-2.986,15.444,15.444,0,0,0-7.387.179C452.181,379.637,451.31,380.115,451.28,380.04Z" transform="translate(92.931 -105.561)"/><path class="a" d="M451.32,365.948a3.469,3.469,0,0,1,1.477-.269,10.241,10.241,0,0,1,3.959.493,11.164,11.164,0,0,1,4.92,3.359,11.041,11.041,0,0,1,2.556,6.867,10.916,10.916,0,0,1-6.885,10.674,10.248,10.248,0,0,1-3.915.806,3.379,3.379,0,0,1-1.477-.179,14.469,14.469,0,0,0,5.141-1.12A11.089,11.089,0,0,0,461.455,383a10.974,10.974,0,0,0-.384-12.988,11.276,11.276,0,0,0-4.565-3.3A14.414,14.414,0,0,0,451.32,365.948Z" transform="translate(92.95 -111.726)"/><path class="a" d="M385.09,300.07a12.925,12.925,0,0,1,1.108,2.642,50.843,50.843,0,0,1,1.758,8.017c.547,3.523,1,7.867,1.477,12.9s.872,10.793,1.669,17.108c.207,1.567.458,3.18.783,4.807a21.332,21.332,0,0,0,1.477,4.807,17.508,17.508,0,0,0,3.236,4.031,25.151,25.151,0,0,0,14.907,6.987,20.789,20.789,0,0,0,11.642-2.03,14.23,14.23,0,0,0,7.52-9.554,10.573,10.573,0,0,0-4.536-11.346,12.206,12.206,0,0,0-6.235-2.09,9.781,9.781,0,0,0-6.308,1.866,6.968,6.968,0,0,0-2.142,2.553,5.258,5.258,0,0,0-.414,3.254,7.854,7.854,0,0,0,4.092,5.255,18.686,18.686,0,0,0,6.737,1.881,61.587,61.587,0,0,0,7,.493,110.261,110.261,0,0,0,13.769-.776c8.983-1.015,17.729-2.478,26.047-2.568s16.458,1.075,23.21,4.479a27.359,27.359,0,0,1,8.628,6.524,20.068,20.068,0,0,1,4.432,8.957,24.344,24.344,0,0,1-2.585,16.795,28.146,28.146,0,0,1-8.761,9.45,32.881,32.881,0,0,1-7.239,3.732,22.2,22.2,0,0,1-2.718.821l.68-.254c.458-.134,1.123-.388,1.98-.717a34,34,0,0,0,7.136-3.837A28.167,28.167,0,0,0,502,384.85a24.106,24.106,0,0,0,2.408-16.422,19.825,19.825,0,0,0-4.432-8.689,26.762,26.762,0,0,0-8.465-6.33c-6.648-3.254-14.641-4.479-22.914-4.285s-16.961,1.568-25.987,2.6a105.735,105.735,0,0,1-13.858.806,63.121,63.121,0,0,1-7.092-.493,19.331,19.331,0,0,1-7-1.971,8.661,8.661,0,0,1-4.432-5.792,6.1,6.1,0,0,1,.473-3.732,7.757,7.757,0,0,1,2.379-2.836,10.559,10.559,0,0,1,6.8-2.03,13.072,13.072,0,0,1,6.633,2.239,11.327,11.327,0,0,1,4.831,12.137,14.9,14.9,0,0,1-7.919,10.017,21.345,21.345,0,0,1-12.041,2.075,26.007,26.007,0,0,1-15.261-7.211,17.885,17.885,0,0,1-3.339-4.21,21.789,21.789,0,0,1-1.477-4.971q-.473-2.463-.753-4.837c-.768-6.345-1.138-12.092-1.566-17.138s-.842-9.375-1.33-12.9a54.6,54.6,0,0,0-1.61-8.017,19.459,19.459,0,0,0-.694-2.015A6.845,6.845,0,0,1,385.09,300.07Z" transform="translate(61.332 -144.05)"/><path class="a" d="M481.371,483.969v-9.42c0-6.136,0-15.093-.089-26.454,0-22.736-.1-55.132-.177-93.887l.34.343H362.293l.384-.388V483.924l-.325-.328,86.339.164,24.214.09h6.471l-6.5.12-24.126.09-86.561.164h-.34V353.82H481.741v.269c-.074,38.815-.133,71.315-.177,94.051,0,11.346,0,20.273-.089,26.379v8.7A2.755,2.755,0,0,1,481.371,483.969Z" transform="translate(50.238 -117.558)"/><path class="a" d="M420.427,364.935a.616.616,0,0,1-.172.443.6.6,0,0,1-.434.185.618.618,0,0,1-.616-.279.633.633,0,0,1,0-.682.618.618,0,0,1,.616-.279.609.609,0,0,1,.606.612Z" transform="translate(77.571 -112.385)"/><path class="a" d="M422.737,364.935a.616.616,0,0,1-.172.443.6.6,0,0,1-.434.185.618.618,0,0,1-.616-.279.632.632,0,0,1,0-.682.618.618,0,0,1,.616-.279.609.609,0,0,1,.606.612Z" transform="translate(78.674 -112.385)"/><path class="a" d="M425.017,364.935a.616.616,0,0,1-.172.443.6.6,0,0,1-.434.185.618.618,0,0,1-.616-.279.633.633,0,0,1,0-.682.618.618,0,0,1,.616-.279A.609.609,0,0,1,425.017,364.935Z" transform="translate(79.763 -112.385)"/><path class="a" d="M427.271,364.932a.627.627,0,0,1-.373.59.616.616,0,0,1-.681-.126.632.632,0,0,1-.141-.685.619.619,0,0,1,1.2.221Z" transform="translate(80.877 -112.383)"/><path class="a" d="M429.52,364.932a.574.574,0,1,1-.621-.612A.624.624,0,0,1,429.52,364.932Z" transform="translate(81.997 -112.383)"/><path class="a" d="M431.8,364.932a.574.574,0,1,1-.621-.612.624.624,0,0,1,.621.612Z" transform="translate(83.085 -112.383)"/><path class="a" d="M434.08,364.932a.574.574,0,1,1-.621-.612.624.624,0,0,1,.621.612Z" transform="translate(84.173 -112.383)"/><ellipse class="a" cx="0.606" cy="0.612" rx="0.606" ry="0.612" transform="translate(515.476 254.236)"/><ellipse class="a" cx="0.606" cy="0.612" rx="0.606" ry="0.612" transform="translate(512.034 254.236)"/><path class="a" d="M428.4,366.477a.609.609,0,0,1-.606.612.6.6,0,0,1-.438-.174.615.615,0,0,1-.183-.438.624.624,0,0,1,.621-.627.6.6,0,0,1,.434.185A.615.615,0,0,1,428.4,366.477Z" transform="translate(81.421 -111.629)"/><ellipse class="a" cx="0.606" cy="0.612" rx="0.606" ry="0.612" transform="translate(505.149 254.236)"/><ellipse class="a" cx="0.606" cy="0.612" rx="0.606" ry="0.612" transform="translate(501.692 254.236)"/><path class="a" d="M421.4,366.477a.614.614,0,0,1-.183.438.6.6,0,0,1-.438.174.609.609,0,0,1-.606-.612.616.616,0,0,1,.172-.443.6.6,0,0,1,.434-.185.624.624,0,0,1,.621.627Z" transform="translate(78.079 -111.629)"/><path class="a" d="M420.4,368.207a.609.609,0,0,1-.606.612.6.6,0,0,1-.438-.174.615.615,0,0,1-.183-.438.624.624,0,0,1,.621-.627.6.6,0,0,1,.434.185.616.616,0,0,1,.172.442Z" transform="translate(77.602 -110.776)"/><path class="a" d="M422.706,368.207a.609.609,0,0,1-.606.612.6.6,0,0,1-.438-.174.616.616,0,0,1-.183-.438.624.624,0,0,1,.621-.627.6.6,0,0,1,.434.185A.616.616,0,0,1,422.706,368.207Z" transform="translate(78.705 -110.776)"/><path class="a" d="M424.986,368.207a.609.609,0,0,1-.606.612.6.6,0,0,1-.438-.174.615.615,0,0,1-.183-.438.624.624,0,0,1,.621-.627.6.6,0,0,1,.434.185.615.615,0,0,1,.172.442Z" transform="translate(79.793 -110.776)"/><path class="a" d="M427.269,368.239a.62.62,0,0,1-1.226,0,.63.63,0,0,1,.276-.623.615.615,0,0,1,.675,0,.63.63,0,0,1,.276.623Z" transform="translate(80.88 -110.808)"/><path class="a" d="M429.546,368.207a.616.616,0,0,1-.183.438.6.6,0,0,1-.438.174.609.609,0,0,1-.606-.612.615.615,0,0,1,.172-.442.6.6,0,0,1,.434-.185.624.624,0,0,1,.621.627Z" transform="translate(81.97 -110.776)"/><path class="a" d="M431.826,368.207a.615.615,0,0,1-.183.438.6.6,0,0,1-.438.174.609.609,0,0,1-.606-.612.615.615,0,0,1,.172-.442.6.6,0,0,1,.434-.185A.624.624,0,0,1,431.826,368.207Z" transform="translate(83.059 -110.776)"/><path class="a" d="M434.106,368.207a.615.615,0,0,1-.183.438.6.6,0,0,1-.438.174.609.609,0,0,1-.606-.612.616.616,0,0,1,.172-.442.6.6,0,0,1,.434-.185.624.624,0,0,1,.621.627Z" transform="translate(84.147 -110.776)"/><path class="a" d="M433.056,369.732a.624.624,0,0,1-.621.627.6.6,0,0,1-.434-.185.615.615,0,0,1-.172-.442.609.609,0,0,1,.606-.612.6.6,0,0,1,.438.174A.615.615,0,0,1,433.056,369.732Z" transform="translate(83.646 -110.017)"/><path class="a" d="M430.716,369.732a.615.615,0,0,1-.172.442.6.6,0,0,1-.434.185.624.624,0,0,1-.621-.627.616.616,0,0,1,.183-.438.6.6,0,0,1,.438-.174.609.609,0,0,1,.606.612Z" transform="translate(82.529 -110.017)"/><path class="a" d="M428.4,369.732a.615.615,0,0,1-.172.442.6.6,0,0,1-.434.185.624.624,0,0,1-.621-.627.615.615,0,0,1,.183-.438.6.6,0,0,1,.438-.174.609.609,0,0,1,.606.612Z" transform="translate(81.421 -110.017)"/><path class="a" d="M426.056,369.732a.615.615,0,0,1-.172.442.6.6,0,0,1-.434.185.624.624,0,0,1-.621-.627.615.615,0,0,1,.183-.438.6.6,0,0,1,.438-.174.609.609,0,0,1,.606.612Z" transform="translate(80.304 -110.017)"/><path class="a" d="M423.729,369.705a.63.63,0,0,1-.276.623.615.615,0,0,1-.675,0,.63.63,0,0,1-.276-.623.62.62,0,0,1,1.226,0Z" transform="translate(79.19 -109.99)"/><path class="a" d="M421.4,369.732a.624.624,0,0,1-.621.627.6.6,0,0,1-.434-.185.616.616,0,0,1-.172-.442.609.609,0,0,1,.606-.612.6.6,0,0,1,.438.174.615.615,0,0,1,.183.438Z" transform="translate(78.08 -110.017)"/><path class="a" d="M420.4,371.462a.616.616,0,0,1-.172.443.6.6,0,0,1-.434.185.624.624,0,0,1-.621-.627.615.615,0,0,1,.183-.438.6.6,0,0,1,.438-.174A.609.609,0,0,1,420.4,371.462Z" transform="translate(77.602 -109.164)"/><path class="a" d="M422.706,371.462a.616.616,0,0,1-.172.443.6.6,0,0,1-.434.185.624.624,0,0,1-.621-.627.615.615,0,0,1,.183-.438.6.6,0,0,1,.438-.174A.609.609,0,0,1,422.706,371.462Z" transform="translate(78.705 -109.164)"/><path class="a" d="M424.986,371.462a.616.616,0,0,1-.172.443.6.6,0,0,1-.434.185.624.624,0,0,1-.621-.627.615.615,0,0,1,.183-.438.6.6,0,0,1,.438-.174A.609.609,0,0,1,424.986,371.462Z" transform="translate(79.793 -109.164)"/><path class="a" d="M427.269,371.435a.63.63,0,0,1-.276.623.615.615,0,0,1-.675,0,.629.629,0,0,1-.276-.623.62.62,0,0,1,1.226,0Z" transform="translate(80.88 -109.137)"/><path class="a" d="M429.546,371.462a.624.624,0,0,1-.621.627.6.6,0,0,1-.434-.185.615.615,0,0,1-.172-.442.609.609,0,0,1,.606-.612.6.6,0,0,1,.438.174A.616.616,0,0,1,429.546,371.462Z" transform="translate(81.97 -109.164)"/><path class="a" d="M431.826,371.462a.624.624,0,0,1-.621.627.6.6,0,0,1-.434-.185.615.615,0,0,1-.172-.442.609.609,0,0,1,.606-.612.6.6,0,0,1,.438.174A.615.615,0,0,1,431.826,371.462Z" transform="translate(83.059 -109.164)"/><path class="a" d="M434.106,371.462a.624.624,0,0,1-.621.627.6.6,0,0,1-.434-.185.616.616,0,0,1-.172-.442.609.609,0,0,1,.606-.612.6.6,0,0,1,.438.174A.615.615,0,0,1,434.106,371.462Z" transform="translate(84.147 -109.164)"/><ellipse class="a" cx="0.606" cy="0.612" rx="0.606" ry="0.612" transform="translate(515.476 263.985)"/><ellipse class="a" cx="0.606" cy="0.612" rx="0.606" ry="0.612" transform="translate(512.034 263.985)"/><path class="a" d="M428.427,373.009a.609.609,0,0,1-.606.612.618.618,0,0,1-.616-.279.632.632,0,0,1,0-.682.618.618,0,0,1,.616-.279.6.6,0,0,1,.434.185.616.616,0,0,1,.172.442Z" transform="translate(81.391 -108.413)"/><ellipse class="a" cx="0.606" cy="0.612" rx="0.606" ry="0.612" transform="translate(505.149 263.985)"/><ellipse class="a" cx="0.606" cy="0.612" rx="0.606" ry="0.612" transform="translate(501.692 263.985)"/><path class="a" d="M421.37,373.007a.575.575,0,1,1-.621-.627.624.624,0,0,1,.621.627Z" transform="translate(78.106 -108.41)"/><path class="l" d="M405.328,271.29a7.654,7.654,0,0,1,2.393.433,13.418,13.418,0,0,1,5.821,3.837,25.692,25.692,0,0,1,5.156,9.853,98.555,98.555,0,0,1,3.235,14.436,184.028,184.028,0,0,1,.946,38.441,22.725,22.725,0,0,1-3.309,10.659,13.643,13.643,0,0,1-4.166,4.076,9.26,9.26,0,0,1-5.762,1.388,8.914,8.914,0,0,1-5.481-2.583,6.776,6.776,0,0,1-1.61-2.7,5.79,5.79,0,0,1,0-3.21,6.859,6.859,0,0,1,4.122-4.7,4.813,4.813,0,0,1,3.265,0,5.827,5.827,0,0,1,2.6,1.985,8.216,8.216,0,0,1,1.477,6.181,16.922,16.922,0,0,1-2.142,5.882,22.379,22.379,0,0,1-30.287,8.868,25.783,25.783,0,0,1-7.978-6.942,34.1,34.1,0,0,1-4.92-8.7,58.013,58.013,0,0,1-3.235-17.616c-.281-5.479,0-10.45-.517-14.75a25.431,25.431,0,0,0-1.374-5.822,16.661,16.661,0,0,0-2.467-4.359,12.435,12.435,0,0,0-5.5-4.105,17.576,17.576,0,0,0-2.349-.567,7.773,7.773,0,0,1,2.408.433,12.087,12.087,0,0,1,5.658,4.046,16.58,16.58,0,0,1,2.585,4.479,25.419,25.419,0,0,1,1.477,5.971c.576,4.344.31,9.315.635,14.765a57.946,57.946,0,0,0,3.295,17.422,33.625,33.625,0,0,0,4.772,8.569,25.189,25.189,0,0,0,7.786,6.733,21.674,21.674,0,0,0,29.282-8.629,16.141,16.141,0,0,0,2.039-5.6,7.4,7.4,0,0,0-1.285-5.613,5.266,5.266,0,0,0-2.26-1.732,4.038,4.038,0,0,0-2.748,0,6.1,6.1,0,0,0-3.634,4.165,5.4,5.4,0,0,0,1.477,5.18,8.134,8.134,0,0,0,5.008,2.359,8.5,8.5,0,0,0,5.3-1.269,12.839,12.839,0,0,0,3.945-3.852A22.032,22.032,0,0,0,422.2,338.38a186.771,186.771,0,0,0-.768-38.292,100.923,100.923,0,0,0-3.117-14.376,25.625,25.625,0,0,0-4.964-9.778,13.471,13.471,0,0,0-5.644-3.9A17.845,17.845,0,0,0,405.328,271.29Z" transform="translate(46.132 -158.235)"/><rect class="l" width="49.079" height="9.45" transform="translate(390.784 134.657)"/><rect class="a" width="64.016" height="139.24" transform="translate(21.568 232.351)"/><path class="b" d="M154.531,474.39v-9c0-5.822,0-14.257-.1-24.871,0-21.229-.1-51.116-.177-85.885l.369.358H101.064l.384-.388c0,46.518,0,88.766-.1,119.758l-.281-.284,39.107.149,10.7.075H140.348l-39.284.149H100.8v-.284c0-30.992,0-73.24-.118-119.758v-.388H155v.373c0,34.873-.133,64.85-.177,86.139,0,10.57,0,18.989-.1,24.782v8.271A2.164,2.164,0,0,1,154.531,474.39Z" transform="translate(-74.444 -117.459)"/><path class="b" d="M150.033,363.251v-1.493c0-.97,0-2.329-.089-4.031l.163.164c-8.288.134-26.047.224-46.568.224h0l.384-.388h0v5.479l-.369-.388c13.016,0,24.6.09,32.976.164l9.913.1h2.7a4.825,4.825,0,0,1,.975,0,5.97,5.97,0,0,1-.872,0h-2.63l-9.81.1c-8.362.09-20.078.164-33.256.164h-.384v-5.867h0l.4-.388h0c20.521,0,38.279.09,46.568.224h.059v.164c0,1.747,0,3.12-.089,4.135A12.869,12.869,0,0,1,150.033,363.251Z" transform="translate(-73.255 -115.941)"/><path class="b" d="M107.929,363.988c0,.209-.96.388-2.142.388s-2.157-.179-2.157-.388.96-.388,2.157-.388S107.929,363.764,107.929,363.988Z" transform="translate(-73.035 -112.738)"/><path class="b" d="M148.372,368.8c0,.209-9.913.388-22.161.388s-22.161-.179-22.161-.388,9.9-.388,22.161-.388S148.372,368.589,148.372,368.8Z" transform="translate(-72.835 -110.367)"/><path class="b" d="M148.244,374.608c0,.224-9.751.388-21.762.388s-21.762-.164-21.762-.388,9.736-.388,21.762-.388S148.244,374.4,148.244,374.608Z" transform="translate(-72.515 -107.503)"/><ellipse class="k" cx="3.516" cy="3.553" rx="3.516" ry="3.553" transform="translate(49.875 283.84)"/><path class="b" d="M115.367,388.145a14.827,14.827,0,0,1-4.713.388,14.7,14.7,0,0,1-4.654-.388,14.217,14.217,0,0,1,4.7-.388A14.348,14.348,0,0,1,115.367,388.145Z" transform="translate(-71.904 -100.856)"/><path class="b" d="M134.564,387.482a13.033,13.033,0,0,1-4.432.388,12.987,12.987,0,0,1-4.432-.388,13.425,13.425,0,0,1,4.432-.388A13.485,13.485,0,0,1,134.564,387.482Z" transform="translate(-62.499 -101.179)"/><path class="a" d="M106.676,445.75a13.537,13.537,0,0,1-2.393-.448,20.867,20.867,0,0,1-6.338-2.986,27.316,27.316,0,0,1-7.638-8.047,46.79,46.79,0,0,1-5.57-13.675,56.394,56.394,0,0,1-1.7-17.81,36.821,36.821,0,0,1,6.722-19.318,30.305,30.305,0,0,1,8.022-7.7,27.8,27.8,0,0,1,5.156-2.583,28.4,28.4,0,0,1,5.7-1.373c3.9-.552,7.889-.478,11.819-.717a29.177,29.177,0,0,0,11.686-2.717,13.226,13.226,0,0,0,7.269-8.957,12.684,12.684,0,0,0-2.5-10.76,12.4,12.4,0,0,0-9.939-4.616,8.81,8.81,0,0,0-4.934,1.851,5.426,5.426,0,0,0-2.068,4.479,7.2,7.2,0,0,0,6.589,6.434,10.811,10.811,0,0,0,8.451-3.837,20.619,20.619,0,0,0,4.166-8.136,70.808,70.808,0,0,0,1.7-8.375,139.49,139.49,0,0,0,.783-25.842c-.148-2.986-.266-5.389-.355-7.031a14.8,14.8,0,0,0-.089-1.836,3.334,3.334,0,0,1,0-.627,3.452,3.452,0,0,1,.089.627c0,.448.089,1.045.163,1.821.118,1.612.31,3.971.488,7.031a133.042,133.042,0,0,1-.547,25.931A70.154,70.154,0,0,1,139.74,345a21.268,21.268,0,0,1-4.181,8.375,11.414,11.414,0,0,1-8.968,4.076,7.868,7.868,0,0,1-7.254-7.076,6.192,6.192,0,0,1,2.32-5.106,9.368,9.368,0,0,1,5.333-2.015,13.284,13.284,0,0,1,12.107,7.585,13.55,13.55,0,0,1-1.633,14.3,15.239,15.239,0,0,1-4.949,3.9,29.9,29.9,0,0,1-12,2.807c-4.033.239-8.007.164-11.819.687a28.466,28.466,0,0,0-5.555,1.329,26.246,26.246,0,0,0-5.008,2.508,29.853,29.853,0,0,0-7.86,7.464,36.308,36.308,0,0,0-6.648,18.93,56.41,56.41,0,0,0,1.655,17.661,47.293,47.293,0,0,0,5.407,13.57,27.27,27.27,0,0,0,7.387,8.032,21.743,21.743,0,0,0,6.22,3.075c.753.224,1.344.358,1.743.448a2.669,2.669,0,0,1,.635.209Z" transform="translate(-82.921 -143.532)"/><rect class="a" width="151.581" height="105.188" transform="translate(1.963 16.347)"/><rect class="a" width="20.639" height="39.681" transform="translate(66.037 107.188)"/></g><g transform="translate(111.351 222.314)"><path class="a" d="M94.46,293.329V307.6h78.213V520.276h7.195V307.6l326.637,1.627V520.276h7.062V308.84l50.409.4V292.09Z" transform="translate(-94.46 -288.059)"/><path class="a" d="M129.29,300.62l30.833,22.438-2.674,2.6-31.1-23.662Z" transform="translate(-79.236 -283.855)"/><path class="a" d="M409.373,302.02,373.59,327.772l2.689,2.6,36.034-26.976Z" transform="translate(38.796 -283.165)"/><rect class="a" width="80.843" height="6.016" transform="translate(113.73)"/></g></svg>