<svg xmlns="http://www.w3.org/2000/svg" width="56.423" height="84.193" viewBox="0 0 56.423 84.193"><defs><style>.a{fill:#412222;}.b,.c{fill:none;stroke:#412222;}.b{stroke-width:2px;}.c{stroke-width:8px;}</style></defs><g transform="translate(0.192 4)"><path class="a" d="M0,0H17.99q12.3,0,17.851,3.376T41.4,14.115a13.192,13.192,0,0,1-2.432,8.2A9.768,9.768,0,0,1,32.5,26.17v.381q5.5,1.183,7.927,4.425A14.026,14.026,0,0,1,42.859,39.6a14.019,14.019,0,0,1-5.713,11.9q-5.713,4.273-15.519,4.273H0ZM12.257,22.088h7.117q4.982,0,7.216-1.488t2.234-4.921a4.879,4.879,0,0,0-2.432-4.6Q23.96,9.69,18.7,9.69H12.257Zm0,9.385V46.007h7.987q5.061,0,7.473-1.869a6.787,6.787,0,0,0,2.412-5.722q0-6.943-10.28-6.943Z" transform="translate(6.277 9.919)"/><line class="b" y2="56" transform="translate(54.808 10.193)"/><line class="c" x2="56.231" transform="translate(0 76.193)"/><line class="c" x2="56.231"/><line class="b" y2="56" transform="translate(0.808 10.193)"/></g></svg>