<svg xmlns="http://www.w3.org/2000/svg" width="73.846" height="60" viewBox="0 0 73.846 60"><defs><style>.a{fill:#212121;}</style></defs><path class="a" d="M77.946,13.069a52.781,52.781,0,0,1-8.615,2.462A15.22,15.22,0,0,0,76.1,7.223a27.934,27.934,0,0,1-9.538,3.692A15.107,15.107,0,0,0,55.485,6.3a14.851,14.851,0,0,0-10.769,4.308,14.153,14.153,0,0,0-4.308,10.769,9.5,9.5,0,0,0,.615,3.385A43.839,43.839,0,0,1,9.638,9.069a13.3,13.3,0,0,0-2.462,7.692,14.043,14.043,0,0,0,6.769,12.615,13.176,13.176,0,0,1-6.769-1.846v.308a15.038,15.038,0,0,0,3.385,9.538A14.3,14.3,0,0,0,19.177,42.3a18.16,18.16,0,0,1-4.308.615,8.519,8.519,0,0,1-2.769-.308A15.071,15.071,0,0,0,17.638,50.3a14.89,14.89,0,0,0,8.923,3.077c-5.846,4.615-12.308,7.077-18.769,7.077A14.98,14.98,0,0,1,4.1,60.146c6.462,4,14.462,6.154,23.385,6.154,10.769,0,20.615-3.692,27.385-9.231a52.077,52.077,0,0,0,8.615-9.846,42.543,42.543,0,0,0,7.077-23.692V21.377A27.147,27.147,0,0,0,77.946,13.069Z" transform="translate(-4.1 -6.3)"/></svg>