<svg id="logo-github" xmlns="http://www.w3.org/2000/svg" width="74.848" height="73" viewBox="0 0 74.848 73">
  <defs>
    <style>
      .cls-1 {
        fill: #161614;
      }
    </style>
  </defs>
  <path id="Path_2780" data-name="Path 2780" class="cls-1" d="M37.424,0A37.428,37.428,0,0,0,25.593,72.936c1.87.346,2.557-.812,2.557-1.8,0-.892-.035-3.84-.051-6.968-10.411,2.264-12.608-4.415-12.608-4.415-1.7-4.326-4.155-5.476-4.155-5.476-3.4-2.323.256-2.275.256-2.275,3.758.264,5.737,3.857,5.737,3.857,3.338,5.721,8.755,4.067,10.89,3.111a7.971,7.971,0,0,1,2.376-5c-8.313-.946-17.051-4.155-17.051-18.495A14.484,14.484,0,0,1,17.4,25.424a13.447,13.447,0,0,1,.363-9.9s3.143-1.006,10.294,3.836a35.5,35.5,0,0,1,18.742,0c7.143-4.842,10.281-3.836,10.281-3.836a13.431,13.431,0,0,1,.367,9.9A14.455,14.455,0,0,1,61.3,35.47c0,14.374-8.755,17.539-17.088,18.465,1.342,1.161,2.538,3.439,2.538,6.93,0,5.007-.043,9.037-.043,10.27,0,1,.674,2.163,2.571,1.8A37.429,37.429,0,0,0,37.424,0ZM14.017,53.311c-.082.186-.375.242-.641.114s-.424-.375-.336-.562.374-.245.645-.117S14.111,53.125,14.017,53.311Zm1.841,1.643c-.178.165-.527.089-.764-.173a.572.572,0,0,1-.11-.778c.184-.165.522-.088.768.173S16.044,54.787,15.857,54.954Zm1.263,2.1c-.229.159-.6.01-.836-.323s-.229-.732,0-.892.6-.016.837.314S17.355,56.893,17.12,57.055Zm2.136,2.434c-.205.226-.642.165-.962-.143s-.418-.73-.213-.956.647-.163.969.143S19.475,59.266,19.256,59.489Zm2.76.822c-.09.293-.511.426-.935.3s-.7-.472-.615-.768.511-.434.938-.3S22.1,60.013,22.016,60.311Zm3.141.349c.011.308-.349.565-.794.57s-.809-.24-.814-.544.351-.565.8-.573S25.158,60.353,25.158,60.66Zm3.086-.118c.053.3-.256.61-.7.693s-.837-.107-.892-.405.261-.618.695-.7S28.187,60.235,28.244,60.541Z"/>
</svg>
