<svg xmlns="http://www.w3.org/2000/svg" width="61.001" height="60" viewBox="0 0 61.001 60"><defs><style>.a{fill:#212121;}</style></defs><path class="a" d="M5.915,64.233H18.536V24.767H5.915Zm33.13,0V41.3c0-4.8,2.892-7.467,7.1-7.467S52.98,36.767,52.98,42.9V64.233H65.6V41.3c0-5.6-1.315-9.867-4.207-13.067S54.821,23.7,50.351,23.7c-4.733,0-8.414,2.133-11.569,6.933L38.256,25.3H25.9l.263,9.067V64.5H39.045Zm-26.819-45.6c4.47,0,7.625-3.2,7.625-6.933s-2.629-7.2-7.625-7.2C7.755,4.5,4.6,7.433,4.6,11.433s3.155,7.2,7.625,7.2Z" transform="translate(-4.6 -4.5)"/></svg>