<svg xmlns="http://www.w3.org/2000/svg" width="291.416" height="294.082" viewBox="0 0 291.416 294.082"><defs><style>.a{fill:#fff3f3;}</style></defs><path class="a" d="M25.635,305.959q23.174-8.818,40.605-16.714A232.912,232.912,0,0,0,96.8,272.839a141.414,141.414,0,0,0,23.174-18.56A133.907,133.907,0,0,0,138.428,230.9a251.729,251.729,0,0,0,16.3-30.864q7.9-17.534,16.714-41.118,8.818,23.584,16.714,41.118a251.727,251.727,0,0,0,16.3,30.864,129.48,129.48,0,0,0,41.528,41.938,242.042,242.042,0,0,0,30.557,16.406q17.329,7.9,40.5,16.714-23.174,9.023-40.5,16.816a233.708,233.708,0,0,0-30.557,16.3,129.48,129.48,0,0,0-41.528,41.938,251.727,251.727,0,0,0-16.3,30.864q-7.9,17.534-16.714,41.118-9.023-23.584-16.816-41.118a242.868,242.868,0,0,0-16.2-30.864,133.909,133.909,0,0,0-18.457-23.379A141.414,141.414,0,0,0,96.8,339.079,232.912,232.912,0,0,0,66.24,322.673Q48.809,314.777,25.635,305.959Z" transform="translate(-25.635 -158.918)"/></svg>