<svg xmlns="http://www.w3.org/2000/svg" width="67.264" height="84.193" viewBox="0 0 67.264 84.193">
  <g id="Logo-white" transform="translate(0.034 4)">
    <path id="B" d="M0,0H21.509q14.7,0,21.344,3.376a11.26,11.26,0,0,1,6.642,10.739,11.738,11.738,0,0,1-2.907,8.2,12.251,12.251,0,0,1-7.729,3.853v.381q6.571,1.183,9.478,4.425A12.431,12.431,0,0,1,51.244,39.6q0,7.63-6.831,11.9T25.858,55.773H0ZM14.655,22.088h8.509q5.956,0,8.627-1.488a5.189,5.189,0,0,0,2.671-4.921,4.746,4.746,0,0,0-2.907-4.6Q28.647,9.69,22.36,9.69H14.655Zm0,9.385V46.007H24.2q6.051,0,8.935-1.869a6.347,6.347,0,0,0,2.884-5.722q0-6.943-12.291-6.943Z" transform="translate(7.505 9.919)" fill="#fff3f3"/>
    <line id="line-vert" y2="56" transform="translate(65.53 10.193)" fill="none" stroke="#fff3f3" stroke-width="2"/>
    <line id="line-bottom" x2="67.231" transform="translate(0 76.193)" fill="none" stroke="#fff3f3" stroke-width="8"/>
    <line id="line-top" x2="67.231" fill="none" stroke="#fff3f3" stroke-width="8"/>
    <line id="line-vert-2" data-name="line-vert" y2="56" transform="translate(0.966 10.193)" fill="none" stroke="#fff3f3" stroke-width="2"/>
  </g>
</svg>
