<svg xmlns="http://www.w3.org/2000/svg" width="336.497" height="94.929" viewBox="0 0 336.497 94.929"><defs><style>.a{fill:#412222;}</style></defs><g transform="translate(-72.136 -53.456)"><path class="a" d="M15.2,64.8a13.526,13.526,0,0,1-7.222-1.663,8.956,8.956,0,0,1-3.747-4.665A20.7,20.7,0,0,1,3.136,51.4V36.906a21.028,21.028,0,0,1,1.092-7.172,8.837,8.837,0,0,1,3.747-4.641A13.691,13.691,0,0,1,15.2,23.456,13.886,13.886,0,0,1,22.17,24.92a8.082,8.082,0,0,1,3.549,4.095,16.352,16.352,0,0,1,1.042,6.055v3.474H18.075v-4.02a20.226,20.226,0,0,0-.124-2.283,3.366,3.366,0,0,0-.72-1.812,2.511,2.511,0,0,0-2.035-.72,2.635,2.635,0,0,0-2.06.744,3.519,3.519,0,0,0-.844,1.861,15.336,15.336,0,0,0-.174,2.358v18.91a12.55,12.55,0,0,0,.223,2.457,3.4,3.4,0,0,0,.893,1.787,2.657,2.657,0,0,0,1.96.67,2.442,2.442,0,0,0,1.985-.72,3.577,3.577,0,0,0,.744-1.861,18.02,18.02,0,0,0,.149-2.333V49.364h8.686v3.474a17.319,17.319,0,0,1-1.017,6.13,8.4,8.4,0,0,1-3.524,4.268A13.271,13.271,0,0,1,15.2,64.8Zm21.541-.6V24h8.884v16.28h6.2V24h8.934V64.2H51.826V46.634h-6.2V64.2Zm35.09,0V24H82.9a24.667,24.667,0,0,1,7.048.893,8.549,8.549,0,0,1,4.641,3.2,11.031,11.031,0,0,1,1.663,6.527,22.118,22.118,0,0,1-.4,4.417,8.221,8.221,0,0,1-1.464,3.35,8.051,8.051,0,0,1-3.052,2.358L96.842,64.2H87.66L83.243,46.188H80.712V64.2Zm8.884-23.129h2.482a5.4,5.4,0,0,0,2.928-.67,3.554,3.554,0,0,0,1.464-1.936,9.712,9.712,0,0,0,.422-3.052,7.3,7.3,0,0,0-.943-4.02q-.943-1.439-3.474-1.439H80.712ZM106.422,64.2V24h8.884V64.2Zm30.524.6a13.364,13.364,0,0,1-6.3-1.34,8.577,8.577,0,0,1-3.822-4.144,19.053,19.053,0,0,1-1.439-7.271l7.594-1.142a18.113,18.113,0,0,0,.472,4.169,4.621,4.621,0,0,0,1.191,2.283,2.679,2.679,0,0,0,1.861.695,1.771,1.771,0,0,0,1.812-.943,4.808,4.808,0,0,0,.422-1.985,7.163,7.163,0,0,0-1.191-4.194,18.612,18.612,0,0,0-3.226-3.449l-3.474-3.028a19.374,19.374,0,0,1-3.847-4.392,11.108,11.108,0,0,1-1.563-6.08q0-5.112,3.028-7.817t8.239-2.7a10.64,10.64,0,0,1,5.187,1.092,7.623,7.623,0,0,1,2.978,2.854,11.8,11.8,0,0,1,1.39,3.722,23.631,23.631,0,0,1,.422,3.747l-7.643.943a30.53,30.53,0,0,0-.223-3.1,4.266,4.266,0,0,0-.72-2.035,1.982,1.982,0,0,0-1.688-.72A1.919,1.919,0,0,0,134.588,31a4.307,4.307,0,0,0-.571,2.085,5.894,5.894,0,0,0,1.067,3.648,20.664,20.664,0,0,0,2.8,2.953l3.325,2.928a22.617,22.617,0,0,1,4.442,5.063,12.724,12.724,0,0,1,1.812,7,10.344,10.344,0,0,1-1.29,5.137,9.428,9.428,0,0,1-3.648,3.648A11.115,11.115,0,0,1,136.946,64.8Zm23.427-.6V30.6h-6.055V24h20.995v6.6h-6.006V64.2Zm34.544.6a13.785,13.785,0,0,1-7.147-1.588A8.88,8.88,0,0,1,184,58.646a19.828,19.828,0,0,1-1.142-7.1V36.609a19.578,19.578,0,0,1,1.142-7.1,8.776,8.776,0,0,1,3.772-4.492,13.963,13.963,0,0,1,7.147-1.563,14.221,14.221,0,0,1,7.222,1.563,8.744,8.744,0,0,1,3.8,4.492,19.578,19.578,0,0,1,1.142,7.1V51.548a19.828,19.828,0,0,1-1.142,7.1,8.847,8.847,0,0,1-3.8,4.566A14.038,14.038,0,0,1,194.917,64.8Zm0-6.3a2.657,2.657,0,0,0,2.035-.695,3.47,3.47,0,0,0,.844-1.787,12.461,12.461,0,0,0,.2-2.233V34.425a12.336,12.336,0,0,0-.2-2.258,3.451,3.451,0,0,0-.844-1.762,2.657,2.657,0,0,0-2.035-.695,2.516,2.516,0,0,0-1.936.695,3.451,3.451,0,0,0-.844,1.762,12.333,12.333,0,0,0-.2,2.258V53.782a14.192,14.192,0,0,0,.174,2.233,3.421,3.421,0,0,0,.794,1.787A2.573,2.573,0,0,0,194.917,58.5ZM217.45,64.2V24h13.5a11.668,11.668,0,0,1,5.956,1.365,8.335,8.335,0,0,1,3.474,3.971,15.733,15.733,0,0,1,1.142,6.328q0,4.665-1.539,7.122a8,8,0,0,1-4.169,3.4,17.417,17.417,0,0,1-5.906.943h-3.574V64.2Zm8.884-23.278h2.978a4.293,4.293,0,0,0,2.482-.6,2.87,2.87,0,0,0,1.117-1.787,13.907,13.907,0,0,0,.273-3.028,14.517,14.517,0,0,0-.223-2.7,3.073,3.073,0,0,0-1.067-1.861,4.1,4.1,0,0,0-2.631-.695h-2.928ZM250.505,64.2V24h8.884v16.28h6.2V24h8.934V64.2h-8.934V46.634h-6.2V64.2Zm35.09,0V24h18.066v6.055H294.48v9.976h7v6.154h-7V58.2h9.281V64.2Zm27.149,0V24h11.068a24.668,24.668,0,0,1,7.048.893,8.549,8.549,0,0,1,4.641,3.2,11.031,11.031,0,0,1,1.663,6.527,22.117,22.117,0,0,1-.4,4.417,8.221,8.221,0,0,1-1.464,3.35,8.051,8.051,0,0,1-3.052,2.358L337.759,64.2h-9.182L324.16,46.188h-2.531V64.2Zm8.884-23.129h2.482a5.4,5.4,0,0,0,2.928-.67A3.554,3.554,0,0,0,328.5,38.47a9.712,9.712,0,0,0,.422-3.052,7.3,7.3,0,0,0-.943-4.02q-.943-1.439-3.474-1.439h-2.879Z" transform="translate(69 30)"/><path class="a" d="M4.32-13.27V-58.5H16.1a32.425,32.425,0,0,1,5.5.447,12.639,12.639,0,0,1,4.607,1.7,8.575,8.575,0,0,1,3.155,3.574,13.884,13.884,0,0,1,1.145,6.114,11.6,11.6,0,0,1-.81,4.607,7.271,7.271,0,0,1-2.289,2.987,8.374,8.374,0,0,1-3.546,1.508,8.977,8.977,0,0,1,4.411,1.7A8.476,8.476,0,0,1,30.982-32.2a14.809,14.809,0,0,1,.921,5.528,17.8,17.8,0,0,1-.921,6.058,10.466,10.466,0,0,1-2.652,4.16,10.785,10.785,0,0,1-4.272,2.4,19.858,19.858,0,0,1-5.835.782Zm9.995-6.98h2.122q3.294,0,4.551-1.675a8.109,8.109,0,0,0,1.256-4.914,12.058,12.058,0,0,0-.558-4.076,3.97,3.97,0,0,0-1.843-2.206,7.276,7.276,0,0,0-3.462-.7H14.315Zm0-20.157h1.954a6.882,6.882,0,0,0,3.462-.7,3.5,3.5,0,0,0,1.591-2.038,10.947,10.947,0,0,0,.419-3.239,6.279,6.279,0,0,0-.642-2.987,4.172,4.172,0,0,0-1.9-1.815,7.165,7.165,0,0,0-3.155-.614H14.315ZM39.162-13.27V-58.5h9.995V-13.27Zm18.705,0V-58.5H70.319a27.75,27.75,0,0,1,7.929,1.005,9.618,9.618,0,0,1,5.221,3.6q1.871,2.6,1.871,7.343a24.882,24.882,0,0,1-.447,4.969,9.248,9.248,0,0,1-1.647,3.769,9.058,9.058,0,0,1-3.434,2.652l6.2,21.888H75.679L70.71-33.539H67.862V-13.27Zm9.995-26.02h2.792a6.079,6.079,0,0,0,3.294-.754A4,4,0,0,0,75.6-42.221a10.926,10.926,0,0,0,.475-3.434,8.211,8.211,0,0,0-1.061-4.523Q73.948-51.8,71.1-51.8H67.862ZM93.1-13.27V-58.5H103.1v18.482L110.689-58.5h9.771l-8.376,20.436,8.766,24.792H110.689l-6.533-19.99L103.1-31.473v18.2Zm32.664,0V-58.5h20.325v6.812H135.76v11.223h7.873v6.924H135.76v13.512H146.2v6.756Zm26.913,0V-58.5h7.035l9.269,21.776V-58.5h8.264V-13.27H170.49l-9.269-23.451V-13.27Zm33.446,0V-58.5h9.995v18.314h6.98V-58.5h10.051V-13.27H203.1V-33.036h-6.98V-13.27Zm33.67,0L228.337-58.5h11.391l8.431,45.228h-9.213l-1.508-9.548h-6.645L229.23-13.27Zm11.893-15.523h4.8l-2.4-17.644ZM265.747-12.6a12.421,12.421,0,0,1-7.4-1.954,10.544,10.544,0,0,1-3.853-5.5,26.635,26.635,0,0,1-1.145-8.18V-43.422a25.278,25.278,0,0,1,1.228-8.32,10.317,10.317,0,0,1,4.216-5.444,14.864,14.864,0,0,1,8.124-1.926,15.728,15.728,0,0,1,7.9,1.675,9.451,9.451,0,0,1,4.1,4.634,17.97,17.97,0,0,1,1.228,6.924v2.9h-9.771V-46.66a17.1,17.1,0,0,0-.2-2.68,3.691,3.691,0,0,0-.893-1.982,2.958,2.958,0,0,0-2.261-.754,2.9,2.9,0,0,0-2.345.865,4.267,4.267,0,0,0-.921,2.15,17.8,17.8,0,0,0-.2,2.68v20.939a12.353,12.353,0,0,0,.307,2.82,4.312,4.312,0,0,0,1.117,2.122,3.136,3.136,0,0,0,2.317.81,3.249,3.249,0,0,0,2.4-.838,4.571,4.571,0,0,0,1.173-2.178,11.706,11.706,0,0,0,.335-2.848v-5.3h-4.076v-5.863h13.066V-13.27H273.62l-.558-3.741a8.116,8.116,0,0,1-2.624,3.155A7.832,7.832,0,0,1,265.747-12.6Zm22.67-.67V-58.5h20.325v6.812h-10.33v11.223h7.873v6.924h-7.873v13.512h10.441v6.756Zm26.913,0V-58.5h7.035l9.269,21.776V-58.5H339.9V-13.27h-6.756l-9.269-23.451V-13.27Z" transform="translate(68.734 160.985)"/></g></svg>